<svg width="21" height="20" viewBox="0 0 21 20" fill="none" xmlns="http://www.w3.org/2000/svg">
<path fill-rule="evenodd" clip-rule="evenodd" d="M12.6131 3.17303C13.5894 2.19672 15.1723 2.19672 16.1486 3.17303L17.3271 4.35154C18.3034 5.32785 18.3034 6.91076 17.3271 7.88707L8.66669 16.5475C8.55035 16.6638 8.40219 16.7431 8.24086 16.7754L3.82145 17.6593C3.23834 17.7759 2.72424 17.2618 2.84086 16.6787L3.72475 12.2593C3.75701 12.098 3.83631 11.9498 3.95264 11.8335L12.6131 3.17303ZM14.9701 4.35154L16.1486 5.53005C16.474 5.85549 16.474 6.38313 16.1486 6.70856L14.9701 7.88708L12.6131 5.53005L13.7916 4.35154C14.117 4.0261 14.6447 4.0261 14.9701 4.35154ZM11.4346 6.70857L5.30957 12.8336L4.72031 15.7798L7.66659 15.1906L13.7916 9.06559L11.4346 6.70857Z" fill="#BBB2E9"/>
</svg>
