<svg width="20" height="20" viewBox="0 0 20 20" fill="none" xmlns="http://www.w3.org/2000/svg">
<path fill-rule="evenodd" clip-rule="evenodd" d="M13.927 11.5046C14.6175 10.6433 15.0293 9.55319 15.0293 8.36228C15.0293 5.58485 12.7778 3.33329 10.0003 3.33329C7.22291 3.33329 4.97135 5.58485 4.97135 8.36228C4.97135 9.55308 5.38315 10.6431 6.07346 11.5044L6.07843 11.5106C6.22458 11.6927 6.35989 11.8844 6.50046 12.0707C6.74462 12.3944 7.08891 12.849 7.48894 13.3718C8.23439 14.3461 9.1656 15.5471 10.0009 16.5781C10.8389 15.5448 11.7722 14.342 12.5191 13.3665C12.9199 12.8431 13.2647 12.3881 13.5092 12.0641C13.6491 11.8787 13.7818 11.6858 13.927 11.5046ZM15.2299 12.549C15.2299 12.549 15.2284 12.5509 15.2274 12.5522C15.1848 12.6093 14.7929 13.1329 14.2251 13.8786C13.3826 14.9849 12.1529 16.5801 11.1016 17.866C10.5265 18.5695 9.47444 18.5692 8.89966 17.8655C7.1027 15.6654 4.77866 12.5538 4.77866 12.5538L4.77324 12.5471C3.85433 11.4008 3.30469 9.94571 3.30469 8.36228C3.30469 4.66437 6.30243 1.66663 10.0003 1.66663C13.6982 1.66663 16.696 4.66437 16.696 8.36228C16.696 9.34748 16.4832 10.283 16.1011 11.1253C15.8699 11.6349 15.5768 12.1104 15.2313 12.5422L15.2289 12.5453L15.2274 12.5471H15.2313L15.2299 12.549Z" fill="#6F767E"/>
<path fill-rule="evenodd" clip-rule="evenodd" d="M10 9.16671C10.4602 9.16671 10.8333 8.79361 10.8333 8.33337C10.8333 7.87314 10.4602 7.50004 10 7.50004C9.53976 7.50004 9.16667 7.87314 9.16667 8.33337C9.16667 8.79361 9.53976 9.16671 10 9.16671ZM12.5 8.33337C12.5 9.71409 11.3807 10.8334 10 10.8334C8.61929 10.8334 7.5 9.71409 7.5 8.33337C7.5 6.95266 8.61929 5.83337 10 5.83337C11.3807 5.83337 12.5 6.95266 12.5 8.33337Z" fill="#6F767E"/>
</svg>
