<svg width="20" height="20" viewBox="0 0 20 20" fill="none" xmlns="http://www.w3.org/2000/svg">
<circle cx="10.0003" cy="3.33333" r="2.58333" stroke="#6F767E" stroke-width="1.5"/>
<path d="M5.91667 12.5C5.91667 13.9267 4.76007 15.0833 3.33333 15.0833C1.9066 15.0833 0.75 13.9267 0.75 12.5C0.75 11.0732 1.9066 9.91663 3.33333 9.91663C4.76007 9.91663 5.91667 11.0732 5.91667 12.5Z" stroke="#6F767E" stroke-width="1.5"/>
<path d="M19.2497 12.5C19.2497 13.9267 18.0931 15.0833 16.6663 15.0833C15.2396 15.0833 14.083 13.9267 14.083 12.5C14.083 11.0732 15.2396 9.91663 16.6663 9.91663C18.0931 9.91663 19.2497 11.0732 19.2497 12.5Z" stroke="#6F767E" stroke-width="1.5"/>
<path fill-rule="evenodd" clip-rule="evenodd" d="M12.9948 4.7995C13.2118 4.35705 13.3337 3.85944 13.3337 3.33336C13.3337 3.31535 13.3335 3.29737 13.3333 3.27942C15.5944 4.40292 17.2081 6.63393 17.4646 9.26272C17.209 9.19998 16.9419 9.1667 16.667 9.1667C16.422 9.1667 16.1831 9.19314 15.9531 9.24333C15.7138 7.3414 14.5841 5.71662 12.9948 4.7995ZM13.9878 14.4835C12.9278 15.4269 11.531 16 10.0003 16C8.46971 16 7.07294 15.4269 6.01294 14.4835C5.71029 14.8916 5.31659 15.2282 4.86186 15.4632C6.20413 16.7262 8.01187 17.5 10.0003 17.5C11.9888 17.5 13.7966 16.7262 15.1388 15.4632C14.6841 15.2282 14.2904 14.8916 13.9878 14.4835ZM6.66744 3.27942C4.40633 4.40292 2.79264 6.63393 2.53613 9.26272C2.79167 9.19997 3.05879 9.1667 3.33368 9.1667C3.57873 9.1667 3.81761 9.19314 4.04761 9.24333C4.28695 7.34141 5.41656 5.71662 7.00593 4.7995C6.78888 4.35705 6.66702 3.85944 6.66702 3.33336C6.66702 3.31535 6.66716 3.29737 6.66744 3.27942Z" fill="#6F767E"/>
</svg>
