<svg width="16" height="16" viewBox="0 0 16 16" fill="none" xmlns="http://www.w3.org/2000/svg">
<path d="M14.6243 3.37846C14.3455 3.09878 14.0144 2.87687 13.6497 2.72545C13.2851 2.57404 12.8941 2.49609 12.4993 2.49609C12.1044 2.49609 11.7135 2.57404 11.3488 2.72545C10.9841 2.87687 10.653 3.09878 10.3743 3.37846L11.0843 4.08846C11.2704 3.90231 11.4914 3.75465 11.7346 3.65391C11.9778 3.55316 12.2385 3.50131 12.5018 3.50131C12.765 3.50131 13.0257 3.55316 13.2689 3.65391C13.5121 3.75465 13.7331 3.90231 13.9193 4.08846C14.1054 4.27461 14.2531 4.4956 14.3538 4.73881C14.4546 4.98203 14.5064 5.24271 14.5064 5.50596C14.5064 5.76921 14.4546 6.02989 14.3538 6.2731C14.2531 6.51632 14.1054 6.73731 13.9193 6.92346L9.91925 10.9235C9.54397 11.2994 9.03472 11.5109 8.50352 11.5113C7.97232 11.5118 7.4627 11.3012 7.08675 10.926C6.71081 10.5507 6.49934 10.0414 6.49887 9.51023C6.4984 8.97903 6.70897 8.4694 7.08425 8.09346L7.78925 7.38346L7.08425 6.67346L6.37425 7.38346C6.09457 7.66217 5.87266 7.99335 5.72125 8.358C5.56983 8.72266 5.49189 9.11362 5.49189 9.50846C5.49189 9.9033 5.56983 10.2943 5.72125 10.6589C5.87266 11.0236 6.09457 11.3547 6.37425 11.6335C6.94 12.192 7.70429 12.5031 8.49925 12.4985C8.89561 12.5001 9.28836 12.4232 9.65482 12.2721C10.0213 12.1211 10.3542 11.8989 10.6343 11.6185L14.6343 7.61846C15.1947 7.05463 15.5085 6.29139 15.5066 5.49639C15.5047 4.70139 15.1874 3.93963 14.6243 3.37846Z" fill="#6F767E"/>
<path d="M2.09425 12.4085C1.90755 12.2226 1.7594 12.0017 1.6583 11.7585C1.55721 11.5152 1.50517 11.2544 1.50517 10.991C1.50517 10.7275 1.55721 10.4667 1.6583 10.2234C1.7594 9.98019 1.90755 9.7593 2.09425 9.57346L6.09425 5.57346C6.28009 5.38676 6.50098 5.2386 6.74424 5.13751C6.98749 5.03642 7.24833 4.98438 7.51175 4.98438C7.77518 4.98438 8.03601 5.03642 8.27927 5.13751C8.52253 5.2386 8.74342 5.38676 8.92925 5.57346C9.11478 5.76076 9.26082 5.98339 9.35873 6.22817C9.45664 6.47294 9.50443 6.73488 9.49925 6.99846C9.50078 7.26286 9.44986 7.52494 9.34945 7.76954C9.24903 8.01414 9.10112 8.2364 8.91425 8.42346L7.85425 9.49846L8.56425 10.2085L9.62425 9.14846C10.1885 8.58421 10.5055 7.81893 10.5055 7.02096C10.5055 6.22299 10.1885 5.45771 9.62425 4.89346C9.06001 4.32921 8.29472 4.01222 7.49675 4.01222C6.69879 4.01222 5.9335 4.32921 5.36925 4.89346L1.36925 8.89346C1.08882 9.17226 0.866275 9.50375 0.714414 9.86887C0.562553 10.234 0.484375 10.6255 0.484375 11.021C0.484375 11.4164 0.562553 11.8079 0.714414 12.1731C0.866275 12.5382 1.08882 12.8697 1.36925 13.1485C1.93866 13.7027 2.7047 14.0084 3.49925 13.9985C4.3008 13.9992 5.07011 13.6829 5.63925 13.1185L4.92925 12.4085C4.74342 12.5952 4.52253 12.7433 4.27927 12.8444C4.03601 12.9455 3.77518 12.9975 3.51175 12.9975C3.24833 12.9975 2.98749 12.9455 2.74424 12.8444C2.50098 12.7433 2.28009 12.5952 2.09425 12.4085Z" fill="#6F767E"/>
</svg>
