<svg width="25" height="24" viewBox="0 0 25 24" fill="none" xmlns="http://www.w3.org/2000/svg">
<path d="M15.857 20.1758C16.2129 19.6278 15.7374 19 15.084 19H9.91595C9.26251 19 8.78703 19.6278 9.14294 20.1758C9.85604 21.2738 11.0932 22 12.5 22C13.9067 22 15.1439 21.2738 15.857 20.1758Z" fill="#857DB1"/>
<path d="M21.0858 17H3.90408C3.12863 17 2.5 16.3714 2.5 15.5959C2.5 15.2151 2.65471 14.8506 2.92864 14.586L3.95736 13.5924C4.34919 13.2139 4.56969 12.692 4.56791 12.1473L4.56086 9.99568C4.54641 5.58403 8.11873 2 12.5304 2C16.9319 2 20.5 5.5681 20.5 9.96958L20.5 12.1716C20.5 12.702 20.7107 13.2107 21.0858 13.5858L22.0858 14.5858C22.351 14.851 22.5 15.2107 22.5 15.5858C22.5 16.3668 21.8668 17 21.0858 17Z" fill="#857DB1"/>
</svg>
