<svg width="20" height="21" viewBox="0 0 20 21" fill="none" xmlns="http://www.w3.org/2000/svg">
<path fill-rule="evenodd" clip-rule="evenodd" d="M10 20.5C15.5228 20.5 20 16.0228 20 10.5C20 4.97715 15.5228 0.5 10 0.5C4.47715 0.5 0 4.97715 0 10.5C0 16.0228 4.47715 20.5 10 20.5ZM6.33238 12.0996C6.11126 11.5935 5.52174 11.3625 5.01565 11.5837C4.50957 11.8048 4.27855 12.3943 4.49967 12.9004C5.42463 15.0174 7.53804 16.5 9.99998 16.5C12.4619 16.5 14.5753 15.0174 15.5003 12.9004C15.7214 12.3943 15.4904 11.8048 14.9843 11.5837C14.4782 11.3625 13.8887 11.5935 13.6676 12.0996C13.0494 13.5145 11.6387 14.5 9.99998 14.5C8.36128 14.5 6.95054 13.5145 6.33238 12.0996ZM7 7.5C7 8.05228 6.55228 8.5 6 8.5C5.44772 8.5 5 8.05228 5 7.5C5 6.94772 5.44772 6.5 6 6.5C6.55228 6.5 7 6.94772 7 7.5ZM14 8.5C14.5523 8.5 15 8.05228 15 7.5C15 6.94772 14.5523 6.5 14 6.5C13.4477 6.5 13 6.94772 13 7.5C13 8.05228 13.4477 8.5 14 8.5Z" fill="#6F767E"/>
</svg>
