<svg width="40" height="40" viewBox="0 0 40 40" fill="none" xmlns="http://www.w3.org/2000/svg">
<rect x="0.5" y="0.5" width="39" height="39" rx="7.5" fill="#FF6A55"/>
<path d="M30.3042 25.3639H27.826C28.7347 25.3639 29.4781 24.6204 29.4781 23.7117V13.7987C29.4781 12.89 28.7347 12.1465 27.826 12.1465H14.4434L19.8955 17.6813L20.3912 17.4334V15.1204L24.026 18.7552L22.539 20.2421L29.3129 27.016H30.3042C30.7999 27.016 31.1303 26.6856 31.1303 26.19C31.1303 25.6943 30.7999 25.3639 30.3042 25.3639Z" fill="#EFEFEF"/>
<path d="M9.98261 10.2478C9.65217 9.91739 9.15652 9.91739 8.82609 10.2478C8.49565 10.5783 8.49565 11.0739 8.82609 11.4043L10.1478 12.7261C9.81739 12.9739 9.65217 13.387 9.65217 13.8V23.713C9.65217 24.6217 10.3957 25.3652 11.3043 25.3652H8.82609C8.33043 25.3652 8 25.6957 8 26.1913C8 26.687 8.33043 27.0174 8.82609 27.0174H24.6043L27.7435 30.0739C28.0739 30.4043 28.5696 30.4043 28.9 30.0739C29.2304 29.7435 29.2304 29.2478 28.9 28.9174L9.98261 10.2478ZM17.9957 20.4913C17.5826 20.5739 17.087 20.7391 16.7565 20.9043C16.1783 21.1522 15.5174 21.4826 15.0217 21.813C15.4348 21.2348 15.8478 20.6565 16.3435 20.1609L17.0043 19.5L17.9957 20.4913Z" fill="#EFEFEF"/>
<rect x="0.5" y="0.5" width="39" height="39" rx="7.5" stroke="#33383F"/>
</svg>
