<svg width="32" height="32" viewBox="0 0 32 32" fill="none" xmlns="http://www.w3.org/2000/svg">
<path fill-rule="evenodd" clip-rule="evenodd" d="M12.9428 20.9431C12.4221 21.4638 11.5779 21.4638 11.0572 20.9431C10.5365 20.4224 10.5365 19.5782 11.0572 19.0575L15.0572 15.0575C15.3165 14.7982 15.6561 14.668 15.996 14.667C15.9974 14.667 15.9987 14.667 16 14.667C16.0014 14.667 16.0027 14.667 16.004 14.667C16.1833 14.6675 16.3544 14.7035 16.5104 14.7682C16.6677 14.8332 16.815 14.9297 16.9428 15.0575L20.9428 19.0575C21.4635 19.5782 21.4635 20.4224 20.9428 20.9431C20.4221 21.4638 19.5779 21.4638 19.0572 20.9431L17.3334 19.2193V26.667C17.3334 27.4034 16.7364 28.0003 16 28.0003C15.2636 28.0003 14.6667 27.4034 14.6667 26.667V19.2193L12.9428 20.9431Z" fill="#FFBC99"/>
<path fill-rule="evenodd" clip-rule="evenodd" d="M11.4155 8.33231C12.8406 5.00142 16.1465 2.66699 20 2.66699C25.1547 2.66699 29.3334 6.84567 29.3334 12.0003C29.3334 14.7647 28.1299 17.2497 26.2226 18.9568C25.6739 19.4479 24.8309 19.4012 24.3398 18.8525C23.8487 18.3038 23.8954 17.4609 24.4441 16.9698C25.8102 15.7471 26.6667 13.9746 26.6667 12.0003C26.6667 8.31843 23.6819 5.33366 20 5.33366C16.8432 5.33366 14.196 7.52906 13.5077 10.4778C13.4092 10.8996 13.112 11.2473 12.7107 11.4102C12.3093 11.5731 11.8539 11.5308 11.4893 11.297C10.8679 10.8983 10.1297 10.667 9.33335 10.667C7.12422 10.667 5.33335 12.4579 5.33335 14.667C5.33335 16.1459 6.13524 17.439 7.33432 18.1327C7.97174 18.5014 8.18955 19.317 7.82083 19.9545C7.4521 20.5919 6.63647 20.8097 5.99905 20.441C4.00986 19.2903 2.66669 17.1363 2.66669 14.667C2.66669 10.9851 5.65146 8.00033 9.33335 8.00033C10.0595 8.00033 10.7598 8.11686 11.4155 8.33231Z" fill="#FFBC99"/>
</svg>
