<svg width="20" height="20" viewBox="0 0 20 20" fill="none" xmlns="http://www.w3.org/2000/svg">
<path d="M5 4.16667H11.6667C12.1269 4.16667 12.5 4.53976 12.5 5V5.83333H14.1667V5C14.1667 3.61929 13.0474 2.5 11.6667 2.5H5C3.61929 2.5 2.5 3.61929 2.5 5V11.6667C2.5 13.0474 3.61929 14.1667 5 14.1667H5.83333V12.5H5C4.53976 12.5 4.16667 12.1269 4.16667 11.6667V5C4.16667 4.53976 4.53976 4.16667 5 4.16667Z" fill="#BBB2E9"/>
<path fill-rule="evenodd" clip-rule="evenodd" d="M15 7.49967H8.33337C7.87314 7.49967 7.50004 7.87277 7.50004 8.33301V14.9997C7.50004 15.4599 7.87314 15.833 8.33337 15.833H15C15.4603 15.833 15.8334 15.4599 15.8334 14.9997V8.33301C15.8334 7.87277 15.4603 7.49967 15 7.49967ZM8.33337 5.83301C6.95266 5.83301 5.83337 6.9523 5.83337 8.33301V14.9997C5.83337 16.3804 6.95266 17.4997 8.33337 17.4997H15C16.3808 17.4997 17.5 16.3804 17.5 14.9997V8.33301C17.5 6.9523 16.3808 5.83301 15 5.83301H8.33337Z" fill="#BBB2E9"/>
</svg>
