<svg width="10" height="10" viewBox="0 0 10 10" fill="none" xmlns="http://www.w3.org/2000/svg">
<path d="M1.47114 0.52827C1.21079 0.26792 0.788682 0.26792 0.528332 0.52827C0.267983 0.788619 0.267982 1.21073 0.528332 1.47108L4.0569 4.99965L0.52827 8.52827C0.26792 8.78862 0.26792 9.21073 0.52827 9.47108C0.78862 9.73143 1.21073 9.73143 1.47108 9.47108L4.99971 5.94245L8.52834 9.47109C8.78868 9.73144 9.2108 9.73144 9.47115 9.47109C9.73149 9.21074 9.73149 8.78863 9.47115 8.52828L5.94251 4.99965L9.47108 1.47108C9.73143 1.21073 9.73143 0.78862 9.47108 0.528271C9.21073 0.267921 8.78862 0.267922 8.52827 0.528271L4.99971 4.05684L1.47114 0.52827Z" fill="#1A1D1F"/>
</svg>
