<svg width="16" height="16" viewBox="0 0 16 16" fill="none" xmlns="http://www.w3.org/2000/svg">
<path fill-rule="evenodd" clip-rule="evenodd" d="M14.6667 7.9987C14.6667 11.6806 11.6819 14.6654 8 14.6654C4.3181 14.6654 1.33334 11.6806 1.33334 7.9987C1.33334 4.3168 4.3181 1.33203 8 1.33203C11.6819 1.33203 14.6667 4.3168 14.6667 7.9987ZM8 7.33203C8.36819 7.33203 8.66667 7.63051 8.66667 7.9987V11.3326C8.66667 11.7008 8.36819 11.9993 8 11.9993C7.63181 11.9993 7.33334 11.7008 7.33334 11.3326V7.9987C7.33334 7.63051 7.63181 7.33203 8 7.33203ZM8 5.9987C8.36819 5.9987 8.66667 5.70022 8.66667 5.33203C8.66667 4.96384 8.36819 4.66536 8 4.66536C7.63181 4.66536 7.33334 4.96384 7.33334 5.33203C7.33334 5.70022 7.63181 5.9987 8 5.9987Z" fill="#6F767E"/>
</svg>
