<svg width="25" height="24" viewBox="0 0 25 24" fill="none" xmlns="http://www.w3.org/2000/svg">
<path d="M21.4997 7.5C21.9997 15 16.4997 21 9.4997 21C7.08779 21 4.67588 20.6768 2.78364 19.7706C2.35026 19.5631 2.51966 18.985 2.99911 18.9532C5.32919 18.7987 7.2574 18.2423 8.4997 17C3.0833 15.1945 2.149 8.4995 3.12199 5.00719C3.23623 4.59713 3.76936 4.59499 3.98425 4.96246C5.64573 7.80371 8.8049 9.39003 12.7643 9.02396C12.593 8.54804 12.4997 8.03492 12.4997 7.5C12.4997 5.01472 14.5144 3 16.9997 3C18.5179 3 19.8605 3.75182 20.6755 4.90346L22.3926 4.65815C22.8205 4.59703 23.1191 5.07087 22.8794 5.43047L21.4997 7.5Z" fill="#FCFCFC"/>
</svg>
