<svg width="32" height="32" viewBox="0 0 32 32" fill="none" xmlns="http://www.w3.org/2000/svg">
<path d="M15.5578 19.3324C15.3194 18.9204 14.8796 18.6667 14.4036 18.6667H7.21902L4.55208 15.9998L7.21734 13.3333H14.4036C14.8796 13.3333 15.3194 13.0796 15.5578 12.6676C16.7125 10.6715 18.8674 9.33333 21.3334 9.33333C25.0153 9.33333 28 12.3181 28 16C28 19.6819 25.0153 22.6667 21.3334 22.6667C18.8674 22.6667 16.7125 21.3285 15.5578 19.3324Z" stroke="#6BFBAB" stroke-width="2.66667" stroke-linecap="round" stroke-linejoin="round"/>
<path d="M22.6667 15.9997C22.6667 16.7361 22.0697 17.333 21.3334 17.333C20.597 17.333 20 16.7361 20 15.9997C20 15.2633 20.597 14.6663 21.3334 14.6663C22.0697 14.6663 22.6667 15.2633 22.6667 15.9997Z" stroke="#6BFBAB" stroke-width="2.66667"/>
</svg>
