<svg width="24" height="24" viewBox="0 0 24 24" fill="none" xmlns="http://www.w3.org/2000/svg">
<path fill-rule="evenodd" clip-rule="evenodd" d="M4.6862 12.2674L12.1958 4.75775C12.4022 4.55133 12.6886 4.44541 12.9796 4.4678L18.2324 4.87186C18.7242 4.90969 19.1149 5.30044 19.1528 5.79222L19.5568 11.045C19.5792 11.3361 19.4733 11.6224 19.2669 11.8288L11.7573 19.3384C11.3667 19.729 10.7336 19.729 10.3431 19.3384L4.6862 13.6816C4.29568 13.291 4.29568 12.6579 4.6862 12.2674ZM21.5509 10.8916C21.6181 11.7648 21.3004 12.6238 20.6811 13.243L13.1715 20.7526C11.9999 21.9242 10.1004 21.9242 8.92884 20.7526L3.27199 15.0958C2.10042 13.9242 2.10042 12.0247 3.27199 10.8531L10.7816 3.34353C11.4009 2.72427 12.2598 2.40652 13.133 2.47369L18.3858 2.87775C19.8611 2.99124 21.0334 4.16349 21.1469 5.63883L21.5509 10.8916Z" fill="#BBB2E9"/>
<path d="M14.5858 7.31825C14 7.90403 14 8.85378 14.5858 9.43957C15.1716 10.0254 16.1214 10.0254 16.7071 9.43957C17.2929 8.85378 17.2929 7.90403 16.7071 7.31825C16.1214 6.73246 15.1716 6.73246 14.5858 7.31825Z" fill="#BBB2E9"/>
<path fill-rule="evenodd" clip-rule="evenodd" d="M7.51482 13.6817L10.3432 16.5101C10.7338 16.9007 11.3669 16.9007 11.7575 16.5101C12.148 16.1196 12.148 15.4865 11.7575 15.0959L8.92903 12.2675C8.53851 11.877 7.90534 11.877 7.51482 12.2675C7.12429 12.658 7.12429 13.2912 7.51482 13.6817Z" fill="#BBB2E9"/>
</svg>
