<svg width="25" height="24" viewBox="0 0 25 24" fill="none" xmlns="http://www.w3.org/2000/svg">
<path fill-rule="evenodd" clip-rule="evenodd" d="M5.5 2C3.84315 2 2.5 3.34315 2.5 5V19C2.5 20.6569 3.84315 22 5.5 22H19.5C21.1569 22 22.5 20.6569 22.5 19V5C22.5 3.34315 21.1569 2 19.5 2H5.5ZM7.5 8C8.05228 8 8.5 7.55228 8.5 7C8.5 6.44772 8.05228 6 7.5 6C6.94772 6 6.5 6.44772 6.5 7C6.5 7.55228 6.94772 8 7.5 8ZM7.5 10C6.94772 10 6.5 10.4477 6.5 11V17C6.5 17.5523 6.94772 18 7.5 18C8.05228 18 8.5 17.5523 8.5 17V11C8.5 10.4477 8.05228 10 7.5 10ZM12.5 14C12.5 12.8954 13.3954 12 14.5 12C15.6046 12 16.5 12.8954 16.5 14V17C16.5 17.5523 16.9477 18 17.5 18C18.0523 18 18.5 17.5523 18.5 17V14C18.5 11.7909 16.7091 10 14.5 10C13.7346 10 13.0193 10.215 12.4114 10.5879C12.2544 10.2412 11.9054 10 11.5 10C10.9477 10 10.5 10.4477 10.5 11V17C10.5 17.5523 10.9477 18 11.5 18C12.0523 18 12.5 17.5523 12.5 17V14Z" fill="#FCFCFC"/>
</svg>
