<svg width="13" height="12" viewBox="0 0 13 12" fill="none" xmlns="http://www.w3.org/2000/svg">
<path d="M2.08934 0.410582C1.7639 0.0851447 1.23626 0.0851446 0.910826 0.410581C0.585389 0.736018 0.585389 1.26366 0.910826 1.58909L5.32158 5.99985L0.91085 10.4106C0.585413 10.736 0.585413 11.2637 0.91085 11.5891C1.23629 11.9145 1.76392 11.9145 2.08936 11.5891L6.50009 7.17836L10.9108 11.5891C11.2363 11.9145 11.7639 11.9145 12.0893 11.5891C12.4148 11.2637 12.4148 10.736 12.0893 10.4106L7.6786 5.99985L12.0894 1.58909C12.4148 1.26366 12.4148 0.73602 12.0894 0.410583C11.7639 0.0851457 11.2363 0.0851461 10.9109 0.410583L6.50009 4.82134L2.08934 0.410582Z" fill="#EFEFEF"/>
</svg>
