<svg width="21" height="20" viewBox="0 0 21 20" fill="none" xmlns="http://www.w3.org/2000/svg">
<path fill-rule="evenodd" clip-rule="evenodd" d="M14.5 12.7432V13.2004C14.5 14.5259 13.4255 15.6004 12.1 15.6004H4.9C3.57452 15.6004 2.5 14.5259 2.5 13.2004V6.80039C2.5 5.47491 3.57452 4.40039 4.9 4.40039H12.1C13.4255 4.40039 14.5 5.47491 14.5 6.80039V7.25753L15.97 6.20751C17.029 5.45109 18.5 6.20809 18.5 7.50949V12.4913C18.5 13.7927 17.029 14.5497 15.97 13.7933L14.5 12.7432ZM4.9 6.00039H12.1C12.5418 6.00039 12.9 6.35856 12.9 6.80039V13.2004C12.9 13.6422 12.5418 14.0004 12.1 14.0004H4.9C4.45817 14.0004 4.1 13.6422 4.1 13.2004V6.80039C4.1 6.35856 4.45817 6.00039 4.9 6.00039ZM14.5 10.777L16.9 12.4913V7.50949L14.5 9.22377V10.777Z" fill="#FCFCFC"/>
</svg>
