<svg width="28" height="28" viewBox="0 0 28 28" fill="none" xmlns="http://www.w3.org/2000/svg">
<path fill-rule="evenodd" clip-rule="evenodd" d="M13.9998 27.3332C21.3636 27.3332 27.3332 21.3636 27.3332 13.9998C27.3332 6.63604 21.3636 0.666504 13.9998 0.666504C6.63604 0.666504 0.666504 6.63604 0.666504 13.9998C0.666504 21.3636 6.63604 27.3332 13.9998 27.3332ZM13.9998 12.6665C14.7362 12.6665 13.9998 12.6665 15.3332 12.6665H19.3332C20.0696 12.6665 20.6665 13.2635 20.6665 13.9998C20.6665 14.7362 20.0696 15.3332 19.3332 15.3332H15.3332C13.9998 15.3332 14.7362 15.3332 13.9998 15.3332C13.2635 15.3332 13.9998 15.3332 12.6665 15.3332H8.6665C7.93012 15.3332 7.33317 14.7362 7.33317 13.9998C7.33317 13.2635 7.93012 12.6665 8.6665 12.6665H12.6665C12.6665 12.6665 13.2635 12.6665 13.9998 12.6665Z" fill="#BBB2E9"/>
</svg>
