<svg width="24" height="24" viewBox="0 0 24 24" fill="none" xmlns="http://www.w3.org/2000/svg">
<path fill-rule="evenodd" clip-rule="evenodd" d="M15.8101 14.3917C16.0443 14.2146 16.2525 14.003 16.4272 13.7626C16.7996 13.2501 17.0002 12.6328 17.0002 11.9992C17.0002 11.3657 16.7996 10.7484 16.4272 10.2359C16.2524 9.99534 16.044 9.78365 15.8097 9.60646C15.7527 9.56336 15.698 9.51658 15.6464 9.46665C15.599 9.42089 15.5542 9.37249 15.5124 9.32185C15.2478 9.00076 15.1079 8.59003 15.2362 8.19502C15.4069 7.66977 15.9783 7.3741 16.4592 7.64572C16.6529 7.75514 16.8389 7.87728 17.0161 8.01127M17.0161 8.01127C17.4064 8.3065 17.754 8.65949 18.0452 9.06032C18.6659 9.91456 19.0002 10.9434 19.0002 11.9992C19.0002 13.0551 18.6659 14.0839 18.0452 14.9382C17.7539 15.3391 17.4066 15.692 17.0161 15.9872C16.8389 16.1212 16.6529 16.2434 16.4592 16.3528C15.9783 16.6244 15.4069 16.3287 15.2362 15.8035C15.1079 15.4085 15.2478 14.9977 15.5124 14.6766C15.5542 14.626 15.599 14.5776 15.6464 14.5318C15.698 14.4819 15.7531 14.4348 15.8101 14.3917" fill="#EFEFEF"/>
<path fill-rule="evenodd" clip-rule="evenodd" d="M17.8876 17.2601C18.6588 16.8366 19.3317 16.2464 19.8542 15.5273C20.5989 14.5022 21.0001 13.2676 21.0001 12.0006C21.0001 10.7335 20.5989 9.49893 19.8542 8.47384C19.3064 7.71993 18.5935 7.10776 17.7752 6.68088C17.7739 6.68021 17.7726 6.67955 17.7713 6.67888C17.7359 6.66023 17.7015 6.63999 17.6682 6.61831C17.6321 6.59476 17.5973 6.56949 17.564 6.54267C17.2063 6.25467 17.0188 5.78754 17.1632 5.34316C17.3339 4.8179 17.9017 4.52486 18.4015 4.75968C18.5022 4.80697 18.6018 4.85631 18.7002 4.90766C19.7912 5.47681 20.7418 6.29301 21.4722 7.29827C22.4652 8.66505 23.0001 10.3111 23.0001 12.0006C23.0001 13.69 22.4652 15.3361 21.4722 16.7028C20.7418 17.7081 19.7912 18.5243 18.7002 19.0934C18.6018 19.1448 18.5022 19.1941 18.4015 19.2414C17.9017 19.4762 17.3339 19.1832 17.1632 18.6579C17.0188 18.2136 17.2063 17.7464 17.564 17.4584C17.5973 17.4316 17.6321 17.4063 17.6682 17.3828C17.7015 17.3611 17.7359 17.3409 17.7713 17.3222C17.7726 17.3216 17.7739 17.3209 17.7752 17.3202C17.8129 17.3006 17.8503 17.2805 17.8876 17.2601Z" fill="#EFEFEF"/>
<path fill-rule="evenodd" clip-rule="evenodd" d="M6 15.0007C6.48445 15.0007 6.95243 15.1765 7.31701 15.4955L12 19.5931L12 4.40819L7.31701 8.50581C6.95243 8.82482 6.48445 9.00065 6 9.00065H4C3.44772 9.00065 3 9.44837 3 10.0007V14.0007C3 14.5529 3.44772 15.0007 4 15.0007H6ZM6 17.0007L10.683 21.0983C11.9762 22.2298 14 21.3114 14 19.5931V4.40819C14 2.68987 11.9762 1.77151 10.683 2.90303L6 7.00065H4C2.34315 7.00065 1 8.3438 1 10.0007V14.0007C1 15.6575 2.34315 17.0007 4 17.0007H6Z" fill="#EFEFEF"/>
</svg>
