<svg width="24" height="24" viewBox="0 0 24 24" fill="none" xmlns="http://www.w3.org/2000/svg">
<rect width="24" height="24" rx="4.36364" fill="white"/>
<path d="M11.1751 6.8627V16.0918H8.60928V12.3871H5.48055V16.0918H2.91473V6.8627H5.48055V10.3318H8.60928V6.8627H11.1751ZM16.2958 6.8627C17.2645 6.8627 18.1111 7.05907 18.8354 7.4518C19.5685 7.8358 20.1314 8.37689 20.5242 9.07507C20.9169 9.77325 21.1132 10.5718 21.1132 11.4707C21.1132 12.3609 20.9125 13.1551 20.5111 13.8533C20.1183 14.5514 19.5554 15.1013 18.8223 15.5027C18.098 15.8954 17.2558 16.0918 16.2958 16.0918H12.6434V6.8627H16.2958ZM16.0994 13.8271C16.85 13.8271 17.4391 13.622 17.8667 13.2118C18.2943 12.8016 18.5082 12.2213 18.5082 11.4707C18.5082 10.7114 18.2943 10.1267 17.8667 9.71652C17.4391 9.29761 16.85 9.08816 16.0994 9.08816H15.2092V13.8271H16.0994Z" fill="#111315"/>
</svg>
