<svg width="24" height="24" viewBox="0 0 24 24" fill="none" xmlns="http://www.w3.org/2000/svg">
<path fill-rule="evenodd" clip-rule="evenodd" d="M20.6813 13.243C21.3006 12.6238 21.6184 11.7648 21.5512 10.8916L21.1471 5.63883C21.0336 4.16349 19.8614 2.99124 18.3861 2.87775L13.1333 2.47369C12.2601 2.40652 11.4011 2.72427 10.7818 3.34353L3.27223 10.8531C2.10066 12.0247 2.10066 13.9242 3.27223 15.0958L8.92909 20.7526C10.1007 21.9242 12.0002 21.9242 13.1717 20.7526L20.6813 13.243ZM14.5861 7.31763C14.0003 7.90342 14.0003 8.85317 14.5861 9.43895C15.1719 10.0247 16.1216 10.0247 16.7074 9.43895C17.2932 8.85317 17.2932 7.90342 16.7074 7.31763C16.1216 6.73185 15.1719 6.73185 14.5861 7.31763ZM10.3435 16.51L7.51509 13.6816C7.12456 13.2911 7.12456 12.6579 7.51509 12.2674C7.90561 11.8769 8.53878 11.8769 8.9293 12.2674L11.7577 15.0958C12.1483 15.4863 12.1483 16.1195 11.7577 16.51C11.3672 16.9005 10.734 16.9005 10.3435 16.51Z" fill="#BBB2E9"/>
</svg>
