<svg width="25" height="24" viewBox="0 0 25 24" fill="none" xmlns="http://www.w3.org/2000/svg">
<path fill-rule="evenodd" clip-rule="evenodd" d="M12.5 15C13.0523 15 13.5 14.5523 13.5 14V9.00001C13.5 8.44772 13.0523 8.00001 12.5 8.00001C11.9477 8.00001 11.5 8.44772 11.5 9.00001V14C11.5 14.5523 11.9477 15 12.5 15Z" fill="#FF6A55"/>
<path fill-rule="evenodd" clip-rule="evenodd" d="M20.1736 17.5049L13.3686 5.56395C12.985 4.89079 12.0146 4.89079 11.631 5.56395L4.82603 17.5049C4.44612 18.1716 4.92755 19 5.69485 19H19.3048C20.0721 19 20.5535 18.1716 20.1736 17.5049ZM15.1063 4.5737C13.9554 2.55421 11.0442 2.55421 9.89335 4.5737L3.08839 16.5147C1.94865 18.5146 3.39293 21 5.69485 21H19.3048C21.6067 21 23.051 18.5146 21.9113 16.5147L15.1063 4.5737Z" fill="#FF6A55"/>
<path d="M13.5 17C13.5 17.5523 13.0523 18 12.5 18C11.9477 18 11.5 17.5523 11.5 17C11.5 16.4477 11.9477 16 12.5 16C13.0523 16 13.5 16.4477 13.5 17Z" fill="#FF6A55"/>
</svg>
