<svg width="25" height="24" viewBox="0 0 25 24" fill="none" xmlns="http://www.w3.org/2000/svg">
<path d="M8.62695 3C8.62695 2.44772 8.17924 2 7.62695 2C7.07467 2 6.62695 2.44772 6.62695 3V4H5.62695C3.9701 4 2.62695 5.34315 2.62695 7V19C2.62695 20.6569 3.9701 22 5.62695 22H14.3092C13.5391 21.488 12.894 20.8028 12.4296 20H5.62695C5.07467 20 4.62695 19.5523 4.62695 19V7C4.62695 6.44772 5.07467 6 5.62695 6H6.62695V7C6.62695 7.55228 7.07467 8 7.62695 8C8.17924 8 8.62695 7.55228 8.62695 7V6H16.627V7C16.627 7.55228 17.0747 8 17.627 8C18.1792 8 18.627 7.55228 18.627 7V6H19.627C20.1792 6 20.627 6.44771 20.627 7V11.8027C21.4297 12.2671 22.1149 12.9121 22.627 13.6822V7C22.627 5.34315 21.2838 4 19.627 4H18.627V3C18.627 2.44772 18.1792 2 17.627 2C17.0747 2 16.627 2.44772 16.627 3V4H8.62695V3Z" fill="#BBB2E9"/>
<path fill-rule="evenodd" clip-rule="evenodd" d="M17.627 21C19.8361 21 21.627 19.2091 21.627 17C21.627 14.7909 19.8361 13 17.627 13C15.4178 13 13.627 14.7909 13.627 17C13.627 19.2091 15.4178 21 17.627 21ZM17.627 23C20.9407 23 23.627 20.3137 23.627 17C23.627 13.6863 20.9407 11 17.627 11C14.3132 11 11.627 13.6863 11.627 17C11.627 20.3137 14.3132 23 17.627 23Z" fill="#BBB2E9"/>
<path fill-rule="evenodd" clip-rule="evenodd" d="M17.627 14C18.1792 14 18.627 14.4477 18.627 15V16.5858L19.3341 17.2929C19.7246 17.6834 19.7246 18.3166 19.3341 18.7071C18.9435 19.0976 18.3104 19.0976 17.9198 18.7071L16.9198 17.7071C16.7323 17.5196 16.627 17.2652 16.627 17V15C16.627 14.4477 17.0747 14 17.627 14Z" fill="#BBB2E9"/>
</svg>
