<svg width="16" height="16" viewBox="0 0 16 16" fill="none" xmlns="http://www.w3.org/2000/svg">
<g clip-path="url(#clip0_11092_18421)">
<path d="M3.58887 10.5678V12.2608C3.58887 12.5725 3.84152 12.8251 4.15319 12.8251H12.0537C12.3654 12.8251 12.6181 12.5725 12.6181 12.2608V10.5678C12.6181 9.32117 11.6074 8.31055 10.3608 8.31055H5.84617C4.59949 8.31055 3.58887 9.32117 3.58887 10.5678Z" fill="#EFEFEF"/>
<path d="M13.7389 12.4368C13.7189 12.6305 13.8558 12.8251 14.0506 12.8251H15.4409C15.7526 12.8251 16.0052 12.5725 16.0052 12.2608V10.5678C16.0052 9.32117 14.9946 8.31055 13.7479 8.31055H13.2013C13.0794 8.31055 13.0125 8.45711 13.085 8.55513C13.5016 9.11777 13.7479 9.81404 13.7479 10.5678V12.2608C13.7479 12.3202 13.7448 12.3789 13.7389 12.4368Z" fill="#EFEFEF"/>
<path d="M2.26698 12.4368C2.28699 12.6305 2.15002 12.8251 1.95528 12.8251H0.564976C0.253309 12.8251 0.000652075 12.5725 0.000652075 12.2608V10.5678C0.000652075 9.32117 1.01128 8.31055 2.25795 8.31055H2.80451C2.92647 8.31055 2.9934 8.45711 2.92083 8.55513C2.50428 9.11777 2.25795 9.81404 2.25795 10.5678V12.2608C2.25795 12.3202 2.26101 12.3789 2.26698 12.4368Z" fill="#EFEFEF"/>
<path d="M11.1237 7.15103C10.9314 7.11964 10.8658 6.8924 10.9698 6.72762C11.2993 6.20529 11.49 5.58657 11.49 4.92331C11.49 4.26006 11.2993 3.64134 10.9698 3.11901C10.8658 2.95423 10.9314 2.72698 11.1237 2.6956C11.2429 2.67614 11.3653 2.66602 11.49 2.66602C12.7367 2.66602 13.7473 3.67664 13.7473 4.92331C13.7473 6.16998 12.7367 7.18061 11.49 7.18061C11.3653 7.18061 11.2429 7.17049 11.1237 7.15103Z" fill="#EFEFEF"/>
<path d="M10.3583 4.92331C10.3583 6.16998 9.34772 7.18061 8.10105 7.18061C6.85438 7.18061 5.84375 6.16998 5.84375 4.92331C5.84375 3.67664 6.85438 2.66602 8.10105 2.66602C9.34772 2.66602 10.3583 3.67664 10.3583 4.92331Z" fill="#EFEFEF"/>
<path d="M4.88221 7.15103C5.07449 7.11964 5.14006 6.8924 5.0361 6.72762C4.70653 6.20529 4.51582 5.58657 4.51582 4.92331C4.51582 4.26006 4.70653 3.64134 5.0361 3.11901C5.14006 2.95423 5.07449 2.72698 4.88221 2.6956C4.76296 2.67614 4.64057 2.66602 4.51582 2.66602C3.26915 2.66602 2.25853 3.67664 2.25853 4.92331C2.25853 6.16998 3.26915 7.18061 4.51582 7.18061C4.64057 7.18061 4.76296 7.17049 4.88221 7.15103Z" fill="#EFEFEF"/>
</g>
<defs>
<clipPath id="clip0_11092_18421">
<rect width="16" height="16" fill="white"/>
</clipPath>
</defs>
</svg>
