<svg width="24" height="24" viewBox="0 0 24 24" fill="none" xmlns="http://www.w3.org/2000/svg">
<path d="M4.66107 10.5281C4.61512 10.9047 4.59882 11.2844 4.59882 11.6681V13.8161V15.4342H4.5988C4.59869 15.8633 4.24678 16.1708 3.84964 16.1903L3.84876 16.1903C3.42707 16.2086 3.08779 15.8274 3.08779 15.436V15.164V11.8593C3.08779 11.2927 3.11418 10.7307 3.19822 10.1629L3.19826 10.1627C3.33587 9.24459 3.63548 8.35457 4.05741 7.53322C4.88189 5.92534 6.24105 4.57625 7.85987 3.77395C9.59221 2.90886 11.5602 2.64456 13.46 3.00934L4.66107 10.5281ZM4.66107 10.5281C4.75231 9.9213 4.9131 9.32799 5.14334 8.75951M4.66107 10.5281L5.14334 8.75951M5.14334 8.75951C5.29154 8.41319 5.46517 8.07794 5.66247 7.7573C5.76362 7.59469 5.86865 7.43617 5.97955 7.2797C6.00815 7.23967 6.03891 7.19928 6.07134 7.15671L6.07139 7.15676L6.07408 7.15299C6.07678 7.14922 6.08014 7.14489 6.08609 7.13732L6.08676 7.13647C6.0905 7.1317 6.09545 7.12541 6.1006 7.1185C6.15345 7.05222 6.20681 6.98605 6.25993 6.92297C6.50925 6.63013 6.77825 6.35524 7.06689 6.10019L7.06722 6.09989C7.13762 6.03732 7.21035 5.97636 7.28369 5.9169L7.28369 5.9169L7.28457 5.91618C7.3005 5.90306 7.31659 5.89028 7.33388 5.87655L7.33437 5.87616C7.34167 5.87036 7.34919 5.86439 7.35685 5.85826C7.36687 5.85073 7.37643 5.84331 7.38551 5.83615C7.40271 5.823 7.4152 5.81337 7.42389 5.80659C7.42648 5.80457 7.42896 5.80263 7.43127 5.80081C7.58336 5.68719 7.73723 5.58073 7.8963 5.47967L7.8967 5.47941C8.24885 5.25412 8.61952 5.05944 9.00357 4.89377C9.5757 4.66294 10.1727 4.4996 10.7831 4.40801C11.4361 4.32723 12.0991 4.32726 12.7521 4.40809C13.3604 4.49923 13.955 4.66021 14.5248 4.89095C14.8711 5.03916 15.2063 5.21279 15.527 5.4101C15.6896 5.51123 15.8481 5.61624 16.0045 5.72712C16.0446 5.75574 16.085 5.78651 16.1276 5.81895L16.1275 5.81901L16.1313 5.8217C16.1351 5.8244 16.1394 5.82776 16.147 5.83371L16.1478 5.8344C16.1526 5.83814 16.1589 5.84308 16.1658 5.84822C16.232 5.90105 16.2982 5.95439 16.3613 6.0075C16.6541 6.25684 16.929 6.52584 17.1841 6.81451L17.1844 6.81484C17.247 6.88524 17.3079 6.95797 17.3674 7.03131L17.3681 7.03219C17.3812 7.04812 17.394 7.06421 17.4077 7.0815L17.4082 7.08205C17.414 7.08933 17.4199 7.09684 17.426 7.10447C17.4335 7.11443 17.4409 7.12393 17.448 7.13296C17.4612 7.15025 17.4709 7.16279 17.4777 7.17151C17.4797 7.1741 17.4817 7.17659 17.4835 7.17891C17.5971 7.33099 17.7036 7.48486 17.8046 7.64392L17.8049 7.64432C18.0302 7.99645 18.2248 8.36711 18.3905 8.75114C18.6215 9.3237 18.7849 9.92117 18.8765 10.532C18.9476 11.109 18.9437 11.6912 18.9397 12.2838C18.9388 12.4212 18.9378 12.5592 18.9378 12.6977V15.4502C18.9378 15.5036 18.9381 15.5566 18.9384 15.6091C18.9396 15.8459 18.9408 16.0745 18.9166 16.3009C18.8794 16.5257 18.8192 16.7444 18.7369 16.9574C18.6623 17.1238 18.5745 17.2828 18.4734 17.4344C18.4445 17.4778 18.4159 17.519 18.3859 17.5599C18.3786 17.569 18.3711 17.5782 18.3632 17.5879L18.3648 17.5892C18.3632 17.5916 18.3613 17.5944 18.3596 17.5972L18.3554 17.6043L18.3517 17.6112C18.3504 17.6138 18.3479 17.6191 18.3453 17.626C18.344 17.6295 18.3422 17.635 18.3405 17.6418C18.3389 17.648 18.3364 17.6598 18.3361 17.675C18.3361 17.682 18.3373 17.6977 18.3387 17.7064C18.3412 17.7172 18.3497 17.7406 18.356 17.7528C18.3621 17.7623 18.3752 17.7773 18.3872 17.7892C18.3478 17.8327 18.3071 17.8753 18.2657 17.9166C18.2253 17.9571 18.1836 17.9963 18.1411 18.0347C18.1403 18.0339 18.1395 18.033 18.1387 18.0322C18.1163 18.0087 18.0909 17.997 18.0714 17.9914C18.0526 17.9861 18.0366 17.9855 18.0266 17.9857C18.0161 17.9859 18.0076 17.9872 18.0018 17.9883C17.9907 17.9904 17.9822 17.9934 17.9779 17.995C17.9746 17.9962 17.9715 17.9975 17.9689 17.9986C17.9647 18.0004 17.9617 18.002 17.9602 18.0028L17.9525 18.007C17.9479 18.0097 17.9434 18.0127 17.9398 18.015L17.9383 18.0131C17.9377 18.0135 17.9371 18.014 17.9365 18.0145M5.14334 8.75951L18.3652 17.5887L18.3636 17.5874C18.3006 17.6637 18.2314 17.7388 18.1597 17.8105C18.0893 17.8808 18.0145 17.9481 17.9365 18.0145M17.9365 18.0145C17.9268 18.0223 17.9195 18.0283 17.9134 18.0334M17.9365 18.0145C17.9359 18.015 17.9354 18.0154 17.9348 18.0159L17.9362 18.0175L17.9214 18.0277L17.9206 18.0283L17.9134 18.0334M18.4793 17.6829C18.4708 17.6932 18.4621 17.7036 18.4533 17.7139C18.4423 17.7054 18.4322 17.6965 18.4259 17.6892C18.4153 17.6726 18.4021 17.6405 18.3988 17.6259C18.3984 17.6231 18.3981 17.6197 18.3978 17.6162L18.4793 17.6829ZM18.4793 17.6829C18.4862 17.6745 18.4928 17.6664 18.4991 17.6584C18.5011 17.6561 18.503 17.6537 18.5048 17.6514C18.5127 17.6407 18.5205 17.6299 18.5282 17.6192C18.5432 17.5982 18.5579 17.5771 18.5725 17.5557C18.5718 17.5552 18.5711 17.5546 18.5704 17.5541C18.5557 17.5452 18.5255 17.5334 18.5107 17.5302C18.4982 17.5286 18.4757 17.5285 18.4658 17.5295C18.4579 17.5308 18.4442 17.5341 18.4382 17.536C18.4349 17.5371 18.4319 17.5382 18.429 17.5394C18.4289 17.5394 18.4288 17.5395 18.4286 17.5395C18.4204 17.543 18.4142 17.5464 18.4104 17.5486C18.4083 17.5499 18.4063 17.5511 18.4044 17.5523C18.4043 17.5526 18.4042 17.553 18.4041 17.5533C18.4032 17.5562 18.4014 17.5626 18.4005 17.5662C18.3997 17.5698 18.3984 17.5774 18.3976 17.5834C18.3976 17.5838 18.3975 17.5843 18.3975 17.5847C18.3973 17.5857 18.3972 17.5867 18.3971 17.5875C18.3968 17.5935 18.397 17.6054 18.3978 17.6156L18.4793 17.6829ZM18.032 18.1302L17.9669 18.0488C17.97 18.0492 17.9731 18.0497 17.9764 18.0502C17.9959 18.0538 18.0259 18.0633 18.053 18.089C18.0562 18.0923 18.0602 18.0971 18.0644 18.1025C18.0536 18.1117 18.0428 18.121 18.032 18.1302ZM18.032 18.1302L17.9625 18.0484C17.9517 18.0475 17.9426 18.0479 17.9361 18.0485C17.9357 18.0485 17.9354 18.0486 17.9351 18.0486C17.9342 18.0487 17.9334 18.0488 17.9326 18.0489C17.923 18.05 17.9154 18.0518 17.9105 18.0532C17.908 18.0538 17.9057 18.0545 17.9036 18.0552C17.9006 18.0599 17.8966 18.0667 17.8929 18.0752C17.8929 18.0752 17.8929 18.0752 17.8929 18.0752C17.8918 18.0776 17.8906 18.0805 17.8894 18.0839C17.8873 18.0895 17.8852 18.0963 17.8835 18.1042C17.8808 18.1165 17.8782 18.1364 17.8822 18.1605C17.8842 18.1702 17.8904 18.1903 17.8948 18.2004C17.8977 18.206 17.9029 18.2141 17.9084 18.2219C17.92 18.2135 17.9316 18.2051 17.9433 18.1967C17.9516 18.1907 17.9599 18.1848 17.9681 18.1788C17.9681 18.1788 17.9682 18.1788 17.9682 18.1788C17.9809 18.1696 17.9936 18.1605 18.0061 18.1516C18.0066 18.1511 18.0072 18.1507 18.0077 18.1502C18.0087 18.1494 18.0096 18.1486 18.0106 18.1478C18.0178 18.1418 18.0249 18.1359 18.032 18.1302ZM17.3033 18.3918C17.3297 18.3816 17.3561 18.3711 17.3823 18.3603L17.4381 18.4947C17.5713 18.4312 17.701 18.3595 17.8248 18.279C17.8206 18.2729 17.8169 18.267 17.8145 18.2625C17.8095 18.2509 17.8029 18.228 17.801 18.217C17.7977 18.1909 17.8019 18.17 17.805 18.1586C17.8063 18.1538 17.8078 18.1494 17.8092 18.1455L17.7917 18.121L17.7929 18.1201M17.3033 18.3918C17.4743 18.3149 17.6391 18.2247 17.7929 18.1201M17.3033 18.3918C17.2809 18.4019 17.2584 18.4117 17.2357 18.4214L17.2924 18.556M17.3033 18.3918C17.0927 18.4728 16.8764 18.5321 16.6543 18.5691M17.7929 18.1201C17.7934 18.1198 17.7939 18.1194 17.7944 18.1191L17.8104 18.1425C17.8122 18.1379 17.8139 18.1342 17.8153 18.1313C17.8208 18.1202 17.8265 18.1122 17.829 18.1088C17.8345 18.1014 17.8395 18.0961 17.8411 18.0943L17.8468 18.0885C17.8514 18.0841 17.8563 18.0798 17.8596 18.077L17.8738 18.0651L17.8811 18.059L17.8813 18.0593C17.8924 18.0512 17.8995 18.0452 17.9091 18.0371C17.9105 18.0359 17.9119 18.0347 17.9134 18.0334M17.7929 18.1201L17.8556 18.075L17.9134 18.0334M17.2924 18.556L12.7439 19.3517M17.2924 18.556C17.1116 18.6215 16.9266 18.672 16.7375 18.7068M17.2924 18.556L16.7375 18.7068M16.6543 18.5691C16.3754 18.599 16.092 18.5959 15.8011 18.5927C15.71 18.5917 15.6181 18.5907 15.5253 18.5907H13.8892H13.4983C13.1069 18.5907 12.7257 18.93 12.7439 19.3517M16.6543 18.5691C16.6754 18.5668 16.6965 18.5643 16.7176 18.5617L16.7375 18.7068M16.6543 18.5691C16.6349 18.5723 16.6154 18.5754 16.5958 18.5783C16.5818 18.5802 16.5676 18.5822 16.5532 18.5843L16.5734 18.7273C16.3151 18.7485 16.0531 18.7456 15.7932 18.7427C15.7035 18.7417 15.6142 18.7407 15.5253 18.7407H13.8892H13.4983C13.1819 18.7407 12.8797 19.0188 12.8938 19.3452M12.7439 19.3517L12.8938 19.3452M12.7439 19.3517L16.7375 18.7068M12.8938 19.3452C12.9079 19.6737 13.1598 19.9497 13.4983 19.9497H16.2487C17.083 19.9497 17.9252 19.7079 18.6023 19.2142M12.8938 19.3452L12.7439 19.3517C12.7611 19.7504 13.0698 20.0997 13.4983 20.0997H16.2487C17.1108 20.0997 17.9849 19.85 18.6906 19.3354L18.6908 19.3353C19.5127 18.734 20.1306 17.8654 20.3488 16.8541L20.3488 16.8539C20.4509 16.3789 20.4509 15.9101 20.4509 15.4494V15.4422V13.7314V12.0207C20.4509 11.9853 20.4509 11.9499 20.451 11.9145C20.4513 11.53 20.4516 11.1387 20.4139 10.7469C20.4139 10.7469 20.4139 10.7469 20.4139 10.7469L18.6023 19.2142M18.6023 19.2142C19.3982 18.6319 19.9926 17.7937 20.2022 16.8224L18.6023 19.2142ZM19.6702 7.9296C19.3004 7.09957 18.7854 6.33675 18.1773 5.66726C16.9468 4.3117 15.2596 3.35408 13.4601 3.00936L19.6702 7.9296ZM7.23099 5.77211C7.23008 5.77102 7.2292 5.76992 7.22834 5.76882C7.23243 5.76557 7.23652 5.76232 7.24062 5.75907C7.24467 5.75584 7.24873 5.75262 7.25279 5.74939L7.30579 5.82069C7.28314 5.81436 7.25484 5.80087 7.23099 5.77211ZM17.5122 6.97861C17.5133 6.9777 17.5144 6.97682 17.5155 6.97595C17.5187 6.98005 17.522 6.98414 17.5252 6.98823C17.5284 6.99229 17.5317 6.99635 17.5349 7.00041L17.4636 7.0534C17.4699 7.03075 17.4834 7.00246 17.5122 6.97861ZM17.5659 7.04014L17.5665 7.0396L17.5659 7.04014ZM18.8422 17.0871C18.7785 17.2214 18.7063 17.351 18.6256 17.4759L18.8422 17.0871Z" fill="white" stroke="white" stroke-width="0.3"/>
<path d="M18.5061 15.5985H18.7752H18.7752C18.7829 15.5985 18.7904 15.5984 18.7978 15.5982C18.8076 15.5958 18.8174 15.5931 18.8271 15.5903C18.8442 15.5808 18.8621 15.5703 18.8817 15.5587C18.8832 15.5573 18.8846 15.5559 18.8861 15.5545L18.9023 15.5364C18.9047 15.5322 18.907 15.5281 18.9092 15.5241C18.9159 15.5123 18.9221 15.5014 18.9278 15.491C18.9309 15.4805 18.9337 15.47 18.9363 15.4593C18.9425 15.3551 18.9404 15.2501 18.9381 15.1391C18.9368 15.079 18.9355 15.0171 18.9355 14.9526V12.6877V11.6822C18.9355 11.6285 18.9366 11.5776 18.9376 11.5286C18.9395 11.4419 18.9412 11.361 18.9366 11.2803C18.9338 11.2686 18.9307 11.257 18.9273 11.2455C18.9178 11.2283 18.9074 11.2105 18.8958 11.1909C18.8943 11.1894 18.8929 11.1879 18.8915 11.1865L18.8734 11.1703C18.8692 11.1679 18.8651 11.1656 18.8612 11.1633C18.8493 11.1567 18.8384 11.1505 18.828 11.1447C18.8191 11.1421 18.8102 11.1397 18.8011 11.1375C18.7583 11.1358 18.7146 11.1362 18.667 11.1366C18.6443 11.1368 18.6207 11.137 18.5959 11.137H17.6367C17.5651 11.137 17.4963 11.1355 17.4292 11.1341C17.305 11.1313 17.187 11.1288 17.0688 11.1361C17.0574 11.1389 17.0461 11.142 17.0348 11.1453C17.0176 11.1548 16.9998 11.1652 16.9802 11.1768C16.9787 11.1782 16.9772 11.1797 16.9758 11.1811L16.9596 11.1992C16.9572 11.2034 16.9549 11.2074 16.9526 11.2114C16.9459 11.2232 16.9398 11.2341 16.934 11.2445C16.931 11.255 16.9282 11.2656 16.9256 11.2762C16.9193 11.3805 16.9215 11.4854 16.9238 11.5964C16.925 11.6565 16.9263 11.7185 16.9263 11.783V14.0479V15.0533C16.9263 15.1071 16.9253 15.1579 16.9242 15.207C16.9224 15.2936 16.9207 15.3745 16.9252 15.4553C16.9281 15.4669 16.9312 15.4785 16.9346 15.4901C16.9441 15.5072 16.9545 15.525 16.9661 15.5447C16.9675 15.5461 16.969 15.5476 16.9704 15.549L18.5061 15.5985ZM18.5061 15.5985L18.5061 15.5985H18.7752C18.7821 15.5985 18.7889 15.5986 18.7957 15.5988M18.5061 15.5985L18.5332 15.6424C18.6106 15.6149 18.6919 15.5996 18.7733 15.5985L18.7734 15.604C18.774 15.6038 18.7746 15.6037 18.7752 15.6036C18.7752 15.6036 18.7752 15.6036 18.7752 15.6036C18.7821 15.6021 18.7889 15.6005 18.7957 15.5988M18.7957 15.5988C18.8006 15.5989 18.8056 15.5991 18.8105 15.5993" fill="white" stroke="white" stroke-width="0.3"/>
<path d="M6.18839 15.5985H6.44855H6.44856C6.45624 15.5985 6.46377 15.5984 6.47117 15.5982C6.48094 15.5958 6.4907 15.5931 6.50045 15.5903C6.51756 15.5808 6.53541 15.5703 6.55503 15.5587C6.5565 15.5573 6.55796 15.5559 6.55941 15.5545L6.57563 15.5364C6.578 15.5322 6.58031 15.5281 6.58257 15.5241C6.58926 15.5123 6.59543 15.5014 6.60118 15.491C6.60421 15.4805 6.60703 15.47 6.60962 15.4593C6.61588 15.3551 6.6137 15.2501 6.6114 15.1391C6.61015 15.079 6.60887 15.0171 6.60887 14.9526V12.6877V11.6822C6.60887 11.6285 6.60994 11.5776 6.61098 11.5286C6.61281 11.4419 6.61451 11.361 6.60996 11.2803C6.60712 11.2686 6.60401 11.257 6.60062 11.2455C6.59114 11.2283 6.58069 11.2105 6.56909 11.1909C6.56767 11.1894 6.56625 11.1879 6.56483 11.1865L6.54673 11.1703C6.54253 11.1679 6.53846 11.1656 6.53449 11.1633C6.52268 11.1567 6.51178 11.1505 6.50138 11.1447C6.49247 11.1421 6.4835 11.1397 6.47447 11.1375C6.43165 11.1358 6.38798 11.1362 6.34039 11.1366C6.31767 11.1368 6.29406 11.137 6.26922 11.137H5.31008C5.23846 11.137 5.16961 11.1355 5.10255 11.1341C4.97835 11.1313 4.8603 11.1288 4.74214 11.1361C4.73076 11.1389 4.71942 11.142 4.70809 11.1453C4.69098 11.1548 4.67313 11.1652 4.65351 11.1768C4.65204 11.1782 4.65058 11.1797 4.64913 11.1811L4.63291 11.1992C4.63053 11.2034 4.62822 11.2074 4.62597 11.2114C4.61928 11.2232 4.6131 11.2341 4.60735 11.2445C4.60432 11.255 4.60151 11.2656 4.59892 11.2762C4.59266 11.3805 4.59483 11.4854 4.59714 11.5964C4.59839 11.6565 4.59967 11.7185 4.59967 11.783V14.0479V15.0533C4.59967 15.1071 4.5986 15.1579 4.59756 15.207C4.59573 15.2936 4.59402 15.3745 4.59858 15.4553C4.60142 15.4669 4.60453 15.4785 4.60792 15.4901C4.6174 15.5072 4.62784 15.525 4.63944 15.5447C4.64087 15.5461 4.64229 15.5476 4.64371 15.549L6.18839 15.5985ZM6.18839 15.5985L6.18838 15.5985H6.44855C6.45542 15.5985 6.46225 15.5986 6.46906 15.5988M6.18839 15.5985L6.21257 15.6403C6.28814 15.6141 6.3673 15.5995 6.44665 15.5985L6.44672 15.604C6.44733 15.6038 6.44794 15.6037 6.44855 15.6036C6.44855 15.6036 6.44855 15.6036 6.44856 15.6036C6.4554 15.6021 6.46224 15.6005 6.46906 15.5988M6.46906 15.5988C6.47399 15.5989 6.47891 15.5991 6.48381 15.5993" fill="white" stroke="white" stroke-width="0.3"/>
<mask id="path-4-outside-1_11484_54894" maskUnits="userSpaceOnUse" x="8.03613" y="16.5614" width="7" height="5" fill="black">
<rect fill="white" x="8.03613" y="16.5614" width="7" height="5"/>
<path d="M12.3224 19.9138H11.5064C11.2243 19.9138 10.926 19.938 10.6439 19.9017C10.6983 19.9098 10.7507 19.9158 10.8051 19.9239C10.7064 19.9098 10.6117 19.8836 10.521 19.8453L10.6661 19.9058C10.6016 19.8776 10.5392 19.8453 10.4787 19.807C10.4646 19.797 10.4505 19.7869 10.4344 19.7768C10.3639 19.7305 10.4968 19.8211 10.4948 19.8232C10.4888 19.8272 10.4122 19.7486 10.4082 19.7446C10.384 19.7204 10.3618 19.6922 10.3377 19.668C10.2913 19.6237 10.4183 19.7829 10.384 19.7284C10.3739 19.7143 10.3639 19.7002 10.3538 19.6861C10.3115 19.6237 10.2772 19.5572 10.249 19.4887L10.3094 19.6337C10.2732 19.5411 10.247 19.4464 10.2309 19.3496C10.2389 19.404 10.245 19.4564 10.253 19.5108C10.2389 19.4 10.2389 19.2892 10.253 19.1784C10.245 19.2328 10.2389 19.2852 10.2309 19.3396C10.245 19.2408 10.2712 19.1461 10.3094 19.0554L10.249 19.2005C10.2772 19.136 10.3094 19.0736 10.3477 19.0131C10.3578 18.999 10.3679 18.9849 10.378 18.9688C10.4243 18.8983 10.3336 19.0313 10.3316 19.0293C10.3276 19.0232 10.4062 18.9466 10.4102 18.9426C10.4344 18.9184 10.4626 18.8963 10.4868 18.8721C10.5311 18.8257 10.3719 18.9527 10.4263 18.9184C10.4404 18.9083 10.4545 18.8983 10.4686 18.8882C10.5311 18.8459 10.5976 18.8116 10.6661 18.7834C10.6177 18.8036 10.5694 18.8237 10.521 18.8439C10.6137 18.8076 10.7084 18.7814 10.8051 18.7653C10.7507 18.7733 10.6983 18.7794 10.6439 18.7874C10.9442 18.7492 11.2625 18.7754 11.5668 18.7754C11.8691 18.7754 12.1874 18.7471 12.4897 18.7874C12.4353 18.7794 12.3829 18.7733 12.3285 18.7653C12.4272 18.7794 12.5219 18.8056 12.6126 18.8439C12.5642 18.8237 12.5159 18.8036 12.4675 18.7834C12.532 18.8116 12.5945 18.8439 12.6549 18.8822C12.669 18.8922 12.6831 18.9023 12.6992 18.9124C12.7698 18.9587 12.6368 18.868 12.6388 18.866C12.6448 18.862 12.7214 18.9406 12.7254 18.9446C12.7496 18.9688 12.7718 18.997 12.796 19.0212C12.8423 19.0655 12.7154 18.9063 12.7496 18.9607C12.7597 18.9748 12.7698 18.9889 12.7798 19.003C12.8222 19.0655 12.8564 19.132 12.8846 19.2005L12.8242 19.0554C12.8605 19.1481 12.8866 19.2428 12.9028 19.3396C12.8947 19.2851 12.8887 19.2328 12.8806 19.1784C12.8947 19.2892 12.8947 19.4 12.8806 19.5108C12.8887 19.4564 12.8947 19.404 12.9028 19.3496C12.8887 19.4484 12.8625 19.5431 12.8242 19.6337L12.8846 19.4887C12.8564 19.5531 12.8242 19.6156 12.7859 19.6761C12.7758 19.6902 12.7657 19.7043 12.7557 19.7204C12.7093 19.7909 12.8 19.6579 12.802 19.6599C12.806 19.666 12.7275 19.7426 12.7234 19.7466C12.6993 19.7708 12.671 19.7929 12.6469 19.8171C12.6025 19.8635 12.7617 19.7365 12.7073 19.7708C12.6932 19.7808 12.6791 19.7909 12.665 19.801C12.6025 19.8433 12.536 19.8776 12.4675 19.9058L12.6126 19.8453C12.5199 19.8816 12.4252 19.9078 12.3285 19.9239C12.3829 19.9158 12.4353 19.9098 12.4897 19.9017C12.4333 19.9098 12.3789 19.9138 12.3224 19.9138C12.0061 19.9179 11.7038 20.1899 11.718 20.5183C11.7321 20.8427 11.9839 21.1269 12.3224 21.1228C12.9572 21.1148 13.5738 20.7722 13.878 20.206C14.1803 19.6498 14.1803 18.9365 13.8317 18.3985C13.4972 17.8806 12.935 17.5663 12.3184 17.5623C12.0787 17.5603 11.8369 17.5623 11.5971 17.5623H10.8253C10.2228 17.5643 9.69896 17.8545 9.34631 18.334C8.96145 18.8579 8.95338 19.5612 9.21936 20.1355C9.49139 20.7198 10.0979 21.0744 10.7266 21.1188C10.9523 21.1349 11.182 21.1208 11.4076 21.1208H12.2681H12.3225C12.6388 21.1208 12.9411 20.8427 12.927 20.5163C12.9128 20.1899 12.661 19.9138 12.3225 19.9138L12.3224 19.9138Z"/>
</mask>
<path d="M12.3224 19.9138H11.5064C11.2243 19.9138 10.926 19.938 10.6439 19.9017C10.6983 19.9098 10.7507 19.9158 10.8051 19.9239C10.7064 19.9098 10.6117 19.8836 10.521 19.8453L10.6661 19.9058C10.6016 19.8776 10.5392 19.8453 10.4787 19.807C10.4646 19.797 10.4505 19.7869 10.4344 19.7768C10.3639 19.7305 10.4968 19.8211 10.4948 19.8232C10.4888 19.8272 10.4122 19.7486 10.4082 19.7446C10.384 19.7204 10.3618 19.6922 10.3377 19.668C10.2913 19.6237 10.4183 19.7829 10.384 19.7284C10.3739 19.7143 10.3639 19.7002 10.3538 19.6861C10.3115 19.6237 10.2772 19.5572 10.249 19.4887L10.3094 19.6337C10.2732 19.5411 10.247 19.4464 10.2309 19.3496C10.2389 19.404 10.245 19.4564 10.253 19.5108C10.2389 19.4 10.2389 19.2892 10.253 19.1784C10.245 19.2328 10.2389 19.2852 10.2309 19.3396C10.245 19.2408 10.2712 19.1461 10.3094 19.0554L10.249 19.2005C10.2772 19.136 10.3094 19.0736 10.3477 19.0131C10.3578 18.999 10.3679 18.9849 10.378 18.9688C10.4243 18.8983 10.3336 19.0313 10.3316 19.0293C10.3276 19.0232 10.4062 18.9466 10.4102 18.9426C10.4344 18.9184 10.4626 18.8963 10.4868 18.8721C10.5311 18.8257 10.3719 18.9527 10.4263 18.9184C10.4404 18.9083 10.4545 18.8983 10.4686 18.8882C10.5311 18.8459 10.5976 18.8116 10.6661 18.7834C10.6177 18.8036 10.5694 18.8237 10.521 18.8439C10.6137 18.8076 10.7084 18.7814 10.8051 18.7653C10.7507 18.7733 10.6983 18.7794 10.6439 18.7874C10.9442 18.7492 11.2625 18.7754 11.5668 18.7754C11.8691 18.7754 12.1874 18.7471 12.4897 18.7874C12.4353 18.7794 12.3829 18.7733 12.3285 18.7653C12.4272 18.7794 12.5219 18.8056 12.6126 18.8439C12.5642 18.8237 12.5159 18.8036 12.4675 18.7834C12.532 18.8116 12.5945 18.8439 12.6549 18.8822C12.669 18.8922 12.6831 18.9023 12.6992 18.9124C12.7698 18.9587 12.6368 18.868 12.6388 18.866C12.6448 18.862 12.7214 18.9406 12.7254 18.9446C12.7496 18.9688 12.7718 18.997 12.796 19.0212C12.8423 19.0655 12.7154 18.9063 12.7496 18.9607C12.7597 18.9748 12.7698 18.9889 12.7798 19.003C12.8222 19.0655 12.8564 19.132 12.8846 19.2005L12.8242 19.0554C12.8605 19.1481 12.8866 19.2428 12.9028 19.3396C12.8947 19.2851 12.8887 19.2328 12.8806 19.1784C12.8947 19.2892 12.8947 19.4 12.8806 19.5108C12.8887 19.4564 12.8947 19.404 12.9028 19.3496C12.8887 19.4484 12.8625 19.5431 12.8242 19.6337L12.8846 19.4887C12.8564 19.5531 12.8242 19.6156 12.7859 19.6761C12.7758 19.6902 12.7657 19.7043 12.7557 19.7204C12.7093 19.7909 12.8 19.6579 12.802 19.6599C12.806 19.666 12.7275 19.7426 12.7234 19.7466C12.6993 19.7708 12.671 19.7929 12.6469 19.8171C12.6025 19.8635 12.7617 19.7365 12.7073 19.7708C12.6932 19.7808 12.6791 19.7909 12.665 19.801C12.6025 19.8433 12.536 19.8776 12.4675 19.9058L12.6126 19.8453C12.5199 19.8816 12.4252 19.9078 12.3285 19.9239C12.3829 19.9158 12.4353 19.9098 12.4897 19.9017C12.4333 19.9098 12.3789 19.9138 12.3224 19.9138C12.0061 19.9179 11.7038 20.1899 11.718 20.5183C11.7321 20.8427 11.9839 21.1269 12.3224 21.1228C12.9572 21.1148 13.5738 20.7722 13.878 20.206C14.1803 19.6498 14.1803 18.9365 13.8317 18.3985C13.4972 17.8806 12.935 17.5663 12.3184 17.5623C12.0787 17.5603 11.8369 17.5623 11.5971 17.5623H10.8253C10.2228 17.5643 9.69896 17.8545 9.34631 18.334C8.96145 18.8579 8.95338 19.5612 9.21936 20.1355C9.49139 20.7198 10.0979 21.0744 10.7266 21.1188C10.9523 21.1349 11.182 21.1208 11.4076 21.1208H12.2681H12.3225C12.6388 21.1208 12.9411 20.8427 12.927 20.5163C12.9128 20.1899 12.661 19.9138 12.3225 19.9138L12.3224 19.9138Z" fill="white"/>
<path d="M12.3224 19.9138V20.2138H12.3546L12.3861 20.207L12.3224 19.9138ZM10.6439 19.9017L10.6822 19.6042L10.6 20.1985L10.6439 19.9017ZM10.8051 19.9239L10.7627 20.2209L10.8491 19.6271L10.8051 19.9239ZM10.521 19.8453L10.6364 19.5684L10.4043 20.1217L10.521 19.8453ZM10.6661 19.9058L10.5507 20.1827L10.7863 19.6309L10.6661 19.9058ZM10.4787 19.807L10.3043 20.0512L10.3111 20.056L10.3182 20.0605L10.4787 19.807ZM10.4344 19.7768L10.2696 20.0276L10.2754 20.0312L10.4344 19.7768ZM10.4948 19.8232L10.6612 20.0728L10.686 20.0563L10.707 20.0353L10.4948 19.8232ZM10.4082 19.7446L10.6203 19.5324L10.4082 19.7446ZM10.3377 19.668L10.5498 19.4558L10.545 19.4512L10.3377 19.668ZM10.384 19.7284L10.6379 19.5686L10.6332 19.5612L10.6281 19.5541L10.384 19.7284ZM10.3538 19.6861L10.1053 19.8544L10.1097 19.8605L10.3538 19.6861ZM10.249 19.4887L10.5259 19.3733L9.9716 19.6029L10.249 19.4887ZM10.3094 19.6337L10.0325 19.7491L10.5888 19.5244L10.3094 19.6337ZM10.2309 19.3496L10.5268 19.3003L9.9341 19.3936L10.2309 19.3496ZM10.253 19.5108L9.95626 19.5548L10.5506 19.473L10.253 19.5108ZM10.253 19.1784L10.5506 19.2162L9.95626 19.1344L10.253 19.1784ZM10.2309 19.3396L9.93388 19.2971L10.5276 19.3835L10.2309 19.3396ZM10.3094 19.0554L10.5864 19.1708L10.0331 18.9388L10.3094 19.0554ZM10.249 19.2005L9.97207 19.0851L10.5238 19.3208L10.249 19.2005ZM10.3477 19.0131L10.1036 18.8388L10.0988 18.8456L10.0943 18.8526L10.3477 19.0131ZM10.378 18.9688L10.1272 18.804L10.1236 18.8098L10.378 18.9688ZM10.3316 19.0293L10.082 19.1957L10.0985 19.2204L10.1195 19.2414L10.3316 19.0293ZM10.4102 18.9426L10.1981 18.7305L10.4102 18.9426ZM10.4868 18.8721L10.699 19.0842L10.7036 19.0794L10.4868 18.8721ZM10.4263 18.9184L10.5862 19.1723L10.5936 19.1676L10.6007 19.1625L10.4263 18.9184ZM10.4686 18.8882L10.3003 18.6397L10.2943 18.6441L10.4686 18.8882ZM10.6661 18.7834L10.7815 19.0603L10.5519 18.506L10.6661 18.7834ZM10.521 18.8439L10.4056 18.5669L10.6303 19.1232L10.521 18.8439ZM10.8051 18.7653L10.8545 19.0612L10.7612 18.4685L10.8051 18.7653ZM10.6439 18.7874L10.6 18.4907L10.6819 19.085L10.6439 18.7874ZM12.4897 18.7874L12.45 19.0848L12.5337 18.4907L12.4897 18.7874ZM12.3285 18.7653L12.3709 18.4683L12.2845 19.062L12.3285 18.7653ZM12.6126 18.8439L12.4972 19.1208L12.7293 18.5675L12.6126 18.8439ZM12.4675 18.7834L12.5829 18.5065L12.3473 19.0583L12.4675 18.7834ZM12.6549 18.8822L12.8293 18.638L12.8225 18.6332L12.8154 18.6287L12.6549 18.8822ZM12.6992 18.9124L12.864 18.6616L12.8582 18.658L12.6992 18.9124ZM12.6388 18.866L12.4724 18.6164L12.4477 18.6329L12.4267 18.6539L12.6388 18.866ZM12.7254 18.9446L12.9376 18.7325L12.7254 18.9446ZM12.796 19.0212L12.5838 19.2334L12.5886 19.238L12.796 19.0212ZM12.7496 18.9607L12.4958 19.1206L12.5004 19.128L12.5055 19.1351L12.7496 18.9607ZM12.7798 19.003L13.0283 18.8347L13.024 18.8287L12.7798 19.003ZM12.8846 19.2005L12.6077 19.3159L13.162 19.0863L12.8846 19.2005ZM12.8242 19.0554L13.1011 18.9401L12.5448 19.1648L12.8242 19.0554ZM12.9028 19.3396L12.6068 19.3889L13.1995 19.2956L12.9028 19.3396ZM12.8806 19.1784L13.1774 19.1344L12.583 19.2162L12.8806 19.1784ZM12.8806 19.5108L12.583 19.473L13.1774 19.5548L12.8806 19.5108ZM12.9028 19.3496L13.1998 19.3921L12.606 19.3057L12.9028 19.3496ZM12.8242 19.6337L12.5473 19.5184L13.1006 19.7504L12.8242 19.6337ZM12.8846 19.4887L13.1616 19.604L12.6098 19.3684L12.8846 19.4887ZM12.7859 19.6761L13.03 19.8504L13.0349 19.8436L13.0393 19.8366L12.7859 19.6761ZM12.7557 19.7204L13.0064 19.8852L13.0101 19.8794L12.7557 19.7204ZM12.802 19.6599L13.0516 19.4935L13.0352 19.4688L13.0141 19.4478L12.802 19.6599ZM12.7234 19.7466L12.5113 19.5345L12.7234 19.7466ZM12.6469 19.8171L12.4347 19.6049L12.4301 19.6097L12.6469 19.8171ZM12.7073 19.7708L12.5475 19.5169L12.5401 19.5216L12.5329 19.5266L12.7073 19.7708ZM12.665 19.801L12.8333 20.0494L12.8394 20.0451L12.665 19.801ZM12.4675 19.9058L12.3521 19.6288L12.5818 20.1832L12.4675 19.9058ZM12.6126 19.8453L12.728 20.1222L12.5033 19.5659L12.6126 19.8453ZM12.3285 19.9239L12.2792 19.628L12.3725 20.2207L12.3285 19.9239ZM12.4897 19.9017L12.5337 20.1985L12.4473 19.6048L12.4897 19.9017ZM12.3224 19.9138V19.6138L12.3186 19.6139L12.3224 19.9138ZM11.718 20.5183L11.4182 20.5312L11.4182 20.5314L11.718 20.5183ZM12.3224 21.1228L12.326 21.4228L12.3263 21.4228L12.3224 21.1228ZM13.878 20.206L13.6144 20.0627L13.6138 20.064L13.878 20.206ZM13.8317 18.3985L13.5797 18.5613L13.5799 18.5616L13.8317 18.3985ZM12.3184 17.5623L12.3159 17.8623L12.3165 17.8623L12.3184 17.5623ZM10.8253 17.5623V17.2623L10.8243 17.2623L10.8253 17.5623ZM9.34631 18.334L9.10462 18.1563L9.10453 18.1564L9.34631 18.334ZM9.21936 20.1355L8.94714 20.2615L8.94739 20.2621L9.21936 20.1355ZM10.7266 21.1188L10.748 20.8196L10.7477 20.8195L10.7266 21.1188ZM12.927 20.5163L12.6272 20.5293L12.6272 20.5293L12.927 20.5163ZM12.3225 19.9138V19.6138H12.2902L12.2587 19.6207L12.3225 19.9138ZM12.3224 19.6138H11.5064V20.2138H12.3224V19.6138ZM11.5064 19.6138C11.19 19.6138 10.9392 19.6372 10.6822 19.6042L10.6057 20.1993C10.9128 20.2388 11.2585 20.2138 11.5064 20.2138V19.6138ZM10.6 20.1985C10.6299 20.2029 10.6589 20.2068 10.6853 20.2102C10.7123 20.2138 10.7367 20.217 10.7612 20.2207L10.8491 19.6271C10.8192 19.6227 10.7902 19.6189 10.7638 19.6154C10.7368 19.6118 10.7124 19.6086 10.6879 19.605L10.6 20.1985ZM10.8476 19.6269C10.774 19.6164 10.7043 19.5971 10.6377 19.5689L10.4043 20.1217C10.5191 20.1701 10.6388 20.2032 10.7627 20.2209L10.8476 19.6269ZM10.4056 20.1222L10.5507 20.1827L10.7815 19.6288L10.6364 19.5684L10.4056 20.1222ZM10.7863 19.6309C10.7337 19.6079 10.685 19.5826 10.6392 19.5536L10.3182 20.0605C10.3934 20.1081 10.4696 20.1473 10.5459 20.1806L10.7863 19.6309ZM10.6531 19.5629C10.6397 19.5534 10.6185 19.5381 10.5934 19.5224L10.2754 20.0312C10.2825 20.0357 10.2895 20.0406 10.3043 20.0512L10.6531 19.5629ZM10.5991 19.5261C10.5905 19.5204 10.5823 19.5151 10.576 19.5112C10.5743 19.5101 10.5716 19.5084 10.5683 19.5064C10.5683 19.5064 10.5569 19.4995 10.5425 19.4926C10.5383 19.4906 10.5287 19.4862 10.5162 19.4817C10.5099 19.4794 10.4992 19.4757 10.4856 19.4724C10.4745 19.4696 10.4475 19.4635 10.4125 19.4636C10.3871 19.4638 10.2923 19.4665 10.209 19.5444C10.1067 19.6399 10.1079 19.7613 10.119 19.8197C10.129 19.8723 10.1508 19.9087 10.158 19.9206C10.1679 19.9366 10.1773 19.9484 10.1824 19.9547C10.1995 19.9754 10.2161 19.9894 10.2165 19.9898C10.2212 19.9939 10.2251 19.997 10.2269 19.9985C10.2385 20.0077 10.2601 20.0228 10.2655 20.0267C10.2781 20.0356 10.2906 20.0445 10.2999 20.0512C10.3049 20.0548 10.3062 20.0559 10.3053 20.0551C10.3048 20.0548 10.3036 20.0538 10.302 20.0525C10.3006 20.0513 10.2971 20.0485 10.2927 20.0445C10.2908 20.0428 10.2779 20.0313 10.2638 20.0144C10.2589 20.0085 10.238 19.9835 10.2211 19.9457C10.2127 19.927 10.1961 19.8855 10.1949 19.8296C10.1935 19.7655 10.2135 19.6803 10.2827 19.611L10.707 20.0353C10.7762 19.966 10.7962 19.8808 10.7948 19.8166C10.7936 19.7607 10.777 19.719 10.7686 19.7003C10.7516 19.6624 10.7305 19.6372 10.7254 19.6311C10.711 19.6136 10.6975 19.6016 10.6947 19.5991C10.6856 19.5909 10.6774 19.5844 10.6746 19.5822C10.667 19.5763 10.6588 19.5703 10.6528 19.5659C10.6398 19.5565 10.6239 19.5452 10.6123 19.537C10.5936 19.5238 10.5953 19.5248 10.6018 19.53C10.6033 19.5312 10.6069 19.5341 10.6114 19.538C10.6117 19.5383 10.6281 19.5521 10.6451 19.5727C10.6503 19.5789 10.6596 19.5907 10.6695 19.6068C10.6767 19.6186 10.6985 19.655 10.7085 19.7076C10.7196 19.766 10.7208 19.8873 10.6185 19.9829C10.5352 20.0607 10.4405 20.0635 10.4151 20.0636C10.357 20.0639 10.3129 20.0462 10.3115 20.0457C10.299 20.0411 10.2895 20.0367 10.2854 20.0348C10.2765 20.0306 10.2699 20.0269 10.2679 20.0257C10.265 20.0241 10.2627 20.0228 10.2616 20.0221C10.2593 20.0207 10.2577 20.0198 10.2576 20.0197C10.2576 20.0197 10.2606 20.0216 10.2696 20.0275L10.5991 19.5261ZM10.3284 19.5735C10.4072 19.521 10.4854 19.5211 10.5224 19.5246C10.5612 19.5283 10.5902 19.5388 10.6037 19.5442C10.6313 19.5551 10.6502 19.5677 10.6549 19.5708C10.6624 19.5757 10.6675 19.5797 10.6695 19.5812C10.6718 19.583 10.6732 19.5842 10.6734 19.5844C10.6736 19.5846 10.6724 19.5835 10.6693 19.5807C10.6664 19.578 10.6629 19.5747 10.6588 19.5708C10.6411 19.5537 10.6262 19.5383 10.6203 19.5324L10.1961 19.9567C10.1942 19.9549 10.2196 19.9808 10.2427 20.003C10.2539 20.0138 10.2697 20.0287 10.2853 20.0419C10.2918 20.0474 10.3062 20.0595 10.3242 20.0714C10.3315 20.0763 10.3528 20.0901 10.3821 20.1018C10.3965 20.1075 10.4263 20.1182 10.4657 20.122C10.5034 20.1255 10.5821 20.1255 10.6612 20.0728L10.3284 19.5735ZM10.6203 19.5324C10.6158 19.528 10.6103 19.5219 10.5976 19.5075C10.5871 19.4957 10.5695 19.4756 10.5498 19.4559L10.1255 19.8801C10.13 19.8846 10.1355 19.8907 10.1482 19.9051C10.1587 19.9169 10.1764 19.937 10.1961 19.9567L10.6203 19.5324ZM10.545 19.4512C10.5397 19.4461 10.5295 19.4365 10.5168 19.4265C10.511 19.4219 10.4981 19.412 10.4805 19.4017C10.4717 19.3965 10.4564 19.3881 10.4362 19.3803C10.4191 19.3737 10.3794 19.3599 10.3266 19.3601C10.2983 19.3602 10.2611 19.3644 10.2206 19.3798C10.1785 19.3959 10.1383 19.4221 10.1051 19.4588C10.0398 19.531 10.0291 19.6108 10.0276 19.6487C10.026 19.6885 10.0328 19.7195 10.0365 19.7341C10.0407 19.751 10.0456 19.7643 10.0488 19.7725C10.0553 19.7887 10.0618 19.8011 10.0651 19.8071C10.0689 19.8142 10.0725 19.8201 10.075 19.8242C10.084 19.8388 10.0937 19.8521 10.0995 19.86C10.1064 19.8693 10.1138 19.879 10.1208 19.8878C10.1278 19.8967 10.1353 19.9059 10.1425 19.9145C10.1487 19.9219 10.1584 19.9333 10.169 19.9442C10.172 19.9473 10.1761 19.9515 10.1812 19.9563C10.1855 19.9603 10.1944 19.9685 10.2064 19.9777C10.2124 19.9823 10.2226 19.9897 10.2359 19.9977C10.2468 20.0041 10.2735 20.0193 10.311 20.0294C10.3306 20.0348 10.3611 20.0409 10.3987 20.0398C10.4375 20.0386 10.4884 20.0294 10.54 19.9996C10.5932 19.9689 10.6311 19.9253 10.655 19.8802C10.6775 19.8378 10.6853 19.7986 10.6882 19.7721C10.6911 19.7452 10.6899 19.7228 10.6883 19.7078C10.6866 19.6923 10.684 19.6795 10.6819 19.6702C10.6776 19.6522 10.6725 19.6382 10.6695 19.6303C10.6633 19.6144 10.6571 19.6023 10.6542 19.5967C10.6478 19.5846 10.6415 19.5744 10.6379 19.5686L10.1301 19.8883C10.1301 19.8882 10.1295 19.8873 10.1285 19.8856C10.1276 19.8841 10.1256 19.8806 10.123 19.8758C10.1217 19.8733 10.1199 19.8697 10.1179 19.8654C10.1159 19.8612 10.113 19.8547 10.1099 19.8467C10.1083 19.8425 10.1064 19.8373 10.1044 19.8313C10.1025 19.8253 10.1001 19.8175 10.0979 19.8082C10.0958 19.7991 10.0932 19.7864 10.0916 19.7711C10.0908 19.7632 10.0901 19.754 10.09 19.7436C10.0898 19.7333 10.0902 19.721 10.0917 19.7072C10.0932 19.6935 10.0959 19.6772 10.1009 19.6593C10.1059 19.6413 10.1134 19.6208 10.1248 19.5994C10.1362 19.5778 10.1514 19.5555 10.1713 19.5344C10.1912 19.5132 10.2142 19.4949 10.2397 19.4802C10.265 19.4655 10.2906 19.4557 10.315 19.4494C10.3391 19.4432 10.3614 19.4406 10.3807 19.4401C10.3999 19.4395 10.4169 19.4408 10.4311 19.4428C10.4453 19.4448 10.4578 19.4476 10.4681 19.4504C10.4882 19.4558 10.5042 19.4624 10.5151 19.4675C10.5264 19.4727 10.5355 19.4777 10.5422 19.4817C10.549 19.4858 10.5548 19.4895 10.5592 19.4926C10.5637 19.4957 10.5675 19.4985 10.5706 19.5009C10.5766 19.5055 10.5814 19.5095 10.5846 19.5123C10.5879 19.5151 10.5906 19.5176 10.5925 19.5194C10.5963 19.523 10.599 19.5258 10.6004 19.5272C10.6031 19.53 10.6045 19.5316 10.6041 19.5312C10.6039 19.531 10.6032 19.5301 10.6018 19.5285C10.5992 19.5254 10.5956 19.521 10.5918 19.5162C10.588 19.5113 10.5847 19.507 10.5825 19.504C10.5814 19.5025 10.581 19.5019 10.5811 19.5021C10.5812 19.5022 10.5815 19.5027 10.5822 19.5037C10.5827 19.5045 10.5838 19.5062 10.5853 19.5086C10.5867 19.5108 10.5891 19.5149 10.5921 19.5204C10.5937 19.5232 10.5957 19.5271 10.598 19.5318C10.6002 19.5363 10.6032 19.5429 10.6065 19.5511C10.6081 19.5552 10.6101 19.5603 10.612 19.5662C10.614 19.5721 10.6162 19.5794 10.6184 19.588C10.6205 19.5964 10.6229 19.6075 10.6247 19.6207C10.6264 19.6336 10.6279 19.6513 10.6271 19.6723C10.6263 19.6931 10.623 19.7217 10.6124 19.7541C10.6014 19.7873 10.5823 19.8258 10.5498 19.8616C10.5337 19.8794 10.5155 19.8952 10.4955 19.9087C10.4755 19.9222 10.4549 19.9326 10.4345 19.9404C10.3941 19.9558 10.3571 19.96 10.3289 19.9601C10.3009 19.9602 10.2777 19.9564 10.2611 19.9526C10.2443 19.9487 10.2304 19.944 10.2202 19.9401C10.2098 19.9361 10.2011 19.9321 10.1945 19.9287C10.1877 19.9253 10.1819 19.9221 10.1773 19.9194C10.1683 19.9141 10.1612 19.9093 10.1565 19.906C10.1517 19.9026 10.1478 19.8996 10.145 19.8974C10.1396 19.8932 10.1358 19.8898 10.1339 19.8882C10.1319 19.8864 10.1307 19.8851 10.1303 19.8848L10.545 19.4512ZM10.6281 19.5541C10.618 19.54 10.608 19.5259 10.5979 19.5118L10.1097 19.8605C10.1197 19.8746 10.1298 19.8887 10.1399 19.9028L10.6281 19.5541ZM10.6022 19.5179C10.5731 19.475 10.5481 19.4272 10.5264 19.3744L9.9716 19.6029C10.0063 19.6872 10.0498 19.7723 10.1054 19.8544L10.6022 19.5179ZM9.97207 19.604L10.0325 19.7491L10.5864 19.5184L10.5259 19.3733L9.97207 19.604ZM10.5888 19.5244C10.56 19.4508 10.5394 19.3762 10.5268 19.3003L9.93494 19.399C9.95453 19.5165 9.98633 19.6313 10.0301 19.7431L10.5888 19.5244ZM9.9341 19.3936C9.93773 19.4181 9.94095 19.4425 9.94453 19.4695C9.94801 19.4959 9.95183 19.5249 9.95626 19.5548L10.5498 19.4669C10.5462 19.4424 10.5429 19.418 10.5394 19.3909C10.5359 19.3646 10.5321 19.3356 10.5276 19.3057L9.9341 19.3936ZM10.5506 19.473C10.5397 19.3873 10.5397 19.3019 10.5506 19.2162L9.95543 19.1405C9.93812 19.2765 9.93812 19.4127 9.95543 19.5487L10.5506 19.473ZM9.95626 19.1344C9.95183 19.1643 9.94801 19.1933 9.94453 19.2197C9.94095 19.2467 9.93773 19.2711 9.9341 19.2956L10.5276 19.3835C10.5321 19.3536 10.5359 19.3246 10.5394 19.2982C10.5429 19.2712 10.5462 19.2468 10.5498 19.2223L9.95626 19.1344ZM10.5278 19.382C10.5384 19.3084 10.5577 19.2387 10.5858 19.1721L10.0331 18.9388C9.98462 19.0535 9.95158 19.1732 9.93388 19.2971L10.5278 19.382ZM10.0325 18.9401L9.97207 19.0851L10.5259 19.3159L10.5864 19.1708L10.0325 18.9401ZM10.5238 19.3208C10.5469 19.2681 10.5722 19.2194 10.6012 19.1737L10.0943 18.8526C10.0467 18.9278 10.0075 19.004 9.97415 19.0803L10.5238 19.3208ZM10.5919 19.1875C10.6014 19.1741 10.6167 19.1529 10.6324 19.1278L10.1236 18.8098C10.1191 18.817 10.1142 18.8239 10.1036 18.8388L10.5919 19.1875ZM10.6287 19.1336C10.6343 19.1249 10.6397 19.1167 10.6436 19.1105C10.6447 19.1088 10.6464 19.106 10.6483 19.1027C10.6484 19.1027 10.6553 19.0913 10.6621 19.0769C10.6641 19.0727 10.6686 19.0632 10.6731 19.0506C10.6754 19.0443 10.6791 19.0336 10.6824 19.02C10.6851 19.0089 10.6913 18.9819 10.6911 18.9469C10.691 18.9215 10.6882 18.8267 10.6104 18.7434C10.5148 18.6411 10.3935 18.6423 10.335 18.6534C10.2825 18.6634 10.2461 18.6852 10.2342 18.6925C10.2181 18.7023 10.2063 18.7117 10.2001 18.7168C10.1794 18.7339 10.1654 18.7505 10.165 18.751C10.1609 18.7557 10.1578 18.7595 10.1563 18.7614C10.1471 18.7729 10.132 18.7945 10.1281 18.7999C10.1192 18.8126 10.1103 18.8251 10.1036 18.8343C10.0999 18.8393 10.0989 18.8406 10.0996 18.8397C10.1 18.8392 10.1009 18.8381 10.1023 18.8364C10.1034 18.835 10.1063 18.8315 10.1102 18.8271C10.112 18.8252 10.1234 18.8124 10.1404 18.7983C10.1463 18.7933 10.1713 18.7724 10.2091 18.7555C10.2277 18.7471 10.2693 18.7306 10.3252 18.7293C10.3893 18.728 10.4745 18.7479 10.5437 18.8171L10.1195 19.2414C10.1888 19.3107 10.274 19.3306 10.3382 19.3292C10.3941 19.328 10.4357 19.3114 10.4545 19.303C10.4924 19.286 10.5176 19.265 10.5237 19.2599C10.5411 19.2454 10.5532 19.2319 10.5557 19.2291C10.5639 19.22 10.5703 19.2118 10.5725 19.209C10.5784 19.2014 10.5845 19.1932 10.5888 19.1872C10.5982 19.1743 10.6095 19.1583 10.6177 19.1467C10.631 19.128 10.63 19.1297 10.6248 19.1362C10.6236 19.1377 10.6207 19.1413 10.6167 19.1458C10.6165 19.1461 10.6026 19.1626 10.5821 19.1795C10.5758 19.1847 10.564 19.194 10.548 19.2039C10.5361 19.2111 10.4997 19.2329 10.4472 19.2429C10.3888 19.254 10.2674 19.2552 10.1719 19.1529C10.094 19.0696 10.0912 18.9749 10.0911 18.9495C10.0909 18.8914 10.1086 18.8473 10.1091 18.8459C10.1136 18.8334 10.118 18.8239 10.12 18.8198C10.1242 18.811 10.1279 18.8043 10.129 18.8023C10.1307 18.7994 10.132 18.7972 10.1327 18.796C10.134 18.7937 10.135 18.7921 10.1351 18.792C10.1351 18.792 10.1332 18.795 10.1272 18.8041L10.6287 19.1336ZM10.5812 18.8628C10.6337 18.9416 10.6336 19.0198 10.6301 19.0569C10.6264 19.0956 10.6159 19.1246 10.6106 19.1381C10.5996 19.1657 10.5871 19.1846 10.584 19.1893C10.579 19.1968 10.5751 19.2019 10.5736 19.2039C10.5717 19.2062 10.5706 19.2076 10.5704 19.2078C10.5702 19.2081 10.5712 19.2068 10.5741 19.2037C10.5768 19.2008 10.5801 19.1973 10.584 19.1933C10.6011 19.1755 10.6165 19.1606 10.6223 19.1547L10.1981 18.7305C10.1999 18.7286 10.174 18.754 10.1518 18.7771C10.1409 18.7884 10.126 18.8041 10.1128 18.8197C10.1073 18.8262 10.0952 18.8406 10.0834 18.8586C10.0785 18.8659 10.0647 18.8872 10.053 18.9165C10.0473 18.9309 10.0366 18.9607 10.0328 19.0001C10.0292 19.0378 10.0292 19.1165 10.082 19.1957L10.5812 18.8628ZM10.6223 19.1547C10.6268 19.1503 10.6329 19.1447 10.6473 19.132C10.6591 19.1216 10.6792 19.1039 10.6989 19.0842L10.2746 18.66C10.2701 18.6644 10.2641 18.6699 10.2497 18.6826C10.2379 18.6931 10.2178 18.7108 10.1981 18.7305L10.6223 19.1547ZM10.7036 19.0794C10.7087 19.0741 10.7182 19.0639 10.7283 19.0512C10.7329 19.0454 10.7428 19.0325 10.7531 19.015C10.7582 19.0061 10.7667 18.9908 10.7744 18.9707C10.781 18.9536 10.7949 18.9138 10.7947 18.861C10.7946 18.8327 10.7904 18.7956 10.7749 18.755C10.7589 18.713 10.7326 18.6728 10.696 18.6395C10.6238 18.5742 10.5439 18.5635 10.506 18.562C10.4663 18.5604 10.4353 18.5672 10.4206 18.5709C10.4038 18.5751 10.3905 18.58 10.3823 18.5833C10.3661 18.5897 10.3537 18.5962 10.3476 18.5995C10.3406 18.6034 10.3347 18.6069 10.3306 18.6094C10.316 18.6184 10.3026 18.6281 10.2948 18.6339C10.2854 18.6408 10.2758 18.6482 10.2669 18.6552C10.258 18.6622 10.2488 18.6697 10.2402 18.6769C10.2328 18.6831 10.2215 18.6928 10.2106 18.7034C10.2075 18.7064 10.2032 18.7106 10.1985 18.7156C10.1945 18.7199 10.1862 18.7288 10.1771 18.7408C10.1725 18.7468 10.165 18.757 10.1571 18.7704C10.1506 18.7813 10.1355 18.808 10.1253 18.8454C10.12 18.865 10.1139 18.8955 10.115 18.9331C10.1161 18.9719 10.1253 19.0228 10.1551 19.0744C10.1859 19.1276 10.2294 19.1655 10.2746 19.1894C10.3169 19.2119 10.3562 19.2197 10.3827 19.2226C10.4096 19.2255 10.432 19.2243 10.4469 19.2227C10.4624 19.221 10.4753 19.2185 10.4846 19.2163C10.5026 19.212 10.5166 19.2069 10.5245 19.2039C10.5404 19.1978 10.5525 19.1915 10.558 19.1886C10.5701 19.1823 10.5804 19.1759 10.5862 19.1723L10.2665 18.6646C10.2665 18.6645 10.2675 18.6639 10.2692 18.6629C10.2707 18.662 10.2741 18.66 10.279 18.6575C10.2815 18.6561 10.285 18.6543 10.2894 18.6523C10.2936 18.6503 10.3 18.6474 10.3081 18.6443C10.3122 18.6427 10.3174 18.6408 10.3235 18.6388C10.3295 18.6369 10.3373 18.6346 10.3466 18.6324C10.3557 18.6302 10.3684 18.6277 10.3837 18.626C10.3915 18.6252 10.4008 18.6245 10.4111 18.6244C10.4215 18.6243 10.4338 18.6246 10.4475 18.6261C10.4613 18.6276 10.4776 18.6304 10.4955 18.6353C10.5135 18.6403 10.5339 18.6479 10.5554 18.6592C10.577 18.6707 10.5993 18.6859 10.6204 18.7057C10.6416 18.7256 10.6599 18.7486 10.6746 18.7741C10.6892 18.7994 10.6991 18.825 10.7054 18.8494C10.7116 18.8735 10.7141 18.8958 10.7147 18.9151C10.7153 18.9343 10.7139 18.9514 10.712 18.9655C10.71 18.9798 10.7072 18.9922 10.7044 19.0025C10.6989 19.0226 10.6923 19.0387 10.6873 19.0496C10.6821 19.0608 10.677 19.0699 10.673 19.0766C10.669 19.0835 10.6652 19.0892 10.6622 19.0936C10.6591 19.0981 10.6563 19.1019 10.6539 19.105C10.6493 19.111 10.6453 19.1158 10.6425 19.119C10.6396 19.1223 10.6372 19.125 10.6353 19.1269C10.6318 19.1307 10.629 19.1334 10.6275 19.1348C10.6247 19.1375 10.6231 19.1389 10.6236 19.1385C10.6238 19.1383 10.6247 19.1376 10.6262 19.1363C10.6294 19.1336 10.6338 19.13 10.6386 19.1262C10.6434 19.1224 10.6477 19.1191 10.6507 19.1169C10.6522 19.1158 10.6529 19.1154 10.6527 19.1155C10.6526 19.1156 10.652 19.116 10.6511 19.1166C10.6502 19.1171 10.6485 19.1183 10.6462 19.1197C10.644 19.1211 10.6399 19.1236 10.6344 19.1266C10.6315 19.1281 10.6277 19.1301 10.623 19.1324C10.6185 19.1346 10.6119 19.1376 10.6037 19.1409C10.5995 19.1426 10.5944 19.1445 10.5885 19.1464C10.5827 19.1484 10.5754 19.1506 10.5668 19.1528C10.5583 19.1549 10.5472 19.1573 10.5341 19.1591C10.5212 19.1608 10.5035 19.1624 10.4824 19.1615C10.4616 19.1607 10.433 19.1574 10.4007 19.1468C10.3675 19.1359 10.329 19.1167 10.2932 19.0842C10.2754 19.0682 10.2596 19.0499 10.246 19.0299C10.2325 19.0099 10.2221 18.9893 10.2144 18.969C10.1989 18.9285 10.1948 18.8915 10.1947 18.8633C10.1946 18.8354 10.1984 18.8121 10.2022 18.7956C10.206 18.7787 10.2107 18.7648 10.2147 18.7546C10.2187 18.7443 10.2227 18.7356 10.226 18.7289C10.2294 18.7221 10.2326 18.7163 10.2354 18.7117C10.2406 18.7027 10.2454 18.6956 10.2487 18.691C10.2521 18.6861 10.2551 18.6822 10.2573 18.6794C10.2616 18.674 10.265 18.6702 10.2666 18.6684C10.2684 18.6664 10.2696 18.6651 10.27 18.6647L10.7036 19.0794ZM10.6007 19.1625C10.6148 19.1525 10.6289 19.1424 10.643 19.1323L10.2943 18.6441C10.2801 18.6542 10.266 18.6642 10.2519 18.6743L10.6007 19.1625ZM10.6369 19.1366C10.6798 19.1075 10.7276 19.0825 10.7803 19.0608L10.5519 18.506C10.4676 18.5407 10.3824 18.5842 10.3004 18.6398L10.6369 19.1366ZM10.5507 18.5065C10.5023 18.5266 10.454 18.5468 10.4056 18.5669L10.6364 19.1208C10.6848 19.1006 10.7331 19.0805 10.7815 19.0603L10.5507 18.5065ZM10.6303 19.1232C10.7039 19.0944 10.7786 19.0738 10.8545 19.0612L10.7558 18.4694C10.6383 18.489 10.5235 18.5208 10.4117 18.5645L10.6303 19.1232ZM10.7612 18.4685C10.7367 18.4721 10.7123 18.4754 10.6853 18.4789C10.6589 18.4824 10.6299 18.4863 10.6 18.4907L10.6879 19.0842C10.7124 19.0806 10.7368 19.0774 10.7638 19.0738C10.7902 19.0703 10.8192 19.0665 10.8491 19.062L10.7612 18.4685ZM10.6819 19.085C10.9573 19.0499 11.2276 19.0754 11.5668 19.0754V18.4754C11.2974 18.4754 10.931 18.4484 10.606 18.4899L10.6819 19.085ZM11.5668 19.0754C11.9065 19.0754 12.1736 19.048 12.45 19.0848L12.5293 18.4901C12.2013 18.4463 11.8316 18.4754 11.5668 18.4754V19.0754ZM12.5337 18.4907C12.5037 18.4863 12.4747 18.4824 12.4484 18.4789C12.4213 18.4754 12.3969 18.4721 12.3725 18.4685L12.2845 19.062C12.3144 19.0665 12.3435 19.0703 12.3698 19.0738C12.3969 19.0774 12.4212 19.0806 12.4457 19.0842L12.5337 18.4907ZM12.2861 19.0623C12.3596 19.0728 12.4293 19.0921 12.4959 19.1202L12.7293 18.5675C12.6145 18.519 12.4948 18.486 12.3709 18.4683L12.2861 19.0623ZM12.728 18.5669C12.6796 18.5468 12.6313 18.5266 12.5829 18.5065L12.3522 19.0603C12.4005 19.0805 12.4488 19.1006 12.4972 19.1208L12.728 18.5669ZM12.3473 19.0583C12.4 19.0813 12.4487 19.1066 12.4944 19.1356L12.8154 18.6287C12.7403 18.5811 12.664 18.5419 12.5878 18.5086L12.3473 19.0583ZM12.4805 19.1263C12.4939 19.1358 12.5152 19.1511 12.5402 19.1668L12.8582 18.658C12.8511 18.6535 12.8441 18.6486 12.8293 18.638L12.4805 19.1263ZM12.5345 19.1631C12.5431 19.1688 12.5513 19.1741 12.5576 19.178C12.5593 19.1791 12.5621 19.1808 12.5653 19.1828C12.5654 19.1828 12.5767 19.1897 12.5912 19.1966C12.5954 19.1985 12.6049 19.203 12.6174 19.2075C12.6238 19.2098 12.6345 19.2135 12.6481 19.2168C12.6592 19.2196 12.6861 19.2257 12.7212 19.2255C12.7466 19.2254 12.8413 19.2226 12.9247 19.1448C13.0269 19.0492 13.0257 18.9279 13.0146 18.8695C13.0046 18.8169 12.9829 18.7805 12.9756 18.7686C12.9657 18.7526 12.9564 18.7407 12.9512 18.7345C12.9341 18.7138 12.9176 18.6998 12.9171 18.6994C12.9124 18.6953 12.9085 18.6922 12.9067 18.6907C12.8951 18.6815 12.8736 18.6664 12.8681 18.6625C12.8555 18.6536 12.843 18.6447 12.8338 18.638C12.8287 18.6343 12.8274 18.6333 12.8284 18.6341C12.8288 18.6344 12.83 18.6353 12.8317 18.6367C12.8331 18.6379 12.8365 18.6407 12.8409 18.6447C12.8428 18.6464 12.8557 18.6578 12.8698 18.6748C12.8747 18.6807 12.8956 18.7057 12.9125 18.7435C12.9209 18.7621 12.9375 18.8037 12.9387 18.8596C12.9401 18.9237 12.9202 19.0089 12.8509 19.0782L12.4267 18.6539C12.3574 18.7232 12.3375 18.8084 12.3388 18.8726C12.3401 18.9285 12.3566 18.9702 12.365 18.9889C12.382 19.0268 12.4031 19.052 12.4082 19.0581C12.4227 19.0756 12.4361 19.0876 12.4389 19.0901C12.448 19.0983 12.4562 19.1047 12.4591 19.1069C12.4666 19.1128 12.4748 19.1189 12.4809 19.1233C12.4938 19.1327 12.5098 19.144 12.5213 19.1521C12.54 19.1654 12.5384 19.1644 12.5319 19.1592C12.5303 19.158 12.5267 19.1551 12.5222 19.1512C12.522 19.1509 12.5055 19.137 12.4885 19.1165C12.4834 19.1102 12.474 19.0985 12.4642 19.0824C12.4569 19.0706 12.4352 19.0342 12.4252 18.9816C12.4141 18.9232 12.4128 18.8018 12.5151 18.7063C12.5984 18.6285 12.6932 18.6257 12.7186 18.6256C12.7766 18.6253 12.8208 18.643 12.8222 18.6435C12.8346 18.6481 12.8441 18.6525 12.8482 18.6544C12.8571 18.6586 12.8637 18.6623 12.8657 18.6635C12.8687 18.6651 12.8709 18.6664 12.872 18.6671C12.8744 18.6685 12.8759 18.6694 12.876 18.6695C12.8761 18.6695 12.873 18.6676 12.864 18.6617L12.5345 19.1631ZM12.8052 19.1156C12.7265 19.1681 12.6483 19.1681 12.6112 19.1645C12.5724 19.1609 12.5434 19.1504 12.5299 19.145C12.5024 19.134 12.4834 19.1215 12.4787 19.1184C12.4713 19.1135 12.4661 19.1095 12.4642 19.108C12.4618 19.1062 12.4604 19.105 12.4603 19.1048C12.46 19.1046 12.4612 19.1057 12.4643 19.1085C12.4672 19.1112 12.4707 19.1145 12.4748 19.1184C12.4925 19.1355 12.5074 19.1509 12.5133 19.1567L12.9376 18.7325C12.9394 18.7343 12.914 18.7084 12.891 18.6862C12.8797 18.6753 12.8639 18.6604 12.8484 18.6473C12.8419 18.6417 12.8274 18.6297 12.8095 18.6178C12.8021 18.6129 12.7809 18.5991 12.7515 18.5874C12.7371 18.5817 12.7073 18.571 12.6679 18.5672C12.6302 18.5637 12.5515 18.5637 12.4724 18.6164L12.8052 19.1156ZM12.5133 19.1567C12.5178 19.1612 12.5233 19.1673 12.536 19.1817C12.5465 19.1935 12.5641 19.2136 12.5839 19.2333L13.0081 18.809C13.0036 18.8046 12.9981 18.7985 12.9854 18.7841C12.9749 18.7723 12.9573 18.7522 12.9376 18.7325L12.5133 19.1567ZM12.5886 19.238C12.5939 19.2431 12.6041 19.2527 12.6168 19.2627C12.6226 19.2673 12.6355 19.2772 12.6531 19.2875C12.6619 19.2927 12.6772 19.3011 12.6974 19.3089C12.7145 19.3155 12.7543 19.3293 12.807 19.3291C12.8353 19.329 12.8725 19.3248 12.913 19.3093C12.9551 19.2933 12.9953 19.2671 13.0285 19.2304C13.0939 19.1582 13.1045 19.0784 13.106 19.0405C13.1076 19.0007 13.1008 18.9697 13.0972 18.955C13.0929 18.9382 13.088 18.9249 13.0848 18.9167C13.0784 18.9005 13.0718 18.8881 13.0685 18.8821C13.0647 18.875 13.0612 18.8691 13.0586 18.865C13.0496 18.8504 13.0399 18.8371 13.0342 18.8292C13.0272 18.8198 13.0198 18.8102 13.0129 18.8014C13.0058 18.7925 12.9984 18.7832 12.9911 18.7746C12.9849 18.7673 12.9752 18.7559 12.9646 18.745C12.9617 18.7419 12.9575 18.7377 12.9524 18.7329C12.9482 18.7289 12.9392 18.7207 12.9273 18.7115C12.9212 18.7069 12.9111 18.6995 12.8977 18.6915C12.8868 18.6851 12.8601 18.6699 12.8226 18.6597C12.803 18.6544 12.7725 18.6483 12.7349 18.6494C12.6961 18.6506 12.6452 18.6598 12.5937 18.6896C12.5405 18.7203 12.5025 18.7639 12.4786 18.809C12.4562 18.8514 12.4483 18.8906 12.4454 18.9171C12.4425 18.944 12.4438 18.9664 12.4454 18.9814C12.447 18.9969 12.4496 19.0097 12.4518 19.019C12.456 19.037 12.4611 19.051 12.4642 19.0589C12.4703 19.0748 12.4765 19.0869 12.4794 19.0925C12.4858 19.1046 12.4921 19.1148 12.4958 19.1206L13.0035 18.8009C13.0035 18.801 13.0041 18.8019 13.0051 18.8036C13.006 18.8051 13.008 18.8086 13.0106 18.8134C13.0119 18.8159 13.0137 18.8195 13.0158 18.8238C13.0177 18.828 13.0206 18.8344 13.0238 18.8425C13.0254 18.8467 13.0273 18.8518 13.0292 18.8579C13.0312 18.8639 13.0335 18.8717 13.0357 18.881C13.0378 18.8901 13.0404 18.9028 13.042 18.9181C13.0428 18.9259 13.0435 18.9352 13.0436 18.9455C13.0438 18.9559 13.0434 18.9682 13.0419 18.9819C13.0404 18.9957 13.0377 19.012 13.0327 19.0299C13.0277 19.0479 13.0202 19.0683 13.0088 19.0898C12.9974 19.1114 12.9822 19.1337 12.9624 19.1548C12.9424 19.176 12.9194 19.1943 12.8939 19.209C12.8686 19.2237 12.843 19.2335 12.8187 19.2398C12.7945 19.246 12.7722 19.2485 12.7529 19.2491C12.7337 19.2497 12.7167 19.2484 12.7025 19.2464C12.6883 19.2444 12.6759 19.2416 12.6656 19.2388C12.6454 19.2334 12.6294 19.2267 12.6185 19.2217C12.6073 19.2165 12.5981 19.2114 12.5914 19.2075C12.5846 19.2034 12.5789 19.1996 12.5744 19.1966C12.57 19.1935 12.5661 19.1907 12.563 19.1883C12.557 19.1837 12.5522 19.1797 12.5491 19.1769C12.5458 19.174 12.5431 19.1716 12.5411 19.1697C12.5373 19.1662 12.5346 19.1634 12.5332 19.162C12.5305 19.1591 12.5291 19.1575 12.5295 19.158C12.5297 19.1582 12.5305 19.1591 12.5318 19.1606C12.5345 19.1638 12.538 19.1682 12.5418 19.173C12.5456 19.1779 12.5489 19.1821 12.5511 19.1852C12.5522 19.1866 12.5527 19.1873 12.5525 19.1871C12.5525 19.187 12.5521 19.1865 12.5515 19.1855C12.5509 19.1847 12.5498 19.183 12.5483 19.1806C12.547 19.1784 12.5445 19.1743 12.5415 19.1688C12.5399 19.1659 12.5379 19.1621 12.5356 19.1574C12.5334 19.1529 12.5304 19.1463 12.5271 19.1381C12.5255 19.1339 12.5236 19.1288 12.5216 19.1229C12.5197 19.1171 12.5174 19.1098 12.5152 19.1012C12.5131 19.0927 12.5107 19.0816 12.509 19.0685C12.5072 19.0556 12.5057 19.0379 12.5065 19.0168C12.5073 18.9961 12.5106 18.9675 12.5213 18.9351C12.5322 18.9019 12.5514 18.8634 12.5838 18.8276C12.5999 18.8098 12.6181 18.794 12.6382 18.7804C12.6581 18.7669 12.6787 18.7565 12.6991 18.7488C12.7395 18.7333 12.7765 18.7292 12.8047 18.7291C12.8327 18.729 12.8559 18.7328 12.8725 18.7366C12.8893 18.7404 12.9032 18.7452 12.9134 18.7491C12.9238 18.7531 12.9325 18.7571 12.9392 18.7605C12.9459 18.7639 12.9517 18.7671 12.9563 18.7698C12.9654 18.7751 12.9724 18.7799 12.9771 18.7831C12.9819 18.7866 12.9858 18.7896 12.9886 18.7918C12.994 18.796 12.9979 18.7994 12.9997 18.801C13.0017 18.8028 13.003 18.804 13.0033 18.8044L12.5886 19.238ZM12.5055 19.1351C12.5156 19.1492 12.5257 19.1633 12.5357 19.1774L13.024 18.8287C13.0139 18.8146 13.0038 18.8005 12.9937 18.7864L12.5055 19.1351ZM12.5315 19.1713C12.5605 19.2142 12.5855 19.262 12.6072 19.3148L13.162 19.0863C13.1273 19.002 13.0838 18.9169 13.0282 18.8348L12.5315 19.1713ZM13.1616 19.0851L13.1011 18.9401L12.5473 19.1708L12.6077 19.3159L13.1616 19.0851ZM12.5448 19.1648C12.5736 19.2384 12.5942 19.313 12.6068 19.3889L13.1987 19.2902C13.1791 19.1727 13.1473 19.0579 13.1036 18.9461L12.5448 19.1648ZM13.1995 19.2956C13.1959 19.2711 13.1927 19.2467 13.1891 19.2197C13.1856 19.1933 13.1818 19.1643 13.1774 19.1344L12.5838 19.2223C12.5875 19.2468 12.5907 19.2712 12.5943 19.2982C12.5977 19.3246 12.6016 19.3536 12.606 19.3835L13.1995 19.2956ZM12.583 19.2162C12.5939 19.3019 12.5939 19.3873 12.583 19.473L13.1782 19.5487C13.1955 19.4127 13.1955 19.2765 13.1782 19.1405L12.583 19.2162ZM13.1774 19.5548C13.1818 19.5249 13.1856 19.4959 13.1891 19.4695C13.1927 19.4425 13.1959 19.4181 13.1995 19.3936L12.606 19.3057C12.6016 19.3356 12.5977 19.3646 12.5943 19.3909C12.5907 19.418 12.5875 19.4424 12.5838 19.4669L13.1774 19.5548ZM12.6058 19.3072C12.5953 19.3807 12.5759 19.4505 12.5478 19.5171L13.1006 19.7504C13.149 19.6357 13.182 19.516 13.1998 19.3921L12.6058 19.3072ZM13.1011 19.7491L13.1616 19.604L12.6077 19.3733L12.5473 19.5184L13.1011 19.7491ZM12.6098 19.3684C12.5867 19.4211 12.5614 19.4698 12.5325 19.5155L13.0393 19.8366C13.0869 19.7614 13.1261 19.6852 13.1595 19.6089L12.6098 19.3684ZM12.5418 19.5017C12.5322 19.5151 12.5169 19.5363 12.5013 19.5614L13.0101 19.8794C13.0145 19.8722 13.0194 19.8653 13.03 19.8504L12.5418 19.5017ZM12.505 19.5556C12.4993 19.5643 12.4939 19.5725 12.49 19.5787C12.489 19.5804 12.4872 19.5832 12.4853 19.5865C12.4853 19.5865 12.4783 19.5979 12.4715 19.6123C12.4695 19.6165 12.4651 19.626 12.4605 19.6386C12.4582 19.6449 12.4546 19.6556 12.4512 19.6692C12.4485 19.6803 12.4424 19.7072 12.4425 19.7422C12.4426 19.7676 12.4454 19.8624 12.5232 19.9457C12.6188 20.0481 12.7402 20.0469 12.7986 20.0357C12.8512 20.0257 12.8876 20.004 12.8994 19.9967C12.9155 19.9869 12.9273 19.9775 12.9336 19.9723C12.9542 19.9553 12.9682 19.9387 12.9686 19.9382C12.9727 19.9335 12.9759 19.9297 12.9773 19.9278C12.9866 19.9163 13.0017 19.8947 13.0055 19.8893C13.0145 19.8766 13.0233 19.8641 13.03 19.8549C13.0337 19.8498 13.0347 19.8485 13.034 19.8495C13.0336 19.8499 13.0327 19.8511 13.0313 19.8528C13.0302 19.8542 13.0273 19.8576 13.0234 19.862C13.0216 19.864 13.0102 19.8768 12.9932 19.8909C12.9873 19.8958 12.9623 19.9168 12.9246 19.9337C12.9059 19.9421 12.8643 19.9586 12.8084 19.9598C12.7443 19.9612 12.6591 19.9413 12.5899 19.8721L13.0141 19.4478C12.9449 19.3785 12.8596 19.3586 12.7955 19.36C12.7395 19.3612 12.6979 19.3778 12.6791 19.3862C12.6412 19.4032 12.6161 19.4242 12.6099 19.4293C12.5925 19.4438 12.5804 19.4573 12.5779 19.4601C12.5697 19.4692 12.5633 19.4774 12.5611 19.4802C12.5552 19.4878 12.5492 19.496 12.5448 19.502C12.5354 19.5149 12.5241 19.5309 12.5159 19.5424C12.5026 19.5612 12.5036 19.5595 12.5088 19.553C12.51 19.5515 12.5129 19.5479 12.5169 19.5434C12.5171 19.5431 12.531 19.5266 12.5515 19.5097C12.5578 19.5045 12.5696 19.4952 12.5856 19.4853C12.5975 19.4781 12.6339 19.4563 12.6864 19.4463C12.7449 19.4352 12.8663 19.434 12.9618 19.5363C13.0396 19.6197 13.0424 19.7144 13.0425 19.7398C13.0427 19.7978 13.025 19.8419 13.0245 19.8433C13.02 19.8558 13.0156 19.8653 13.0136 19.8694C13.0094 19.8782 13.0057 19.8849 13.0046 19.8869C13.003 19.8898 13.0016 19.892 13.001 19.8932C12.9996 19.8955 12.9986 19.897 12.9985 19.8972C12.9985 19.8972 13.0005 19.8941 13.0064 19.8851L12.505 19.5556ZM12.5524 19.8263C12.4999 19.7476 12.5 19.6694 12.5035 19.6323C12.5072 19.5936 12.5177 19.5646 12.523 19.5511C12.534 19.5235 12.5466 19.5045 12.5497 19.4998C12.5546 19.4924 12.5585 19.4873 12.5601 19.4853C12.5619 19.483 12.5631 19.4816 12.5632 19.4814C12.5635 19.4811 12.5624 19.4824 12.5595 19.4855C12.5569 19.4884 12.5535 19.4919 12.5496 19.4959C12.5326 19.5137 12.5172 19.5286 12.5113 19.5345L12.9356 19.9587C12.9337 19.9606 12.9596 19.9352 12.9818 19.9121C12.9927 19.9008 13.0076 19.8851 13.0208 19.8695C13.0263 19.863 13.0384 19.8486 13.0503 19.8306C13.0551 19.8232 13.069 19.802 13.0806 19.7726C13.0863 19.7583 13.0971 19.7285 13.1008 19.6891C13.1044 19.6514 13.1044 19.5727 13.0516 19.4935L12.5524 19.8263ZM12.5113 19.5345C12.5068 19.5389 12.5007 19.5444 12.4864 19.5571C12.4745 19.5676 12.4544 19.5853 12.4347 19.605L12.859 20.0292C12.8635 20.0247 12.8696 20.0192 12.8839 20.0065C12.8957 19.9961 12.9159 19.9784 12.9356 19.9587L12.5113 19.5345ZM12.4301 19.6097C12.425 19.6151 12.4154 19.6253 12.4054 19.638C12.4008 19.6438 12.3908 19.6567 12.3806 19.6742C12.3754 19.683 12.367 19.6984 12.3592 19.7185C12.3526 19.7356 12.3388 19.7754 12.339 19.8282C12.3391 19.8565 12.3432 19.8936 12.3587 19.9342C12.3748 19.9762 12.401 20.0164 12.4377 20.0497C12.5098 20.115 12.5897 20.1257 12.6276 20.1272C12.6674 20.1288 12.6984 20.122 12.713 20.1183C12.7299 20.1141 12.7432 20.1092 12.7514 20.1059C12.7675 20.0995 12.7799 20.093 12.786 20.0897C12.793 20.0858 12.7989 20.0823 12.8031 20.0797C12.8176 20.0707 12.831 20.0611 12.8388 20.0553C12.8482 20.0484 12.8578 20.041 12.8667 20.034C12.8756 20.027 12.8848 20.0195 12.8934 20.0123C12.9008 20.0061 12.9122 19.9963 12.9231 19.9858C12.9261 19.9828 12.9304 19.9786 12.9351 19.9736C12.9392 19.9693 12.9474 19.9604 12.9565 19.9484C12.9611 19.9424 12.9686 19.9322 12.9765 19.9188C12.983 19.9079 12.9981 19.8812 13.0083 19.8438C13.0136 19.8241 13.0198 19.7937 13.0186 19.7561C13.0175 19.7172 13.0083 19.6664 12.9785 19.6148C12.9477 19.5616 12.9042 19.5236 12.8591 19.4997C12.8167 19.4773 12.7775 19.4695 12.7509 19.4666C12.724 19.4637 12.7017 19.4649 12.6867 19.4665C12.6712 19.4681 12.6583 19.4707 12.6491 19.4729C12.631 19.4772 12.617 19.4822 12.6091 19.4853C12.5933 19.4914 12.5811 19.4977 12.5756 19.5006C12.5635 19.5069 12.5532 19.5133 12.5475 19.5169L12.8672 20.0246C12.8671 20.0247 12.8661 20.0253 12.8644 20.0263C12.863 20.0272 12.8595 20.0292 12.8546 20.0317C12.8521 20.033 12.8486 20.0349 12.8442 20.0369C12.84 20.0389 12.8336 20.0418 12.8255 20.0449C12.8214 20.0465 12.8162 20.0484 12.8101 20.0504C12.8042 20.0523 12.7963 20.0546 12.787 20.0568C12.7779 20.059 12.7653 20.0615 12.7499 20.0632C12.7421 20.064 12.7329 20.0646 12.7225 20.0648C12.7122 20.0649 12.6999 20.0646 12.6861 20.0631C12.6723 20.0616 12.6561 20.0588 12.6381 20.0538C12.6202 20.0488 12.5997 20.0413 12.5783 20.03C12.5566 20.0185 12.5343 20.0033 12.5133 19.9835C12.492 19.9636 12.4737 19.9405 12.459 19.9151C12.4444 19.8898 12.4345 19.8641 12.4282 19.8398C12.422 19.8157 12.4195 19.7934 12.4189 19.7741C12.4183 19.7548 12.4197 19.7378 12.4217 19.7236C12.4237 19.7094 12.4264 19.697 12.4292 19.6867C12.4347 19.6666 12.4413 19.6505 12.4463 19.6396C12.4515 19.6284 12.4566 19.6192 12.4606 19.6126C12.4646 19.6057 12.4684 19.6 12.4715 19.5956C12.4745 19.5911 12.4774 19.5873 12.4797 19.5842C12.4843 19.5782 12.4884 19.5734 12.4911 19.5702C12.494 19.5669 12.4965 19.5642 12.4983 19.5623C12.5019 19.5585 12.5047 19.5557 12.5061 19.5544C12.5089 19.5516 12.5105 19.5503 12.51 19.5507C12.5098 19.5509 12.509 19.5516 12.5074 19.5529C12.5042 19.5556 12.4999 19.5591 12.495 19.5629C12.4902 19.5668 12.4859 19.57 12.4829 19.5723C12.4814 19.5734 12.4808 19.5738 12.4809 19.5737C12.481 19.5736 12.4816 19.5732 12.4825 19.5726C12.4834 19.572 12.4851 19.5709 12.4875 19.5695C12.4896 19.5681 12.4937 19.5656 12.4993 19.5626C12.5021 19.5611 12.5059 19.559 12.5106 19.5568C12.5151 19.5546 12.5217 19.5515 12.5299 19.5483C12.5341 19.5466 12.5392 19.5447 12.5451 19.5427C12.5509 19.5408 12.5583 19.5385 12.5668 19.5364C12.5753 19.5343 12.5864 19.5319 12.5996 19.5301C12.6125 19.5284 12.6302 19.5268 12.6512 19.5276C12.672 19.5285 12.7006 19.5318 12.733 19.5424C12.7662 19.5533 12.8046 19.5725 12.8405 19.605C12.8582 19.621 12.8741 19.6393 12.8876 19.6593C12.9011 19.6793 12.9115 19.6999 12.9193 19.7202C12.9347 19.7607 12.9389 19.7977 12.939 19.8259C12.9391 19.8538 12.9352 19.8771 12.9315 19.8936C12.9276 19.9105 12.9229 19.9243 12.919 19.9345C12.9149 19.9449 12.9109 19.9536 12.9076 19.9603C12.9042 19.9671 12.901 19.9729 12.8983 19.9775C12.893 19.9865 12.8882 19.9936 12.8849 19.9982C12.8815 20.0031 12.8785 20.007 12.8763 20.0097C12.872 20.0151 12.8686 20.019 12.867 20.0208C12.8652 20.0228 12.864 20.0241 12.8637 20.0245L12.4301 19.6097ZM12.5329 19.5266C12.5188 19.5367 12.5047 19.5468 12.4906 19.5569L12.8394 20.0451C12.8535 20.035 12.8676 20.025 12.8817 20.0149L12.5329 19.5266ZM12.4967 19.5526C12.4539 19.5817 12.406 19.6067 12.3533 19.6284L12.5818 20.1832C12.666 20.1485 12.7512 20.105 12.8332 20.0494L12.4967 19.5526ZM12.5829 20.1827L12.728 20.1222L12.4972 19.5684L12.3521 19.6288L12.5829 20.1827ZM12.5033 19.5659C12.4297 19.5948 12.3551 19.6153 12.2792 19.628L12.3778 20.2198C12.4954 20.2002 12.6102 20.1684 12.7219 20.1247L12.5033 19.5659ZM12.3725 20.2207C12.3969 20.217 12.4213 20.2138 12.4484 20.2102C12.4747 20.2068 12.5037 20.2029 12.5337 20.1985L12.4457 19.605C12.4212 19.6086 12.3969 19.6118 12.3698 19.6154C12.3435 19.6189 12.3144 19.6227 12.2845 19.6271L12.3725 20.2207ZM12.4473 19.6048C12.4042 19.6109 12.364 19.6138 12.3224 19.6138V20.2138C12.3937 20.2138 12.4623 20.2087 12.5321 20.1987L12.4473 19.6048ZM12.3186 19.6139C11.8593 19.6197 11.3958 20.0086 11.4182 20.5312L12.0177 20.5054C12.0119 20.3712 12.1529 20.216 12.3263 20.2138L12.3186 19.6139ZM11.4182 20.5314C11.4382 20.9913 11.8004 21.4291 12.326 21.4228L12.3189 20.8228C12.1674 20.8246 12.0259 20.6942 12.0177 20.5053L11.4182 20.5314ZM12.3263 21.4228C13.0607 21.4135 13.7821 21.0183 14.1423 20.348L13.6138 20.064C13.3654 20.5262 12.8536 20.816 12.3186 20.8228L12.3263 21.4228ZM14.1416 20.3492C14.4918 19.7049 14.4968 18.8734 14.0835 18.2354L13.5799 18.5616C13.8637 18.9997 13.8688 19.5948 13.6144 20.0627L14.1416 20.3492ZM14.0837 18.2357C13.6954 17.6345 13.0401 17.267 12.3204 17.2623L12.3165 17.8623C12.83 17.8656 13.299 18.1267 13.5797 18.5613L14.0837 18.2357ZM12.321 17.2623C12.0797 17.2603 11.8333 17.2623 11.5971 17.2623V17.8623C11.8404 17.8623 12.0776 17.8603 12.3159 17.8623L12.321 17.2623ZM11.5971 17.2623H10.8253V17.8623H11.5971V17.2623ZM10.8243 17.2623C10.1191 17.2647 9.50888 17.6066 9.10462 18.1563L9.58799 18.5118C9.88904 18.1024 10.3266 17.864 10.8263 17.8623L10.8243 17.2623ZM9.10453 18.1564C8.64278 18.785 8.64455 19.6082 8.94714 20.2615L9.49158 20.0094C9.26222 19.5141 9.28013 18.9309 9.58809 18.5116L9.10453 18.1564ZM8.94739 20.2621C9.27273 20.9609 9.9864 21.3673 10.7055 21.4181L10.7477 20.8195C10.2094 20.7816 9.71005 20.4787 9.49134 20.0088L8.94739 20.2621ZM10.7052 21.418C10.9441 21.4351 11.2078 21.4208 11.4076 21.4208V20.8208C11.1561 20.8208 10.9604 20.8347 10.748 20.8196L10.7052 21.418ZM11.4076 21.4208H12.2681V20.8208H11.4076V21.4208ZM12.2681 21.4208H12.3225V20.8208H12.2681V21.4208ZM12.3225 21.4208C12.7889 21.4208 13.249 21.0203 13.2267 20.5034L12.6272 20.5293C12.6331 20.6651 12.4887 20.8208 12.3225 20.8208V21.4208ZM13.2267 20.5034C13.2065 20.0358 12.8403 19.6138 12.3225 19.6138V20.2138C12.4816 20.2138 12.6192 20.344 12.6272 20.5293L13.2267 20.5034ZM12.2587 19.6207L12.2587 19.6207L12.3861 20.207L12.3862 20.207L12.2587 19.6207Z" fill="white" mask="url(#path-4-outside-1_11484_54894)"/>
</svg>
