<svg width="14" height="14" viewBox="0 0 14 14" fill="none" xmlns="http://www.w3.org/2000/svg">
<path fill-rule="evenodd" clip-rule="evenodd" d="M13.6666 7.00016C13.6666 10.6821 10.6818 13.6668 6.99992 13.6668C3.31802 13.6668 0.333252 10.6821 0.333252 7.00016C0.333252 3.31826 3.31802 0.333496 6.99992 0.333496C10.6818 0.333496 13.6666 3.31826 13.6666 7.00016ZM6.99992 6.3335C7.36811 6.3335 7.66659 6.63197 7.66659 7.00016V10.3341C7.66659 10.7023 7.36811 11.0008 6.99992 11.0008C6.63173 11.0008 6.33325 10.7023 6.33325 10.3341V7.00016C6.33325 6.63197 6.63173 6.3335 6.99992 6.3335ZM6.99992 5.00016C7.36811 5.00016 7.66659 4.70169 7.66659 4.3335C7.66659 3.96531 7.36811 3.66683 6.99992 3.66683C6.63173 3.66683 6.33325 3.96531 6.33325 4.3335C6.33325 4.70169 6.63173 5.00016 6.99992 5.00016Z" fill="#6F767E"/>
</svg>
