<svg width="24" height="24" viewBox="0 0 24 24" fill="none" xmlns="http://www.w3.org/2000/svg">
<path d="M14.0289 6.86129L13.8334 7.33026C13.7162 7.60379 13.8529 7.93592 14.1265 8.05315C14.2046 8.09227 14.2633 8.09227 14.3414 8.09227C14.5563 8.09227 14.7518 7.97506 14.8494 7.76013L15.0448 7.29117C15.3378 6.58777 15.2403 5.78665 14.7518 5.18098C14.4978 4.86833 14.4588 4.41897 14.6737 4.0672L14.9081 3.67646C15.0645 3.42242 14.9862 3.0708 14.7323 2.91445C14.4783 2.75813 14.1266 2.83636 13.9703 3.09027L13.7359 3.48101C13.2865 4.22352 13.3451 5.18085 13.8922 5.86474C14.1265 6.13841 14.1656 6.52916 14.0289 6.86128L14.0289 6.86129Z" fill="#EFEFEF"/>
<path d="M11.275 6.86129L11.0795 7.33026C10.9623 7.60379 11.099 7.93592 11.3726 8.05315C11.4507 8.09227 11.5094 8.09227 11.5875 8.09227C11.8024 8.09227 11.9979 7.97506 12.0955 7.76013L12.2909 7.29117C12.5839 6.58777 12.4864 5.78665 11.9979 5.18098C11.7438 4.86833 11.7049 4.41897 11.9198 4.0672L12.1542 3.67646C12.3105 3.42242 12.2323 3.0708 11.9784 2.91445C11.7244 2.75813 11.3727 2.83636 11.2164 3.09027L10.982 3.48101C10.5326 4.22352 10.5912 5.18085 11.1383 5.86474C11.3531 6.13841 11.4117 6.52916 11.275 6.86128L11.275 6.86129Z" fill="#EFEFEF"/>
<path d="M8.4996 6.86129L8.30415 7.33026C8.18694 7.60379 8.32364 7.93592 8.59718 8.05315C8.67527 8.09227 8.73401 8.09227 8.81211 8.09227C9.02704 8.09227 9.22249 7.97506 9.32008 7.76013L9.51553 7.29117C9.80855 6.58777 9.71097 5.78665 9.2225 5.18098C8.96846 4.86833 8.92948 4.41897 9.1444 4.0672L9.37883 3.67646C9.53516 3.42242 9.45692 3.0708 9.20301 2.91445C8.94897 2.75813 8.59734 2.83636 8.441 3.09027L8.20658 3.48101C7.75722 4.22352 7.81584 5.18085 8.3629 5.86474C8.5777 6.13841 8.6363 6.52916 8.49961 6.86128L8.4996 6.86129Z" fill="#EFEFEF"/>
<path d="M19.0108 10.9059H16.7639V9.77267C16.7639 9.46002 16.5098 9.22559 16.2168 9.22559H6.89682C6.58417 9.22559 6.34973 9.47963 6.34973 9.77267V12.8598C6.34973 12.977 6.34973 13.1138 6.36922 13.2311C4.8452 13.8758 3.79004 15.3804 3.79004 17.1388C3.79004 19.4834 5.6853 21.3787 8.02995 21.3787C9.37815 21.3787 10.5895 20.7339 11.3711 19.757H13.032C13.794 19.757 14.4974 19.3857 14.9273 18.7606C15.572 17.8422 16.041 16.8262 16.3536 15.7711H17.0765C18.4441 15.7711 19.5774 14.6574 19.5774 13.2702V11.4335C19.5579 11.1598 19.3235 10.9059 19.0109 10.9059H19.0108ZM8.01046 20.3041C6.27151 20.3041 4.86472 18.8973 4.86472 17.1583C4.86472 15.4194 6.27151 14.0126 8.01046 14.0126C9.7494 14.0126 11.1562 15.4194 11.1562 17.1583C11.1562 18.8778 9.7494 20.3041 8.01046 20.3041ZM15.6696 12.8793C15.6696 14.7746 15.1031 16.6112 14.0088 18.1743C13.7744 18.5065 13.4031 18.7019 13.0123 18.7019H11.9768C12.1526 18.2329 12.2698 17.725 12.2698 17.1779C12.2698 14.8333 10.3746 12.938 8.0299 12.938C7.83446 12.938 7.63916 12.9575 7.46335 12.9771V12.899V10.3589H15.6892L15.689 12.8792L15.6696 12.8793ZM18.4636 13.3092C18.4636 14.0712 17.8383 14.6965 17.0763 14.6965H16.6073C16.705 14.0908 16.7831 13.4851 16.7831 12.8795V12.0197H18.4635L18.4636 13.3092Z" fill="#EFEFEF"/>
<path d="M9.4168 16.611H8.55706V15.341C8.55706 15.0284 8.30301 14.7939 8.00998 14.7939C7.69732 14.7939 7.46289 15.048 7.46289 15.341V17.1581C7.46289 17.4707 7.71694 17.7051 8.00998 17.7051H9.41676C9.72942 17.7051 9.96385 17.4511 9.96385 17.1581C9.96385 16.8454 9.72929 16.611 9.41676 16.611H9.4168Z" fill="#EFEFEF"/>
</svg>
