<svg width="21" height="20" viewBox="0 0 21 20" fill="none" xmlns="http://www.w3.org/2000/svg">
<path fill-rule="evenodd" clip-rule="evenodd" d="M16.1 5.19961H4.9C4.45817 5.19961 4.1 5.55778 4.1 5.99961V14.7996C4.1 15.2414 4.45817 15.5996 4.9 15.5996H16.1C16.5418 15.5996 16.9 15.2414 16.9 14.7996V5.99961C16.9 5.55778 16.5418 5.19961 16.1 5.19961ZM4.9 3.59961C3.57452 3.59961 2.5 4.67413 2.5 5.99961V14.7996C2.5 16.1251 3.57452 17.1996 4.9 17.1996H16.1C17.4255 17.1996 18.5 16.1251 18.5 14.7996V5.99961C18.5 4.67413 17.4255 3.59961 16.1 3.59961L4.9 3.59961Z" fill="#FCFCFC"/>
<path d="M8.64686 9.69633C8.52189 9.84143 8.31928 9.84143 8.19431 9.69633C8.06934 9.55122 8.06934 9.31596 8.19431 9.17086L10.048 7.01844C10.298 6.72823 10.7032 6.72823 10.9531 7.01844L12.8069 9.17086C12.9318 9.31596 12.9318 9.55122 12.8069 9.69633C12.6819 9.84143 12.4793 9.84143 12.3543 9.69633L10.8206 7.91547V13.1492C10.8206 13.3544 10.6773 13.5208 10.5006 13.5208C10.3239 13.5208 10.1806 13.3544 10.1806 13.1492V7.91547L8.64686 9.69633Z" fill="#FCFCFC" stroke="#FCFCFC" stroke-width="0.72" stroke-linecap="round"/>
</svg>
