<svg width="40" height="40" viewBox="0 0 40 40" fill="none" xmlns="http://www.w3.org/2000/svg">
<rect width="40" height="40" rx="8" fill="#FF6A55"/>
<path d="M23.7374 22.3215C22.8215 23.3513 21.4865 24 20 24C17.2386 24 15 21.7614 15 19C15 18.4477 14.5523 18 14 18C13.4477 18 13 18.4477 13 19C13 22.5265 15.6077 25.4439 19 25.9291V28H17C16.4477 28 16 28.4477 16 29C16 29.5523 16.4477 30 17 30H23C23.5523 30 24 29.5523 24 29C24 28.4477 23.5523 28 23 28H21V25.9291C22.6346 25.6953 24.087 24.8968 25.1533 23.7375L23.7374 22.3215Z" fill="#FCFCFC"/>
<path d="M26.2997 22.0554C26.7484 21.1322 27 20.0955 27 19C27 18.4477 26.5523 18 26 18C25.4477 18 25 18.4477 25 19C25 19.5301 24.9175 20.0409 24.7647 20.5204L26.2997 22.0554Z" fill="#FCFCFC"/>
<path d="M17 15.5841V19C17 20.6569 18.3431 22 20 22C20.9343 22 21.7689 21.5729 22.3191 20.9032L17 15.5841Z" fill="#FCFCFC"/>
<path d="M23 18.7557V13C23 11.3431 21.6569 10 20 10C18.4223 10 17.1291 11.2179 17.0091 12.7648L23 18.7557Z" fill="#FCFCFC"/>
<path fill-rule="evenodd" clip-rule="evenodd" d="M10.2929 10.2929C10.6834 9.90237 11.3166 9.90237 11.7071 10.2929L29.7071 28.2929C30.0976 28.6834 30.0976 29.3166 29.7071 29.7071C29.3166 30.0976 28.6834 30.0976 28.2929 29.7071L10.2929 11.7071C9.90237 11.3166 9.90237 10.6834 10.2929 10.2929Z" fill="#FCFCFC"/>
</svg>
