<svg width="24" height="25" viewBox="0 0 24 25" fill="none" xmlns="http://www.w3.org/2000/svg">
<path fill-rule="evenodd" clip-rule="evenodd" d="M2 12.5C2 9.73858 4.23858 7.5 7 7.5H10C10.5523 7.5 11 7.94772 11 8.5C11 9.05228 10.5523 9.5 10 9.5H7C5.34315 9.5 4 10.8431 4 12.5C4 14.1569 5.34315 15.5 7 15.5H10C10.5523 15.5 11 15.9477 11 16.5C11 17.0523 10.5523 17.5 10 17.5H7C4.23858 17.5 2 15.2614 2 12.5Z" fill="white"/>
<path fill-rule="evenodd" clip-rule="evenodd" d="M13 8.5C13 7.94772 13.4477 7.5 14 7.5H17C19.7614 7.5 22 9.73858 22 12.5C22 15.2614 19.7614 17.5 17 17.5H14C13.4477 17.5 13 17.0523 13 16.5C13 15.9477 13.4477 15.5 14 15.5H17C18.6569 15.5 20 14.1569 20 12.5C20 10.8431 18.6569 9.5 17 9.5H14C13.4477 9.5 13 9.05228 13 8.5Z" fill="white"/>
<path fill-rule="evenodd" clip-rule="evenodd" d="M8 12.5C8 11.9477 8.44772 11.5 9 11.5H15C15.5523 11.5 16 11.9477 16 12.5C16 13.0523 15.5523 13.5 15 13.5H9C8.44772 13.5 8 13.0523 8 12.5Z" fill="white"/>
</svg>
