<svg width="16" height="16" viewBox="0 0 16 16" fill="none" xmlns="http://www.w3.org/2000/svg">
<path fill-rule="evenodd" clip-rule="evenodd" d="M14.6667 7.99992C14.6667 11.6818 11.6819 14.6666 8 14.6666C4.3181 14.6666 1.33333 11.6818 1.33333 7.99992C1.33333 4.31802 4.3181 1.33325 8 1.33325C11.6819 1.33325 14.6667 4.31802 14.6667 7.99992ZM11.8091 10.9336C12.0277 11.1567 12.0277 11.5099 11.8091 11.733C10.8411 12.7205 9.49213 13.3333 8.00004 13.3333C6.50791 13.3333 5.15889 12.7205 4.19091 11.7329C3.9723 11.5098 3.97231 11.1566 4.19091 10.9336C5.15889 9.94598 6.50788 9.33325 7.99997 9.33325C9.4921 9.33325 10.8411 9.94602 11.8091 10.9336ZM8 7.99992C9.10457 7.99992 10 7.10449 10 5.99992C10 4.89535 9.10457 3.99992 8 3.99992C6.89543 3.99992 6 4.89535 6 5.99992C6 7.10449 6.89543 7.99992 8 7.99992Z" fill="#EFEFEF"/>
</svg>
