<svg width="24" height="24" viewBox="0 0 24 24" fill="none" xmlns="http://www.w3.org/2000/svg">
<rect width="24" height="24" rx="4.36364" fill="#6F767E"/>
<path d="M7.66219 14.1282H10.5291V16.0918H5.09637V6.8627H7.66219V14.1282ZM15.1791 6.8627C16.1479 6.8627 16.9944 7.05907 17.7188 7.4518C18.4519 7.8358 19.0148 8.37689 19.4075 9.07507C19.8002 9.77325 19.9966 10.5718 19.9966 11.4707C19.9966 12.3609 19.7959 13.1551 19.3944 13.8533C19.0017 14.5514 18.4388 15.1013 17.7057 15.5027C16.9813 15.8954 16.1391 16.0918 15.1791 16.0918H11.5268V6.8627H15.1791ZM14.9828 13.8271C15.7333 13.8271 16.3224 13.622 16.75 13.2118C17.1777 12.8016 17.3915 12.2213 17.3915 11.4707C17.3915 10.7114 17.1777 10.1267 16.75 9.71652C16.3224 9.29761 15.7333 9.08816 14.9828 9.08816H14.0926V13.8271H14.9828Z" fill="#111315"/>
</svg>
