<svg width="21" height="20" viewBox="0 0 21 20" fill="none" xmlns="http://www.w3.org/2000/svg">
<path fill-rule="evenodd" clip-rule="evenodd" d="M5.87529 9.16683C5.87529 8.70659 6.25107 8.3335 6.71462 8.3335H13.4292C13.8928 8.3335 14.2686 8.70659 14.2686 9.16683C14.2686 9.62707 13.8928 10.0002 13.4292 10.0002H6.71462C6.25107 10.0002 5.87529 9.62707 5.87529 9.16683Z" fill="#6F767E"/>
<path fill-rule="evenodd" clip-rule="evenodd" d="M5.87529 12.4998C5.87529 12.0396 6.25107 11.6665 6.71462 11.6665H10.0719C10.5355 11.6665 10.9113 12.0396 10.9113 12.4998C10.9113 12.9601 10.5355 13.3332 10.0719 13.3332H6.71462C6.25107 13.3332 5.87529 12.9601 5.87529 12.4998Z" fill="#6F767E"/>
<path fill-rule="evenodd" clip-rule="evenodd" d="M17.6259 15.8332C17.6259 17.2139 16.4985 18.3332 15.1079 18.3332H5.03596C3.64532 18.3332 2.51797 17.2139 2.51797 15.8332V4.1665C2.51797 2.78579 3.64532 1.6665 5.03596 1.6665H13.4292L13.4382 1.67543C14.0281 1.72505 14.5842 1.97992 15.0061 2.39874L16.8884 4.2676C17.3102 4.68642 17.5669 5.23854 17.6169 5.82425L17.6259 5.83317V15.8332ZM15.1079 16.6665H5.03596C4.57241 16.6665 4.19663 16.2934 4.19663 15.8332V4.1665C4.19663 3.70627 4.57241 3.33317 5.03596 3.33317H12.5899V4.99984C12.5899 5.92031 13.3415 6.6665 14.2686 6.6665H15.9472V15.8332C15.9472 16.2934 15.5715 16.6665 15.1079 16.6665Z" fill="#6F767E"/>
</svg>
