<svg width="24" height="25" viewBox="0 0 24 25" fill="none" xmlns="http://www.w3.org/2000/svg">
<path d="M12 22.5C17.5228 22.5 22 18.0228 22 12.5C22 10.842 21.5965 9.27819 20.8823 7.9015C20.7327 7.61315 20.348 7.56624 20.1183 7.79594L12.4142 15.5C11.6332 16.281 10.3668 16.2811 9.58579 15.5L6.79289 12.7071C6.40237 12.3166 6.40237 11.6834 6.79289 11.2929C7.18342 10.9024 7.81658 10.9024 8.20711 11.2929L11 14.0858L19.0214 6.07007C19.211 5.88054 19.2183 5.57414 19.0276 5.38571C17.2215 3.60148 14.7394 2.5 12 2.5C6.47715 2.5 2 6.97715 2 12.5C2 18.0228 6.47715 22.5 12 22.5Z" fill="white"/>
</svg>
