<svg width="18" height="18" viewBox="0 0 18 18" fill="none" xmlns="http://www.w3.org/2000/svg">
<path fill-rule="evenodd" clip-rule="evenodd" d="M4.83329 0.666504C5.29353 0.666504 5.66663 1.0396 5.66663 1.49984V2.33317H12.3333V1.49984C12.3333 1.0396 12.7064 0.666504 13.1666 0.666504C13.6269 0.666504 14 1.0396 14 1.49984V2.33317H14.8333C16.214 2.33317 17.3333 3.45246 17.3333 4.83317V14.8332C17.3333 16.2139 16.214 17.3332 14.8333 17.3332H3.16663C1.78591 17.3332 0.666626 16.2139 0.666626 14.8332V4.83317C0.666626 3.45246 1.78591 2.33317 3.16663 2.33317H3.99996V1.49984C3.99996 1.0396 4.37306 0.666504 4.83329 0.666504ZM12.3333 3.99984V4.83317C12.3333 5.29341 12.7064 5.6665 13.1666 5.6665C13.6269 5.6665 14 5.29341 14 4.83317V3.99984H14.8333C15.2935 3.99984 15.6666 4.37293 15.6666 4.83317V7.33317H2.33329V4.83317C2.33329 4.37293 2.70639 3.99984 3.16663 3.99984H3.99996V4.83317C3.99996 5.29341 4.37306 5.6665 4.83329 5.6665C5.29353 5.6665 5.66663 5.29341 5.66663 4.83317V3.99984H12.3333ZM2.33329 8.99984V14.8332C2.33329 15.2934 2.70639 15.6665 3.16663 15.6665H14.8333C15.2935 15.6665 15.6666 15.2934 15.6666 14.8332V8.99984H2.33329Z" fill="#6F767E"/>
</svg>
