<svg width="49" height="48" viewBox="0 0 49 48" fill="none" xmlns="http://www.w3.org/2000/svg">
<path d="M13.3438 12.7852H26.4665V14.2671H13.3438V12.7852Z" fill="#EFEFEF"/>
<path d="M23.9258 22.5586H37.0485V24.0406H23.9258V22.5586Z" fill="#EFEFEF"/>
<path d="M13.3438 16.043H37.0554V17.5249H13.3438V16.043Z" fill="#EFEFEF"/>
<path d="M13.3438 19.3008H37.0554V20.7828H13.3438V19.3008Z" fill="#EFEFEF"/>
<path d="M41.5008 32.5059V13.0225L30.4782 2H11.8612C11.0752 2 10.3213 2.31227 9.76525 2.86802C9.20951 3.42409 8.89724 4.178 8.89724 4.96396V29.9662C8.67263 30.0952 8.48572 30.2808 8.35572 30.5051C8.22572 30.729 8.15691 30.9831 8.15625 31.2421V42.0131C8.15757 42.9953 8.54825 43.9371 9.24258 44.6317C9.93726 45.3261 10.879 45.7167 11.8612 45.7181H38.5368C39.519 45.7167 40.4608 45.3261 41.1554 44.6317C41.8498 43.937 42.2404 42.9953 42.2417 42.0131V33.7828C42.2411 33.5238 42.1726 33.2694 42.0423 33.0451C41.9123 32.8212 41.7254 32.6353 41.5008 32.5062V32.5059ZM21.7244 39.6558C21.2189 40.023 20.6006 40.2016 19.9771 40.1603H18.9655V42.7537H17.5517V36.1433H19.9881C20.3027 36.1407 20.6166 36.1768 20.9226 36.2502C21.1932 36.3134 21.4476 36.4315 21.6709 36.5969C21.8872 36.7613 22.0592 36.9766 22.172 37.2237C22.3 37.5185 22.3622 37.838 22.3533 38.1596C22.39 38.7292 22.1571 39.2833 21.7245 39.6558L21.7244 39.6558ZM28.0807 40.8606H28.0804C27.9683 41.2466 27.7681 41.6019 27.4959 41.898C26.912 42.5017 26.0916 42.817 25.2537 42.7604H23.0737V36.1434H25.2358C25.7003 36.1322 26.1624 36.2122 26.5964 36.3789C26.9602 36.5238 27.2838 36.7541 27.5402 37.0505C27.7959 37.3555 27.9831 37.7117 28.0893 38.0951C28.2124 38.5394 28.2722 38.9989 28.2666 39.46C28.2739 39.9334 28.211 40.4054 28.0804 40.8606L28.0807 40.8606ZM33.2905 37.3528H30.4185V38.7044H32.5615L32.5704 39.9138L30.4215 39.9228V42.7594L29.0048 42.759V36.1434H33.2906L33.2905 37.3528ZM40.0186 32.3005H23.7804L22.002 30.2658C21.7205 29.9443 21.3139 29.7597 20.8865 29.7597H10.3789V4.96323C10.3789 4.57024 10.535 4.19312 10.8129 3.91526C11.0908 3.63739 11.4679 3.48125 11.8609 3.48125H29.4295V11.1062C29.4295 11.8921 29.7418 12.6461 30.2978 13.2018C30.8536 13.7578 31.6075 14.0701 32.3935 14.0701H40.0184L40.0186 32.3005Z" fill="#EFEFEF"/>
<path d="M26.4597 37.8747C26.1647 37.5131 25.7111 37.3193 25.2457 37.356H24.4961V41.5529H25.2281C25.5067 41.5634 25.7839 41.5062 26.0356 41.3871C26.2404 41.2826 26.4131 41.1245 26.5351 40.93C26.6618 40.7236 26.7482 40.4953 26.7902 40.2571C26.8398 39.9895 26.8646 39.7179 26.8643 39.4457C26.8692 39.1364 26.8348 38.8274 26.7621 38.5267C26.7048 38.2918 26.602 38.0702 26.4597 37.8747L26.4597 37.8747Z" fill="#EFEFEF"/>
<path d="M20.6979 37.5439C20.4478 37.3947 20.1574 37.3279 19.8672 37.3527H18.9648V38.9531H19.8672C20.0032 38.9534 20.1392 38.9432 20.2735 38.9227C20.3925 38.9058 20.5077 38.8674 20.6129 38.8092C20.7114 38.7539 20.7931 38.6729 20.8491 38.5743C20.9139 38.4529 20.945 38.3163 20.9387 38.1787C20.9437 38.0441 20.9222 37.9097 20.8759 37.7831C20.8398 37.6884 20.7783 37.6057 20.6979 37.5439L20.6979 37.5439Z" fill="#EFEFEF"/>
</svg>
