<svg width="16" height="16" viewBox="0 0 16 16" fill="none" xmlns="http://www.w3.org/2000/svg">
<path fill-rule="evenodd" clip-rule="evenodd" d="M8.00016 14.6673C11.6821 14.6673 14.6668 11.6825 14.6668 8.00065C14.6668 4.31875 11.6821 1.33398 8.00016 1.33398C4.31826 1.33398 1.3335 4.31875 1.3335 8.00065C1.3335 11.6825 4.31826 14.6673 8.00016 14.6673ZM5.52876 10.4721C5.26841 10.2117 5.26841 9.7896 5.52876 9.52925L7.05737 8.00063L5.52882 6.47208C5.26847 6.21173 5.26847 5.78962 5.52882 5.52927C5.78917 5.26892 6.21128 5.26892 6.47163 5.52927L8.00018 7.05782L9.52876 5.52925C9.78911 5.2689 10.2112 5.2689 10.4716 5.52925C10.7319 5.7896 10.7319 6.21171 10.4716 6.47206L8.94299 8.00063L10.4716 9.52927C10.732 9.78963 10.732 10.2117 10.4716 10.4721C10.2113 10.7324 9.78917 10.7324 9.52882 10.4721L8.00018 8.94344L6.47157 10.4721C6.21122 10.7324 5.78911 10.7324 5.52876 10.4721Z" fill="#FF6A55"/>
</svg>
