<svg width="24" height="24" viewBox="0 0 24 24" fill="none" xmlns="http://www.w3.org/2000/svg">
<path fill-rule="evenodd" clip-rule="evenodd" d="M5.27337 4.81048C5.63786 4.44599 6.22881 4.44599 6.5933 4.81048L12 10.2172L17.4067 4.81047C17.7712 4.44598 18.3621 4.44598 18.7266 4.81047C19.0911 5.17496 19.0911 5.76592 18.7266 6.13041L13.3199 11.5371C12.591 12.2661 11.409 12.2661 10.6801 11.5371L5.27337 6.13041C4.90888 5.76592 4.90888 5.17497 5.27337 4.81048Z" fill="#BBB2E9"/>
<path fill-rule="evenodd" clip-rule="evenodd" d="M5.27337 12.2753C5.63786 11.9108 6.22881 11.9108 6.5933 12.2753L12 17.682L17.4067 12.2753C17.7712 11.9108 18.3621 11.9108 18.7266 12.2753C19.0911 12.6398 19.0911 13.2308 18.7266 13.5953L13.3199 19.002C12.591 19.7309 11.409 19.7309 10.6801 19.002L5.27337 13.5953C4.90888 13.2308 4.90888 12.6398 5.27337 12.2753Z" fill="#BBB2E9"/>
</svg>
