<svg width="16" height="16" viewBox="0 0 16 16" fill="none" xmlns="http://www.w3.org/2000/svg">
<path d="M1.3335 7.99935C1.3335 7.26297 1.93045 6.66602 2.66683 6.66602H3.00016C3.55245 6.66602 4.00016 7.11373 4.00016 7.66602V12.9993C4.00016 13.5516 3.55245 13.9993 3.00016 13.9993H2.66683C1.93045 13.9993 1.3335 13.4024 1.3335 12.666V7.99935Z" fill="#6F767E"/>
<path d="M14.6448 9.19088C14.9917 7.91892 14.0345 6.66517 12.7161 6.66464L10.2343 6.66364C9.94601 6.66352 9.73454 6.39257 9.80446 6.11288L10.2473 4.34156C10.4924 3.36104 10.0236 2.34182 9.11965 1.88982C8.57928 1.61964 7.93574 1.97433 7.87562 2.57549L7.74961 3.83557C7.69577 4.37405 7.47542 4.88235 7.11924 5.28977L5.82778 6.76698C5.50912 7.13148 5.3335 7.59919 5.3335 8.08335V11.999C5.3335 13.1036 6.22893 13.999 7.3335 13.999H11.0421C12.395 13.999 13.5804 13.0936 13.9364 11.7884L14.6448 9.19088Z" fill="#6F767E"/>
</svg>
