<svg width="16" height="16" viewBox="0 0 16 16" fill="none" xmlns="http://www.w3.org/2000/svg">
<path d="M9.37827 2.33367C9.37827 3.25409 8.63205 4.00034 7.71159 4.00034C6.79105 4.00034 6.04492 3.25412 6.04492 2.33367C6.04492 1.41312 6.79102 0.666992 7.71159 0.666992C8.63202 0.666992 9.37827 1.41309 9.37827 2.33367Z" fill="#EFEFEF"/>
<path d="M4.73438 6.25793V6.56632H5.99921V6.42764C5.99921 6.27202 6.12652 6.14471 6.28214 6.14471C6.43776 6.14471 6.56507 6.27202 6.56507 6.42764V6.56632H8.84862V6.42764C8.84862 6.27202 8.97593 6.14471 9.13155 6.14471C9.28717 6.14471 9.41448 6.27202 9.41448 6.42764V6.56632H10.6793V6.25793C10.6793 5.17985 9.80209 4.2998 8.7212 4.2998H6.69225C5.61442 4.2998 4.73438 5.17985 4.73438 6.25793Z" fill="#EFEFEF"/>
<path d="M3.39085 7.24936C3.33708 7.32006 3.32015 7.41351 3.34561 7.49842L3.73607 8.80861C3.77006 8.92752 3.88044 9.00947 4.00775 9.00947H4.40107L4.7972 14.5528C4.80573 14.6999 4.9302 14.816 5.07729 14.816H10.3378C10.4849 14.816 10.6094 14.6999 10.6179 14.5528L11.0168 9.00947H11.4073C11.5346 9.00947 11.645 8.9274 11.679 8.80861L12.0695 7.49842C12.0949 7.4135 12.078 7.32018 12.0242 7.24936C11.9704 7.17582 11.8884 7.1333 11.7979 7.1333H3.61718C3.52954 7.1333 3.44463 7.1757 3.39086 7.24936H3.39085Z" fill="#EFEFEF"/>
</svg>
