<svg width="33" height="32" viewBox="0 0 33 32" fill="none" xmlns="http://www.w3.org/2000/svg">
<path fill-rule="evenodd" clip-rule="evenodd" d="M21.7953 13.3327C23.2681 13.3327 24.462 12.1388 24.462 10.666C24.462 9.19326 23.2681 7.99935 21.7953 7.99935C20.3226 7.99935 19.1287 9.19326 19.1287 10.666C19.1287 12.1388 20.3226 13.3327 21.7953 13.3327Z" fill="#1A1D1F"/>
<path fill-rule="evenodd" clip-rule="evenodd" d="M3.12866 6.66602C3.12866 4.45688 4.91952 2.66602 7.12866 2.66602H25.7953C28.0045 2.66602 29.7953 4.45688 29.7953 6.66602V25.3327C29.7953 27.5418 28.0045 29.3327 25.7953 29.3327H7.12866C4.91952 29.3327 3.12866 27.5418 3.12866 25.3327V6.66602ZM7.12866 5.33268H25.7953C26.5317 5.33268 27.1287 5.92964 27.1287 6.66602V25.3327C27.1287 25.6365 27.027 25.9166 26.8559 26.1409C26.815 26.0865 26.7708 26.0332 26.7232 25.9812L14.5541 12.7058C12.9177 10.9207 10.0829 10.9876 8.53256 12.848L5.79533 16.1327V6.66602C5.79533 5.92964 6.39228 5.33268 7.12866 5.33268ZM5.79533 20.2981V25.3327C5.79533 26.0691 6.39228 26.666 7.12866 26.666H23.7334L12.5883 14.5078C12.0429 13.9127 11.0979 13.935 10.5812 14.5552L5.79533 20.2981Z" fill="#1A1D1F"/>
</svg>
