<svg width="12" height="10" viewBox="0 0 12 10" fill="none" xmlns="http://www.w3.org/2000/svg">
<path d="M4 4.5H1.055C1.14793 3.88117 1.36889 3.28852 1.70379 2.75992C2.03869 2.23131 2.48016 1.77836 3 1.43L3.895 0.83L3.345 0L2.45 0.6C1.69664 1.10204 1.07885 1.78228 0.651466 2.58036C0.224078 3.37844 0.000303543 4.26969 0 5.175V8.5C0 8.76522 0.105357 9.01957 0.292893 9.20711C0.48043 9.39464 0.734784 9.5 1 9.5H4C4.26522 9.5 4.51957 9.39464 4.70711 9.20711C4.89464 9.01957 5 8.76522 5 8.5V5.5C5 5.23478 4.89464 4.98043 4.70711 4.79289C4.51957 4.60536 4.26522 4.5 4 4.5ZM11 4.5H8.055C8.14793 3.88117 8.36889 3.28852 8.70379 2.75992C9.03869 2.23131 9.48016 1.77836 10 1.43L10.895 0.83L10.35 0L9.45 0.6C8.69664 1.10204 8.07885 1.78228 7.65147 2.58036C7.22408 3.37844 7.0003 4.26969 7 5.175V8.5C7 8.76522 7.10536 9.01957 7.29289 9.20711C7.48043 9.39464 7.73478 9.5 8 9.5H11C11.2652 9.5 11.5196 9.39464 11.7071 9.20711C11.8946 9.01957 12 8.76522 12 8.5V5.5C12 5.23478 11.8946 4.98043 11.7071 4.79289C11.5196 4.60536 11.2652 4.5 11 4.5Z" fill="#EFEFEF"/>
</svg>
