<svg width="25" height="24" viewBox="0 0 25 24" fill="none" xmlns="http://www.w3.org/2000/svg">
<path d="M12.5 2C11.9477 2 11.5 2.44772 11.5 3V6C11.5 6.55228 11.9477 7 12.5 7C13.0523 7 13.5 6.55228 13.5 6V3C13.5 2.44772 13.0523 2 12.5 2Z" fill="white"/>
<path d="M12.5 17C11.9477 17 11.5 17.4477 11.5 18V21C11.5 21.5523 11.9477 22 12.5 22C13.0523 22 13.5 21.5523 13.5 21V18C13.5 17.4477 13.0523 17 12.5 17Z" fill="white"/>
<path d="M21.5 11C22.0523 11 22.5 11.4477 22.5 12C22.5 12.5523 22.0523 13 21.5 13H18.5C17.9477 13 17.5 12.5523 17.5 12C17.5 11.4477 17.9477 11 18.5 11H21.5Z" fill="white"/>
<path d="M7.5 12C7.5 11.4477 7.05228 11 6.5 11H3.5C2.94772 11 2.5 11.4477 2.5 12C2.5 12.5523 2.94772 13 3.5 13H6.5C7.05228 13 7.5 12.5523 7.5 12Z" fill="white"/>
<path d="M18.1569 4.92903C18.5474 4.53851 19.1806 4.53851 19.5711 4.92903C19.9616 5.31955 19.9616 5.95272 19.5711 6.34324L17.4498 8.46456C17.0593 8.85509 16.4261 8.85509 16.0356 8.46456C15.6451 8.07404 15.6451 7.44088 16.0356 7.05035L18.1569 4.92903Z" fill="white"/>
<path d="M8.96443 15.5355C8.57391 15.145 7.94074 15.145 7.55022 15.5355L5.4289 17.6568C5.03837 18.0473 5.03837 18.6805 5.4289 19.071C5.81942 19.4615 6.45259 19.4615 6.84311 19.071L8.96443 16.9497C9.35496 16.5592 9.35496 15.926 8.96443 15.5355Z" fill="white"/>
<path d="M19.5711 17.6569C19.9616 18.0474 19.9616 18.6806 19.5711 19.0711C19.1806 19.4616 18.5474 19.4616 18.1569 19.0711L16.0356 16.9498C15.645 16.5593 15.645 15.9261 16.0356 15.5356C16.4261 15.1451 17.0592 15.1451 17.4498 15.5356L19.5711 17.6569Z" fill="white"/>
<path d="M8.96452 8.46443C9.35505 8.07391 9.35505 7.44074 8.96452 7.05022L6.8432 4.9289C6.45268 4.53837 5.81951 4.53837 5.42899 4.9289C5.03847 5.31942 5.03847 5.95259 5.42899 6.34311L7.55031 8.46443C7.94083 8.85495 8.574 8.85495 8.96452 8.46443Z" fill="white"/>
</svg>
