<svg width="35" height="35" viewBox="0 0 35 35" fill="none" xmlns="http://www.w3.org/2000/svg">
<path d="M13.4602 34.0998C10.6117 33.9338 8.38672 31.5754 8.38672 28.722L8.38672 6.6261C8.38672 3.77274 10.6117 1.41434 13.4602 1.24835L28.7386 0.35804C31.8316 0.177799 34.4388 2.6375 34.4388 5.73578V29.6124C34.4388 32.7106 31.8316 35.1703 28.7386 34.9901L13.4602 34.0998Z" fill="#6F767E"/>
<rect x="5" y="24" width="2" height="4" transform="rotate(-90 5 24)" fill="#6F767E"/>
<rect x="5" y="13" width="2" height="4" transform="rotate(-90 5 13)" fill="#6F767E"/>
<path d="M3.31673 33.6445C2.00536 33.6445 0.914386 32.6363 0.811178 31.329L0.273074 24.513C-0.0861648 19.9626 -0.090764 15.3912 0.259319 10.8402L0.81545 3.61045C0.916192 2.30079 2.00827 1.2895 3.32179 1.2895C4.78607 1.2895 5.94044 2.53607 5.82813 3.99604L5.1192 13.2122C4.89057 16.1843 4.89358 19.1697 5.12818 22.1414L5.82229 30.9334C5.93767 32.3949 4.78279 33.6445 3.31673 33.6445Z" fill="#555A5F"/>
</svg>
