<svg width="16" height="16" viewBox="0 0 16 16" fill="none" xmlns="http://www.w3.org/2000/svg">
<path d="M5.33366 7.99935C5.33366 8.73573 4.73671 9.33268 4.00033 9.33268C3.26395 9.33268 2.66699 8.73573 2.66699 7.99935C2.66699 7.26297 3.26395 6.66602 4.00033 6.66602C4.73671 6.66602 5.33366 7.26297 5.33366 7.99935Z" fill="#6F767E"/>
<path d="M9.33366 7.99935C9.33366 8.73573 8.73671 9.33268 8.00033 9.33268C7.26395 9.33268 6.66699 8.73573 6.66699 7.99935C6.66699 7.26297 7.26395 6.66602 8.00033 6.66602C8.73671 6.66602 9.33366 7.26297 9.33366 7.99935Z" fill="#6F767E"/>
<path d="M13.3337 7.99935C13.3337 8.73573 12.7367 9.33268 12.0003 9.33268C11.2639 9.33268 10.667 8.73573 10.667 7.99935C10.667 7.26297 11.2639 6.66602 12.0003 6.66602C12.7367 6.66602 13.3337 7.26297 13.3337 7.99935Z" fill="#6F767E"/>
</svg>
