<svg width="24" height="24" viewBox="0 0 24 24" fill="none" xmlns="http://www.w3.org/2000/svg">
<rect width="24" height="24" rx="12" fill="#272B30"/>
<path fill-rule="evenodd" clip-rule="evenodd" d="M10.7028 5.77172C11.4503 5.13469 12.5498 5.13469 13.2973 5.77172L13.3442 5.81167C13.6645 6.08465 14.0628 6.24962 14.4823 6.2831L14.5437 6.288C15.5227 6.36613 16.3001 7.14355 16.3783 8.12257L16.3832 8.18396C16.4167 8.6035 16.5816 9.00178 16.8546 9.32211L16.8946 9.36898C17.5316 10.1165 17.5316 11.2159 16.8946 11.9635L16.8546 12.0103C16.5816 12.3307 16.4167 12.7289 16.3832 13.1485L16.3783 13.2099C16.3228 13.9046 15.9152 14.4978 15.3333 14.8117V18.1035C15.3333 18.5501 14.9029 18.8704 14.4751 18.7421L12 17.9995L9.52491 18.7421C9.09717 18.8704 8.66668 18.5501 8.66668 18.1035V14.8116C8.08483 14.4978 7.67727 13.9046 7.62183 13.2099L7.61693 13.1485C7.58345 12.7289 7.41848 12.3307 7.1455 12.0103L7.10555 11.9635C6.46852 11.2159 6.46852 10.1165 7.10555 9.36899L7.1455 9.32211C7.41848 9.00178 7.58345 8.6035 7.61693 8.18397L7.62183 8.12257C7.69996 7.14355 8.47738 6.36613 9.4564 6.288L9.5178 6.2831C9.93733 6.24962 10.3356 6.08465 10.6559 5.81167L10.7028 5.77172ZM12.4325 6.78654L12.4793 6.82649C13.0132 7.28145 13.677 7.55641 14.3762 7.61221L14.4376 7.61711C14.764 7.64315 15.0231 7.90229 15.0492 8.22863L15.0541 8.29003C15.1099 8.98925 15.3848 9.65305 15.8398 10.1869L15.8797 10.2338C16.0921 10.483 16.0921 10.8495 15.8797 11.0986L15.8398 11.1455C15.3848 11.6794 15.1099 12.3432 15.0541 13.0424L15.0492 13.1038C15.0231 13.4301 14.764 13.6893 14.4376 13.7153L14.3762 13.7202C13.677 13.776 13.0132 14.051 12.4793 14.506L12.4325 14.5459C12.1833 14.7582 11.8168 14.7582 11.5676 14.5459L11.5208 14.506C10.9869 14.051 10.3231 13.776 9.62386 13.7202L9.56246 13.7153C9.23612 13.6893 8.97698 13.4301 8.95094 13.1038L8.94604 13.0424C8.89024 12.3432 8.61529 11.6794 8.16032 11.1455L8.12037 11.0986C7.90802 10.8495 7.90803 10.483 8.12037 10.2338L8.16032 10.1869C8.61529 9.65305 8.89024 8.98925 8.94604 8.29003L8.95094 8.22863C8.97698 7.90229 9.23612 7.64315 9.56246 7.61711L9.62386 7.61221C10.3231 7.55641 10.9869 7.28146 11.5208 6.82649L11.5676 6.78654C11.8168 6.57419 12.1833 6.57419 12.4325 6.78654Z" fill="#EFEFEF"/>
<circle cx="12" cy="10.667" r="2" fill="#EFEFEF"/>
</svg>
