<svg width="32" height="32" viewBox="0 0 32 32" fill="none" xmlns="http://www.w3.org/2000/svg">
<path fill-rule="evenodd" clip-rule="evenodd" d="M17.3358 6.66634C17.3358 5.92996 16.7389 5.33301 16.0025 5.33301C15.2661 5.33301 14.6692 5.92996 14.6692 6.66634V17.448L10.9453 13.7241C10.4246 13.2034 9.58035 13.2034 9.05965 13.7241C8.53895 14.2448 8.53895 15.089 9.05965 15.6097L14.1169 20.667C15.1583 21.7084 16.8467 21.7084 17.8881 20.667L22.9428 15.6123C23.4635 15.0916 23.4635 14.2474 22.9428 13.7267C22.4221 13.206 21.5779 13.206 21.0572 13.7267L17.3358 17.448V6.66634Z" fill="#FFD88D"/>
<path fill-rule="evenodd" clip-rule="evenodd" d="M5.33333 18.667C6.06971 18.667 6.66667 19.2639 6.66667 20.0003V22.667C6.66667 23.4034 7.26362 24.0003 8 24.0003H24C24.7364 24.0003 25.3333 23.4034 25.3333 22.667V20.0003C25.3333 19.2639 25.9303 18.667 26.6667 18.667C27.403 18.667 28 19.2639 28 20.0003V22.667C28 24.8761 26.2091 26.667 24 26.667H8C5.79086 26.667 4 24.8761 4 22.667V20.0003C4 19.2639 4.59695 18.667 5.33333 18.667Z" fill="#FFD88D"/>
</svg>
