<svg width="21" height="10" viewBox="0 0 21 10" fill="none" xmlns="http://www.w3.org/2000/svg">
<path d="M18.1416 7.74243C17.0568 3.69396 12.8955 1.29142 8.84702 2.3762C6.57411 2.98523 4.85019 4.55694 3.95603 6.54921L5.41047 6.15492C5.94351 6.01042 6.49277 6.32539 6.63728 6.85844C6.78178 7.39148 6.46681 7.94074 5.93376 8.08525L2.76338 8.94471C2.72801 8.95647 2.69186 8.96629 2.65511 8.97406L2.2494 9.08405C1.99293 9.15357 1.71934 9.11817 1.48902 8.98564C1.2587 8.85312 1.0906 8.63437 1.02183 8.3777L0.033834 4.69045C-0.109108 4.15698 0.207475 3.60864 0.740941 3.4657C1.27441 3.32276 1.82274 3.63934 1.96569 4.17281L2.29213 5.3911C3.45925 3.03979 5.57192 1.18321 8.32938 0.444351C13.4448 -0.926316 18.7028 2.10939 20.0734 7.22479C20.2164 7.75826 19.8998 8.30659 19.3663 8.44953C18.8329 8.59248 18.2845 8.27589 18.1416 7.74243Z" fill="#1A1D1F"/>
</svg>
