<svg width="18" height="14" viewBox="0 0 18 14" fill="none" xmlns="http://www.w3.org/2000/svg">
<path fill-rule="evenodd" clip-rule="evenodd" d="M3.16663 1.99967H14.8333C15.1552 1.99967 15.4344 2.18215 15.5732 2.44929L9.46222 6.52329C9.1823 6.7099 8.81764 6.7099 8.53772 6.52329L2.4267 2.44928C2.56553 2.18214 2.84477 1.99967 3.16663 1.99967ZM2.33329 4.39009V11.1663C2.33329 11.6266 2.70639 11.9997 3.16663 11.9997H14.8333C15.2935 11.9997 15.6666 11.6266 15.6666 11.1663V4.3901L10.3867 7.91004C9.54697 8.46987 8.45297 8.46987 7.61322 7.91004L2.33329 4.39009ZM0.666626 2.83301C0.666626 1.4523 1.78591 0.333008 3.16663 0.333008H14.8333C16.214 0.333008 17.3333 1.4523 17.3333 2.83301V11.1663C17.3333 12.5471 16.214 13.6663 14.8333 13.6663H3.16663C1.78591 13.6663 0.666626 12.5471 0.666626 11.1663V2.83301Z" fill="#BBB2E9"/>
</svg>
