<svg width="20" height="20" viewBox="0 0 20 20" fill="none" xmlns="http://www.w3.org/2000/svg">
<path fill-rule="evenodd" clip-rule="evenodd" d="M10.6312 4.05997L5.63123 5.30997C5.26025 5.40271 5.00001 5.73603 5.00001 6.11842V16.6665H11.6667V8.33315V6.66648V4.86842C11.6667 4.32627 11.1572 3.92848 10.6312 4.05997ZM13.3333 8.33315V16.6665H15V9.16648C15 8.70624 14.6269 8.33315 14.1667 8.33315H13.3333ZM16.6667 18.3331H17.5C17.9602 18.3331 18.3333 17.96 18.3333 17.4998C18.3333 17.0396 17.9602 16.6665 17.5 16.6665H16.6667V9.16648C16.6667 7.78577 15.5474 6.66648 14.1667 6.66648H13.3333V4.86842C13.3333 3.24199 11.8049 2.0486 10.227 2.44306L5.227 3.69306C4.11408 3.97129 3.33334 4.97125 3.33334 6.11842V16.6665H2.50001C2.03977 16.6665 1.66667 17.0396 1.66667 17.4998C1.66667 17.96 2.03977 18.3331 2.50001 18.3331H3.33334H5.00001H11.6667H13.3333H15H16.6667Z" fill="#6F767E"/>
<path fill-rule="evenodd" clip-rule="evenodd" d="M6.66667 14.1668C6.66667 13.7066 7.03977 13.3335 7.50001 13.3335H9.16667C9.62691 13.3335 10 13.7066 10 14.1668C10 14.6271 9.62691 15.0002 9.16667 15.0002H7.50001C7.03977 15.0002 6.66667 14.6271 6.66667 14.1668Z" fill="#6F767E"/>
<path fill-rule="evenodd" clip-rule="evenodd" d="M6.66667 10.8333C6.66667 10.3731 7.03977 10 7.50001 10H9.16667C9.62691 10 10 10.3731 10 10.8333C10 11.2936 9.62691 11.6667 9.16667 11.6667H7.50001C7.03977 11.6667 6.66667 11.2936 6.66667 10.8333Z" fill="#6F767E"/>
<path fill-rule="evenodd" clip-rule="evenodd" d="M6.66667 7.49984C6.66667 7.0396 7.03977 6.6665 7.50001 6.6665H9.16667C9.62691 6.6665 10 7.0396 10 7.49984C10 7.96007 9.62691 8.33317 9.16667 8.33317H7.50001C7.03977 8.33317 6.66667 7.96007 6.66667 7.49984Z" fill="#6F767E"/>
</svg>
