<svg width="20" height="20" viewBox="0 0 20 20" fill="none" xmlns="http://www.w3.org/2000/svg">
<path fill-rule="evenodd" clip-rule="evenodd" d="M4.16667 5.00016H15.8333C16.1552 5.00016 16.4344 5.18264 16.5733 5.44978L10.4623 9.52378C10.1823 9.71039 9.81768 9.71039 9.53777 9.52378L3.42675 5.44977C3.56557 5.18263 3.84481 5.00016 4.16667 5.00016ZM3.33334 7.39058V14.1668C3.33334 14.6271 3.70643 15.0002 4.16667 15.0002H15.8333C16.2936 15.0002 16.6667 14.6271 16.6667 14.1668V7.39059L11.3868 10.9105C10.547 11.4704 9.45301 11.4704 8.61327 10.9105L3.33334 7.39058ZM1.66667 5.8335C1.66667 4.45278 2.78596 3.3335 4.16667 3.3335H15.8333C17.2141 3.3335 18.3333 4.45278 18.3333 5.8335V14.1668C18.3333 15.5475 17.2141 16.6668 15.8333 16.6668H4.16667C2.78596 16.6668 1.66667 15.5475 1.66667 14.1668V5.8335Z" fill="#6F767E"/>
</svg>
