<svg width="25" height="24" viewBox="0 0 25 24" fill="none" xmlns="http://www.w3.org/2000/svg">
<path d="M12.5 21.5C12.5 21.7761 12.7241 22.0013 12.9999 21.9877C18.2905 21.7272 22.5 17.3552 22.5 12C22.5 6.47715 18.0228 2 12.5 2C6.97715 2 2.5 6.47715 2.5 12C2.5 16.6251 5.63989 20.5168 9.90433 21.6598C10.2097 21.7417 10.5 21.5044 10.5 21.1883V14H9.5C8.94771 14 8.5 13.5523 8.5 13C8.5 12.4477 8.94772 12 9.5 12H10.5V10C10.5 8.34315 11.8431 7 13.5 7H14.5C15.0523 7 15.5 7.44772 15.5 8C15.5 8.55229 15.0523 9 14.5 9H13.5C12.9477 9 12.5 9.44772 12.5 10V12H14.5C15.0523 12 15.5 12.4477 15.5 13C15.5 13.5523 15.0523 14 14.5 14H12.5V21.5Z" fill="#FCFCFC"/>
</svg>
