<svg width="16" height="16" viewBox="0 0 16 16" fill="none" xmlns="http://www.w3.org/2000/svg">
<path d="M7.99998 14.6663C11.6819 14.6663 14.6666 11.6816 14.6666 7.99967C14.6666 6.89432 14.3976 5.8518 13.9215 4.93401C13.8218 4.74177 13.5653 4.7105 13.4122 4.86363L8.27612 9.99967C7.75542 10.5204 6.9112 10.5204 6.3905 9.99968L4.52858 8.13775C4.26823 7.8774 4.26823 7.45529 4.52858 7.19494C4.78892 6.93459 5.21103 6.93459 5.47138 7.19494L7.33331 9.05687L12.6809 3.71305C12.8073 3.5867 12.8122 3.38244 12.685 3.25682C11.481 2.06733 9.82623 1.33301 7.99998 1.33301C4.31808 1.33301 1.33331 4.31778 1.33331 7.99967C1.33331 11.6816 4.31808 14.6663 7.99998 14.6663Z" fill="#83BF6E"/>
</svg>
