<svg width="21" height="21" viewBox="0 0 21 21" fill="none" xmlns="http://www.w3.org/2000/svg">
<path fill-rule="evenodd" clip-rule="evenodd" d="M13.7998 16.2758C13.7998 14.9089 14.9079 13.8008 16.2748 13.8008H17.9248C18.3804 13.8008 18.7498 14.1701 18.7498 14.6258C18.7498 15.0814 18.3804 15.4508 17.9248 15.4508H16.2748C15.8192 15.4508 15.4498 15.8201 15.4498 16.2758V17.9258C15.4498 18.3814 15.0804 18.7508 14.6248 18.7508C14.1692 18.7508 13.7998 18.3814 13.7998 17.9258V16.2758Z" fill="#EFEFEF"/>
<path fill-rule="evenodd" clip-rule="evenodd" d="M13.7998 4.72812C13.7998 6.09503 14.9079 7.20312 16.2748 7.20312H17.9248C18.3804 7.20312 18.7498 6.83376 18.7498 6.37812C18.7498 5.92249 18.3804 5.55312 17.9248 5.55312H16.2748C15.8192 5.55312 15.4498 5.18376 15.4498 4.72812V3.07812C15.4498 2.62249 15.0804 2.25312 14.6248 2.25312C14.1692 2.25312 13.7998 2.62249 13.7998 3.07812V4.72812Z" fill="#EFEFEF"/>
<path fill-rule="evenodd" clip-rule="evenodd" d="M7.19922 4.72812C7.19922 6.09503 6.09112 7.20312 4.72422 7.20312H3.07422C2.61858 7.20312 2.24922 6.83376 2.24922 6.37812C2.24922 5.92249 2.61858 5.55312 3.07422 5.55312H4.72422C5.17985 5.55312 5.54922 5.18376 5.54922 4.72812V3.07812C5.54922 2.62249 5.91858 2.25312 6.37422 2.25312C6.82985 2.25312 7.19922 2.62249 7.19922 3.07812V4.72812Z" fill="#EFEFEF"/>
<path fill-rule="evenodd" clip-rule="evenodd" d="M7.19922 16.2758C7.19922 14.9089 6.09112 13.8008 4.72422 13.8008H3.07422C2.61858 13.8008 2.24922 14.1701 2.24922 14.6258C2.24922 15.0814 2.61858 15.4508 3.07422 15.4508H4.72422C5.17985 15.4508 5.54922 15.8201 5.54922 16.2758V17.9258C5.54922 18.3814 5.91858 18.7508 6.37422 18.7508C6.82985 18.7508 7.19922 18.3814 7.19922 17.9258V16.2758Z" fill="#EFEFEF"/>
</svg>
