<svg width="16" height="16" viewBox="0 0 16 16" fill="none" xmlns="http://www.w3.org/2000/svg">
<path fill-rule="evenodd" clip-rule="evenodd" d="M8.00004 11.332C10.7414 11.332 12.3911 9.28737 13.122 8.06852C13.1387 8.04067 13.1433 8.01721 13.1433 7.9987C13.1433 7.98018 13.1387 7.95672 13.122 7.92888C12.3911 6.71003 10.7414 4.66536 8.00004 4.66536C5.25868 4.66536 3.60899 6.71003 2.87804 7.92887C2.86134 7.95672 2.85677 7.98018 2.85677 7.9987C2.85677 8.01722 2.86134 8.04067 2.87804 8.06852C3.60899 9.28737 5.25868 11.332 8.00004 11.332ZM14.2655 8.75427C13.4733 10.0752 11.4767 12.6654 8.00004 12.6654C4.52336 12.6654 2.52676 10.0752 1.73457 8.75427C1.45306 8.28486 1.45306 7.71254 1.73457 7.24312C2.52676 5.92217 4.52336 3.33203 8.00004 3.33203C11.4767 3.33203 13.4733 5.92217 14.2655 7.24313C14.547 7.71254 14.547 8.28486 14.2655 8.75427Z" fill="#83BF6E"/>
<path fill-rule="evenodd" clip-rule="evenodd" d="M8 8.66667C8.36819 8.66667 8.66667 8.36819 8.66667 8C8.66667 7.63181 8.36819 7.33333 8 7.33333C7.63181 7.33333 7.33333 7.63181 7.33333 8C7.33333 8.36819 7.63181 8.66667 8 8.66667ZM8 10C9.10457 10 10 9.10457 10 8C10 6.89543 9.10457 6 8 6C6.89543 6 6 6.89543 6 8C6 9.10457 6.89543 10 8 10Z" fill="#83BF6E"/>
</svg>
