<svg width="20" height="14" viewBox="0 0 20 14" fill="none" xmlns="http://www.w3.org/2000/svg">
<path fill-rule="evenodd" clip-rule="evenodd" d="M19.3982 8.13336C18.2099 10.1148 15.215 14 10 14C4.78498 14 1.79008 10.1148 0.601795 8.13336C0.179528 7.42924 0.179529 6.57076 0.601795 5.86664C1.79008 3.88521 4.78498 0 10 0C15.215 0 18.2099 3.88521 19.3982 5.86664C19.8205 6.57076 19.8205 7.42924 19.3982 8.13336ZM10 10C11.6569 10 13 8.65685 13 7C13 5.34315 11.6569 4 10 4C8.34315 4 7 5.34315 7 7C7 8.65685 8.34315 10 10 10Z" fill="#857DB1"/>
</svg>
