<svg width="49" height="48" viewBox="0 0 49 48" fill="none" xmlns="http://www.w3.org/2000/svg">
<g clip-path="url(#clip0_10603_38298)">
<path d="M46.3867 36.6641H3.05339C2.05339 36.6641 1.38672 37.3307 1.38672 38.3307C1.38672 39.3307 2.05339 39.9974 3.05339 39.9974H46.3867C47.3867 39.9974 48.0534 39.3307 48.0534 38.3307C48.0534 37.3307 47.3867 36.6641 46.3867 36.6641Z" fill="#EFEFEF"/>
<path d="M41.3893 10H8.05599C6.22266 10 4.72266 11.5 4.72266 13.3333V33.6667C4.72266 35.5 6.22266 37 8.05599 37H41.3893C43.2227 37 44.7227 35.5 44.7227 33.6667V13.3333C44.7227 11.5 43.2227 10 41.3893 10ZM26.556 30.8333V26.3333C24.056 26.3333 21.556 26.8333 19.056 27.8333C17.8893 28.3333 16.556 29 15.556 29.6667C16.3893 28.5 17.2227 27.3333 18.2227 26.3333C19.2227 25.3333 20.3893 24.3333 21.556 23.5C23.2227 22.3333 24.8893 21.5 26.7227 20.6667V16L34.056 23.5L26.556 30.8333Z" fill="#EFEFEF"/>
</g>
<defs>
<clipPath id="clip0_10603_38298">
<rect width="48" height="48" fill="white" transform="translate(0.5)"/>
</clipPath>
</defs>
</svg>
