<svg width="16" height="16" viewBox="0 0 16 16" fill="none" xmlns="http://www.w3.org/2000/svg">
<path fill-rule="evenodd" clip-rule="evenodd" d="M6.58154 1.18829C7.39868 0.491926 8.60052 0.491925 9.41766 1.18829L9.46891 1.23196C9.81907 1.53036 10.2544 1.7107 10.7131 1.7473L10.7802 1.75266C11.8504 1.83806 12.7002 2.68789 12.7856 3.75809L12.791 3.82521C12.8276 4.28382 13.0079 4.7192 13.3063 5.06936L13.35 5.1206C14.0463 5.93774 14.0463 7.13959 13.35 7.95672L13.3063 8.00797C13.0079 8.35813 12.8276 8.79351 12.791 9.25212L12.7856 9.31923C12.725 10.0787 12.2794 10.7272 11.6434 11.0702V14.6687C11.6434 15.1569 11.1728 15.507 10.7052 15.3667L7.99956 14.555L5.29392 15.3667C4.82634 15.507 4.35576 15.1569 4.35576 14.6687V11.0702C3.71972 10.7271 3.2742 10.0787 3.21359 9.31923L3.20824 9.25212C3.17164 8.79351 2.9913 8.35813 2.6929 8.00797L2.64922 7.95672C1.95286 7.13959 1.95286 5.93774 2.64922 5.1206L2.69289 5.06936C2.9913 4.7192 3.17164 4.28382 3.20824 3.82521L3.21359 3.7581C3.299 2.68789 4.14883 1.83806 5.21903 1.75266L5.28615 1.7473C5.74476 1.7107 6.18013 1.53036 6.5303 1.23196L6.58154 1.18829ZM8.47229 2.29763L8.52353 2.3413C9.10714 2.83864 9.83276 3.13921 10.5971 3.2002L10.6642 3.20556C11.021 3.23402 11.3042 3.5173 11.3327 3.87404L11.3381 3.94115C11.3991 4.7055 11.6996 5.43113 12.197 6.01473L12.2406 6.06598C12.4728 6.33836 12.4728 6.73897 12.2406 7.01135L12.197 7.0626C11.6996 7.6462 11.3991 8.37183 11.3381 9.13617L11.3327 9.20329C11.3042 9.56003 11.021 9.8433 10.6642 9.87177L10.5971 9.87713C9.83277 9.93812 9.10714 10.2387 8.52353 10.736L8.47229 10.7797C8.19991 11.0118 7.79929 11.0118 7.52692 10.7797L7.47567 10.736C6.89207 10.2387 6.16644 9.93812 5.40209 9.87713L5.33498 9.87177C4.97824 9.8433 4.69496 9.56003 4.66649 9.20329L4.66114 9.13618C4.60014 8.37183 4.29958 7.6462 3.80224 7.0626L3.75856 7.01135C3.52644 6.73897 3.52644 6.33836 3.75856 6.06598L3.80223 6.01473C4.29958 5.43113 4.60014 4.7055 4.66114 3.94115L4.66649 3.87404C4.69496 3.5173 4.97824 3.23402 5.33497 3.20556L5.40209 3.2002C6.16644 3.13921 6.89206 2.83864 7.47567 2.3413L7.52692 2.29763C7.79929 2.06551 8.19991 2.06551 8.47229 2.29763Z" fill="#EFEFEF"/>
<circle cx="7.99976" cy="6.5398" r="2.18628" fill="#EFEFEF"/>
</svg>
