<svg width="20" height="20" viewBox="0 0 20 20" fill="none" xmlns="http://www.w3.org/2000/svg">
<path fill-rule="evenodd" clip-rule="evenodd" d="M9.99999 14.167C13.4267 14.167 15.4888 11.6112 16.4025 10.0876C16.4234 10.0528 16.4291 10.0235 16.4291 10.0003C16.4291 9.97718 16.4234 9.94785 16.4025 9.91305C15.4888 8.38949 13.4267 5.83366 9.99999 5.83366C6.57329 5.83366 4.51118 8.38949 3.59749 9.91305C3.57662 9.94785 3.5709 9.97718 3.5709 10.0003C3.5709 10.0235 3.57662 10.0528 3.59749 10.0876C4.51118 11.6112 6.57328 14.167 9.99999 14.167ZM17.8318 10.9448C16.8416 12.596 14.3458 15.8337 9.99999 15.8337C5.65414 15.8337 3.15839 12.596 2.16815 10.9448C1.81626 10.358 1.81626 9.64262 2.16815 9.05586C3.15839 7.40467 5.65414 4.16699 9.99999 4.16699C14.3458 4.16699 16.8416 7.40467 17.8318 9.05586C18.1837 9.64263 18.1837 10.358 17.8318 10.9448Z" fill="#BBB2E9"/>
<path fill-rule="evenodd" clip-rule="evenodd" d="M10 10.8333C10.4602 10.8333 10.8333 10.4602 10.8333 10C10.8333 9.53976 10.4602 9.16667 10 9.16667C9.53976 9.16667 9.16667 9.53976 9.16667 10C9.16667 10.4602 9.53976 10.8333 10 10.8333ZM10 12.5C11.3807 12.5 12.5 11.3807 12.5 10C12.5 8.61929 11.3807 7.5 10 7.5C8.61929 7.5 7.5 8.61929 7.5 10C7.5 11.3807 8.61929 12.5 10 12.5Z" fill="#BBB2E9"/>
</svg>
