<svg width="25" height="24" viewBox="0 0 25 24" fill="none" xmlns="http://www.w3.org/2000/svg">
<rect x="0.5" width="24" height="24" rx="4" fill="#EFEFEF"/>
<path fill-rule="evenodd" clip-rule="evenodd" d="M6.5 8C7.05228 8 7.5 8.44772 7.5 9V18C7.5 18.5523 7.05228 19 6.5 19C5.94772 19 5.5 18.5523 5.5 18V9C5.5 8.44772 5.94772 8 6.5 8Z" fill="#1A1D1F"/>
<path fill-rule="evenodd" clip-rule="evenodd" d="M11.5 8.99963C11.4998 8.44752 11.0522 8 10.5 8C9.94772 8 9.5 8.44772 9.5 9V13V18C9.5 18.5523 9.94772 19 10.5 19C11.0523 19 11.5 18.5523 11.5 18V13C11.5 11.3431 12.8431 10 14.5 10C16.1569 10 17.5 11.3431 17.5 13V18C17.5 18.5523 17.9477 19 18.5 19C19.0523 19 19.5 18.5523 19.5 18V13C19.5 10.2386 17.2614 8 14.5 8C13.3744 8 12.3357 8.37194 11.5 8.99963Z" fill="#1A1D1F"/>
<path d="M7.5 6C7.5 6.55228 7.05228 7 6.5 7C5.94772 7 5.5 6.55228 5.5 6C5.5 5.44772 5.94772 5 6.5 5C7.05228 5 7.5 5.44772 7.5 6Z" fill="#1A1D1F"/>
</svg>
