<svg width="35" height="35" viewBox="0 0 35 35" fill="none" xmlns="http://www.w3.org/2000/svg">
<path d="M21.5398 0.900213C24.3883 1.0662 26.6133 3.4246 26.6133 6.27796L26.6133 28.3739C26.6133 31.2273 24.3883 33.5857 21.5398 33.7516L6.26142 34.642C3.16838 34.8222 0.56118 32.3625 0.56118 29.2642L0.56118 5.38764C0.56118 2.28936 3.16838 -0.170337 6.26142 0.00990248L21.5398 0.900213Z" fill="#6F767E"/>
<rect x="30" y="11" width="2" height="4" transform="rotate(90 30 11)" fill="#6F767E"/>
<rect x="30" y="22" width="2" height="4" transform="rotate(90 30 22)" fill="#6F767E"/>
<path d="M31.6833 1.35547C32.9946 1.35547 34.0856 2.36371 34.1888 3.67101L34.7269 10.487C35.0862 15.0374 35.0908 19.6088 34.7407 24.1598L34.1846 31.3896C34.0838 32.6992 32.9917 33.7105 31.6782 33.7105C30.2139 33.7105 29.0596 32.4639 29.1719 31.004L29.8808 21.7878C30.1094 18.8157 30.1064 15.8303 29.8718 12.8586L29.1777 4.06663C29.0623 2.60512 30.2172 1.35547 31.6833 1.35547Z" fill="#555A5F"/>
</svg>
