<svg width="40" height="40" viewBox="0 0 40 40" fill="none" xmlns="http://www.w3.org/2000/svg">
<rect width="40" height="40" rx="8" fill="#FF6A55"/>
<path d="M14.4159 13H13C11.3431 13 10 14.3431 10 16V24C10 25.6569 11.3431 27 13 27H22C23.6569 27 25 25.6569 25 24V23.5841L14.4159 13Z" fill="#FCFCFC"/>
<path d="M29.0564 24.8121C29.6083 24.4703 30 23.8644 30 23.1136V16.8864C30 15.2596 28.1613 14.3134 26.8375 15.2589L25 16.5714V16C25 14.3431 23.6569 13 22 13H17.2443L29.0564 24.8121Z" fill="#FCFCFC"/>
<path fill-rule="evenodd" clip-rule="evenodd" d="M10.2929 10.2929C10.6834 9.90237 11.3166 9.90237 11.7071 10.2929L29.7071 28.2929C30.0976 28.6834 30.0976 29.3166 29.7071 29.7071C29.3166 30.0976 28.6834 30.0976 28.2929 29.7071L10.2929 11.7071C9.90237 11.3166 9.90237 10.6834 10.2929 10.2929Z" fill="#FCFCFC"/>
</svg>
