<svg width="36" height="26" viewBox="0 0 36 26" fill="none" xmlns="http://www.w3.org/2000/svg">
<path d="M35.2055 4.34264C34.999 3.57954 34.5962 2.88384 34.0372 2.32482C33.4783 1.76581 32.7826 1.36298 32.0195 1.15645C29.2258 0.394531 17.982 0.394531 17.982 0.394531C17.982 0.394531 6.73777 0.417594 3.94406 1.17951C3.18095 1.38605 2.48525 1.7889 1.92626 2.34794C1.36727 2.90699 0.964481 3.60272 0.758009 4.36585C-0.0870213 9.32971 -0.414824 16.8935 0.781212 21.6588C0.987705 22.4219 1.3905 23.1176 1.94949 23.6766C2.50849 24.2356 3.20417 24.6385 3.96727 24.845C6.76097 25.6069 18.005 25.6069 18.005 25.6069C18.005 25.6069 29.2488 25.6069 32.0424 24.845C32.8055 24.6385 33.5012 24.2357 34.0602 23.6766C34.6193 23.1176 35.0221 22.4219 35.2286 21.6588C36.1199 16.6879 36.3945 9.1289 35.2055 4.34279V4.34264Z" fill="#FF0000"/>
<path d="M13.0911 18.399L22.4186 12.9964L13.0911 7.59375V18.399Z" fill="white"/>
</svg>
