<svg width="16" height="16" viewBox="0 0 16 16" fill="none" xmlns="http://www.w3.org/2000/svg">
<path d="M5.77172 7.7218L4.15037 6.1H10C10.7691 6.1 11.5068 6.40553 12.0506 6.94939C12.5945 7.49325 12.9 8.23087 12.9 9C12.9 9.76913 12.5945 10.5068 12.0506 11.0506C11.5068 11.5945 10.7691 11.9 10 11.9H6H5.9V12V13V13.1H6H10C11.0874 13.1 12.1302 12.668 12.8991 11.8991C13.668 11.1302 14.1 10.0874 14.1 9C14.1 7.91261 13.668 6.86976 12.8991 6.10086C12.1302 5.33196 11.0874 4.9 10 4.9H4.14897L5.7717 3.27772L5.84213 3.20731L5.77201 3.13659L5.07101 2.42959L5.0003 2.35828L4.92929 2.42929L1.92929 5.42929L1.85858 5.5L1.92929 5.57071L4.92929 8.57071L5.00033 8.64175L5.07104 8.57038L5.77204 7.86288L5.84209 7.79218L5.77172 7.7218Z" fill="#6F767E" stroke="#6F767E" stroke-width="0.2"/>
</svg>
