<svg width="33" height="32" viewBox="0 0 33 32" fill="none" xmlns="http://www.w3.org/2000/svg">
<path fill-rule="evenodd" clip-rule="evenodd" d="M2.89771 16.0007C2.89771 12.3188 5.88247 9.33398 9.56437 9.33398H13.5644C14.3008 9.33398 14.8977 9.93094 14.8977 10.6673C14.8977 11.4037 14.3008 12.0007 13.5644 12.0007H9.56437C7.35523 12.0007 5.56437 13.7915 5.56437 16.0007C5.56437 18.2098 7.35523 20.0007 9.56437 20.0007H13.5644C14.3008 20.0007 14.8977 20.5976 14.8977 21.334C14.8977 22.0704 14.3008 22.6673 13.5644 22.6673H9.56437C5.88247 22.6673 2.89771 19.6825 2.89771 16.0007Z" fill="#1A1D1F"/>
<path fill-rule="evenodd" clip-rule="evenodd" d="M17.5642 10.6673C17.5642 9.93094 18.1612 9.33398 18.8975 9.33398H22.8975C26.5794 9.33398 29.5642 12.3188 29.5642 16.0007C29.5642 19.6825 26.5794 22.6673 22.8975 22.6673H18.8975C18.1612 22.6673 17.5642 22.0704 17.5642 21.334C17.5642 20.5976 18.1612 20.0007 18.8975 20.0007H22.8975C25.1067 20.0007 26.8975 18.2098 26.8975 16.0007C26.8975 13.7915 25.1067 12.0007 22.8975 12.0007H18.8975C18.1612 12.0007 17.5642 11.4037 17.5642 10.6673Z" fill="#1A1D1F"/>
<path fill-rule="evenodd" clip-rule="evenodd" d="M10.8977 15.9993C10.8977 15.263 11.4947 14.666 12.231 14.666H20.231C20.9674 14.666 21.5644 15.263 21.5644 15.9993C21.5644 16.7357 20.9674 17.3327 20.231 17.3327H12.231C11.4947 17.3327 10.8977 16.7357 10.8977 15.9993Z" fill="#1A1D1F"/>
</svg>
