<svg width="16" height="16" viewBox="0 0 16 16" fill="none" xmlns="http://www.w3.org/2000/svg">
<path fill-rule="evenodd" clip-rule="evenodd" d="M7.99998 9.33301C8.36817 9.33301 8.66665 9.03453 8.66665 8.66634V5.33301C8.66665 4.96482 8.36817 4.66635 7.99998 4.66635C7.63179 4.66635 7.33331 4.96482 7.33331 5.33301V8.66634C7.33331 9.03453 7.63179 9.33301 7.99998 9.33301Z" fill="#FFD88D"/>
<path d="M8.66665 10.6667C8.66665 11.0349 8.36817 11.3333 7.99998 11.3333C7.63179 11.3333 7.33331 11.0349 7.33331 10.6667C7.33331 10.2985 7.63179 10 7.99998 10C8.36817 10 8.66665 10.2985 8.66665 10.6667Z" fill="#FFD88D"/>
<path fill-rule="evenodd" clip-rule="evenodd" d="M7.99998 13.333C10.9455 13.333 13.3333 10.9452 13.3333 7.99967C13.3333 5.05416 10.9455 2.66634 7.99998 2.66634C5.05446 2.66634 2.66665 5.05416 2.66665 7.99967C2.66665 10.9452 5.05446 13.333 7.99998 13.333ZM7.99998 14.6663C11.6819 14.6663 14.6666 11.6816 14.6666 7.99967C14.6666 4.31778 11.6819 1.33301 7.99998 1.33301C4.31808 1.33301 1.33331 4.31778 1.33331 7.99967C1.33331 11.6816 4.31808 14.6663 7.99998 14.6663Z" fill="#FFD88D"/>
</svg>
