<svg width="25" height="24" viewBox="0 0 25 24" fill="none" xmlns="http://www.w3.org/2000/svg">
<path d="M3.27219 10.6392H2.74907C2.35727 10.6392 2.03931 10.9572 2.03931 11.349C2.03931 11.7408 2.35727 12.0587 2.74907 12.0587H3.27219C3.66399 12.0587 3.98196 11.7408 3.98196 11.349C3.98196 10.9572 3.66399 10.6392 3.27219 10.6392ZM5.33543 17.0437L4.96312 17.416C4.68602 17.6931 4.68602 18.1424 4.96312 18.4197C5.1019 18.5585 5.28314 18.6277 5.46486 18.6277C5.64658 18.6277 5.8283 18.5585 5.96661 18.4197L6.33892 18.0474C6.61601 17.7703 6.61601 17.321 6.33892 17.0437C6.0623 16.7665 5.61268 16.7665 5.33543 17.0437ZM21.3295 10.6392H20.8064C20.4146 10.6392 20.0967 10.9572 20.0967 11.349C20.0967 11.7408 20.4146 12.0587 20.8064 12.0587H21.3295C21.7213 12.0587 22.0393 11.7408 22.0393 11.349C22.0393 10.9572 21.7213 10.6392 21.3295 10.6392ZM5.34273 5.65095C5.48072 5.78514 5.65927 5.85184 5.83782 5.85184C6.02271 5.85184 6.2076 5.78023 6.34671 5.63716C6.62031 5.3561 6.61398 4.90679 6.33292 4.63351L5.96061 4.27118C5.67955 3.99788 5.23024 4.00359 4.95696 4.28496C4.68366 4.56602 4.68969 5.01533 4.97074 5.28861L5.34273 5.65095ZM13.4629 21.3023H10.6163C10.2245 21.3023 9.90658 21.6203 9.90658 22.0121C9.90658 22.4039 10.2245 22.7219 10.6163 22.7219H13.4629C13.8547 22.7219 14.1726 22.4039 14.1726 22.0121C14.1726 21.6203 13.8547 21.3023 13.4629 21.3023ZM12.0345 3.28641C12.4263 3.28641 12.7442 2.96844 12.7442 2.57664V2.05352C12.7442 1.66172 12.4263 1.34375 12.0345 1.34375C11.6427 1.34375 11.3247 1.66172 11.3247 2.05352V2.57664C11.3247 2.96875 11.6427 3.28641 12.0345 3.28641ZM13.1409 10.6392H12.1306L12.6051 9.78115C12.7946 9.43799 12.6704 9.00612 12.3272 8.81663C11.9841 8.62715 11.5522 8.75168 11.3627 9.09452L10.3063 11.006C10.1849 11.226 10.1889 11.4936 10.3163 11.7098C10.4437 11.9262 10.6765 12.0589 10.9278 12.0589H11.9403L11.473 12.9081C11.2841 13.2516 11.4091 13.6832 11.7526 13.8723C11.8616 13.9319 11.9787 13.9604 12.0944 13.9604C12.3445 13.9604 12.5877 13.8273 12.7168 13.5927L13.7631 11.6915C13.8842 11.4715 13.8799 11.2042 13.7525 10.9881C13.6243 10.7715 13.3922 10.6392 13.141 10.6392L13.1409 10.6392ZM18.1016 4.27805L17.7393 4.64038C17.4622 4.91748 17.4622 5.36678 17.7393 5.64404C17.8781 5.78282 18.0593 5.85205 18.241 5.85205C18.4227 5.85205 18.6044 5.78282 18.7428 5.64404L19.1051 5.2817C19.3822 5.00461 19.3822 4.55531 19.1051 4.27805C18.8283 4.0008 18.3784 4.0008 18.1016 4.27805ZM18.7499 17.051C18.4763 16.7697 18.0273 16.764 17.7462 17.0373C17.4652 17.3109 17.4592 17.7602 17.7324 18.0409L18.0948 18.4132C18.2342 18.5563 18.4188 18.6279 18.6037 18.6279C18.7822 18.6279 18.9606 18.5612 19.0987 18.427C19.3798 18.1534 19.3861 17.7041 19.1125 17.4234L18.7499 17.051ZM12.0347 4.25128C8.12636 4.25128 4.94712 7.43526 4.94712 11.349C4.94712 13.7189 6.14343 15.9406 8.09561 17.2445V17.9082C8.09561 19.2979 9.22633 20.4285 10.6164 20.4285H13.4629C14.853 20.4285 15.9837 19.2978 15.9837 17.9082V17.2445C17.9359 15.9409 19.1327 13.7188 19.1327 11.349C19.1325 7.43526 15.9484 4.25128 12.035 4.25128H12.0347ZM14.9156 16.2387C14.698 16.3657 14.5641 16.5992 14.5641 16.8512V17.9076C14.5641 18.5144 14.0702 19.0084 13.4629 19.0084H10.6164C10.0091 19.0084 9.51515 18.5144 9.51515 17.9076V16.8512C9.51515 16.5993 9.38143 16.3657 9.16375 16.2387C7.43828 15.229 6.36649 13.3552 6.36649 11.3486C6.36649 8.21783 8.90928 5.67041 12.0345 5.67041C15.1652 5.67041 17.7126 8.21783 17.7126 11.3486C17.7126 13.3551 16.6408 15.229 14.9154 16.2387H14.9156Z" fill="#FFBA34"/>
</svg>
