<svg width="16" height="16" viewBox="0 0 16 16" fill="none" xmlns="http://www.w3.org/2000/svg">
<rect width="16" height="16" rx="8" fill="#FFAD82"/>
<path fill-rule="evenodd" clip-rule="evenodd" d="M7.0545 3.45951C7.59926 2.99527 8.40049 2.99527 8.94525 3.45951L8.97941 3.48862C9.21286 3.68756 9.50311 3.80779 9.80885 3.83218L9.85359 3.83576C10.5671 3.89269 11.1336 4.45924 11.1905 5.17271L11.1941 5.21746C11.2185 5.5232 11.3387 5.81345 11.5377 6.04689L11.5668 6.08105C12.031 6.62581 12.031 7.42704 11.5668 7.9718L11.5377 8.00596C11.3387 8.23941 11.2185 8.52966 11.1941 8.8354L11.1905 8.88014C11.1501 9.38645 10.8531 9.81877 10.429 10.0475V12.4464C10.429 12.7719 10.1153 13.0053 9.8036 12.9118L7.99985 12.3707L6.19609 12.9118C5.88437 13.0053 5.57065 12.7719 5.57065 12.4464V10.0474C5.14662 9.81872 4.84961 9.38642 4.8092 8.88014L4.80563 8.8354C4.78124 8.52966 4.66101 8.23941 4.46207 8.00597L4.43296 7.9718C3.96872 7.42704 3.96872 6.62581 4.43296 6.08105L4.46207 6.04689C4.66101 5.81345 4.78124 5.5232 4.80563 5.21746L4.8092 5.17272C4.86614 4.45924 5.43269 3.89269 6.14616 3.83576L6.19091 3.83218C6.49665 3.80779 6.7869 3.68756 7.02034 3.48862L7.0545 3.45951ZM8.315 4.19907L8.34917 4.22818C8.73823 4.55975 9.22199 4.76012 9.73155 4.80079L9.77629 4.80436C10.0141 4.82333 10.203 5.01219 10.2219 5.25001L10.2255 5.29475C10.2662 5.80432 10.4666 6.28807 10.7981 6.67714L10.8272 6.7113C10.982 6.89289 10.982 7.15997 10.8272 7.34155L10.7981 7.37572C10.4666 7.76479 10.2662 8.24854 10.2255 8.7581L10.2219 8.80285C10.203 9.04067 10.0141 9.22952 9.7763 9.2485L9.73155 9.25207C9.22199 9.29273 8.73824 9.49311 8.34917 9.82467L8.315 9.85379C8.13342 10.0085 7.86634 10.0085 7.68475 9.85379L7.65059 9.82467C7.26152 9.49311 6.77777 9.29273 6.2682 9.25207L6.22346 9.2485C5.98564 9.22952 5.79678 9.04067 5.77781 8.80285L5.77423 8.7581C5.73357 8.24854 5.5332 7.76479 5.20163 7.37572L5.17252 7.34155C5.01777 7.15997 5.01777 6.89289 5.17252 6.7113L5.20163 6.67714C5.5332 6.28807 5.73357 5.80432 5.77423 5.29475L5.77781 5.25001C5.79678 5.01219 5.98564 4.82333 6.22346 4.80436L6.2682 4.80079C6.77777 4.76012 7.26152 4.55975 7.65059 4.22818L7.68475 4.19907C7.86634 4.04432 8.13342 4.04432 8.315 4.19907Z" fill="#111315"/>
<circle cx="8" cy="7.02588" r="1.45752" fill="#111315"/>
</svg>
