<svg width="20" height="20" viewBox="0 0 20 20" fill="none" xmlns="http://www.w3.org/2000/svg">
<rect width="20" height="20" rx="10" fill="#857DB1"/>
<path d="M8.33301 6.11198C8.33301 5.1915 9.0792 4.44531 9.99967 4.44531C10.9201 4.44531 11.6663 5.1915 11.6663 6.11198V9.44531C11.6663 10.3658 10.9201 11.112 9.99967 11.112C9.0792 11.112 8.33301 10.3658 8.33301 9.44531V6.11198Z" fill="#EFEFEF"/>
<path d="M7.22146 9.44423C7.22146 9.1374 6.97273 8.88867 6.66591 8.88867C6.35908 8.88867 6.11035 9.1374 6.11035 9.44423C6.11035 11.4034 7.55908 13.0242 9.44369 13.2937V14.4442H8.33257C8.02575 14.4442 7.77702 14.693 7.77702 14.9998C7.77702 15.3066 8.02575 15.5553 8.33257 15.5553H11.6659C11.9727 15.5553 12.2215 15.3066 12.2215 14.9998C12.2215 14.693 11.9727 14.4442 11.6659 14.4442H10.5548V13.2937C12.4394 13.0242 13.8881 11.4034 13.8881 9.44423C13.8881 9.1374 13.6394 8.88867 13.3326 8.88867C13.0257 8.88867 12.777 9.1374 12.777 9.44423C12.777 10.9784 11.5334 12.222 9.99924 12.222C8.46512 12.222 7.22146 10.9784 7.22146 9.44423Z" fill="#EFEFEF"/>
</svg>
