<svg width="33" height="32" viewBox="0 0 33 32" fill="none" xmlns="http://www.w3.org/2000/svg">
<path fill-rule="evenodd" clip-rule="evenodd" d="M2.6687 6.66602C2.6687 4.45688 4.45956 2.66602 6.6687 2.66602H25.3354C27.5445 2.66602 29.3354 4.45688 29.3354 6.66602V25.3327C29.3354 27.5418 27.5445 29.3327 25.3354 29.3327H6.6687C4.45956 29.3327 2.6687 27.5418 2.6687 25.3327V6.66602ZM25.4462 26.6615C26.0896 26.6085 26.0786 25.7943 25.6427 25.3182L14.0941 12.7058C12.4577 10.9207 9.62291 10.9876 8.0726 12.848L5.64441 15.7618C5.44472 16.0015 5.33537 16.3035 5.33537 16.6154V25.3327C5.33537 26.0691 5.93232 26.666 6.6687 26.666H25.3354C25.3727 26.666 25.4096 26.6645 25.4462 26.6615ZM22.6687 11.9993C24.1415 11.9993 25.3354 10.8054 25.3354 9.33268C25.3354 7.85992 24.1415 6.66602 22.6687 6.66602C21.1959 6.66602 20.002 7.85992 20.002 9.33268C20.002 10.8054 21.1959 11.9993 22.6687 11.9993Z" fill="#1A1D1F"/>
</svg>
