<svg width="24" height="24" viewBox="0 0 24 24" fill="none" xmlns="http://www.w3.org/2000/svg">
<path fill-rule="evenodd" clip-rule="evenodd" d="M2 19.7509C2 19.2488 2.40701 18.8418 2.90909 18.8418H21.0909C21.593 18.8418 22 19.2488 22 19.7509C22 20.253 21.593 20.66 21.0909 20.66H2.90909C2.40701 20.66 2 20.253 2 19.7509Z" fill="#BBB2E9"/>
<path fill-rule="evenodd" clip-rule="evenodd" d="M4.62176 4.03505C3.61828 4.43774 2.90967 5.41968 2.90967 6.56712V14.7489C2.90967 16.2552 4.13071 17.4762 5.63694 17.4762H18.0629L4.62176 4.03505ZM20.4367 16.5218C20.8449 16.045 21.0915 15.4258 21.0915 14.7489V6.56712C21.0915 5.06089 19.8704 3.83984 18.3642 3.83984H7.75478L20.4367 16.5218Z" fill="#BBB2E9"/>
<path fill-rule="evenodd" clip-rule="evenodd" d="M2.31171 2.31171C2.72731 1.8961 3.40115 1.8961 3.81676 2.31171L21.6883 20.1832C22.1039 20.5989 22.1039 21.2727 21.6883 21.6883C21.2727 22.1039 20.5989 22.1039 20.1832 21.6883L2.31171 3.81676C1.8961 3.40115 1.8961 2.72731 2.31171 2.31171Z" fill="#BBB2E9"/>
</svg>
