<svg width="16" height="16" viewBox="0 0 16 16" fill="none" xmlns="http://www.w3.org/2000/svg">
<path d="M12.982 8.26227V9.47845V11.3159C12.982 11.5196 12.9879 11.7232 12.9615 11.9254C12.9718 11.8478 12.982 11.7701 12.9923 11.691C12.9644 11.8873 12.9132 12.0764 12.837 12.2595C12.8663 12.1892 12.8956 12.1189 12.9249 12.05C12.8487 12.2273 12.752 12.3943 12.6348 12.5467C12.6802 12.4881 12.7271 12.428 12.7725 12.3694C12.6553 12.5203 12.519 12.6566 12.3681 12.7738C12.4267 12.7284 12.4868 12.6815 12.5454 12.6361C12.3915 12.7533 12.2259 12.8515 12.0487 12.9262C12.119 12.8969 12.1893 12.8676 12.2582 12.8383C12.0765 12.9145 11.886 12.9658 11.6897 12.9936C11.7673 12.9834 11.845 12.9731 11.9241 12.9628C11.6178 13.0024 11.2984 12.9834 10.9907 12.9834H9.23828H7.08728H5.25276C4.98609 12.9834 4.71941 12.9848 4.45419 12.9834C4.35162 12.9834 4.25051 12.976 4.14941 12.9628C4.22707 12.9731 4.30473 12.9834 4.38385 12.9936C4.18751 12.9658 3.99849 12.9145 3.81533 12.8383C3.88566 12.8676 3.95599 12.8969 4.02486 12.9262C3.84756 12.85 3.68051 12.7533 3.52814 12.6361C3.58675 12.6815 3.64682 12.7284 3.70543 12.7738C3.55451 12.6566 3.41823 12.5203 3.30101 12.3694C3.34644 12.428 3.39333 12.4881 3.43875 12.5467C3.32153 12.3929 3.22335 12.2273 3.14863 12.05C3.17794 12.1203 3.20724 12.1906 3.23654 12.2595C3.16035 12.0778 3.10907 11.8873 3.08123 11.691C3.09148 11.7686 3.10174 11.8463 3.11199 11.9254C3.07243 11.6192 3.09148 11.2998 3.09148 10.9921V9.23961V7.08861V5.2541C3.09148 4.98742 3.09002 4.72075 3.09148 4.45552C3.09148 4.35295 3.09881 4.25185 3.11199 4.15075C3.10174 4.2284 3.09148 4.30606 3.08123 4.38519C3.10907 4.18884 3.16035 3.99982 3.23654 3.81666C3.20724 3.88699 3.17793 3.95732 3.14863 4.02619C3.22482 3.84889 3.32153 3.68184 3.43875 3.52947C3.39333 3.58808 3.34644 3.64816 3.30101 3.70677C3.41823 3.55584 3.5545 3.41957 3.70543 3.30235C3.64682 3.34777 3.58675 3.39466 3.52814 3.44008C3.68199 3.32286 3.84757 3.22469 4.02486 3.14996C3.95453 3.17927 3.88419 3.20857 3.81533 3.23788C3.99702 3.16168 4.18751 3.1104 4.38385 3.08256C4.3062 3.09281 4.22854 3.10307 4.14941 3.11333C4.32671 3.08988 4.50547 3.09281 4.68423 3.09281H5.46229H7.36274H7.81257C8.03822 3.09281 8.27414 2.99464 8.43386 2.83493C8.58625 2.68254 8.70054 2.43198 8.69175 2.21364C8.68149 1.98653 8.60676 1.75063 8.43386 1.59236C8.26242 1.43411 8.04996 1.33447 7.81257 1.33447H6.70191H4.90402H4.46737C3.95891 1.33447 3.47832 1.45902 3.02409 1.68322C2.77207 1.80776 2.53908 1.98212 2.33103 2.16968C2.12589 2.35576 1.94713 2.58141 1.8006 2.81438C1.49435 3.29792 1.33758 3.88402 1.33464 4.454C1.33317 4.65913 1.33464 4.86426 1.33464 5.07086V6.58302V8.48493V10.2696V11.4316V11.622C1.3361 12.1656 1.4797 12.7093 1.75076 13.1811C2.30169 14.1408 3.35376 14.7387 4.45555 14.7431C4.68267 14.7445 4.90978 14.7431 5.13691 14.7431H6.68422H8.59199H10.3547H11.4668C12.113 14.7431 12.7548 14.6141 13.3014 14.2507C13.7658 13.943 14.1761 13.5196 14.4135 13.0097C14.5336 12.7503 14.6391 12.4851 14.6831 12.2008C14.7139 12.003 14.7402 11.8052 14.7402 11.6045V10.3004V8.5699V8.26365C14.7402 8.038 14.6421 7.80208 14.4823 7.64236C14.33 7.48998 14.0794 7.37569 13.8611 7.38448C13.6339 7.39474 13.398 7.46946 13.2398 7.64236C13.0815 7.81234 12.9819 8.02334 12.9819 8.26218L12.982 8.26227Z" fill="#EFEFEF"/>
<path d="M10.6052 3.09135H11.7056H13.4581H13.8581C14.0838 3.09135 14.3197 2.99318 14.4794 2.83346C14.6318 2.68108 14.7461 2.43052 14.7373 2.21218C14.727 1.98506 14.6523 1.74916 14.4794 1.59089C14.308 1.43265 14.0955 1.33301 13.8581 1.33301H12.7577H11.0053H10.6052C10.3796 1.33301 10.1437 1.43118 9.98395 1.59089C9.83156 1.74328 9.71727 1.99384 9.72606 2.21218C9.73632 2.4393 9.81105 2.67519 9.98395 2.83346C10.1554 2.99171 10.3664 3.09135 10.6052 3.09135Z" fill="#EFEFEF"/>
<path d="M14.7408 5.46553V4.36512V2.61268V2.21265C14.7408 1.987 14.6426 1.75108 14.4829 1.59137C14.3305 1.43898 14.0799 1.32469 13.8616 1.33348C13.6345 1.34374 13.3986 1.41847 13.2403 1.59137C13.0821 1.7628 12.9824 1.97526 12.9824 2.21265V3.31306V5.0655V5.46553C12.9824 5.69118 13.0806 5.9271 13.2403 6.08681C13.3927 6.2392 13.6433 6.35349 13.8616 6.3447C14.0887 6.33444 14.3246 6.25971 14.4829 6.08681C14.6411 5.91538 14.7408 5.70439 14.7408 5.46553Z" fill="#EFEFEF"/>
<path d="M8.6694 8.64687L13.7671 3.54916C14.0015 3.31472 14.2404 3.08175 14.4719 2.84436L14.4822 2.8341C14.6419 2.67439 14.74 2.43847 14.74 2.21282C14.74 1.99742 14.6448 1.73954 14.4822 1.59153C14.3151 1.43768 14.0953 1.32339 13.8609 1.33365C13.6279 1.3439 13.4081 1.42303 13.2396 1.59153L8.14189 6.68924C7.90745 6.92368 7.66861 7.15665 7.43709 7.39404L7.42683 7.4043C7.26712 7.56401 7.16895 7.79993 7.16895 8.02558C7.16895 8.24098 7.26419 8.49886 7.42683 8.64687C7.59387 8.80072 7.81367 8.91501 8.04812 8.90475C8.28109 8.8945 8.50234 8.81537 8.6694 8.64687Z" fill="#EFEFEF"/>
</svg>
