<svg width="16" height="16" viewBox="0 0 16 16" fill="none" xmlns="http://www.w3.org/2000/svg">
<path fill-rule="evenodd" clip-rule="evenodd" d="M2 4.66667C2 4.29848 2.29848 4 2.66667 4L13.3333 4C13.7015 4 14 4.29848 14 4.66667C14 5.03486 13.7015 5.33333 13.3333 5.33333L2.66667 5.33333C2.29848 5.33333 2 5.03486 2 4.66667Z" fill="#FCFCFC"/>
<path fill-rule="evenodd" clip-rule="evenodd" d="M2 11.3327C2 10.9645 2.29848 10.666 2.66667 10.666L13.3333 10.666C13.7015 10.666 14 10.9645 14 11.3327C14 11.7009 13.7015 11.9993 13.3333 11.9993L2.66667 11.9993C2.29848 11.9993 2 11.7009 2 11.3327Z" fill="#FCFCFC"/>
<path fill-rule="evenodd" clip-rule="evenodd" d="M6.6665 13.334C7.77107 13.334 8.6665 12.4386 8.6665 11.334C8.6665 10.2294 7.77107 9.33398 6.6665 9.33398C5.56193 9.33398 4.6665 10.2294 4.6665 11.334C4.6665 12.4386 5.56193 13.334 6.6665 13.334Z" fill="#FCFCFC"/>
<path fill-rule="evenodd" clip-rule="evenodd" d="M9.3335 6.66602C10.4381 6.66602 11.3335 5.77059 11.3335 4.66602C11.3335 3.56145 10.4381 2.66602 9.3335 2.66602C8.22893 2.66602 7.3335 3.56145 7.3335 4.66602C7.3335 5.77059 8.22893 6.66602 9.3335 6.66602Z" fill="#FCFCFC"/>
</svg>
