<svg width="120" height="120" viewBox="0 0 120 120" fill="none" xmlns="http://www.w3.org/2000/svg">
<path fill-rule="evenodd" clip-rule="evenodd" d="M110 60C110 87.6142 87.6142 110 60 110C32.3858 110 10 87.6142 10 60C10 32.3858 32.3858 10 60 10C87.6142 10 110 32.3858 110 60ZM100 60C100 82.0914 82.0914 100 60 100C37.9086 100 20 82.0914 20 60C20 37.9086 37.9086 20 60 20C71.7909 20 82.3902 25.1016 89.711 33.2179L55 67.9289L41.0355 53.9645C39.0829 52.0118 35.9171 52.0118 33.9645 53.9645C32.0118 55.9171 32.0118 59.0829 33.9645 61.0355L47.9289 75C51.8342 78.9053 58.1658 78.9052 62.0711 75L95.5073 41.5638C98.3777 47.0808 100 53.3509 100 60Z" fill="#83BF6E"/>
</svg>
