<svg width="16" height="16" viewBox="0 0 16 16" fill="none" xmlns="http://www.w3.org/2000/svg">
<path d="M10.8047 1.86128C10.5444 1.60093 10.1223 1.60093 9.86193 1.86128C9.60158 2.12162 9.60158 2.54373 9.86193 2.80408L10.388 3.33012H6.66667C4.08934 3.33012 2 5.41946 2 7.99679V8.66345C2 9.03164 2.29848 9.33012 2.66667 9.33012C3.03486 9.33012 3.33333 9.03164 3.33333 8.66345V7.99679C3.33333 6.15584 4.82572 4.66345 6.66667 4.66345H10.3911L9.86192 5.19263C9.60158 5.45298 9.60158 5.87509 9.86193 6.13544C10.1223 6.39579 10.5444 6.39578 10.8047 6.13543L12.2347 4.70545C12.6252 4.31493 12.6252 3.68177 12.2347 3.29125L10.8047 1.86128Z" fill="#BBB2E9"/>
<path d="M9.33211 12.666C11.9094 12.666 13.9988 10.5767 13.9988 7.99935V7.33268C13.9988 6.96449 13.7003 6.66602 13.3321 6.66602C12.9639 6.66602 12.6654 6.96449 12.6654 7.33268V7.99935C12.6654 9.8403 11.1731 11.3327 9.33211 11.3327H5.60764L6.13685 10.8035C6.3972 10.5431 6.39719 10.121 6.13684 9.86065C5.87649 9.60031 5.45438 9.60031 5.19403 9.86066L3.76408 11.2906C3.37356 11.6812 3.37356 12.3143 3.76408 12.7048L5.19403 14.1348C5.45438 14.3952 5.87649 14.3952 6.13684 14.1348C6.39719 13.8745 6.3972 13.4524 6.13685 13.192L5.61086 12.666H9.33211Z" fill="#BBB2E9"/>
</svg>
