<svg width="32" height="32" viewBox="0 0 32 32" fill="none" xmlns="http://www.w3.org/2000/svg">
<path fill-rule="evenodd" clip-rule="evenodd" d="M25.3333 6.66667H6.66667C5.93029 6.66667 5.33334 7.26362 5.33334 8V20C5.33334 20.7364 5.93029 21.3333 6.66667 21.3333H25.3333C26.0697 21.3333 26.6667 20.7364 26.6667 20V8C26.6667 7.26362 26.0697 6.66667 25.3333 6.66667ZM6.66667 4C4.45753 4 2.66667 5.79086 2.66667 8V20C2.66667 22.2091 4.45753 24 6.66667 24H25.3333C27.5425 24 29.3333 22.2091 29.3333 20V8C29.3333 5.79086 27.5425 4 25.3333 4H6.66667Z" fill="#CABDFF"/>
<path fill-rule="evenodd" clip-rule="evenodd" d="M9.33333 26.6663C9.33333 25.93 9.93028 25.333 10.6667 25.333H21.3333C22.0697 25.333 22.6667 25.93 22.6667 26.6663C22.6667 27.4027 22.0697 27.9997 21.3333 27.9997H10.6667C9.93028 27.9997 9.33333 27.4027 9.33333 26.6663Z" fill="#CABDFF"/>
</svg>
