<svg width="33" height="32" viewBox="0 0 33 32" fill="none" xmlns="http://www.w3.org/2000/svg">
<path d="M12.6988 23.5715H13.4535C13.8762 23.5715 14.1781 23.4809 14.3592 23.2998C14.5403 23.1186 14.6309 22.8369 14.6309 22.4545V9.2924H12.2762C11.8536 9.2924 11.5517 9.38296 11.3705 9.56409C11.1894 9.7251 11.0988 10.0069 11.0988 10.4094V11.5263H8.23096V6.66602H25.0157V11.5263H22.1478V10.4094C22.1478 10.0069 22.0572 9.7251 21.8761 9.56409C21.6949 9.38296 21.3931 9.2924 20.9704 9.2924H18.6157V22.4545C18.6157 22.8369 18.7063 23.1186 18.8874 23.2998C19.0887 23.4809 19.4006 23.5715 19.8233 23.5715H20.578V26.1978H12.6988V23.5715Z" fill="#1A1D1F"/>
</svg>
