<svg width="20" height="20" viewBox="0 0 20 20" fill="none" xmlns="http://www.w3.org/2000/svg">
<path d="M11.6666 5.00004C11.6666 5.92052 10.9205 6.66671 9.99998 6.66671C9.07951 6.66671 8.33331 5.92052 8.33331 5.00004C8.33331 4.07957 9.07951 3.33337 9.99998 3.33337C10.9205 3.33337 11.6666 4.07957 11.6666 5.00004Z" fill="white"/>
<path d="M11.6666 10C11.6666 10.9205 10.9205 11.6667 9.99998 11.6667C9.07951 11.6667 8.33331 10.9205 8.33331 10C8.33331 9.07957 9.07951 8.33337 9.99998 8.33337C10.9205 8.33337 11.6666 9.07957 11.6666 10Z" fill="white"/>
<path d="M11.6666 15C11.6666 15.9205 10.9205 16.6667 9.99998 16.6667C9.07951 16.6667 8.33331 15.9205 8.33331 15C8.33331 14.0796 9.07951 13.3334 9.99998 13.3334C10.9205 13.3334 11.6666 14.0796 11.6666 15Z" fill="white"/>
</svg>
