<svg width="25" height="24" viewBox="0 0 25 24" fill="none" xmlns="http://www.w3.org/2000/svg">
<path d="M13.5 15.7324C14.0978 15.3866 14.5 14.7403 14.5 14C14.5 12.8954 13.6046 12 12.5 12C11.3954 12 10.5 12.8954 10.5 14C10.5 14.7403 10.9022 15.3866 11.5 15.7324V17C11.5 17.5523 11.9477 18 12.5 18C13.0523 18 13.5 17.5523 13.5 17V15.7324Z" fill="#6F767E"/>
<path fill-rule="evenodd" clip-rule="evenodd" d="M7.5 8V7C7.5 4.23858 9.73858 2 12.5 2C15.2614 2 17.5 4.23858 17.5 7V8C19.1569 8 20.5 9.34315 20.5 11V19C20.5 20.6569 19.1569 22 17.5 22H7.5C5.84315 22 4.5 20.6569 4.5 19V11C4.5 9.34315 5.84315 8 7.5 8ZM9.5 7C9.5 5.34315 10.8431 4 12.5 4C14.1569 4 15.5 5.34315 15.5 7V8H9.5V7ZM6.5 11C6.5 10.4477 6.94772 10 7.5 10H17.5C18.0523 10 18.5 10.4477 18.5 11V19C18.5 19.5523 18.0523 20 17.5 20H7.5C6.94772 20 6.5 19.5523 6.5 19V11Z" fill="#6F767E"/>
</svg>
