<svg width="16" height="16" viewBox="0 0 16 16" fill="none" xmlns="http://www.w3.org/2000/svg">
<path fill-rule="evenodd" clip-rule="evenodd" d="M7.13844 6.19531C6.46512 6.5172 6 7.20465 6 8.00074C6 9.10531 6.89543 10.0007 8 10.0007C8.79609 10.0007 9.48354 9.53562 9.80543 8.8623L7.13844 6.19531ZM8.66667 8.00074C8.66667 8.36893 8.36819 8.66741 8 8.66741C7.63181 8.66741 7.33333 8.36893 7.33333 8.00074C7.33333 7.63255 7.63181 7.33407 8 7.33407C8.36819 7.33407 8.66667 7.63255 8.66667 8.00074Z" fill="#FF6A55"/>
<path d="M5.00069 4.05548C3.32366 4.92111 2.26209 6.36351 1.73457 7.24312C1.45306 7.71254 1.45306 8.28486 1.73457 8.75427C2.52676 10.0752 4.52336 12.6654 8.00004 12.6654C9.74182 12.6654 11.1121 12.0153 12.1456 11.2004L11.1946 10.2494C10.3652 10.8675 9.30665 11.332 8.00004 11.332C5.25868 11.332 3.60899 9.28737 2.87804 8.06852C2.86134 8.04067 2.85677 8.01722 2.85677 7.9987C2.85677 7.98018 2.86134 7.95672 2.87804 7.92887C3.41055 7.04093 4.43066 5.71469 6.00524 5.06003L5.00069 4.05548Z" fill="#FF6A55"/>
<path d="M12.1785 9.34768C12.5838 8.89888 12.8966 8.44443 13.122 8.06852C13.1387 8.04067 13.1433 8.01721 13.1433 7.9987C13.1433 7.98018 13.1387 7.95672 13.122 7.92888C12.3911 6.71003 10.7414 4.66536 8.00004 4.66536C7.83534 4.66536 7.67458 4.67275 7.51771 4.68688L6.36549 3.53466C6.8691 3.40575 7.41351 3.33203 8.00004 3.33203C11.4767 3.33203 13.4733 5.92217 14.2655 7.24313C14.547 7.71254 14.547 8.28486 14.2655 8.75427C14.0113 9.17821 13.633 9.73288 13.1215 10.2907L12.1785 9.34768Z" fill="#FF6A55"/>
<path fill-rule="evenodd" clip-rule="evenodd" d="M1.52851 1.52729C1.78886 1.26694 2.21097 1.26694 2.47132 1.52729L14.4713 13.5273C14.7317 13.7876 14.7317 14.2098 14.4713 14.4701C14.211 14.7305 13.7889 14.7305 13.5285 14.4701L1.52851 2.4701C1.26816 2.20975 1.26816 1.78764 1.52851 1.52729Z" fill="#FF6A55"/>
</svg>
