<svg width="25" height="24" viewBox="0 0 25 24" fill="none" xmlns="http://www.w3.org/2000/svg">
<path fill-rule="evenodd" clip-rule="evenodd" d="M21.5 19C21.5 20.6569 20.1569 22 18.5 22H6.5C4.84315 22 3.5 20.6569 3.5 19V5C3.5 3.34315 4.84315 2 6.5 2H16.5L16.5107 2.01071C17.2136 2.07025 17.8761 2.3761 18.3787 2.87868L20.6213 5.12132C21.1239 5.6239 21.4297 6.28645 21.4893 6.98929L21.5 7V19ZM18.5 20H6.5C5.94772 20 5.5 19.5523 5.5 19V5C5.5 4.44772 5.94771 4 6.5 4H15.5V6C15.5 7.10457 16.3954 8 17.5 8H19.5V19C19.5 19.5523 19.0523 20 18.5 20Z" fill="#857DB1"/>
<path d="M13.5 10C13.5 9.44772 13.0523 9 12.5 9C11.9477 9 11.5 9.44772 11.5 10L11.5 12H9.5C8.94772 12 8.5 12.4477 8.5 13C8.5 13.5523 8.94772 14 9.5 14H11.5L11.5 16C11.5 16.5523 11.9477 17 12.5 17C13.0523 17 13.5 16.5523 13.5 16L13.5 14H15.5C16.0523 14 16.5 13.5523 16.5 13C16.5 12.4477 16.0523 12 15.5 12H13.5L13.5 10Z" fill="#857DB1"/>
</svg>
