<svg width="32" height="32" viewBox="0 0 32 32" fill="none" xmlns="http://www.w3.org/2000/svg">
<path d="M23.6269 28.4414H7.62693C7.39118 28.4414 7.16509 28.5351 6.99839 28.7018C6.83169 28.8685 6.73804 29.0945 6.73804 29.3303C6.73804 29.566 6.83169 29.7921 6.99839 29.9588C7.16509 30.1255 7.39118 30.2192 7.62693 30.2192H23.6269C23.8627 30.2192 24.0888 30.1255 24.2555 29.9588C24.4222 29.7921 24.5158 29.566 24.5158 29.3303C24.5158 29.0945 24.4222 28.8685 24.2555 28.7018C24.0888 28.5351 23.8627 28.4414 23.6269 28.4414Z" fill="white"/>
<path d="M27.9998 11.8672C27.5609 11.9561 27.1142 12.0007 26.6665 12.0005H26.2131C26.5958 13.7681 26.5193 15.6043 25.9909 17.3339C24.4995 17.4468 22.9996 17.3239 21.5465 16.9694C21.5456 16.5969 21.4443 16.2314 21.2531 15.9116C22.3158 14.5176 23.15 12.9634 23.7242 11.3072C23.312 11.105 22.9218 10.8608 22.5598 10.5783C22.0393 12.1786 21.2552 13.6808 20.2398 15.0228C19.8522 14.8586 19.4232 14.8192 19.0123 14.91C18.6013 15.0008 18.2288 15.2173 17.9465 15.5294C17.6354 15.3516 17.3242 15.1739 17.0576 14.9694C15.2632 13.7722 13.7646 12.1824 12.6754 10.3205C12.8514 10.1022 12.9796 9.84935 13.0516 9.5783C13.1235 9.30725 13.1377 9.02409 13.0931 8.7472C15.5323 7.92036 18.1423 7.73065 20.6754 8.19609C20.4563 7.74539 20.2893 7.27123 20.1776 6.78276C17.5729 6.42955 14.9215 6.70384 12.4442 7.58276C12.1644 7.31004 11.8131 7.12206 11.4309 7.04054H11.2087C11.102 6.6672 11.0042 6.29387 10.9242 5.91165C10.8442 5.52943 10.7998 5.19165 10.7554 4.8272C12.175 4.05874 13.7515 3.62482 15.3644 3.55858C16.9774 3.49233 18.5841 3.79552 20.062 4.44498C20.1356 3.83336 20.2942 3.235 20.5331 2.6672C18.6382 1.88356 16.5789 1.58033 14.5385 1.78449C12.4981 1.98864 10.5397 2.69385 8.8376 3.8374C7.13547 4.98096 5.7423 6.52742 4.78198 8.33926C3.82166 10.1511 3.32396 12.1722 3.33313 14.2228C3.33313 14.6228 3.33313 15.0139 3.39535 15.405C3.55574 17.082 4.05497 18.709 4.86277 20.1874C5.67058 21.6658 6.77015 22.9647 8.09485 24.0056C9.41955 25.0464 10.9418 25.8074 12.5693 26.2425C14.1968 26.6776 15.8958 26.7777 17.5631 26.5367C19.2305 26.2958 20.8316 25.7188 22.2693 24.8408C23.7071 23.9627 24.9516 22.8019 25.9274 21.4286C26.9033 20.0553 27.5901 18.4982 27.9463 16.8516C28.3026 15.205 28.3207 13.5033 27.9998 11.8494V11.8672ZM9.56424 5.57387C9.56424 5.76054 9.61758 5.95609 9.65313 6.14276C9.73313 6.53387 9.8398 6.91609 9.94647 7.29832C9.60608 7.49988 9.33212 7.79665 9.15838 8.15204C8.98463 8.50743 8.91869 8.9059 8.96869 9.29832C7.56242 10.2138 6.30611 11.3412 5.24424 12.6405C5.45677 11.2341 5.94845 9.88438 6.69035 8.67078C7.43224 7.45719 8.40937 6.40423 9.56424 5.57387ZM9.56424 19.5383C9.21559 19.6535 8.90364 19.8589 8.66009 20.1337C8.41653 20.4085 8.25006 20.7428 8.17758 21.1028H7.60869C6.1732 19.3906 5.31465 17.2691 5.15535 15.0405L5.25313 14.8716C6.36621 13.1457 7.82137 11.6664 9.52869 10.525C9.78467 10.7923 10.1081 10.9855 10.4649 11.0841C10.8217 11.1827 11.1984 11.183 11.5554 11.085C12.7443 13.0942 14.3695 14.8105 16.3109 16.1072C16.6754 16.3472 17.0487 16.5694 17.422 16.7828C17.3922 17.1227 17.4471 17.4648 17.582 17.7783C15.9553 19.0701 14.079 20.0113 12.0709 20.5428C11.838 20.1077 11.4581 19.7696 10.9989 19.5888C10.5397 19.4081 10.0312 19.3965 9.56424 19.5561V19.5383ZM15.7865 24.8717C13.9787 24.8721 12.2008 24.4101 10.622 23.5294L10.8709 23.4761C11.2246 23.36 11.5407 23.1512 11.7862 22.8713C12.0317 22.5914 12.1975 22.2508 12.2665 21.885C14.5393 21.3054 16.6613 20.2444 18.4887 18.7739C18.9228 19.0276 19.4354 19.1116 19.9277 19.0099C20.4201 18.9081 20.8574 18.6277 21.1554 18.2228C22.4095 18.5488 23.6996 18.716 24.9954 18.7205H25.4665C24.6083 20.566 23.24 22.1274 21.5233 23.2205C19.8065 24.3135 17.8128 24.8926 15.7776 24.8894L15.7865 24.8717Z" fill="white"/>
<path d="M26.6669 9.77951C29.1215 9.77951 31.1113 7.78967 31.1113 5.33507C31.1113 2.88047 29.1215 0.890625 26.6669 0.890625C24.2123 0.890625 22.2224 2.88047 22.2224 5.33507C22.2224 7.78967 24.2123 9.77951 26.6669 9.77951Z" fill="white"/>
</svg>
