<svg width="24" height="24" viewBox="0 0 24 24" fill="none" xmlns="http://www.w3.org/2000/svg">
<path fill-rule="evenodd" clip-rule="evenodd" d="M12 15C12.5523 15 13 14.5523 13 14V9.00001C13 8.44772 12.5523 8.00001 12 8.00001C11.4477 8.00001 11 8.44772 11 9.00001V14C11 14.5523 11.4477 15 12 15Z" fill="#FCFCFC"/>
<path fill-rule="evenodd" clip-rule="evenodd" d="M19.6736 17.5044L12.8686 5.56347C12.485 4.8903 11.5146 4.89031 11.131 5.56347L4.32603 17.5044C3.94612 18.1711 4.42755 18.9996 5.19485 18.9996H18.8048C19.5721 18.9996 20.0535 18.1711 19.6736 17.5044ZM14.6063 4.57321C13.4554 2.55372 10.5442 2.55372 9.39335 4.57321L2.58839 16.5142C1.44865 18.5141 2.89293 20.9996 5.19485 20.9996H18.8048C21.1067 20.9996 22.551 18.5141 21.4113 16.5142L14.6063 4.57321Z" fill="#FCFCFC"/>
<path d="M13 17C13 17.5523 12.5523 18 12 18C11.4477 18 11 17.5523 11 17C11 16.4477 11.4477 16 12 16C12.5523 16 13 16.4477 13 17Z" fill="#FCFCFC"/>
</svg>
