<svg width="20" height="20" viewBox="0 0 20 20" fill="none" xmlns="http://www.w3.org/2000/svg">
<path fill-rule="evenodd" clip-rule="evenodd" d="M6.66667 4.16667H5C4.53976 4.16667 4.16667 4.53976 4.16667 5V6.66667C4.16667 7.1269 4.53976 7.5 5 7.5H6.66667C7.1269 7.5 7.5 7.1269 7.5 6.66667V5C7.5 4.53976 7.1269 4.16667 6.66667 4.16667ZM5 2.5C3.61929 2.5 2.5 3.61929 2.5 5V6.66667C2.5 8.04738 3.61929 9.16667 5 9.16667H6.66667C8.04738 9.16667 9.16667 8.04738 9.16667 6.66667V5C9.16667 3.61929 8.04738 2.5 6.66667 2.5H5Z" fill="#6F767E"/>
<path fill-rule="evenodd" clip-rule="evenodd" d="M6.66667 12.5002H5C4.53976 12.5002 4.16667 12.8733 4.16667 13.3335V15.0002C4.16667 15.4604 4.53976 15.8335 5 15.8335H6.66667C7.1269 15.8335 7.5 15.4604 7.5 15.0002V13.3335C7.5 12.8733 7.1269 12.5002 6.66667 12.5002ZM5 10.8335C3.61929 10.8335 2.5 11.9528 2.5 13.3335V15.0002C2.5 16.3809 3.61929 17.5002 5 17.5002H6.66667C8.04738 17.5002 9.16667 16.3809 9.16667 15.0002V13.3335C9.16667 11.9528 8.04738 10.8335 6.66667 10.8335H5Z" fill="#6F767E"/>
<path fill-rule="evenodd" clip-rule="evenodd" d="M15 4.16667H13.3333C12.8731 4.16667 12.5 4.53976 12.5 5V6.66667C12.5 7.1269 12.8731 7.5 13.3333 7.5H15C15.4602 7.5 15.8333 7.1269 15.8333 6.66667V5C15.8333 4.53976 15.4602 4.16667 15 4.16667ZM13.3333 2.5C11.9526 2.5 10.8333 3.61929 10.8333 5V6.66667C10.8333 8.04738 11.9526 9.16667 13.3333 9.16667H15C16.3807 9.16667 17.5 8.04738 17.5 6.66667V5C17.5 3.61929 16.3807 2.5 15 2.5H13.3333Z" fill="#6F767E"/>
<path fill-rule="evenodd" clip-rule="evenodd" d="M15 12.5002H13.3333C12.8731 12.5002 12.5 12.8733 12.5 13.3335V15.0002C12.5 15.4604 12.8731 15.8335 13.3333 15.8335H15C15.4602 15.8335 15.8333 15.4604 15.8333 15.0002V13.3335C15.8333 12.8733 15.4602 12.5002 15 12.5002ZM13.3333 10.8335C11.9526 10.8335 10.8333 11.9528 10.8333 13.3335V15.0002C10.8333 16.3809 11.9526 17.5002 13.3333 17.5002H15C16.3807 17.5002 17.5 16.3809 17.5 15.0002V13.3335C17.5 11.9528 16.3807 10.8335 15 10.8335H13.3333Z" fill="#6F767E"/>
</svg>
