<svg width="42" height="41" viewBox="0 0 42 41" fill="none" xmlns="http://www.w3.org/2000/svg">
<path d="M29.7192 15.9638C30.3731 16.6177 30.3731 17.678 29.7192 18.3319C29.0653 18.9858 28.0051 18.9858 27.3511 18.3319L22.6777 13.6584V25.5242C22.6777 26.449 21.928 27.1987 21.0032 27.1987C20.0784 27.1987 19.3287 26.449 19.3287 25.5242V13.6585L14.652 18.3352C13.9981 18.9891 12.9379 18.9891 12.2839 18.3352C11.63 17.6812 11.63 16.621 12.2839 15.9671L19.8192 8.43185C20.1332 8.11782 20.5591 7.94141 21.0032 7.94141C21.4473 7.94141 21.8732 8.11782 22.1872 8.43185L29.7192 15.9638Z" fill="#FCFCFC"/>
<path fill-rule="evenodd" clip-rule="evenodd" d="M7.60417 23.8496C8.52896 23.8496 9.27865 24.5993 9.27865 25.5241V28.873C9.27865 29.7978 10.0283 30.5475 10.9531 30.5475H31.0469C31.9717 30.5475 32.7214 29.7978 32.7214 28.873V25.5241C32.7214 24.5993 33.471 23.8496 34.3958 23.8496C35.3206 23.8496 36.0703 24.5993 36.0703 25.5241V28.873C36.0703 31.6474 33.8212 33.8965 31.0469 33.8965H10.9531C8.17876 33.8965 5.92969 31.6474 5.92969 28.873V25.5241C5.92969 24.5993 6.67938 23.8496 7.60417 23.8496Z" fill="#FCFCFC"/>
</svg>
