<svg width="20" height="20" viewBox="0 0 20 20" fill="none" xmlns="http://www.w3.org/2000/svg">
<path fill-rule="evenodd" clip-rule="evenodd" d="M0.375458 3.66957C0.665645 1.98488 2.00472 0.746476 3.69477 0.489325C5.31411 0.242933 7.53559 0 10 0C12.4644 0 14.6859 0.242933 16.3052 0.489325C17.9953 0.746476 19.3344 1.98488 19.6245 3.66957C19.8268 4.84372 20 6.33525 20 8C20 9.66475 19.8268 11.1563 19.6245 12.3304C19.3344 14.0151 17.9953 15.2535 16.3052 15.5107C14.8238 15.7361 12.8384 15.9586 10.6241 15.9949L4.50873 19.6085C3.84211 20.0024 3 19.5219 3 18.7476V15.344C1.64656 14.8939 0.624559 13.7766 0.375458 12.3304C0.173212 11.1563 0 9.66475 0 8C0 6.33525 0.173212 4.84372 0.375458 3.66957ZM4 6C4 5.44772 4.44772 5 5 5H15C15.5523 5 16 5.44772 16 6C16 6.55228 15.5523 7 15 7H5C4.44771 7 4 6.55228 4 6ZM4 10C4 9.44772 4.44772 9 5 9H9C9.55228 9 10 9.44772 10 10C10 10.5523 9.55228 11 9 11H5C4.44772 11 4 10.5523 4 10Z" fill="white"/>
</svg>
