<svg width="16" height="16" viewBox="0 0 16 16" fill="none" xmlns="http://www.w3.org/2000/svg">
<path fill-rule="evenodd" clip-rule="evenodd" d="M10.1381 7.52827C10.3984 7.78862 10.3984 8.21073 10.1381 8.47108L8.13807 10.4711C7.87772 10.7314 7.45561 10.7314 7.19526 10.4711L6.19526 9.47108C5.93491 9.21073 5.93491 8.78862 6.19526 8.52827C6.45561 8.26792 6.87772 8.26792 7.13807 8.52827L7.66667 9.05687L9.19526 7.52827C9.45561 7.26792 9.87772 7.26792 10.1381 7.52827Z" fill="#83BF6E"/>
<path fill-rule="evenodd" clip-rule="evenodd" d="M9.82927 11.9997C9.85672 11.9962 9.88444 11.9935 9.91241 11.9916C11.8222 11.8659 13.3333 10.2754 13.3333 8.33301C13.3333 6.30796 11.6917 4.66634 9.66665 4.66634C8.2592 4.66634 7.03473 5.45895 6.41915 6.62841C6.17416 7.09384 5.67845 7.37175 5.15357 7.33794C5.10296 7.33467 5.05175 7.33301 4.99998 7.33301C3.71132 7.33301 2.66665 8.37768 2.66665 9.66634C2.66665 10.8828 3.59847 11.8831 4.78631 11.9901C4.81311 11.9925 4.83967 11.9957 4.86596 11.9997H9.82927ZM9.99998 13.3221C12.606 13.1505 14.6666 10.9824 14.6666 8.33301C14.6666 5.57158 12.4281 3.33301 9.66665 3.33301C7.74485 3.33301 6.07629 4.41723 5.23929 6.00736C5.16018 6.00226 5.08038 5.99967 4.99998 5.99967C2.97494 5.99967 1.33331 7.6413 1.33331 9.66634C1.33331 11.579 2.79781 13.1497 4.66665 13.3181V13.333H9.99998V13.3221Z" fill="#83BF6E"/>
</svg>
