<svg width="32" height="32" viewBox="0 0 32 32" fill="none" xmlns="http://www.w3.org/2000/svg">
<path fill-rule="evenodd" clip-rule="evenodd" d="M21.3333 13.3337C22.8061 13.3337 24 12.1398 24 10.667C24 9.19423 22.8061 8.00033 21.3333 8.00033C19.8606 8.00033 18.6667 9.19423 18.6667 10.667C18.6667 12.1398 19.8606 13.3337 21.3333 13.3337Z" fill="#FFBC99"/>
<path fill-rule="evenodd" clip-rule="evenodd" d="M2.66667 6.66699C2.66667 4.45785 4.45753 2.66699 6.66667 2.66699H25.3333C27.5425 2.66699 29.3333 4.45785 29.3333 6.66699V25.3337C29.3333 27.5428 27.5425 29.3337 25.3333 29.3337H6.66667C4.45753 29.3337 2.66667 27.5428 2.66667 25.3337V6.66699ZM6.66667 5.33366H25.3333C26.0697 5.33366 26.6667 5.93061 26.6667 6.66699V25.3337C26.6667 25.6375 26.565 25.9176 26.3939 26.1418C26.353 26.0875 26.3088 26.0342 26.2612 25.9822L14.0921 12.7068C12.4557 10.9217 9.62088 10.9886 8.07057 12.849L5.33334 16.1337V6.66699C5.33334 5.93061 5.93029 5.33366 6.66667 5.33366ZM5.33334 20.2991V25.3337C5.33334 26.07 5.93029 26.667 6.66667 26.667H23.2714L12.1263 14.5088C11.5809 13.9137 10.6359 13.936 10.1192 14.5561L5.33334 20.2991Z" fill="#FFBC99"/>
</svg>
