<svg width="25" height="24" viewBox="0 0 25 24" fill="none" xmlns="http://www.w3.org/2000/svg">
<path d="M20.6066 8.63423C20.5826 8.41077 20.5546 8.23168 20.5316 8.10405L22.4161 5.27735C22.5345 5.09962 22.527 4.86625 22.3974 4.6965C22.2677 4.52675 22.0446 4.45811 21.8419 4.52566L19.2212 5.39922C19.0827 5.19265 18.8773 4.92019 18.6036 4.64645C18.0491 4.09195 17.1794 3.5 16 3.5C14.7775 3.5 13.8727 3.84218 13.2266 4.40395C12.5872 4.95995 12.25 5.68869 12.0775 6.37873C11.9052 7.06789 11.8898 7.74611 11.9147 8.24372C11.922 8.38883 11.9327 8.52017 11.9444 8.63384C10.6893 8.90075 9.37591 8.49188 8.08934 7.72835C6.67064 6.88641 5.37015 5.66301 4.35358 4.64645C4.21259 4.50546 4.00131 4.46171 3.81593 4.53513C3.63054 4.60855 3.5065 4.78509 3.50027 4.98438C3.37287 9.0612 4.21338 13.9958 8.01119 16.498C6.4138 17.3622 4.84766 17.7652 2.93801 18.0039C2.71938 18.0312 2.54441 18.1984 2.50721 18.4156C2.47001 18.6328 2.57935 18.8487 2.77642 18.9472C7.93512 21.5266 14.6199 21.3401 18.4 16.3C19.967 14.2107 20.4921 12.1159 20.6233 10.5415C20.6888 9.7552 20.6563 9.09808 20.6066 8.63423Z" fill="#1A1D1F"/>
</svg>
