<svg width="20" height="20" viewBox="0 0 20 20" fill="none" xmlns="http://www.w3.org/2000/svg">
<path fill-rule="evenodd" clip-rule="evenodd" d="M10.0003 18.3327C14.6027 18.3327 18.3337 14.6017 18.3337 9.99935C18.3337 5.39698 14.6027 1.66602 10.0003 1.66602C5.39795 1.66602 1.66699 5.39698 1.66699 9.99935C1.66699 14.6017 5.39795 18.3327 10.0003 18.3327ZM10.0003 5.83268C10.4606 5.83268 10.8337 6.20578 10.8337 6.66602V9.16602H13.3337C13.7939 9.16602 14.167 9.53911 14.167 9.99935C14.167 10.4596 13.7939 10.8327 13.3337 10.8327H10.8337V13.3327C10.8337 13.7929 10.4606 14.166 10.0003 14.166C9.54009 14.166 9.16699 13.7929 9.16699 13.3327V10.8327H6.66699C6.20675 10.8327 5.83366 10.4596 5.83366 9.99935C5.83366 9.53911 6.20675 9.16602 6.66699 9.16602H9.16699V6.66602C9.16699 6.20578 9.54009 5.83268 10.0003 5.83268Z" fill="#BBB2E9"/>
</svg>
