<svg width="20" height="20" viewBox="0 0 20 20" fill="none" xmlns="http://www.w3.org/2000/svg">
<path fill-rule="evenodd" clip-rule="evenodd" d="M10.0003 18.3327C14.6027 18.3327 18.3337 14.6017 18.3337 9.99935C18.3337 5.39698 14.6027 1.66602 10.0003 1.66602C5.39795 1.66602 1.66699 5.39698 1.66699 9.99935C1.66699 14.6017 5.39795 18.3327 10.0003 18.3327ZM10.0003 9.16602C10.4606 9.16602 10.0003 9.16602 10.8337 9.16602H13.3337C13.7939 9.16602 14.167 9.53911 14.167 9.99935C14.167 10.4596 13.7939 10.8327 13.3337 10.8327H10.8337C10.0003 10.8327 10.4606 10.8327 10.0003 10.8327C9.54009 10.8327 10.0003 10.8327 9.16699 10.8327H6.66699C6.20675 10.8327 5.83366 10.4596 5.83366 9.99935C5.83366 9.53911 6.20675 9.16602 6.66699 9.16602H9.16699C9.16699 9.16602 9.54009 9.16602 10.0003 9.16602Z" fill="#FF6A55"/>
</svg>
