<svg width="32" height="32" viewBox="0 0 32 32" fill="none" xmlns="http://www.w3.org/2000/svg">
<path fill-rule="evenodd" clip-rule="evenodd" d="M21.3333 16.0003V10.667C21.3333 8.45785 19.5425 6.66699 17.3333 6.66699H14.6667C12.4575 6.66699 10.6667 8.45785 10.6667 10.667V13.3337H6.66667C4.45753 13.3337 2.66667 15.1245 2.66667 17.3337V24.0003C2.66667 24.7367 3.26363 25.3337 4.00001 25.3337H28C28.7364 25.3337 29.3333 24.7367 29.3333 24.0003V20.0003C29.3333 17.7912 27.5425 16.0003 25.3333 16.0003H21.3333ZM17.3333 9.33366H14.6667C13.9303 9.33366 13.3333 9.93061 13.3333 10.667V22.667H18.6667V10.667C18.6667 9.93061 18.0697 9.33366 17.3333 9.33366ZM21.3333 18.667V22.667H26.6667V20.0003C26.6667 19.2639 26.0697 18.667 25.3333 18.667H21.3333ZM6.66667 16.0003H10.6667V22.667H5.33334V17.3337C5.33334 16.5973 5.93029 16.0003 6.66667 16.0003Z" fill="#FFD88D"/>
</svg>
