<svg width="25" height="24" viewBox="0 0 25 24" fill="none" xmlns="http://www.w3.org/2000/svg">
<path fill-rule="evenodd" clip-rule="evenodd" d="M12.5001 17C16.6121 17 19.0866 13.933 20.1831 12.1047C20.2081 12.063 20.215 12.0278 20.215 12C20.215 11.9722 20.2081 11.937 20.1831 11.8953C19.0866 10.067 16.6121 7 12.5001 7C8.38802 7 5.91349 10.067 4.81706 11.8953C4.79201 11.937 4.78516 11.9722 4.78516 12C4.78516 12.0278 4.79201 12.063 4.81706 12.1047C5.91349 13.933 8.38801 17 12.5001 17ZM21.8983 13.1334C20.71 15.1148 17.7151 19 12.5001 19C7.28504 19 4.29014 15.1148 3.10186 13.1334C2.67959 12.4292 2.67959 11.5708 3.10186 10.8666C4.29014 8.88521 7.28504 5 12.5001 5C17.7151 5 20.71 8.88521 21.8983 10.8666C22.3205 11.5708 22.3205 12.4292 21.8983 13.1334Z" fill="#6F767E"/>
<path fill-rule="evenodd" clip-rule="evenodd" d="M12.5 13C13.0523 13 13.5 12.5523 13.5 12C13.5 11.4477 13.0523 11 12.5 11C11.9477 11 11.5 11.4477 11.5 12C11.5 12.5523 11.9477 13 12.5 13ZM12.5 15C14.1569 15 15.5 13.6569 15.5 12C15.5 10.3431 14.1569 9 12.5 9C10.8431 9 9.5 10.3431 9.5 12C9.5 13.6569 10.8431 15 12.5 15Z" fill="#6F767E"/>
</svg>
