<svg width="32" height="32" viewBox="0 0 32 32" fill="none" xmlns="http://www.w3.org/2000/svg">
<path fill-rule="evenodd" clip-rule="evenodd" d="M22.6667 20.5717V21.3337C22.6667 23.5428 20.8758 25.3337 18.6667 25.3337H6.66667C4.45753 25.3337 2.66667 23.5428 2.66667 21.3337V10.667C2.66667 8.45785 4.45753 6.66699 6.66667 6.66699H18.6667C20.8758 6.66699 22.6667 8.45785 22.6667 10.667V11.4289L25.1167 9.67886C26.8817 8.41816 29.3333 9.67982 29.3333 11.8488V20.1518C29.3333 22.3208 26.8817 23.5825 25.1167 22.3218L22.6667 20.5717ZM6.66667 9.33366H18.6667C19.4031 9.33366 20 9.93061 20 10.667V21.3337C20 22.07 19.4031 22.667 18.6667 22.667H6.66667C5.93029 22.667 5.33334 22.07 5.33334 21.3337V10.667C5.33334 9.93061 5.93029 9.33366 6.66667 9.33366ZM22.6667 17.2947L26.6667 20.1518V11.8488L22.6667 14.706V17.2947Z" fill="#8FDDFF"/>
<path d="M9.86095 16.5529C9.68821 16.3802 9.40814 16.3802 9.23539 16.5529C9.06265 16.7257 9.06265 17.0057 9.23539 17.1785L11.7978 19.7409C12.1433 20.0864 12.7034 20.0864 13.0489 19.7409L15.6113 17.1785C15.7841 17.0057 15.7841 16.7257 15.6113 16.5529C15.4386 16.3802 15.1585 16.3802 14.9858 16.5529L12.8657 18.673V12.4423C12.8657 12.198 12.6677 12 12.4234 12C12.1791 12 11.981 12.198 11.981 12.4423V18.673L9.86095 16.5529Z" fill="#8FDDFF" stroke="#8FDDFF" stroke-linecap="round"/>
</svg>
