<svg width="24" height="24" viewBox="0 0 24 24" fill="none" xmlns="http://www.w3.org/2000/svg">
<path d="M13.0019 5C13.0019 4.44772 12.5542 4 12.0019 4C11.4496 4 11.0019 4.44772 11.0019 5V13.0863L8.20894 10.2933C7.81841 9.90278 7.18525 9.90278 6.79472 10.2933C6.4042 10.6838 6.4042 11.317 6.79472 11.7075L10.5877 15.5005C11.3687 16.2815 12.635 16.2815 13.4161 15.5005L17.2071 11.7095C17.5976 11.3189 17.5976 10.6858 17.2071 10.2953C16.8166 9.90473 16.1834 9.90473 15.7929 10.2953L13.0019 13.0862V5Z" fill="#272B30"/>
<path fill-rule="evenodd" clip-rule="evenodd" d="M4 14C4.55228 14 5 14.4477 5 15V17C5 17.5523 5.44772 18 6 18H18C18.5523 18 19 17.5523 19 17V15C19 14.4477 19.4477 14 20 14C20.5523 14 21 14.4477 21 15V17C21 18.6569 19.6569 20 18 20H6C4.34315 20 3 18.6569 3 17V15C3 14.4477 3.44772 14 4 14Z" fill="#272B30"/>
</svg>
