<svg width="35" height="35" viewBox="0 0 35 35" fill="none" xmlns="http://www.w3.org/2000/svg">
<path d="M34.0998 21.5398C33.9338 24.3883 31.5754 26.6133 28.722 26.6133L6.6261 26.6133C3.77274 26.6133 1.41434 24.3883 1.24835 21.5398L0.35804 6.26142C0.177799 3.16838 2.6375 0.56118 5.73578 0.56118L29.6124 0.56118C32.7106 0.56118 35.1703 3.16838 34.9901 6.26142L34.0998 21.5398Z" fill="#6F767E"/>
<rect x="24" y="30" width="2" height="4" transform="rotate(-180 24 30)" fill="#6F767E"/>
<rect x="13" y="30" width="2" height="4" transform="rotate(-180 13 30)" fill="#6F767E"/>
<path d="M33.6445 31.6842C33.6445 32.9956 32.6363 34.0866 31.329 34.1898L24.513 34.7279C19.9626 35.0871 15.3912 35.0917 10.8402 34.7417L3.61045 34.1855C2.30079 34.0848 1.2895 32.9927 1.2895 31.6792C1.2895 30.2149 2.53607 29.0605 3.99604 29.1728L13.2122 29.8818C16.1843 30.1104 19.1697 30.1074 22.1414 29.8728L30.9334 29.1787C32.3949 29.0633 33.6445 30.2182 33.6445 31.6842Z" fill="#555A5F"/>
</svg>
