<svg width="20" height="22" viewBox="0 0 20 22" fill="none" xmlns="http://www.w3.org/2000/svg">
<path fill-rule="evenodd" clip-rule="evenodd" d="M4 5.49955V6.99955H2.5C1.11929 6.99955 0 8.11884 0 9.49955V19.8786C0 21.1364 1.4549 21.8356 2.43704 21.0499L4.86304 19.1091C4.9517 19.0382 5.06185 18.9996 5.17539 18.9996H13.5C14.8807 18.9996 16 17.8803 16 16.4996V14.9996H17.5C18.8807 14.9996 20 13.8803 20 12.4996V1.80233C20 0.604285 18.6648 -0.110303 17.668 0.554251L14.126 2.91558C14.0438 2.97033 13.9473 2.99955 13.8486 2.99955H6.5C5.11929 2.99955 4 4.11884 4 5.49955ZM13.5 6.99955H6V5.49955C6 5.22341 6.22386 4.99955 6.5 4.99955H13.8486C14.3422 4.99955 14.8247 4.85346 15.2354 4.57968L18 2.73659V12.4996C18 12.7757 17.7761 12.9996 17.5 12.9996H16V9.49955C16 8.11884 14.8807 6.99955 13.5 6.99955ZM5 11.9995C4.44772 11.9995 4 12.4473 4 12.9995C4 13.5518 4.44772 13.9995 5 13.9995H11C11.5523 13.9995 12 13.5518 12 12.9995C12 12.4473 11.5523 11.9995 11 11.9995H5Z" fill="#6F767E"/>
</svg>
