<svg width="20" height="20" viewBox="0 0 20 20" fill="none" xmlns="http://www.w3.org/2000/svg">
<path d="M5.53269 4.40039H4.4C3.07452 4.40039 2 5.47491 2 6.80039V13.2004C2 14.5259 3.07452 15.6004 4.4 15.6004H11.6C12.9255 15.6004 14 14.5259 14 13.2004V12.8677L5.53269 4.40039Z" fill="#FCFCFC"/>
<path d="M17.2451 13.85C17.6867 13.5766 18 13.0919 18 12.4913V7.50949C18 6.2081 16.529 5.4511 15.47 6.20752L14 7.25753V6.80039C14 5.47491 12.9255 4.40039 11.6 4.40039H7.79543L17.2451 13.85Z" fill="#FCFCFC"/>
<path fill-rule="evenodd" clip-rule="evenodd" d="M2.23431 2.23431C2.54673 1.9219 3.05327 1.9219 3.36569 2.23431L17.7657 16.6343C18.0781 16.9467 18.0781 17.4533 17.7657 17.7657C17.4533 18.0781 16.9467 18.0781 16.6343 17.7657L2.23431 3.36569C1.9219 3.05327 1.9219 2.54673 2.23431 2.23431Z" fill="#FCFCFC"/>
</svg>
