<svg width="36" height="36" viewBox="0 0 36 36" fill="none" xmlns="http://www.w3.org/2000/svg">
<rect x="0.400391" y="0.400391" width="35.2" height="35.2" rx="6.4" fill="#857DB1"/>
<path d="M9.20117 22.0008V24.4008C9.20117 24.8426 9.55934 25.2008 10.0012 25.2008H21.2012C21.643 25.2008 22.0012 24.8426 22.0012 24.4008V22.0008C22.0012 20.2335 20.5685 18.8008 18.8012 18.8008H12.4012C10.6339 18.8008 9.20117 20.2335 9.20117 22.0008Z" fill="#FCFCFC"/>
<path d="M23.5987 24.5092C23.5834 24.8539 23.8265 25.2008 24.1716 25.2008H26.0011C26.443 25.2008 26.8011 24.8426 26.8011 24.4008V22.0008C26.8011 20.2335 25.3684 18.8008 23.6011 18.8008H22.9382C22.7221 18.8008 22.6024 19.0615 22.7269 19.2382C23.2777 20.0194 23.6011 20.9723 23.6011 22.0008V24.4008C23.6011 24.4371 23.6003 24.4733 23.5987 24.5092Z" fill="#FCFCFC"/>
<path d="M18.8004 14.0008C18.8004 15.7681 17.3677 17.2008 15.6004 17.2008C13.8331 17.2008 12.4004 15.7681 12.4004 14.0008C12.4004 12.2335 13.8331 10.8008 15.6004 10.8008C17.3677 10.8008 18.8004 12.2335 18.8004 14.0008Z" fill="#FCFCFC"/>
<path d="M20.0218 17.1785C19.679 17.1381 19.5617 16.7351 19.7373 16.4378C20.1591 15.7235 20.4011 14.8904 20.4011 14.0008C20.4011 13.1112 20.1591 12.2781 19.7373 11.5638C19.5617 11.2665 19.679 10.8635 20.0218 10.823C20.1462 10.8083 20.2728 10.8008 20.4011 10.8008C22.1684 10.8008 23.6011 12.2335 23.6011 14.0008C23.6011 15.7681 22.1684 17.2008 20.4011 17.2008C20.2728 17.2008 20.1462 17.1932 20.0218 17.1785Z" fill="#FCFCFC"/>
</svg>
