<svg width="24" height="24" viewBox="0 0 24 24" fill="none" xmlns="http://www.w3.org/2000/svg">
<rect width="24" height="24" rx="12" fill="#272B30"/>
<path d="M10 7.33301C10 6.22844 10.8954 5.33301 12 5.33301C13.1046 5.33301 14 6.22844 14 7.33301V11.333C14 12.4376 13.1046 13.333 12 13.333C10.8954 13.333 10 12.4376 10 11.333V7.33301Z" fill="#EFEFEF"/>
<path d="M8.66668 11.3337C8.66668 10.9655 8.3682 10.667 8.00001 10.667C7.63182 10.667 7.33334 10.9655 7.33334 11.3337C7.33334 13.6846 9.07181 15.6296 11.3333 15.9531V17.3337H10C9.63182 17.3337 9.33334 17.6321 9.33334 18.0003C9.33334 18.3685 9.63182 18.667 10 18.667H14C14.3682 18.667 14.6667 18.3685 14.6667 18.0003C14.6667 17.6321 14.3682 17.3337 14 17.3337H12.6667V15.9531C14.9282 15.6296 16.6667 13.6846 16.6667 11.3337C16.6667 10.9655 16.3682 10.667 16 10.667C15.6318 10.667 15.3333 10.9655 15.3333 11.3337C15.3333 13.1746 13.841 14.667 12 14.667C10.1591 14.667 8.66668 13.1746 8.66668 11.3337Z" fill="#EFEFEF"/>
</svg>
