<svg width="20" height="20" viewBox="0 0 20 20" fill="none" xmlns="http://www.w3.org/2000/svg">
<path fill-rule="evenodd" clip-rule="evenodd" d="M4.16634 6.66699C3.7061 6.66699 3.33301 7.04009 3.33301 7.50033V15.8337C3.33301 17.2144 4.4523 18.3337 5.83301 18.3337H14.1663C15.5471 18.3337 16.6663 17.2144 16.6663 15.8337V7.50033C16.6663 7.04009 16.2932 6.66699 15.833 6.66699H4.16634ZM7.49967 9.16699C7.95991 9.16699 8.33301 9.54009 8.33301 10.0003V15.0003C8.33301 15.4606 7.95991 15.8337 7.49967 15.8337C7.03944 15.8337 6.66634 15.4606 6.66634 15.0003V10.0003C6.66634 9.54009 7.03944 9.16699 7.49967 9.16699ZM13.333 10.0003C13.333 9.54009 12.9599 9.16699 12.4997 9.16699C12.0394 9.16699 11.6663 9.54009 11.6663 10.0003V15.0003C11.6663 15.4606 12.0394 15.8337 12.4997 15.8337C12.9599 15.8337 13.333 15.4606 13.333 15.0003V10.0003Z" fill="#BBB2E9"/>
<path d="M3.33333 5.00033C2.8731 5.00033 2.5 4.62723 2.5 4.16699C2.5 3.70675 2.8731 3.33366 3.33333 3.33366H5.97559C6.31879 2.36267 7.24482 1.66699 8.33333 1.66699H11.6667C12.7552 1.66699 13.6812 2.36267 14.0244 3.33366H16.6667C17.1269 3.33366 17.5 3.70675 17.5 4.16699C17.5 4.62723 17.1269 5.00033 16.6667 5.00033H3.33333Z" fill="#BBB2E9"/>
</svg>
