<svg width="35" height="35" viewBox="0 0 35 35" fill="none" xmlns="http://www.w3.org/2000/svg">
<path d="M0.900213 13.4602C1.0662 10.6117 3.4246 8.38672 6.27796 8.38672H28.3739C31.2273 8.38672 33.5857 10.6117 33.7516 13.4602L34.642 28.7386C34.8222 31.8316 32.3625 34.4388 29.2642 34.4388H5.38764C2.28936 34.4388 -0.170337 31.8316 0.00990248 28.7386L0.900213 13.4602Z" fill="#6F767E"/>
<rect x="11" y="5" width="2" height="4" fill="#6F767E"/>
<rect x="22" y="5" width="2" height="4" fill="#6F767E"/>
<path d="M1.35547 3.31576C1.35547 2.00438 2.36371 0.91341 3.67101 0.810201L10.487 0.272098C15.0374 -0.0871413 19.6088 -0.0917406 24.1598 0.258342L31.3896 0.814473C32.6992 0.915216 33.7105 2.00729 33.7105 3.32081C33.7105 4.7851 32.4639 5.93946 31.004 5.82715L21.7878 5.11822C18.8157 4.8896 15.8303 4.8926 12.8586 5.12721L4.06663 5.82131C2.60512 5.93669 1.35547 4.78182 1.35547 3.31576Z" fill="#555A5F"/>
</svg>
