<svg width="16" height="16" viewBox="0 0 16 16" fill="none" xmlns="http://www.w3.org/2000/svg">
<path fill-rule="evenodd" clip-rule="evenodd" d="M12.6667 3.33333H3.33334C2.96515 3.33333 2.66667 3.63181 2.66667 4V10C2.66667 10.3682 2.96515 10.6667 3.33334 10.6667H12.6667C13.0349 10.6667 13.3333 10.3682 13.3333 10V4C13.3333 3.63181 13.0349 3.33333 12.6667 3.33333ZM3.33334 2C2.22877 2 1.33334 2.89543 1.33334 4V10C1.33334 11.1046 2.22877 12 3.33334 12H12.6667C13.7712 12 14.6667 11.1046 14.6667 10V4C14.6667 2.89543 13.7712 2 12.6667 2H3.33334Z" fill="#EFEFEF"/>
<path fill-rule="evenodd" clip-rule="evenodd" d="M0.666664 13.3337C0.666664 12.9655 0.965141 12.667 1.33333 12.667H14.6667C15.0349 12.667 15.3333 12.9655 15.3333 13.3337C15.3333 13.7018 15.0349 14.0003 14.6667 14.0003H1.33333C0.965141 14.0003 0.666664 13.7018 0.666664 13.3337Z" fill="#EFEFEF"/>
</svg>
