<svg width="32" height="32" viewBox="0 0 32 32" fill="none" xmlns="http://www.w3.org/2000/svg">
<path fill-rule="evenodd" clip-rule="evenodd" d="M8 5.33366C7.26362 5.33366 6.66667 5.93061 6.66667 6.66699V25.3337C6.66667 26.07 7.26362 26.667 8 26.667H24C24.7364 26.667 25.3333 26.07 25.3333 25.3337V16.0003C25.3333 15.2639 25.9303 14.667 26.6667 14.667C27.403 14.667 28 15.2639 28 16.0003V25.3337C28 27.5428 26.2091 29.3337 24 29.3337H8C5.79086 29.3337 4 27.5428 4 25.3337V6.66699C4 4.45785 5.79086 2.66699 8 2.66699H16C16.7364 2.66699 17.3333 3.26395 17.3333 4.00033C17.3333 4.73671 16.7364 5.33366 16 5.33366H8Z" fill="#E4D7CF"/>
<path fill-rule="evenodd" clip-rule="evenodd" d="M10.7521 15.5514C10.5482 15.7554 10.4158 16.0201 10.375 16.3057L9.74648 20.7055C9.62078 21.5854 10.375 22.3397 11.255 22.214L15.6548 21.5854C15.9403 21.5446 16.205 21.4123 16.409 21.2083L26.4656 11.1517C28.0277 9.58957 28.0277 7.05691 26.4656 5.49481C24.9035 3.93272 22.3709 3.93272 20.8088 5.49482L10.7521 15.5514ZM21.7516 12.0945L14.8377 19.0084L12.6378 19.3227L12.952 17.1228L19.866 10.2089L21.7516 12.0945ZM23.6372 10.2089L21.7516 8.32325L22.6944 7.38043C23.2151 6.85973 24.0593 6.85973 24.58 7.38043C25.1007 7.90113 25.1007 8.74535 24.58 9.26605L23.6372 10.2089Z" fill="#E4D7CF"/>
</svg>
