<svg width="17" height="18" viewBox="0 0 17 18" fill="none" xmlns="http://www.w3.org/2000/svg">
<path d="M5.80441 13.3404C5.31678 12.9816 4.8837 12.5936 4.52936 12.1224C3.89737 11.2796 3.54057 10.3298 3.5254 9.27248C3.50817 8.0934 3.51843 6.9139 3.51925 5.73441C3.51925 5.44733 3.655 5.31445 3.94659 5.31445C6.96094 5.31445 9.97528 5.31445 12.9896 5.31445C13.2911 5.31445 13.4252 5.45389 13.4276 5.76025C13.4301 6.02436 13.4301 6.02436 13.6815 6.09531C14.7289 6.39183 15.4077 7.37241 15.3371 8.48752C15.2727 9.51281 14.457 10.3954 13.4166 10.5516C13.2525 10.5762 13.1824 10.6406 13.1274 10.7952C12.7682 11.8074 12.1354 12.6129 11.252 13.2227C11.211 13.251 11.17 13.2785 11.0937 13.3281C11.1708 13.3343 11.2118 13.3396 11.2532 13.34C11.7146 13.34 12.1764 13.3318 12.6369 13.3466C13.3075 13.3683 13.8263 13.8592 13.9025 14.5252C13.9228 14.7054 13.9059 14.8878 13.8528 15.0611C13.7997 15.2345 13.7116 15.395 13.5939 15.5329C13.4762 15.6708 13.3315 15.783 13.1686 15.8627C13.0058 15.9423 12.8283 15.9877 12.6472 15.9959C12.4011 16.0049 12.155 15.9988 11.909 15.9988C9.40727 15.9988 6.90557 15.9988 4.40387 15.9988C3.70667 15.9988 3.17352 15.5616 3.04843 14.8964C2.90407 14.1397 3.48644 13.3847 4.25704 13.3519C4.7176 13.3322 5.1798 13.3445 5.64118 13.3429L5.80441 13.3404ZM8.47385 12.0727C9.17391 12.0712 9.84479 11.7921 10.3393 11.2966C10.8338 10.8011 11.1116 10.1296 11.1117 9.42955C11.1112 9.08289 11.0424 8.73974 10.9092 8.41967C10.776 8.09961 10.5811 7.80892 10.3356 7.5642C10.0901 7.31947 9.79873 7.12551 9.47823 6.99338C9.15774 6.86126 8.81436 6.79356 8.4677 6.79415C8.11973 6.79403 7.77518 6.86283 7.45394 6.99659C7.1327 7.13034 6.84113 7.3264 6.59607 7.57344C6.35101 7.82049 6.15731 8.11362 6.02615 8.43593C5.89499 8.75823 5.82896 9.10333 5.83189 9.45129C5.83655 10.1487 6.11704 10.8158 6.61209 11.307C7.10713 11.7982 7.77647 12.0735 8.47385 12.0727ZM13.4174 9.79989C14.1457 9.64035 14.6375 8.97145 14.601 8.18731C14.571 7.54056 14.0141 6.88191 13.4174 6.81055V9.79989Z" fill="#FFB038"/>
<path d="M8.84188 2.72154C8.84188 2.99345 8.84434 3.26536 8.84188 3.53685C8.83901 3.79072 8.68727 3.95886 8.4699 3.95845C8.25254 3.95804 8.10531 3.79031 8.10449 3.53439C8.10449 2.98566 8.10449 2.43692 8.10449 1.88819C8.10449 1.64212 8.24926 1.47807 8.46416 1.47561C8.67906 1.47315 8.83778 1.63966 8.84106 1.89065C8.84475 2.16748 8.84188 2.44472 8.84188 2.72154Z" fill="#FFB038"/>
<path d="M6.23517 2.7085C6.23517 2.98984 6.23722 3.27118 6.23517 3.55251C6.23312 3.7912 6.0781 3.9573 5.86607 3.95566C5.65404 3.95402 5.49983 3.78874 5.49696 3.54841C5.4945 2.99066 5.4945 2.43304 5.49696 1.87555C5.49696 1.63728 5.65568 1.47241 5.86853 1.47364C6.08138 1.47487 6.23148 1.63769 6.23353 1.87965C6.23517 2.15689 6.23517 2.4329 6.23517 2.7085Z" fill="#FFB038"/>
<path d="M11.4385 2.72051C11.4385 2.99734 11.441 3.27416 11.4385 3.5514C11.4357 3.79419 11.2843 3.95865 11.0715 3.95783C10.8586 3.95701 10.7044 3.79378 10.7024 3.54771C10.6988 2.99406 10.6988 2.44026 10.7024 1.88633C10.7024 1.63452 10.8623 1.46843 11.0809 1.47376C11.2995 1.47909 11.4365 1.6378 11.4385 1.88838C11.4418 2.16685 11.4385 2.44368 11.4385 2.72051Z" fill="#FFB038"/>
<path d="M8.47082 11.3364C7.96808 11.3359 7.48592 11.1366 7.12962 10.7819C6.77332 10.4272 6.57182 9.946 6.56912 9.44327C6.56787 9.19304 6.61608 8.94504 6.71096 8.7135C6.80585 8.48196 6.94554 8.27145 7.12202 8.09405C7.2985 7.91666 7.50829 7.77588 7.73933 7.6798C7.97038 7.58372 8.21813 7.53423 8.46836 7.53418C8.97121 7.53406 9.45369 7.7329 9.81045 8.08727C10.1672 8.44165 10.3693 8.92279 10.3725 9.42563C10.3733 9.93106 10.1735 10.4161 9.81692 10.7744C9.46037 11.1326 8.97625 11.3347 8.47082 11.3364ZM8.83992 9.05981C8.83992 8.88059 8.84362 8.70096 8.83992 8.52174C8.83377 8.28018 8.6808 8.11941 8.4659 8.12105C8.251 8.1227 8.10582 8.28182 8.10336 8.52912C8.1009 8.78503 8.10828 9.04135 8.09803 9.29727C8.09434 9.32956 8.08411 9.36076 8.06797 9.38896C8.05182 9.41717 8.03009 9.44179 8.00411 9.46131C7.86016 9.55851 7.70349 9.63561 7.55298 9.72584C7.34997 9.84887 7.28682 10.0502 7.38894 10.2356C7.49105 10.421 7.70883 10.4817 7.9188 10.3656C8.15585 10.234 8.3888 10.0945 8.62461 9.96042C8.69325 9.92475 8.75013 9.87001 8.7884 9.80279C8.82667 9.73556 8.8447 9.65871 8.84033 9.58148C8.84033 9.40841 8.84115 9.23411 8.84115 9.05981H8.83992Z" fill="#FFB038"/>
</svg>
