<svg width="20" height="20" viewBox="0 0 20 20" fill="none" xmlns="http://www.w3.org/2000/svg">
<path fill-rule="evenodd" clip-rule="evenodd" d="M3.6 18C2.71635 18 2 17.2837 2 16.4L2 3.6C2 2.71635 2.71634 2 3.6 2L16.4 2C17.2837 2 18 2.71634 18 3.6V16.4C18 17.2837 17.2837 18 16.4 18H3.6ZM10.0013 8.72069C11.0615 8.72069 11.9209 7.86122 11.9209 6.80101C11.9209 5.74081 11.0615 4.88134 10.0013 4.88134C8.94104 4.88134 8.08158 5.74081 8.08158 6.80101C8.08158 7.86122 8.94104 8.72069 10.0013 8.72069ZM10.0013 10.0005C11.7683 10.0005 13.2007 8.56802 13.2007 6.80101C13.2007 5.03401 11.7683 3.60156 10.0013 3.60156C8.23424 3.60156 6.8018 5.03401 6.8018 6.80101C6.8018 8.56802 8.23424 10.0005 10.0013 10.0005ZM5.52077 15.1196C5.52077 13.706 6.66672 12.56 8.08033 12.56H11.9197C13.3333 12.56 14.4792 13.706 14.4792 15.1196V15.7595C14.4792 16.1129 14.7657 16.3994 15.1191 16.3994C15.4725 16.3994 15.759 16.1129 15.759 15.7595V15.1196C15.759 12.9992 14.0401 11.2803 11.9197 11.2803H8.08033C5.95992 11.2803 4.24098 12.9992 4.24098 15.1196V15.7595C4.24098 16.1129 4.52747 16.3994 4.88088 16.3994C5.23428 16.3994 5.52077 16.1129 5.52077 15.7595V15.1196Z" fill="#6F767E"/>
</svg>
