<svg width="160" height="170" viewBox="0 0 160 170" fill="none" xmlns="http://www.w3.org/2000/svg">
<path fill-rule="evenodd" clip-rule="evenodd" d="M145.003 90.002C145.003 125.9 115.901 155.002 80.0029 155.002C44.1044 155.002 15.0029 125.9 15.0029 90.002C15.0029 54.1034 44.1044 25.002 80.0029 25.002C115.901 25.002 145.003 54.1034 145.003 90.002ZM117.142 118.606C119.273 120.78 119.273 124.225 117.142 126.399C107.704 136.028 94.5512 142.002 80.0033 142.002C65.455 142.002 52.3021 136.028 42.8643 126.398C40.7329 124.224 40.7329 120.779 42.8643 118.605C52.3021 108.976 65.4547 103.002 80.0026 103.002C94.5509 103.002 107.704 108.976 117.142 118.606ZM80.0029 90.002C90.7725 90.002 99.5029 81.2715 99.5029 70.502C99.5029 59.7324 90.7725 51.002 80.0029 51.002C69.2334 51.002 60.5029 59.7324 60.5029 70.502C60.5029 81.2715 69.2334 90.002 80.0029 90.002Z" fill="#6F767E"/>
<path fill-rule="evenodd" clip-rule="evenodd" d="M159.994 91.0015L151.994 90.9033C151.998 90.6026 152 90.3014 152 89.9997C152 89.698 151.998 89.3968 151.994 89.0961L159.994 88.998C159.998 89.3314 160 89.6653 160 89.9997C160 90.3341 159.998 90.668 159.994 91.0015ZM159.847 85.012L151.862 85.5032C151.825 84.9035 151.781 84.3058 151.73 83.7104L159.7 83.0217C159.757 83.6829 159.806 84.3463 159.847 85.012ZM159.258 79.0572L151.332 80.1414C151.25 79.5476 151.162 78.9562 151.066 78.3673L158.963 77.0857C159.069 77.7402 159.168 78.3974 159.258 79.0572ZM158.226 73.1652L150.403 74.8406C150.278 74.2545 150.145 73.6711 150.005 73.0904L157.783 71.2191C157.939 71.8648 158.086 72.5136 158.226 73.1652ZM156.753 67.3654L149.079 69.6249C148.91 69.0507 148.734 68.4795 148.551 67.9114L156.166 65.4597C156.369 66.0916 156.565 66.7268 156.753 67.3654ZM154.848 61.6943L147.366 64.5254C147.154 63.9654 146.935 63.4087 146.71 62.8554L154.119 59.8373C154.37 60.4525 154.613 61.0716 154.848 61.6943ZM152.522 56.1819L145.274 59.5676C145.02 59.0252 144.76 58.4865 144.494 57.9515L151.655 54.3853C151.951 54.98 152.24 55.5789 152.522 56.1819ZM149.788 50.8599L142.814 54.7796C142.521 54.2577 142.221 53.7398 141.915 53.226L148.789 49.1335C149.129 49.7044 149.462 50.2799 149.788 50.8599ZM146.664 45.7577L140.002 50.1876C139.67 49.6888 139.333 49.1944 138.989 48.7045L145.538 44.1103C145.92 44.6545 146.295 45.2037 146.664 45.7577ZM143.167 40.9024L136.854 45.8163C136.486 45.3437 136.112 44.8759 135.733 44.4128L141.922 39.3438C142.343 39.858 142.758 40.3776 143.167 40.9024ZM139.319 36.3211L133.389 41.6907C132.987 41.2467 132.579 40.8078 132.166 40.374L137.961 34.859C138.42 35.3407 138.872 35.8281 139.319 36.3211ZM135.141 32.0382L129.626 37.8335C129.192 37.4206 128.753 37.0132 128.309 36.6112L133.679 30.681C134.172 31.1273 134.659 31.5798 135.141 32.0382ZM130.656 28.0774L125.587 34.2665C125.124 33.8873 124.656 33.5137 124.183 33.1459L129.097 26.8329C129.622 27.2414 130.142 27.6563 130.656 28.0774ZM125.889 24.4615L121.295 31.0107C120.805 30.6671 120.311 30.3293 119.812 29.9977L124.242 23.3361C124.796 23.7046 125.345 24.0797 125.889 24.4615ZM120.866 21.2106L116.774 28.0846C116.26 27.7787 115.742 27.479 115.22 27.1857L119.14 20.2117C119.72 20.5377 120.295 20.8707 120.866 21.2106ZM115.614 18.3446L112.048 25.5058C111.513 25.2394 110.974 24.9795 110.432 24.7261L113.818 17.4779C114.421 17.7595 115.02 18.0485 115.614 18.3446ZM111.357 12.9458L107.144 23.2896C106.591 23.0642 106.034 22.8456 105.474 22.6337L109.5 12.2164C110.123 12.452 110.742 12.6952 111.357 12.9458ZM106.906 6.08719L102.088 21.4489C101.52 21.266 100.949 21.0899 100.375 20.9209L105 5.5C105.639 5.68801 106.274 5.88378 106.906 6.08719ZM101.446 1.44226L96.9093 19.9945C96.3287 19.8548 95.7452 19.7221 95.1591 19.5966L99.5 0.999845C100.152 1.13942 100.8 1.28692 101.446 1.44226ZM95.5 1L91.6325 18.9333C91.0435 18.8377 90.4522 18.7492 89.8584 18.668L93.5284 0.705234C94.1882 0.795479 94.8454 0.893768 95.5 1ZM87.9902 3.14716L86.2893 18.2701C85.6939 18.2186 85.0963 18.1744 84.4966 18.1375L86 3C86.6656 3.04095 87.3291 3.09003 87.9902 3.14716ZM81.0999 5.5L80.9036 18.0052C80.6029 18.0015 80.3017 17.9997 80 17.9997C79.6983 17.9997 79.3971 18.0015 79.0964 18.0052V5.5C79.4298 5.49591 79.7638 5.49386 80.0982 5.49386C80.4326 5.49386 80.7665 5.49591 81.0999 5.5ZM75.0123 10.1526L75.5034 18.1375C74.9037 18.1744 74.3061 18.2186 73.7107 18.2701L73.022 10.2998C73.6832 10.2427 74.3466 10.1936 75.0123 10.1526ZM69.0575 10.7418L70.1416 18.668C69.5479 18.7492 68.9565 18.8377 68.3675 18.9333L67.0859 11.0366C67.7405 10.9304 68.3977 10.8321 69.0575 10.7418ZM63.1655 11.774L64.8409 19.5966C64.2548 19.7221 63.6713 19.8548 63.0907 19.9945L61.2194 12.2164C61.8651 12.0611 62.5138 11.9136 63.1655 11.774ZM57.3657 13.2466L59.6252 20.9209C59.051 21.0899 58.4798 21.266 57.9117 21.4489L55.4601 13.8338C56.0919 13.6304 56.7271 13.4346 57.3657 13.2466ZM51.6946 15.1513L54.5257 22.6337C53.9657 22.8456 53.409 23.0642 52.8557 23.2896L49.8377 15.8807C50.4529 15.6301 51.0719 15.387 51.6946 15.1513ZM46.1822 17.4779L49.5679 24.7261C49.0255 24.9795 48.4868 25.2394 47.9518 25.5058L44.3856 18.3446C44.9803 18.0485 45.5792 17.7595 46.1822 17.4779ZM40.8602 20.2117L44.7799 27.1857C44.258 27.479 43.7401 27.7787 43.2263 28.0846L39.1338 21.2106C39.7047 20.8707 40.2802 20.5377 40.8602 20.2117ZM35.758 23.3361L40.1879 29.9977C39.6892 30.3293 39.1948 30.6671 38.7048 31.0107L34.1106 24.4615C34.6548 24.0797 35.204 23.7046 35.758 23.3361ZM30.9027 26.8329L35.8166 33.1459C35.3441 33.5137 34.8762 33.8873 34.4131 34.2665L29.3441 28.0774C29.8583 27.6563 30.3779 27.2414 30.9027 26.8329ZM26.3214 30.681L31.6911 36.6111C31.2471 37.0132 30.8081 37.4206 30.3743 37.8335L24.8593 32.0382C25.341 31.5798 25.8284 31.1273 26.3214 30.681ZM22.0385 34.859L27.8338 40.374C27.421 40.8078 27.0135 41.2467 26.6115 41.6907L20.6813 36.3211C21.1277 35.8281 21.5801 35.3407 22.0385 34.859ZM18.0778 39.3438L24.2669 44.4128C23.8876 44.8759 23.514 45.3437 23.1462 45.8163L16.8332 40.9024C17.2417 40.3776 17.6566 39.858 18.0778 39.3438ZM14.4618 44.1103L21.0111 48.7045C20.6674 49.1944 20.3297 49.6888 19.998 50.1876L13.3365 45.7577C13.7049 45.2037 14.08 44.6545 14.4618 44.1103ZM11.2109 49.1335L18.0849 53.226C17.779 53.7398 17.4793 54.2577 17.186 54.7796L10.2121 50.8599C10.538 50.2799 10.871 49.7044 11.2109 49.1335ZM8.34499 54.3853L15.5062 57.9515C15.2397 58.4865 14.9798 59.0252 14.7264 59.5676L7.47821 56.1819C7.75987 55.5789 8.04884 54.98 8.34499 54.3853ZM5.8811 59.8373L13.29 62.8554C13.0646 63.4087 12.8459 63.9654 12.634 64.5254L5.15169 61.6943C5.38731 61.0716 5.63049 60.4525 5.8811 59.8373ZM3.83412 65.4597L11.4492 67.9114C11.2663 68.4795 11.0903 69.0507 10.9212 69.6249L3.24693 67.3654C3.43495 66.7268 3.63071 66.0916 3.83412 65.4597ZM2.21676 71.2191L9.99483 73.0904C9.85514 73.6711 9.72247 74.2545 9.59694 74.8406L1.77434 73.1652C1.91391 72.5136 2.06142 71.8648 2.21676 71.2191ZM1.03692 77.0856L8.9336 78.3672C8.83802 78.9562 8.74957 79.5476 8.66835 80.1413L0.742155 79.0572C0.8324 78.3974 0.93069 77.7402 1.03692 77.0856ZM0.300117 83.0217L8.27042 83.7104C8.21897 84.3058 8.17475 84.9034 8.13786 85.5031L0.152956 85.012C0.193903 84.3463 0.242989 83.6829 0.300117 83.0217ZM0.00614341 88.998C0.00205177 89.3314 0 89.6653 0 89.9997C0 90.3341 0.00205168 90.668 0.00614313 91.0015L8.00554 90.9033C8.00185 90.6026 8 90.3014 8 89.9997C8 89.698 8.00185 89.3968 8.00554 89.0961L0.00614341 88.998ZM0.152955 94.9875L8.13786 94.4963C8.17475 95.096 8.21897 95.6936 8.27042 96.289L0.300116 96.9777C0.242988 96.3166 0.193902 95.6531 0.152955 94.9875ZM0.742155 100.942L8.66835 99.8581C8.74957 100.452 8.83802 101.043 8.9336 101.632L1.03692 102.914C0.930688 102.259 0.832399 101.602 0.742155 100.942ZM1.77434 106.834L9.59694 105.159C9.72247 105.745 9.85513 106.328 9.99483 106.909L2.21676 108.78C2.06142 108.135 1.91391 107.486 1.77434 106.834ZM3.24693 112.634L10.9212 110.374C11.0903 110.949 11.2663 111.52 11.4492 112.088L3.83412 114.54C3.63071 113.908 3.43495 113.273 3.24693 112.634ZM5.15169 118.305L12.634 115.474C12.8459 116.034 13.0646 116.591 13.29 117.144L5.88109 120.162C5.63049 119.547 5.38731 118.928 5.15169 118.305ZM7.47821 123.817L14.7264 120.432C14.9798 120.974 15.2397 121.513 15.5062 122.048L8.34498 125.614C8.04884 125.019 7.75987 124.42 7.47821 123.817ZM10.2121 129.139L17.186 125.22C17.4793 125.742 17.779 126.26 18.0849 126.773L11.2109 130.866C10.871 130.295 10.538 129.719 10.2121 129.139ZM13.3365 134.242L19.998 129.812C20.3297 130.31 20.6674 130.805 21.0111 131.295L14.4618 135.889C14.08 135.345 13.7049 134.796 13.3365 134.242ZM16.8332 139.097L23.1462 134.183C23.514 134.656 23.8876 135.123 24.2669 135.586L18.0778 140.656C17.6566 140.141 17.2417 139.622 16.8332 139.097ZM20.6813 143.678L26.6115 138.309C27.0135 138.753 27.421 139.191 27.8338 139.625L22.0385 145.14C21.5801 144.659 21.1277 144.171 20.6813 143.678ZM24.8593 147.961L30.3743 142.166C30.8081 142.579 31.2471 142.986 31.6911 143.388L26.3214 149.318C25.8284 148.872 25.341 148.419 24.8593 147.961ZM29.3441 151.922L34.4131 145.733C34.8762 146.112 35.3441 146.486 35.8166 146.853L30.9027 153.166C30.3779 152.758 29.8583 152.343 29.3441 151.922ZM34.1106 155.538L38.7048 148.989C39.1948 149.332 39.6892 149.67 40.1879 150.002L35.758 156.663C35.204 156.295 34.6548 155.92 34.1106 155.538ZM39.1338 158.789L43.2263 151.915C43.7401 152.221 44.258 152.52 44.7799 152.814L40.8602 159.788C40.2802 159.462 39.7047 159.129 39.1338 158.789ZM44.3856 161.655L47.9518 154.493C48.4868 154.76 49.0255 155.02 49.5679 155.273L46.1822 162.521C45.5792 162.24 44.9803 161.951 44.3856 161.655ZM49.8377 164.119L52.8557 156.71C53.409 156.935 53.9657 157.154 54.5257 157.366L51.6946 164.848C51.0719 164.612 50.4529 164.369 49.8377 164.119ZM55.4601 166.165C56.0919 166.369 56.7271 166.565 57.3657 166.753L59.6252 159.078C59.051 158.909 58.4798 158.733 57.9117 158.55L55.4601 166.165ZM61.2194 167.783L63.0907 160.005C63.6713 160.144 64.2548 160.277 64.8409 160.403L63.1655 168.225C62.5138 168.086 61.8651 167.938 61.2194 167.783ZM67.0859 168.963L68.3675 161.066C68.9565 161.162 69.5478 161.25 70.1416 161.331L69.0575 169.257C68.3977 169.167 67.7405 169.069 67.0859 168.963ZM73.022 169.699L73.7107 161.729C74.3061 161.781 74.9037 161.825 75.5034 161.862L75.0122 169.847C74.3466 169.806 73.6832 169.757 73.022 169.699ZM78.9982 169.993L79.0964 161.994C79.3971 161.998 79.6983 162 80 162C80.3017 162 80.6029 161.998 80.9036 161.994L81.0017 169.993C80.6683 169.998 80.3344 170 80 170C79.6656 170 79.3317 169.998 78.9982 169.993ZM84.9877 169.847L84.4966 161.862C85.0963 161.825 85.6939 161.781 86.2893 161.729L86.978 169.699C86.3168 169.757 85.6534 169.806 84.9877 169.847ZM90.9425 169.257L89.8584 161.331C90.4521 161.25 91.0435 161.162 91.6325 161.066L92.9141 168.963C92.2595 169.069 91.6023 169.167 90.9425 169.257ZM96.8345 168.225L95.1591 160.403C95.7452 160.277 96.3287 160.144 96.9093 160.005L98.7806 167.783C98.1349 167.938 97.4862 168.086 96.8345 168.225ZM102.634 166.753L100.375 159.078C100.949 158.909 101.52 158.733 102.088 158.55L104.54 166.165C103.908 166.369 103.273 166.565 102.634 166.753ZM108.305 164.848L105.474 157.366C106.034 157.154 106.591 156.935 107.144 156.71L110.162 164.119C109.547 164.369 108.928 164.612 108.305 164.848ZM113.818 162.521L110.432 155.273C110.974 155.02 111.513 154.76 112.048 154.493L115.614 161.655C115.02 161.951 114.421 162.24 113.818 162.521ZM119.14 159.788L115.22 152.814C115.742 152.52 116.26 152.221 116.774 151.915L120.866 158.789C120.295 159.129 119.72 159.462 119.14 159.788ZM124.242 156.663L119.812 150.002C120.311 149.67 120.805 149.332 121.295 148.989L125.889 155.538C125.345 155.92 124.796 156.295 124.242 156.663ZM129.097 153.166L124.183 146.853C124.656 146.486 125.124 146.112 125.587 145.733L130.656 151.922C130.142 152.343 129.622 152.758 129.097 153.166ZM133.679 149.318L128.309 143.388C128.753 142.986 129.192 142.579 129.626 142.166L135.141 147.961C134.659 148.419 134.172 148.872 133.679 149.318ZM137.961 145.14L132.166 139.625C132.579 139.191 132.987 138.753 133.389 138.309L139.319 143.678C138.872 144.171 138.42 144.659 137.961 145.14ZM141.922 140.656L135.733 135.586C136.112 135.123 136.486 134.656 136.854 134.183L143.167 139.097C142.758 139.622 142.343 140.141 141.922 140.656ZM145.538 135.889L138.989 131.295C139.333 130.805 139.67 130.31 140.002 129.812L146.664 134.242C146.295 134.796 145.92 135.345 145.538 135.889ZM148.789 130.866L141.915 126.773C142.221 126.26 142.521 125.742 142.814 125.22L149.788 129.139C149.462 129.719 149.129 130.295 148.789 130.866ZM151.655 125.614L144.494 122.048C144.76 121.513 145.02 120.974 145.274 120.432L152.522 123.817C152.24 124.42 151.951 125.019 151.655 125.614ZM154.119 120.162L146.71 117.144C146.935 116.591 147.154 116.034 147.366 115.474L154.848 118.305C154.613 118.928 154.37 119.547 154.119 120.162ZM156.166 114.54L148.551 112.088C148.734 111.52 148.91 110.949 149.079 110.374L156.753 112.634C156.565 113.273 156.369 113.908 156.166 114.54ZM157.783 108.78L150.005 106.909C150.145 106.328 150.278 105.745 150.403 105.159L158.226 106.834C158.086 107.486 157.939 108.135 157.783 108.78ZM158.963 102.914L151.066 101.632C151.162 101.043 151.25 100.452 151.332 99.8581L159.258 100.942C159.168 101.602 159.069 102.259 158.963 102.914ZM159.7 96.9777L151.73 96.289C151.781 95.6936 151.825 95.096 151.862 94.4963L159.847 94.9875C159.806 95.6531 159.757 96.3166 159.7 96.9777Z" fill="#6F767E"/>
</svg>
