<svg width="24" height="24" viewBox="0 0 24 24" fill="none" xmlns="http://www.w3.org/2000/svg">
<rect width="24" height="24" rx="12" fill="#272B30"/>
<path fill-rule="evenodd" clip-rule="evenodd" d="M10.7027 5.77172C11.4502 5.13469 12.5497 5.13469 13.2972 5.77172L13.3441 5.81167C13.6644 6.08465 14.0627 6.24962 14.4822 6.2831L14.5436 6.288C15.5226 6.36613 16.3001 7.14355 16.3782 8.12257L16.3831 8.18396C16.4166 8.6035 16.5815 9.00178 16.8545 9.32211L16.8945 9.36898C17.5315 10.1165 17.5315 11.2159 16.8945 11.9635L16.8545 12.0103C16.5815 12.3307 16.4166 12.7289 16.3831 13.1485L16.3782 13.2099C16.3227 13.9046 15.9151 14.4978 15.3333 14.8117V18.1035C15.3333 18.5501 14.9028 18.8704 14.475 18.7421L11.9999 17.9995L9.52482 18.7421C9.09708 18.8704 8.66659 18.5501 8.66659 18.1035V14.8116C8.08474 14.4978 7.67718 13.9046 7.62174 13.2099L7.61684 13.1485C7.58336 12.7289 7.41839 12.3307 7.14541 12.0103L7.10546 11.9635C6.46843 11.2159 6.46843 10.1165 7.10546 9.36899L7.14541 9.32211C7.41839 9.00178 7.58336 8.6035 7.61684 8.18397L7.62174 8.12257C7.69987 7.14355 8.47729 6.36613 9.45631 6.288L9.5177 6.2831C9.93724 6.24962 10.3355 6.08465 10.6558 5.81167L10.7027 5.77172ZM12.4324 6.78654L12.4793 6.82649C13.0131 7.28145 13.6769 7.55641 14.3762 7.61221L14.4375 7.61711C14.7639 7.64315 15.023 7.90229 15.0491 8.22863L15.054 8.29003C15.1098 8.98925 15.3847 9.65305 15.8397 10.1869L15.8796 10.2338C16.092 10.483 16.092 10.8495 15.8796 11.0986L15.8397 11.1455C15.3847 11.6794 15.1098 12.3432 15.054 13.0424L15.0491 13.1038C15.023 13.4301 14.7639 13.6893 14.4375 13.7153L14.3762 13.7202C13.6769 13.776 13.0131 14.051 12.4793 14.506L12.4324 14.5459C12.1832 14.7582 11.8167 14.7582 11.5675 14.5459L11.5207 14.506C10.9868 14.051 10.323 13.776 9.62377 13.7202L9.56237 13.7153C9.23603 13.6893 8.97689 13.4301 8.95085 13.1038L8.94595 13.0424C8.89015 12.3432 8.6152 11.6794 8.16023 11.1455L8.12028 11.0986C7.90793 10.8495 7.90793 10.483 8.12028 10.2338L8.16023 10.1869C8.61519 9.65305 8.89015 8.98925 8.94595 8.29003L8.95085 8.22863C8.97689 7.90229 9.23603 7.64315 9.56237 7.61711L9.62377 7.61221C10.323 7.55641 10.9868 7.28146 11.5207 6.82649L11.5675 6.78654C11.8167 6.57419 12.1832 6.57419 12.4324 6.78654Z" fill="#EFEFEF"/>
<circle cx="12" cy="10.667" r="2" fill="#EFEFEF"/>
</svg>
