<svg width="17" height="16" viewBox="0 0 17 16" fill="none" xmlns="http://www.w3.org/2000/svg">
<path fill-rule="evenodd" clip-rule="evenodd" d="M2.19287 4C2.19287 2.89543 3.0883 2 4.19287 2H12.1929C13.2974 2 14.1929 2.89543 14.1929 4V5.33333C14.1929 6.4379 13.2974 7.33333 12.1929 7.33333H4.19287C3.0883 7.33333 2.19287 6.4379 2.19287 5.33333V4ZM3.85954 4.66667C3.85954 4.29848 4.15801 4 4.5262 4H9.19287C9.56106 4 9.85954 4.29848 9.85954 4.66667C9.85954 5.03486 9.56106 5.33333 9.19287 5.33333H4.5262C4.15801 5.33333 3.85954 5.03486 3.85954 4.66667ZM11.8595 5.33333C12.2277 5.33333 12.5262 5.03486 12.5262 4.66667C12.5262 4.29848 12.2277 4 11.8595 4C11.4913 4 11.1929 4.29848 11.1929 4.66667C11.1929 5.03486 11.4913 5.33333 11.8595 5.33333Z" fill="#FCFCFC"/>
<path fill-rule="evenodd" clip-rule="evenodd" d="M2.19287 10.666C2.19287 9.56145 3.0883 8.66602 4.19287 8.66602H12.1929C13.2974 8.66602 14.1929 9.56145 14.1929 10.666V11.9993C14.1929 13.1039 13.2974 13.9993 12.1929 13.9993H4.19287C3.0883 13.9993 2.19287 13.1039 2.19287 11.9993V10.666ZM3.85954 11.3327C3.85954 10.9645 4.15801 10.666 4.5262 10.666H9.19287C9.56106 10.666 9.85954 10.9645 9.85954 11.3327C9.85954 11.7009 9.56106 11.9993 9.19287 11.9993H4.5262C4.15801 11.9993 3.85954 11.7009 3.85954 11.3327ZM11.8595 11.9993C12.2277 11.9993 12.5262 11.7009 12.5262 11.3327C12.5262 10.9645 12.2277 10.666 11.8595 10.666C11.4913 10.666 11.1929 10.9645 11.1929 11.3327C11.1929 11.7009 11.4913 11.9993 11.8595 11.9993Z" fill="#FCFCFC"/>
</svg>
