<svg width="20" height="21" viewBox="0 0 20 21" fill="none" xmlns="http://www.w3.org/2000/svg">
<path d="M12.5899 12.3576C11.8572 13.1814 10.7892 13.7004 9.6 13.7004C7.39086 13.7004 5.6 11.9095 5.6 9.70039C5.6 9.25856 5.24183 8.90039 4.8 8.90039C4.35817 8.90039 4 9.25856 4 9.70039C4 12.5216 6.08616 14.8555 8.8 15.2437V16.9004H7.2C6.75817 16.9004 6.4 17.2586 6.4 17.7004C6.4 18.1422 6.75817 18.5004 7.2 18.5004H12C12.4418 18.5004 12.8 18.1422 12.8 17.7004C12.8 17.2586 12.4418 16.9004 12 16.9004H10.4V15.2437C11.7077 15.0566 12.8696 14.4178 13.7227 13.4904L12.5899 12.3576Z" fill="#FF6A55"/>
<path d="M14.6398 12.1447C14.9987 11.4061 15.2 10.5768 15.2 9.70039C15.2 9.25856 14.8418 8.90039 14.4 8.90039C13.9582 8.90039 13.6 9.25856 13.6 9.70039C13.6 10.1245 13.534 10.5331 13.4117 10.9167L14.6398 12.1447Z" fill="#FF6A55"/>
<path d="M7.2002 6.96731V9.7C7.2002 11.0255 8.27471 12.1 9.6002 12.1C10.3477 12.1 11.0153 11.7583 11.4555 11.2226L7.2002 6.96731Z" fill="#FF6A55"/>
<path d="M12.0002 9.50457V4.9C12.0002 3.57452 10.9257 2.5 9.6002 2.5C8.33804 2.5 7.30344 3.4743 7.20746 4.71183L12.0002 9.50457Z" fill="#FF6A55"/>
<path fill-rule="evenodd" clip-rule="evenodd" d="M1.83392 2.73431C2.14634 2.4219 2.65288 2.4219 2.96529 2.73431L17.3653 17.1343C17.6777 17.4467 17.6777 17.9533 17.3653 18.2657C17.0529 18.5781 16.5463 18.5781 16.2339 18.2657L1.83392 3.86569C1.5215 3.55327 1.5215 3.04673 1.83392 2.73431Z" fill="#FF6A55"/>
</svg>
