<svg width="25" height="24" viewBox="0 0 25 24" fill="none" xmlns="http://www.w3.org/2000/svg">
<path fill-rule="evenodd" clip-rule="evenodd" d="M12.5 20C16.9183 20 20.5 16.4183 20.5 12C20.5 7.58172 16.9183 4 12.5 4C8.08172 4 4.5 7.58172 4.5 12C4.5 16.4183 8.08172 20 12.5 20ZM12.5 22C18.0228 22 22.5 17.5228 22.5 12C22.5 6.47715 18.0228 2 12.5 2C6.97715 2 2.5 6.47715 2.5 12C2.5 17.5228 6.97715 22 12.5 22Z" fill="#6F767E"/>
<path fill-rule="evenodd" clip-rule="evenodd" d="M12.5 6C13.0523 6 13.5 6.44772 13.5 7V11.5858L15.7071 13.7929C16.0976 14.1834 16.0976 14.8166 15.7071 15.2071C15.3166 15.5976 14.6834 15.5976 14.2929 15.2071L12.0858 13C11.7107 12.6249 11.5 12.1162 11.5 11.5858V7C11.5 6.44772 11.9477 6 12.5 6Z" fill="#6F767E"/>
</svg>
