<svg width="32" height="32" viewBox="0 0 32 32" fill="none" xmlns="http://www.w3.org/2000/svg">
<path fill-rule="evenodd" clip-rule="evenodd" d="M6.66667 7.99967C5.93029 7.99967 5.33334 8.59663 5.33334 9.33301V11.3804C6.92205 12.2988 8.00001 14.0215 8.00001 15.9997C8.00001 17.9779 6.92205 19.7006 5.33334 20.619V22.6663C5.33334 23.4027 5.93029 23.9997 6.66667 23.9997H25.3333C26.0697 23.9997 26.6667 23.4027 26.6667 22.6663V20.619C25.078 19.7006 24 17.9779 24 15.9997C24 14.0215 25.078 12.2988 26.6667 11.3804V9.33301C26.6667 8.59663 26.0697 7.99967 25.3333 7.99967H6.66667ZM6.66667 5.33301C4.45753 5.33301 2.66667 7.12387 2.66667 9.33301V11.9997C2.66667 12.7361 3.29937 13.3054 3.9453 13.659C4.77244 14.1118 5.33334 14.9902 5.33334 15.9997C5.33334 17.0091 4.77244 17.8876 3.9453 18.3404C3.29937 18.694 2.66667 19.2633 2.66667 19.9997V22.6663C2.66667 24.8755 4.45753 26.6663 6.66667 26.6663H25.3333C27.5425 26.6663 29.3333 24.8755 29.3333 22.6663V19.9997C29.3333 19.2633 28.7006 18.694 28.0547 18.3404C27.2276 17.8876 26.6667 17.0091 26.6667 15.9997C26.6667 14.9902 27.2276 14.1118 28.0547 13.659C28.7006 13.3054 29.3333 12.7361 29.3333 11.9997V9.33301C29.3333 7.12387 27.5425 5.33301 25.3333 5.33301H6.66667Z" fill="#FF7866"/>
<path fill-rule="evenodd" clip-rule="evenodd" d="M16 14.9182C15.6991 15.2204 15.3516 15.4729 14.9712 15.6656C15.1657 16.0452 15.2984 16.4537 15.3642 16.8751C15.7852 16.8074 16.2148 16.8074 16.6358 16.8751C16.7016 16.4537 16.8343 16.0452 17.0288 15.6656C16.6484 15.4729 16.3009 15.2204 16 14.9182ZM17.2594 11.6231C16.8444 10.429 15.1556 10.429 14.7406 11.6231L14.4237 12.5347C14.2406 13.0614 13.749 13.4186 13.1915 13.43L12.2266 13.4496C10.9627 13.4754 10.4408 15.0814 11.4482 15.8452L12.2173 16.4282C12.6617 16.7652 12.8494 17.3431 12.6879 17.8768L12.4085 18.8006C12.0424 20.0106 13.4086 21.0032 14.4463 20.2811L15.2384 19.7299C15.6962 19.4113 16.3038 19.4113 16.7616 19.7299L17.5537 20.2811C18.5914 21.0032 19.9576 20.0106 19.5915 18.8006L19.3121 17.8768C19.1506 17.3431 19.3383 16.7652 19.7827 16.4282L20.5518 15.8452C21.5592 15.0814 21.0373 13.4754 19.7734 13.4496L18.8085 13.43C18.251 13.4186 17.7594 13.0614 17.5763 12.5347L17.2594 11.6231Z" fill="#FF7866"/>
</svg>
