<svg width="21" height="20" viewBox="0 0 21 20" fill="none" xmlns="http://www.w3.org/2000/svg">
<path fill-rule="evenodd" clip-rule="evenodd" d="M11.3006 9.2V4.4C11.3006 3.95817 10.9424 3.6 10.5006 3.6C10.0588 3.6 9.70059 3.95817 9.70059 4.4V9.2C9.70059 9.64183 10.0588 10 10.5006 10C10.9424 10 11.3006 9.64183 11.3006 9.2ZM10.5006 2C9.1751 2 8.10059 3.07452 8.10059 4.4V9.2C8.10059 10.5255 9.1751 11.6 10.5006 11.6C11.8261 11.6 12.9006 10.5255 12.9006 9.2V4.4C12.9006 3.07452 11.8261 2 10.5006 2Z" fill="#FCFCFC"/>
<path d="M6.50039 9.20039C6.50039 8.75856 6.14222 8.40039 5.70039 8.40039C5.25856 8.40039 4.90039 8.75856 4.90039 9.20039C4.90039 12.0216 6.98656 14.3555 9.70039 14.7437V16.4004H8.10039C7.65856 16.4004 7.30039 16.7586 7.30039 17.2004C7.30039 17.6422 7.65856 18.0004 8.10039 18.0004H12.9004C13.3422 18.0004 13.7004 17.6422 13.7004 17.2004C13.7004 16.7586 13.3422 16.4004 12.9004 16.4004H11.3004V14.7437C14.0142 14.3555 16.1004 12.0216 16.1004 9.20039C16.1004 8.75856 15.7422 8.40039 15.3004 8.40039C14.8586 8.40039 14.5004 8.75856 14.5004 9.20039C14.5004 11.4095 12.7095 13.2004 10.5004 13.2004C8.29125 13.2004 6.50039 11.4095 6.50039 9.20039Z" fill="#FCFCFC"/>
</svg>
