<svg width="101" height="44" viewBox="0 0 101 44" fill="none" xmlns="http://www.w3.org/2000/svg">
<g clip-path="url(#clip0_11092_18366)">
<path d="M74.7138 8.53413V10.7516C74.7138 15.9346 74.7371 21.1137 74.7138 26.2967C74.7138 29.2778 73.3958 30.9022 70.876 31.1115V3.09526C73.3493 3.39763 75.179 4.3629 76.3963 6.61909C78.571 10.6546 80.9319 14.5894 83.2307 18.5552C83.7308 19.4119 84.2968 20.2299 85.0178 21.3541C87.0569 17.7915 88.8945 14.5506 90.7591 11.3098C91.6081 9.81729 92.4377 8.31317 93.3099 6.83231C94.8605 4.20009 95.6591 3.67287 98.9891 3.03711V31.1502C96.8958 31.1154 95.5234 30.1113 95.411 28.0296C95.1862 23.7653 95.1784 19.4778 95.1125 15.2019C95.0776 12.938 95.1125 10.6779 95.1125 8.41396L94.5543 8.25502L84.9364 24.6918L75.4039 8.33255L74.7138 8.53413Z" fill="#86D2FB"/>
<path d="M14.84 32.0373C6.54793 31.9404 0.054633 25.8774 0.000360513 17.2829C-0.053912 8.88621 6.02459 2.47818 14.8129 2.23783C23.0933 2.01299 29.8541 8.82806 29.8929 17.0387C29.9202 19.0205 29.549 20.9876 28.8015 22.8232C28.054 24.6588 26.9454 26.3255 25.5414 27.7245C24.1374 29.1234 22.4667 30.226 20.6284 30.9669C18.7901 31.7077 16.8217 32.0718 14.84 32.0373ZM25.4813 16.5735C25.5611 13.2777 24.5589 10.0465 22.6281 7.37433C18.6274 1.61757 12.0837 1.4974 7.77295 7.02544C5.91218 9.40955 5.02056 12.127 4.67166 15.0616C4.07854 20.3106 5.27641 25.0633 9.12588 28.843C12.673 32.3319 17.3404 32.1807 20.9263 28.7616C24.3067 25.5556 25.5278 21.5588 25.4813 16.5735Z" fill="#86D2FB"/>
<path d="M50.5935 17.2218C50.5935 17.2218 37.7387 14.2911 39.0568 7.67372C40.3748 1.05635 51.6131 -1.44792 60.3122 3.76999C60.3122 3.76999 49.7872 -1.40528 43.6815 6.09595C39.9445 12.5544 50.5935 17.2218 50.5935 17.2218Z" fill="#57B1EE"/>
<path d="M38.96 26.9859C38.96 26.9859 42.9916 31.3587 52.4738 28.9242C61.956 26.4897 59.506 17.2091 51.9001 13.8984C51.9001 13.8984 60.9054 15.9026 62.3359 19.5622C63.7664 23.2217 63.4989 27.358 55.9085 30.3159C48.3181 33.2737 41.3286 29.3738 38.96 26.9859Z" fill="#57B1EE"/>
<path d="M3.77599 40.9115C3.30969 40.9115 2.89179 40.8125 2.52227 40.6145C2.15716 40.4166 1.87122 40.1373 1.66447 39.7765C1.45772 39.4114 1.35434 38.9891 1.35434 38.5096C1.35434 38.0301 1.45772 37.61 1.66447 37.2493C1.87122 36.8842 2.15716 36.6027 2.52227 36.4047C2.89179 36.2023 3.30969 36.1012 3.77599 36.1012C4.41384 36.1012 4.94172 36.2683 5.35963 36.6027V37.1041C4.96372 36.7478 4.44904 36.5697 3.81558 36.5697C3.44166 36.5697 3.10734 36.6488 2.81261 36.8072C2.51787 36.9656 2.28693 37.1921 2.11976 37.4869C1.9526 37.7772 1.86902 38.1181 1.86902 38.5096C1.86902 38.9011 1.9526 39.2443 2.11976 39.539C2.29133 39.8293 2.52447 40.0537 2.81921 40.212C3.11394 40.3704 3.44606 40.4496 3.81558 40.4496C4.1455 40.4496 4.44024 40.4056 4.69978 40.3176C4.95932 40.2296 5.19906 40.0845 5.41901 39.8821V40.3902C5.0275 40.7377 4.47983 40.9115 3.77599 40.9115ZM17.4641 40.9115C17.121 40.9115 16.8153 40.8433 16.5469 40.7069C16.283 40.5706 16.0762 40.377 15.9267 40.1263C15.7815 39.8711 15.7089 39.5742 15.7089 39.2355C15.7089 38.9011 15.7837 38.6064 15.9333 38.3513C16.0828 38.0961 16.2896 37.8982 16.5535 37.7574C16.8219 37.6166 17.1254 37.5462 17.4641 37.5462C17.8028 37.5462 18.1042 37.6166 18.3681 37.7574C18.6364 37.8982 18.8454 38.0961 18.995 38.3513C19.1445 38.6064 19.2193 38.9011 19.2193 39.2355C19.2193 39.5742 19.1445 39.8711 18.995 40.1263C18.8498 40.377 18.643 40.5706 18.3747 40.7069C18.1108 40.8433 17.8072 40.9115 17.4641 40.9115ZM17.4641 40.509C17.8424 40.509 18.1438 40.3946 18.3681 40.1658C18.5969 39.9327 18.7112 39.6226 18.7112 39.2355C18.7112 38.8439 18.5969 38.5338 18.3681 38.3051C18.1438 38.0719 17.8424 37.9553 17.4641 37.9553C17.0858 37.9553 16.7823 38.0719 16.5535 38.3051C16.3292 38.5338 16.217 38.8439 16.217 39.2355C16.217 39.6226 16.3292 39.9327 16.5535 40.1658C16.7823 40.3946 17.0858 40.509 17.4641 40.509ZM30.7432 40.9115C30.5365 40.9115 30.3143 40.8807 30.0768 40.8191C29.8392 40.7619 29.6545 40.6893 29.5225 40.6013V40.1724C29.6897 40.2736 29.881 40.355 30.0966 40.4166C30.3165 40.4782 30.5277 40.509 30.73 40.509C31.0028 40.509 31.1985 40.4716 31.3173 40.3968C31.4405 40.3176 31.5021 40.201 31.5021 40.0471C31.5021 39.9283 31.4757 39.8359 31.4229 39.7699C31.3701 39.6996 31.2821 39.638 31.1589 39.5852C31.0358 39.5324 30.8444 39.4708 30.5849 39.4004C30.3297 39.33 30.1252 39.2575 29.9712 39.1827C29.8216 39.1035 29.7073 39.0045 29.6281 38.8857C29.5489 38.767 29.5093 38.6152 29.5093 38.4304C29.5093 38.1445 29.6237 37.9268 29.8524 37.7772C30.0856 37.6232 30.3935 37.5462 30.7762 37.5462C30.983 37.5462 31.1765 37.566 31.3569 37.6056C31.5416 37.6408 31.6956 37.6914 31.8188 37.7574V38.1863C31.6912 38.1159 31.5372 38.0609 31.3569 38.0213C31.1765 37.9773 30.9896 37.9553 30.796 37.9553C30.5409 37.9553 30.3473 37.9927 30.2153 38.0675C30.0834 38.1423 30.0174 38.2633 30.0174 38.4304C30.0174 38.5448 30.0394 38.6328 30.0834 38.6944C30.1318 38.756 30.2175 38.8132 30.3407 38.8659C30.4683 38.9143 30.6706 38.9759 30.9478 39.0507C31.3437 39.1607 31.6186 39.2904 31.7726 39.44C31.931 39.5852 32.0101 39.7875 32.0101 40.0471C32.0101 40.3154 31.9046 40.5266 31.6934 40.6805C31.4867 40.8345 31.1699 40.9115 30.7432 40.9115ZM42.5975 37.6452H43.0858V38.1401C43.3894 37.7442 43.7655 37.5462 44.2142 37.5462C44.4781 37.5462 44.6827 37.5924 44.8278 37.6848C44.9774 37.7772 45.0852 37.9158 45.1512 38.1005C45.2919 37.9114 45.4657 37.7728 45.6724 37.6848C45.8836 37.5924 46.0991 37.5462 46.3191 37.5462C46.6974 37.5462 46.9723 37.643 47.1439 37.8366C47.3155 38.0301 47.4012 38.3161 47.4012 38.6944V40.8125H46.8998V38.7538C46.8998 38.459 46.847 38.2523 46.7414 38.1335C46.6402 38.0147 46.4577 37.9553 46.1937 37.9553C45.8154 37.9553 45.5031 38.1247 45.2567 38.4634C45.2699 38.525 45.2765 38.6262 45.2765 38.767V40.8125H44.7816V38.767C44.7816 38.4722 44.7332 38.2633 44.6365 38.1401C44.5397 38.0169 44.3593 37.9553 44.0954 37.9553C43.7171 37.9553 43.385 38.1665 43.099 38.5888V40.8125H42.5975V37.6452ZM59.7951 40.9115C59.2188 40.9115 58.7679 40.7641 58.4424 40.4694C58.1213 40.1746 57.9607 39.7633 57.9607 39.2355C57.9607 38.7164 58.1059 38.3051 58.3962 38.0015C58.6865 37.698 59.1 37.5462 59.6367 37.5462C59.9974 37.5462 60.3032 37.6166 60.5539 37.7574C60.8046 37.8938 60.9938 38.0829 61.1214 38.3249C61.2489 38.5668 61.3127 38.8417 61.3127 39.1497V39.4268H58.4358C58.4534 39.7875 58.5854 40.0581 58.8317 40.2384C59.0824 40.4188 59.4212 40.509 59.8479 40.509C60.0546 40.509 60.257 40.4914 60.4549 40.4562C60.6573 40.4166 60.8376 40.3638 60.996 40.2978V40.7267C60.864 40.7795 60.6837 40.8235 60.4549 40.8587C60.2306 40.8939 60.0106 40.9115 59.7951 40.9115ZM60.8376 39.0639C60.8288 38.7208 60.7233 38.4502 60.5209 38.2523C60.3186 38.0543 60.0216 37.9553 59.6301 37.9553C59.2474 37.9553 58.9549 38.0587 58.7525 38.2655C58.5502 38.4678 58.4446 38.734 58.4358 39.0639H60.8376ZM73.0805 40.9115C72.7814 40.9115 72.5482 40.8235 72.381 40.6475C72.2183 40.4716 72.1369 40.2208 72.1369 39.8953V38.0411H71.642V37.6452H72.1369V36.695H72.645V37.6452H73.4434V38.0411H72.645V39.9085C72.645 40.1285 72.689 40.2846 72.777 40.377C72.8649 40.465 73.0255 40.509 73.2586 40.509C73.373 40.509 73.494 40.4826 73.6216 40.4298V40.8455C73.4764 40.8895 73.296 40.9115 73.0805 40.9115ZM84.4314 36.959C84.3435 36.959 84.2687 36.9282 84.2071 36.8666C84.1455 36.805 84.1147 36.7302 84.1147 36.6422C84.1147 36.5543 84.1455 36.4795 84.2071 36.4179C84.2687 36.3563 84.3435 36.3255 84.4314 36.3255C84.5194 36.3255 84.5942 36.3563 84.6558 36.4179C84.7218 36.4795 84.7548 36.5543 84.7548 36.6422C84.7548 36.7302 84.7218 36.805 84.6558 36.8666C84.5942 36.9282 84.5194 36.959 84.4314 36.959ZM84.1807 37.6452H84.6888V40.8125H84.1807V37.6452ZM97.096 40.9115C96.7617 40.9115 96.4603 40.8455 96.192 40.7135C95.928 40.5772 95.7213 40.3836 95.5717 40.1329C95.4222 39.8777 95.3474 39.5786 95.3474 39.2355C95.3474 38.8967 95.4222 38.5998 95.5717 38.3447C95.7257 38.0851 95.9368 37.8872 96.2052 37.7508C96.4735 37.6144 96.7771 37.5462 97.1158 37.5462C97.3577 37.5462 97.5711 37.5682 97.7558 37.6122C97.9406 37.6562 98.1056 37.7266 98.2507 37.8234V38.2523C97.9736 38.0543 97.6107 37.9553 97.162 37.9553C96.7749 37.9553 96.4603 38.0675 96.2184 38.2919C95.9764 38.5162 95.8555 38.8308 95.8555 39.2355C95.8555 39.6402 95.9764 39.9547 96.2184 40.179C96.4603 40.399 96.7683 40.509 97.1422 40.509C97.3753 40.509 97.5843 40.4826 97.769 40.4298C97.9538 40.377 98.1297 40.2956 98.2969 40.1856V40.6145C98.1429 40.7201 97.9692 40.7949 97.7756 40.8389C97.5865 40.8873 97.3599 40.9115 97.096 40.9115Z" fill="white"/>
</g>
<defs>
<clipPath id="clip0_11092_18366">
<rect width="100.627" height="42.0654" fill="white" transform="translate(0 0.966797)"/>
</clipPath>
</defs>
</svg>
