<svg width="20" height="20" viewBox="0 0 20 20" fill="none" xmlns="http://www.w3.org/2000/svg">
<path fill-rule="evenodd" clip-rule="evenodd" d="M5.83366 1.6665C6.2939 1.6665 6.66699 2.0396 6.66699 2.49984V3.33317H13.3337V2.49984C13.3337 2.0396 13.7068 1.6665 14.167 1.6665C14.6272 1.6665 15.0003 2.0396 15.0003 2.49984V3.33317H15.8337C17.2144 3.33317 18.3337 4.45246 18.3337 5.83317V15.8332C18.3337 17.2139 17.2144 18.3332 15.8337 18.3332H4.16699C2.78628 18.3332 1.66699 17.2139 1.66699 15.8332V5.83317C1.66699 4.45246 2.78628 3.33317 4.16699 3.33317H5.00033V2.49984C5.00033 2.0396 5.37342 1.6665 5.83366 1.6665ZM13.3337 4.99984V5.83317C13.3337 6.29341 13.7068 6.6665 14.167 6.6665C14.6272 6.6665 15.0003 6.29341 15.0003 5.83317V4.99984H15.8337C16.2939 4.99984 16.667 5.37293 16.667 5.83317V8.33317H3.33366V5.83317C3.33366 5.37293 3.70676 4.99984 4.16699 4.99984H5.00033V5.83317C5.00033 6.29341 5.37342 6.6665 5.83366 6.6665C6.2939 6.6665 6.66699 6.29341 6.66699 5.83317V4.99984H13.3337ZM3.33366 9.99984V15.8332C3.33366 16.2934 3.70675 16.6665 4.16699 16.6665H15.8337C16.2939 16.6665 16.667 16.2934 16.667 15.8332V9.99984H3.33366Z" fill="#EFEFEF"/>
</svg>
