<svg width="20" height="21" viewBox="0 0 20 21" fill="none" xmlns="http://www.w3.org/2000/svg">
<g filter="url(#filter0_d_10939_48017)">
<path d="M8 7.5H5.055C5.14793 6.88117 5.36889 6.28852 5.70379 5.75992C6.03869 5.23131 6.48016 4.77836 7 4.43L7.895 3.83L7.345 3L6.45 3.6C5.69664 4.10204 5.07885 4.78228 4.65147 5.58036C4.22408 6.37844 4.0003 7.26969 4 8.175V11.5C4 11.7652 4.10536 12.0196 4.29289 12.2071C4.48043 12.3946 4.73478 12.5 5 12.5H8C8.26522 12.5 8.51957 12.3946 8.70711 12.2071C8.89464 12.0196 9 11.7652 9 11.5V8.5C9 8.23478 8.89464 7.98043 8.70711 7.79289C8.51957 7.60536 8.26522 7.5 8 7.5ZM15 7.5H12.055C12.1479 6.88117 12.3689 6.28852 12.7038 5.75992C13.0387 5.23131 13.4802 4.77836 14 4.43L14.895 3.83L14.35 3L13.45 3.6C12.6966 4.10204 12.0789 4.78228 11.6515 5.58036C11.2241 6.37844 11.0003 7.26969 11 8.175V11.5C11 11.7652 11.1054 12.0196 11.2929 12.2071C11.4804 12.3946 11.7348 12.5 12 12.5H15C15.2652 12.5 15.5196 12.3946 15.7071 12.2071C15.8946 12.0196 16 11.7652 16 11.5V8.5C16 8.23478 15.8946 7.98043 15.7071 7.79289C15.5196 7.60536 15.2652 7.5 15 7.5Z" fill="#EFEFEF"/>
</g>
<defs>
<filter id="filter0_d_10939_48017" x="-2" y="0" width="24" height="24" filterUnits="userSpaceOnUse" color-interpolation-filters="sRGB">
<feFlood flood-opacity="0" result="BackgroundImageFix"/>
<feColorMatrix in="SourceAlpha" type="matrix" values="0 0 0 0 0 0 0 0 0 0 0 0 0 0 0 0 0 0 127 0" result="hardAlpha"/>
<feOffset dy="4"/>
<feGaussianBlur stdDeviation="2"/>
<feComposite in2="hardAlpha" operator="out"/>
<feColorMatrix type="matrix" values="0 0 0 0 0 0 0 0 0 0 0 0 0 0 0 0 0 0 0.25 0"/>
<feBlend mode="normal" in2="BackgroundImageFix" result="effect1_dropShadow_10939_48017"/>
<feBlend mode="normal" in="SourceGraphic" in2="effect1_dropShadow_10939_48017" result="shape"/>
</filter>
</defs>
</svg>
