<svg width="25" height="24" viewBox="0 0 25 24" fill="none" xmlns="http://www.w3.org/2000/svg">
<path d="M15.607 20.1758C15.9629 19.6278 15.4874 19 14.834 19H9.66595C9.01251 19 8.53703 19.6278 8.89294 20.1758C9.60604 21.2738 10.8432 22 12.25 22C13.6567 22 14.8939 21.2738 15.607 20.1758Z" fill="#6F767E"/>
<path d="M20.8358 17H3.65408C2.87863 17 2.25 16.3714 2.25 15.5959C2.25 15.2151 2.40471 14.8506 2.67864 14.586L3.70736 13.5924C4.09919 13.2139 4.31969 12.692 4.31791 12.1473L4.31086 9.99568C4.29641 5.58403 7.86873 2 12.2804 2C16.6819 2 20.25 5.5681 20.25 9.96958L20.25 12.1716C20.25 12.702 20.4607 13.2107 20.8358 13.5858L21.8358 14.5858C22.101 14.851 22.25 15.2107 22.25 15.5858C22.25 16.3668 21.6168 17 20.8358 17Z" fill="#6F767E"/>
</svg>
