<svg width="25" height="24" viewBox="0 0 25 24" fill="none" xmlns="http://www.w3.org/2000/svg">
<path fill-rule="evenodd" clip-rule="evenodd" d="M18.7819 16.6177C20.0135 15.078 20.75 13.125 20.75 11C20.75 6.02944 16.7206 2 11.75 2C6.77944 2 2.75 6.02944 2.75 11C2.75 15.9706 6.77944 20 11.75 20C13.875 20 15.828 19.2635 17.3677 18.0319L20.0429 20.7071C20.4334 21.0976 21.0666 21.0976 21.4571 20.7071C21.8476 20.3166 21.8476 19.6834 21.4571 19.2929L18.7819 16.6177ZM18.75 11C18.75 14.866 15.616 18 11.75 18C7.88401 18 4.75 14.866 4.75 11C4.75 7.13401 7.88401 4 11.75 4C15.616 4 18.75 7.13401 18.75 11Z" fill="#6F767E"/>
</svg>
