<svg width="140" height="96" viewBox="0 0 140 96" fill="none" xmlns="http://www.w3.org/2000/svg">
<path fill-rule="evenodd" clip-rule="evenodd" d="M52.7761 26.3124C49.4522 16.3407 59.6454 7.21741 69.189 11.6222L124.398 37.1033C133.693 41.3934 133.693 54.6043 124.398 58.8943L69.189 84.3753C59.6454 88.78 49.4522 79.6567 52.7761 69.685L58.7399 51.7936C59.561 49.3304 59.561 46.6673 58.7399 44.2041L52.7761 26.3124ZM65.8365 18.8858L121.045 44.367C124.144 45.797 124.144 50.2006 121.045 51.6306L65.8365 77.1116C62.6553 78.5798 59.2576 75.5387 60.3656 72.2148L66.3294 54.3234C66.5843 53.5586 66.7918 52.7823 66.9517 51.9987L100.005 51.9987C102.214 51.9987 104.005 50.2078 104.005 47.9987C104.005 45.7895 102.214 43.9987 100.005 43.9987L66.9517 43.9987C66.7917 43.2152 66.5843 42.439 66.3294 41.6743L60.3655 23.7826C59.2576 20.4587 62.6553 17.4176 65.8365 18.8858Z" fill="#83BF6E"/>
<line x1="4" y1="-4" x2="32.9548" y2="-4" transform="matrix(1 0 -0.000125347 1 7 44.082)" stroke="#83BF6E" stroke-width="8" stroke-linecap="round"/>
<line x1="4" y1="-4" x2="22.7081" y2="-4" transform="matrix(1 0 0.000844328 1 21.6367 58.0977)" stroke="#83BF6E" stroke-width="8" stroke-linecap="round"/>
</svg>
