<svg width="25" height="24" viewBox="0 0 25 24" fill="none" xmlns="http://www.w3.org/2000/svg">
<path d="M8.75 3C8.75 2.44772 8.30228 2 7.75 2C7.19772 2 6.75 2.44772 6.75 3V4H5.75C4.09315 4 2.75 5.34315 2.75 7V19C2.75 20.6569 4.09315 22 5.75 22H14.4322C13.6621 21.488 13.0171 20.8028 12.5527 20H5.75C5.19772 20 4.75 19.5523 4.75 19V7C4.75 6.44772 5.19772 6 5.75 6H6.75V7C6.75 7.55228 7.19772 8 7.75 8C8.30228 8 8.75 7.55228 8.75 7V6H16.75V7C16.75 7.55228 17.1977 8 17.75 8C18.3023 8 18.75 7.55228 18.75 7V6H19.75C20.3023 6 20.75 6.44771 20.75 7V11.8027C21.5528 12.2671 22.238 12.9121 22.75 13.6822V7C22.75 5.34315 21.4069 4 19.75 4H18.75V3C18.75 2.44772 18.3023 2 17.75 2C17.1977 2 16.75 2.44772 16.75 3V4H8.75V3Z" fill="#BBB2E9"/>
<path fill-rule="evenodd" clip-rule="evenodd" d="M17.75 21C19.9591 21 21.75 19.2091 21.75 17C21.75 14.7909 19.9591 13 17.75 13C15.5409 13 13.75 14.7909 13.75 17C13.75 19.2091 15.5409 21 17.75 21ZM17.75 23C21.0637 23 23.75 20.3137 23.75 17C23.75 13.6863 21.0637 11 17.75 11C14.4363 11 11.75 13.6863 11.75 17C11.75 20.3137 14.4363 23 17.75 23Z" fill="#BBB2E9"/>
<path fill-rule="evenodd" clip-rule="evenodd" d="M17.75 14C18.3023 14 18.75 14.4477 18.75 15V16.5858L19.4571 17.2929C19.8476 17.6834 19.8476 18.3166 19.4571 18.7071C19.0666 19.0976 18.4334 19.0976 18.0429 18.7071L17.0429 17.7071C16.8554 17.5196 16.75 17.2652 16.75 17V15C16.75 14.4477 17.1977 14 17.75 14Z" fill="#BBB2E9"/>
</svg>
