<svg width="17" height="18" viewBox="0 0 17 18" fill="none" xmlns="http://www.w3.org/2000/svg">
<path fill-rule="evenodd" clip-rule="evenodd" d="M3.4375 4.875H13.0625C13.328 4.875 13.5584 5.02554 13.6729 5.24593L8.63136 8.60698C8.40043 8.76094 8.09958 8.76094 7.86865 8.60698L2.82706 5.24592C2.94159 5.02554 3.17197 4.875 3.4375 4.875ZM2.75 6.84709V12.4375C2.75 12.8172 3.0578 13.125 3.4375 13.125H13.0625C13.4422 13.125 13.75 12.8172 13.75 12.4375V6.8471L9.39408 9.75105C8.70129 10.2129 7.79873 10.2129 7.10594 9.75105L2.75 6.84709ZM1.375 5.5625C1.375 4.42341 2.29841 3.5 3.4375 3.5H13.0625C14.2016 3.5 15.125 4.42341 15.125 5.5625V12.4375C15.125 13.5766 14.2016 14.5 13.0625 14.5H3.4375C2.29841 14.5 1.375 13.5766 1.375 12.4375V5.5625Z" fill="#EFEFEF"/>
</svg>
