<svg width="17" height="18" viewBox="0 0 17 18" fill="none" xmlns="http://www.w3.org/2000/svg">
<path fill-rule="evenodd" clip-rule="evenodd" d="M5.6689 3.42151L5.3625 4.1875H3.4375C2.29841 4.1875 1.375 5.11091 1.375 6.25V13.8125C1.375 14.9516 2.29841 15.875 3.4375 15.875H13.0625C14.2016 15.875 15.125 14.9516 15.125 13.8125V6.25C15.125 5.11091 14.2016 4.1875 13.0625 4.1875H11.1375L10.8311 3.42151C10.5179 2.63846 9.75949 2.125 8.91612 2.125H7.58388C6.74051 2.125 5.98212 2.63846 5.6689 3.42151ZM8.91612 3.5H7.58388C7.30276 3.5 7.04996 3.67115 6.94555 3.93217L6.84342 4.1875H9.65658L9.55445 3.93217C9.45004 3.67115 9.19724 3.5 8.91612 3.5ZM13.0625 5.5625C13.4422 5.5625 13.75 5.8703 13.75 6.25V8.3125C13.75 8.6922 13.4422 9 13.0625 9H10.1285C9.89081 8.58901 9.44644 8.3125 8.9375 8.3125H7.5625C7.05356 8.3125 6.60919 8.58901 6.37145 9H3.4375C3.0578 9 2.75 8.6922 2.75 8.3125V6.25C2.75 5.8703 3.0578 5.5625 3.4375 5.5625H13.0625ZM6.37145 10.375H3.4375C3.19644 10.375 2.96504 10.3336 2.75 10.2576V13.8125C2.75 14.1922 3.0578 14.5 3.4375 14.5H13.0625C13.4422 14.5 13.75 14.1922 13.75 13.8125V10.2576C13.535 10.3336 13.3036 10.375 13.0625 10.375H10.1285C9.89081 10.786 9.44644 11.0625 8.9375 11.0625H7.5625C7.05356 11.0625 6.60919 10.786 6.37145 10.375Z" fill="#EFEFEF"/>
</svg>
