<svg width="17" height="18" viewBox="0 0 17 18" fill="none" xmlns="http://www.w3.org/2000/svg">
<path fill-rule="evenodd" clip-rule="evenodd" d="M8.25 7.625C9.38909 7.625 10.3125 6.70159 10.3125 5.5625C10.3125 4.42341 9.38909 3.5 8.25 3.5C7.11091 3.5 6.1875 4.42341 6.1875 5.5625C6.1875 6.70159 7.11091 7.625 8.25 7.625ZM8.25 9C10.1485 9 11.6875 7.46098 11.6875 5.5625C11.6875 3.66402 10.1485 2.125 8.25 2.125C6.35152 2.125 4.8125 3.66402 4.8125 5.5625C4.8125 7.46098 6.35152 9 8.25 9Z" fill="#EFEFEF"/>
<path fill-rule="evenodd" clip-rule="evenodd" d="M6.1875 11.75C4.66872 11.75 3.4375 12.9812 3.4375 14.5V15.1875C3.4375 15.5672 3.1297 15.875 2.75 15.875C2.3703 15.875 2.0625 15.5672 2.0625 15.1875V14.5C2.0625 12.2218 3.90933 10.375 6.1875 10.375H10.3125C12.5907 10.375 14.4375 12.2218 14.4375 14.5V15.1875C14.4375 15.5672 14.1297 15.875 13.75 15.875C13.3703 15.875 13.0625 15.5672 13.0625 15.1875V14.5C13.0625 12.9812 11.8313 11.75 10.3125 11.75H6.1875Z" fill="#EFEFEF"/>
</svg>
