<svg width="17" height="18" viewBox="0 0 17 18" fill="none" xmlns="http://www.w3.org/2000/svg">
<path fill-rule="evenodd" clip-rule="evenodd" d="M7.42383 2.84398C7.78624 2.95723 7.98822 3.34284 7.87497 3.70525L7.29453 5.56267H11.354L12.0626 3.29512C12.1758 2.93271 12.5614 2.73072 12.9238 2.84398C13.2862 2.95723 13.4882 3.34284 13.375 3.70525L12.7945 5.56267H14.0938C14.4734 5.56267 14.7812 5.87047 14.7812 6.25017C14.7812 6.62986 14.4734 6.93767 14.0938 6.93767H12.3648L11.0758 11.0627H12.7188C13.0984 11.0627 13.4062 11.3705 13.4062 11.7502C13.4062 12.1299 13.0984 12.4377 12.7188 12.4377H10.6461L9.93747 14.7052C9.82422 15.0677 9.43861 15.2696 9.0762 15.1564C8.71379 15.0431 8.51181 14.6575 8.62506 14.2951L9.20551 12.4377H5.14609L4.43747 14.7052C4.32422 15.0677 3.93861 15.2696 3.5762 15.1564C3.21379 15.0431 3.01181 14.6575 3.12506 14.2951L3.70551 12.4377H2.40625C2.02655 12.4377 1.71875 12.1299 1.71875 11.7502C1.71875 11.3705 2.02655 11.0627 2.40625 11.0627H4.1352L5.42426 6.93767H3.78125C3.40155 6.93767 3.09375 6.62986 3.09375 6.25017C3.09375 5.87047 3.40155 5.56267 3.78125 5.56267H5.85395L6.56256 3.29512C6.67581 2.93271 7.06142 2.73072 7.42383 2.84398ZM9.6352 11.0627L10.9243 6.93767H6.86484L5.57578 11.0627H9.6352Z" fill="#EFEFEF"/>
</svg>
