<svg width="17" height="18" viewBox="0 0 17 18" fill="none" xmlns="http://www.w3.org/2000/svg">
<path fill-rule="evenodd" clip-rule="evenodd" d="M6.67364 11.5486C6.40515 11.8171 5.96985 11.8171 5.70136 11.5486C5.43288 11.2802 5.43288 10.8448 5.70136 10.5764L7.76386 8.51386C7.89758 8.38015 8.07268 8.31303 8.24794 8.3125C8.24863 8.3125 8.24931 8.3125 8.25 8.3125C8.25069 8.3125 8.25138 8.3125 8.25206 8.3125C8.34453 8.31277 8.4327 8.3313 8.51316 8.36467C8.59425 8.39822 8.67022 8.44795 8.73614 8.51386L10.7986 10.5764C11.0671 10.8448 11.0671 11.2802 10.7986 11.5486C10.5302 11.8171 10.0948 11.8171 9.82636 11.5486L8.9375 10.6598V14.5C8.9375 14.8797 8.6297 15.1875 8.25 15.1875C7.8703 15.1875 7.5625 14.8797 7.5625 14.5V10.6598L6.67364 11.5486Z" fill="#EFEFEF"/>
<path fill-rule="evenodd" clip-rule="evenodd" d="M5.88611 5.04618C6.62092 3.32869 8.32551 2.125 10.3125 2.125C12.9704 2.125 15.125 4.27963 15.125 6.9375C15.125 8.36287 14.5045 9.64421 13.521 10.5244C13.2381 10.7777 12.8034 10.7536 12.5502 10.4707C12.297 10.1877 12.3211 9.75309 12.604 9.49987C13.3083 8.86945 13.75 7.95551 13.75 6.9375C13.75 5.03902 12.211 3.5 10.3125 3.5C8.68478 3.5 7.31979 4.632 6.9649 6.15244C6.91413 6.36993 6.76088 6.54921 6.55394 6.6332C6.347 6.71719 6.11215 6.69543 5.92417 6.57483C5.60375 6.36928 5.2231 6.25 4.8125 6.25C3.67341 6.25 2.75 7.17341 2.75 8.3125C2.75 9.07505 3.16347 9.74184 3.78175 10.0995C4.11042 10.2896 4.22273 10.7102 4.0326 11.0388C3.84248 11.3675 3.42192 11.4798 3.09325 11.2897C2.06757 10.6964 1.375 9.58573 1.375 8.3125C1.375 6.41402 2.91402 4.875 4.8125 4.875C5.18694 4.875 5.54799 4.93509 5.88611 5.04618Z" fill="#EFEFEF"/>
</svg>
