<svg width="138" height="113" viewBox="0 0 138 113" fill="none" xmlns="http://www.w3.org/2000/svg">
<path opacity="0.1" fill-rule="evenodd" clip-rule="evenodd" d="M21.1741 49.6914L125.601 16.1128C128.482 15.1864 131.506 16.016 133.518 18.0076L90.5447 72.0618C88.5763 74.5378 85.3122 75.5873 82.2696 74.7227L15.8452 55.8454C16.3189 53.0547 18.2931 50.6178 21.1741 49.6914ZM20.595 73.4861L40.0982 134.139C41.4229 138.259 45.8362 140.524 49.9557 139.2L154.382 105.621C158.502 104.297 160.767 99.8832 159.443 95.7637L139.94 35.1107L102.811 81.8135C96.9058 89.2414 87.1136 92.3901 77.9858 89.7961L20.595 73.4861ZM1.19542 64.3459C-2.7785 51.9873 4.01857 38.7473 16.3771 34.7733L120.804 1.1947C133.162 -2.77922 146.402 4.01786 150.376 16.3764L174.361 90.9667C178.335 103.325 171.538 116.565 159.179 120.539L54.7527 154.118C42.3941 158.092 29.1541 151.295 25.1801 138.936L1.19542 64.3459Z" fill="#6F767E"/>
</svg>
