<svg width="73" height="72" viewBox="0 0 73 72" fill="none" xmlns="http://www.w3.org/2000/svg">
<path fill-rule="evenodd" clip-rule="evenodd" d="M18.5 19.5055V24.0055H14C9.85786 24.0055 6.5 27.3634 6.5 31.5055V62.6427C6.5 66.416 10.8647 68.5137 13.8111 66.1566L21.0891 60.3342C21.3551 60.1214 21.6856 60.0055 22.0262 60.0055H47C51.1421 60.0055 54.5 56.6476 54.5 52.5055V48.0055H59C63.1421 48.0055 66.5 44.6476 66.5 40.5055V8.41382C66.5 4.81969 62.4944 2.67593 59.5039 4.66959L48.8779 11.7536C48.6315 11.9178 48.342 12.0055 48.0458 12.0055H26C21.8579 12.0055 18.5 15.3634 18.5 19.5055ZM47 24.0055H24.5V19.5055C24.5 18.6771 25.1716 18.0055 26 18.0055H48.0458C49.5265 18.0055 50.9741 17.5672 52.2061 16.7459L60.5 11.2166V40.5055C60.5 41.3339 59.8284 42.0055 59 42.0055H54.5V31.5055C54.5 27.3634 51.1421 24.0055 47 24.0055ZM21.5 39.0055C19.8431 39.0055 18.5 40.3486 18.5 42.0055C18.5 43.6623 19.8431 45.0055 21.5 45.0055H39.5C41.1569 45.0055 42.5 43.6623 42.5 42.0055C42.5 40.3486 41.1569 39.0055 39.5 39.0055H21.5Z" fill="#6F767E"/>
</svg>
