<svg width="24" height="24" viewBox="0 0 24 24" fill="none" xmlns="http://www.w3.org/2000/svg">
<path d="M19.4723 12.3956V14.2199V16.976C19.4723 17.2815 19.4811 17.587 19.4415 17.8903C19.4569 17.7739 19.4723 17.6574 19.4877 17.5387C19.4459 17.8332 19.369 18.1167 19.2547 18.3915C19.2987 18.286 19.3426 18.1805 19.3866 18.0772C19.2723 18.3431 19.1272 18.5937 18.9514 18.8223C19.0195 18.7343 19.0899 18.6442 19.158 18.5563C18.9822 18.7827 18.7778 18.9871 18.5514 19.1629C18.6393 19.0948 18.7294 19.0245 18.8173 18.9563C18.5865 19.1322 18.3382 19.2794 18.0722 19.3915C18.1777 19.3476 18.2832 19.3036 18.3865 19.2596C18.114 19.3739 17.8283 19.4509 17.5337 19.4926C17.6502 19.4772 17.7667 19.4619 17.8854 19.4465C17.426 19.5058 16.9469 19.4772 16.4854 19.4772H13.8567H10.6302H7.87841C7.4784 19.4772 7.07839 19.4794 6.68055 19.4772C6.5267 19.4772 6.37504 19.4662 6.22339 19.4465C6.33987 19.4619 6.45636 19.4772 6.57505 19.4926C6.28053 19.4509 5.997 19.3739 5.72226 19.2596C5.82776 19.3036 5.93325 19.3476 6.03655 19.3915C5.77061 19.2772 5.52003 19.1322 5.29147 18.9563C5.37939 19.0245 5.4695 19.0948 5.55742 19.1629C5.33103 18.9871 5.12662 18.7827 4.95079 18.5563C5.01892 18.6442 5.08926 18.7343 5.15739 18.8223C4.98156 18.5915 4.8343 18.3431 4.72221 18.0772C4.76617 18.1827 4.81013 18.2882 4.85408 18.3915C4.73979 18.1189 4.66287 17.8332 4.62111 17.5387C4.63649 17.6552 4.65188 17.7717 4.66726 17.8903C4.60792 17.431 4.63649 16.9518 4.63649 16.4903V13.8616V10.6351V7.88334C4.63649 7.48333 4.63429 7.08332 4.63649 6.68548C4.63649 6.53162 4.64748 6.37997 4.66726 6.22831C4.65188 6.3448 4.63649 6.46129 4.62111 6.57998C4.66287 6.28546 4.73979 6.00192 4.85408 5.72719C4.81012 5.83268 4.76617 5.93818 4.72221 6.04148C4.8365 5.77554 4.98156 5.52496 5.15739 5.2964C5.08926 5.38432 5.01892 5.47443 4.95079 5.56235C5.12662 5.33596 5.33102 5.13155 5.55742 4.95572C5.4695 5.02385 5.37939 5.09418 5.29147 5.16232C5.52225 4.98649 5.77062 4.83923 6.03655 4.72714C5.93106 4.7711 5.82556 4.81506 5.72226 4.85901C5.99479 4.74472 6.28054 4.6678 6.57505 4.62603C6.45856 4.64142 6.34207 4.65681 6.22339 4.67219C6.48933 4.63702 6.75747 4.64142 7.02562 4.64142H8.1927H11.0434H11.7181C12.0566 4.64142 12.4105 4.49416 12.6501 4.25459C12.8786 4.02601 13.0501 3.65017 13.0369 3.32266C13.0215 2.98199 12.9094 2.62814 12.6501 2.39074C12.3929 2.15336 12.0742 2.00391 11.7181 2.00391H10.0521H7.3553H6.70032C5.93764 2.00391 5.21675 2.19073 4.5354 2.52702C4.15737 2.71384 3.80788 2.97538 3.49581 3.25671C3.18811 3.53584 2.91997 3.87431 2.70017 4.22376C2.24079 4.94907 2.00564 5.82823 2.00122 6.68319C1.99902 6.9909 2.00122 7.29858 2.00122 7.60849V9.87673V12.7296V15.4066V17.1495V17.4353C2.00342 18.2507 2.21881 19.0661 2.62541 19.7738C3.4518 21.2134 5.0299 22.1102 6.6826 22.1168C7.02327 22.119 7.36394 22.1168 7.70463 22.1168H10.0256H12.8873H15.5313H17.1995C18.1688 22.1168 19.1315 21.9234 19.9513 21.3783C20.648 20.9168 21.2634 20.2816 21.6195 19.5167C21.7997 19.1277 21.958 18.7299 22.0239 18.3034C22.0701 18.0067 22.1096 17.71 22.1096 17.4089V15.4528V12.857V12.3977C22.1096 12.0592 21.9624 11.7053 21.7228 11.4657C21.4942 11.2372 21.1184 11.0657 20.7909 11.0789C20.4502 11.0943 20.0963 11.2064 19.8589 11.4657C19.6216 11.7207 19.4721 12.0372 19.4721 12.3955L19.4723 12.3956Z" fill="white"/>
<path d="M15.9076 4.63751H17.5582H20.1869H20.7869C21.1254 4.63751 21.4793 4.49025 21.7188 4.25068C21.9474 4.0221 22.1189 3.64626 22.1057 3.31876C22.0903 2.97808 21.9782 2.62423 21.7188 2.38683C21.4617 2.14946 21.143 2 20.7869 2H19.1363H16.5076H15.9076C15.5691 2 15.2152 2.14726 14.9757 2.38683C14.7471 2.61541 14.5757 2.99125 14.5888 3.31876C14.6042 3.65943 14.7163 4.01328 14.9757 4.25068C15.2328 4.48805 15.5493 4.63751 15.9076 4.63751Z" fill="white"/>
<path d="M22.1102 8.19878V6.54818V3.91951V3.31947C22.1102 2.98099 21.9629 2.62711 21.7233 2.38754C21.4948 2.15896 21.1189 1.98753 20.7914 2.00071C20.4507 2.0161 20.0969 2.12819 19.8595 2.38754C19.6221 2.64469 19.4727 2.96338 19.4727 3.31947V4.97007V7.59874V8.19878C19.4727 8.53726 19.6199 8.89113 19.8595 9.13071C20.0881 9.35929 20.4639 9.53072 20.7914 9.51754C21.1321 9.50215 21.4859 9.39006 21.7233 9.13071C21.9607 8.87356 22.1102 8.55708 22.1102 8.19878Z" fill="white"/>
<path d="M13.0034 12.9708L20.6499 5.32423C21.0016 4.97256 21.3598 4.62311 21.7071 4.26703L21.7225 4.25164C21.9621 4.01207 22.1093 3.6582 22.1093 3.31972C22.1093 2.99662 21.9665 2.6098 21.7225 2.38779C21.472 2.15701 21.1422 1.98557 20.7906 2.00096C20.4411 2.01635 20.1115 2.13503 19.8587 2.38779L12.2121 10.0343C11.8604 10.386 11.5022 10.7355 11.1549 11.0915L11.1395 11.1069C10.8999 11.3465 10.7527 11.7004 10.7527 12.0389C10.7527 12.362 10.8955 12.7488 11.1395 12.9708C11.3901 13.2016 11.7198 13.373 12.0714 13.3576C12.4209 13.3422 12.7528 13.2235 13.0034 12.9708Z" fill="white"/>
</svg>
