<svg width="46" height="46" viewBox="0 0 46 46" fill="none" xmlns="http://www.w3.org/2000/svg">
<path fill-rule="evenodd" clip-rule="evenodd" d="M41.6655 11.7992C41.6655 8.70642 39.1583 6.19922 36.0655 6.19922H9.93219C6.8394 6.19922 4.33219 8.70642 4.33219 11.7992V30.4659C4.33219 33.5587 6.8394 36.0659 9.93219 36.0659H29.7897C30.2264 36.0659 30.6492 36.219 30.9847 36.4985L35.5422 40.2964C37.9738 42.3228 41.6655 40.5937 41.6655 37.4284V11.7992ZM32.3322 17.3992C32.3322 16.3683 31.4965 15.5326 30.4655 15.5326H15.5322C14.5013 15.5326 13.6655 16.3683 13.6655 17.3992C13.6655 18.4301 14.5013 19.2659 15.5322 19.2659H30.4655C31.4965 19.2659 32.3322 18.4301 32.3322 17.3992ZM30.4655 22.9992C31.4965 22.9992 32.3322 23.835 32.3322 24.8659C32.3322 25.8968 31.4965 26.7326 30.4655 26.7326H22.9989C21.9679 26.7326 21.1322 25.8968 21.1322 24.8659C21.1322 23.835 21.9679 22.9992 22.9989 22.9992H30.4655Z" fill="#111315"/>
</svg>
