<svg width="32" height="22" viewBox="0 0 32 22" fill="none" xmlns="http://www.w3.org/2000/svg">
<rect x="0.444444" y="0.444444" width="31.1111" height="20.4444" rx="10.2222" fill="#1A1D1F"/>
<path d="M14.0506 10.3875L12.6852 9.02179H17.7776C18.4495 9.02179 19.0939 9.28869 19.569 9.76378C20.044 10.2389 20.3109 10.8832 20.3109 11.5551C20.3109 12.227 20.044 12.8714 19.569 13.3465C19.0939 13.8216 18.4495 14.0885 17.7776 14.0885H14.2221H14.0887V14.2218V15.1107V15.244H14.2221H17.7776C18.756 15.244 19.6943 14.8554 20.3861 14.1636C21.0779 13.4718 21.4665 12.5335 21.4665 11.5551C21.4665 10.5768 21.0779 9.63848 20.3861 8.94668C19.6943 8.25488 18.756 7.86623 17.7776 7.86623H12.684L14.0505 6.50008L14.1445 6.4062L14.051 6.31191L13.4279 5.68347L13.3336 5.58838L13.2389 5.68306L10.5722 8.34973L10.4779 8.44401L10.5722 8.53829L13.2389 11.205L13.3336 11.2997L13.4279 11.2045L14.051 10.5756L14.1444 10.4814L14.0506 10.3875Z" fill="#6F767E" stroke="#6F767E" stroke-width="0.266667"/>
<rect x="0.444444" y="0.444444" width="31.1111" height="20.4444" rx="10.2222" stroke="#33383F" stroke-width="0.888889"/>
</svg>
