<svg width="16" height="16" viewBox="0 0 16 16" fill="none" xmlns="http://www.w3.org/2000/svg">
<path fill-rule="evenodd" clip-rule="evenodd" d="M3.3335 4.0013H12.6668C12.9243 4.0013 13.1477 4.14728 13.2588 4.36099L8.36997 7.62019C8.14604 7.76948 7.8543 7.76948 7.63037 7.62019L2.74156 4.36099C2.85262 4.14728 3.07601 4.0013 3.3335 4.0013ZM2.66683 5.91363V11.3346C2.66683 11.7028 2.96531 12.0013 3.3335 12.0013H12.6668C13.035 12.0013 13.3335 11.7028 13.3335 11.3346V5.91365L9.10957 8.72959C8.43777 9.17746 7.56257 9.17746 6.89077 8.72959L2.66683 5.91363ZM1.3335 4.66797C1.3335 3.5634 2.22893 2.66797 3.3335 2.66797H12.6668C13.7714 2.66797 14.6668 3.5634 14.6668 4.66797V11.3346C14.6668 12.4392 13.7714 13.3346 12.6668 13.3346H3.3335C2.22893 13.3346 1.3335 12.4392 1.3335 11.3346V4.66797Z" fill="white"/>
</svg>
