<svg width="25" height="24" viewBox="0 0 25 24" fill="none" xmlns="http://www.w3.org/2000/svg">
<path d="M8.66699 3C8.66699 2.44772 8.21928 2 7.66699 2C7.11471 2 6.66699 2.44772 6.66699 3V4H5.66699C4.01014 4 2.66699 5.34315 2.66699 7V19C2.66699 20.6569 4.01014 22 5.66699 22H14.3492C13.5791 21.488 12.9341 20.8028 12.4697 20H5.66699C5.11471 20 4.66699 19.5523 4.66699 19V7C4.66699 6.44772 5.11471 6 5.66699 6H6.66699V7C6.66699 7.55228 7.11471 8 7.66699 8C8.21928 8 8.66699 7.55228 8.66699 7V6H16.667V7C16.667 7.55228 17.1147 8 17.667 8C18.2193 8 18.667 7.55228 18.667 7V6H19.667C20.2193 6 20.667 6.44771 20.667 7V11.8027C21.4698 12.2671 22.155 12.9121 22.667 13.6822V7C22.667 5.34315 21.3238 4 19.667 4H18.667V3C18.667 2.44772 18.2193 2 17.667 2C17.1147 2 16.667 2.44772 16.667 3V4H8.66699V3Z" fill="#6F767E"/>
<path fill-rule="evenodd" clip-rule="evenodd" d="M17.667 21C19.8761 21 21.667 19.2091 21.667 17C21.667 14.7909 19.8761 13 17.667 13C15.4579 13 13.667 14.7909 13.667 17C13.667 19.2091 15.4579 21 17.667 21ZM17.667 23C20.9807 23 23.667 20.3137 23.667 17C23.667 13.6863 20.9807 11 17.667 11C14.3533 11 11.667 13.6863 11.667 17C11.667 20.3137 14.3533 23 17.667 23Z" fill="#6F767E"/>
<path fill-rule="evenodd" clip-rule="evenodd" d="M17.667 14C18.2193 14 18.667 14.4477 18.667 15V16.5858L19.3741 17.2929C19.7646 17.6834 19.7646 18.3166 19.3741 18.7071C18.9836 19.0976 18.3504 19.0976 17.9599 18.7071L16.9599 17.7071C16.7723 17.5196 16.667 17.2652 16.667 17V15C16.667 14.4477 17.1147 14 17.667 14Z" fill="#6F767E"/>
</svg>
