<svg width="24" height="24" viewBox="0 0 24 24" fill="none" xmlns="http://www.w3.org/2000/svg">
<path fill-rule="evenodd" clip-rule="evenodd" d="M12.7575 4.87313L6.75746 6.37313C6.3123 6.48442 6 6.88441 6 7.34328V20.0009H14V10.0009V8.00095V5.84328C14 5.1927 13.3886 4.71535 12.7575 4.87313ZM16 10.0009V20.0009H18V11.0009C18 10.4487 17.5523 10.0009 17 10.0009H16ZM20 22.0009H21C21.5523 22.0009 22 21.5532 22 21.0009C22 20.4487 21.5523 20.0009 21 20.0009H20V11.0009C20 9.34409 18.6569 8.00095 17 8.00095H16V5.84328C16 3.89156 14.1658 2.45949 12.2724 2.93285L6.27239 4.43285C4.93689 4.76672 4 5.96667 4 7.34328V20.0009H3C2.44772 20.0009 2 20.4487 2 21.0009C2 21.5532 2.44772 22.0009 3 22.0009H4H6H14H16H18H20Z" fill="#6F767E"/>
<path fill-rule="evenodd" clip-rule="evenodd" d="M8 17C8 16.4477 8.44772 16 9 16H11C11.5523 16 12 16.4477 12 17C12 17.5523 11.5523 18 11 18H9C8.44772 18 8 17.5523 8 17Z" fill="#6F767E"/>
<path fill-rule="evenodd" clip-rule="evenodd" d="M8 13C8 12.4477 8.44772 12 9 12H11C11.5523 12 12 12.4477 12 13C12 13.5523 11.5523 14 11 14H9C8.44772 14 8 13.5523 8 13Z" fill="#6F767E"/>
<path fill-rule="evenodd" clip-rule="evenodd" d="M8 9C8 8.44772 8.44772 8 9 8H11C11.5523 8 12 8.44772 12 9C12 9.55228 11.5523 10 11 10H9C8.44772 10 8 9.55228 8 9Z" fill="#6F767E"/>
</svg>
