<svg width="25" height="24" viewBox="0 0 25 24" fill="none" xmlns="http://www.w3.org/2000/svg">
<path d="M8.16699 3C8.16699 2.44772 7.71928 2 7.16699 2C6.61471 2 6.16699 2.44772 6.16699 3V4H5.16699C3.51014 4 2.16699 5.34315 2.16699 7V19C2.16699 20.6569 3.51014 22 5.16699 22H11.0434C11.4913 22 11.7329 21.4354 11.4721 21.0713C10.6505 19.9242 10.167 18.5186 10.167 17C10.167 13.134 13.301 10 17.167 10C18.6856 10 20.0912 10.4836 21.2383 11.3051C21.6024 11.5659 22.167 11.3243 22.167 10.8764V7C22.167 5.34315 20.8238 4 19.167 4H18.167V3C18.167 2.44772 17.7193 2 17.167 2C16.6147 2 16.167 2.44772 16.167 3V4H8.16699V3Z" fill="#BBB2E9"/>
<path fill-rule="evenodd" clip-rule="evenodd" d="M22.167 17C22.167 14.2386 19.9284 12 17.167 12C14.4056 12 12.167 14.2386 12.167 17C12.167 19.7614 14.4056 22 17.167 22C19.9284 22 22.167 19.7614 22.167 17ZM18.167 15C18.167 14.4477 17.7193 14 17.167 14C16.6147 14 16.167 14.4477 16.167 15V17C16.167 17.2652 16.2723 17.5196 16.4599 17.7071L17.9599 19.2071C18.3504 19.5976 18.9836 19.5976 19.3741 19.2071C19.7646 18.8166 19.7646 18.1834 19.3741 17.7929L18.167 16.5858V15Z" fill="#BBB2E9"/>
</svg>
