<svg width="20" height="21" viewBox="0 0 20 21" fill="none" xmlns="http://www.w3.org/2000/svg">
<path fill-rule="evenodd" clip-rule="evenodd" d="M10.0003 17.1665C13.6822 17.1665 16.667 14.1817 16.667 10.4998C16.667 6.81794 13.6822 3.83317 10.0003 3.83317C6.31843 3.83317 3.33366 6.81794 3.33366 10.4998C3.33366 14.1817 6.31843 17.1665 10.0003 17.1665ZM10.0003 18.8332C14.6027 18.8332 18.3337 15.1022 18.3337 10.4998C18.3337 5.89746 14.6027 2.1665 10.0003 2.1665C5.39795 2.1665 1.66699 5.89746 1.66699 10.4998C1.66699 15.1022 5.39795 18.8332 10.0003 18.8332Z" fill="#EFEFEF"/>
<path fill-rule="evenodd" clip-rule="evenodd" d="M10.0003 5.5C10.4606 5.5 10.8337 5.8731 10.8337 6.33333V10.1548L12.6729 11.9941C12.9984 12.3195 12.9984 12.8472 12.6729 13.1726C12.3475 13.498 11.8198 13.498 11.4944 13.1726L9.65515 11.3333C9.34259 11.0208 9.16699 10.5968 9.16699 10.1548V6.33333C9.16699 5.8731 9.54009 5.5 10.0003 5.5Z" fill="#EFEFEF"/>
</svg>
