<svg width="16" height="16" viewBox="0 0 16 16" fill="none" xmlns="http://www.w3.org/2000/svg">
<path d="M15.7614 3.29122C15.2047 3.53789 14.6067 3.70456 13.978 3.77989C14.6267 3.39175 15.112 2.78087 15.3434 2.06122C14.7339 2.42321 14.0669 2.67802 13.3714 2.81456C12.9036 2.31513 12.2841 1.98411 11.6089 1.87287C10.9337 1.76164 10.2408 1.87642 9.63752 2.19939C9.03428 2.52236 8.55454 3.03546 8.27279 3.65902C7.99104 4.28259 7.92305 4.98172 8.07936 5.64789C6.84448 5.58589 5.63644 5.26492 4.53364 4.70583C3.43084 4.14673 2.45792 3.362 1.67802 2.40256C1.41136 2.86256 1.25802 3.39589 1.25802 3.96389C1.25773 4.47522 1.38365 4.97872 1.62461 5.42971C1.86557 5.8807 2.21413 6.26525 2.63936 6.54922C2.14621 6.53353 1.66394 6.40028 1.23269 6.16056V6.20055C1.23264 6.91772 1.48071 7.61281 1.93481 8.16789C2.38891 8.72297 3.02107 9.10384 3.72402 9.24589C3.26655 9.3697 2.78692 9.38794 2.32136 9.29922C2.51969 9.9163 2.90602 10.4559 3.42627 10.8425C3.94652 11.2291 4.57463 11.4433 5.22269 11.4552C4.12258 12.3188 2.76395 12.7873 1.36536 12.7852C1.11761 12.7853 0.870074 12.7708 0.624023 12.7419C2.04367 13.6547 3.69625 14.1391 5.38402 14.1372C11.0974 14.1372 14.2207 9.40522 14.2207 5.30122C14.2207 5.16789 14.2174 5.03322 14.2114 4.89989C14.8189 4.46054 15.3433 3.91649 15.76 3.29322L15.7614 3.29122Z" fill="#EFEFEF"/>
</svg>
