<svg width="40" height="40" viewBox="0 0 40 40" fill="none" xmlns="http://www.w3.org/2000/svg">
<rect width="40" height="40" rx="8" fill="#111315"/>
<path fill-rule="evenodd" clip-rule="evenodd" d="M27 14H13C12.4477 14 12 14.4477 12 15V26C12 26.5523 12.4477 27 13 27H27C27.5523 27 28 26.5523 28 26V15C28 14.4477 27.5523 14 27 14ZM13 12C11.3431 12 10 13.3431 10 15V26C10 27.6569 11.3431 29 13 29H27C28.6569 29 30 27.6569 30 26V15C30 13.3431 28.6569 12 27 12L13 12Z" fill="#FCFCFC"/>
<path d="M17.6828 19.6194C17.5266 19.8008 17.2734 19.8008 17.1172 19.6194C16.9609 19.4381 16.9609 19.144 17.1172 18.9626L19.4343 16.2721C19.7467 15.9093 20.2533 15.9093 20.5657 16.2721L22.8828 18.9626C23.0391 19.144 23.0391 19.4381 22.8828 19.6194C22.7266 19.8008 22.4734 19.8008 22.3172 19.6194L20.4 17.3934V23.9355C20.4 24.1921 20.2209 24.4 20 24.4C19.7791 24.4 19.6 24.1921 19.6 23.9355V17.3934L17.6828 19.6194Z" fill="#FCFCFC" stroke="#FCFCFC" stroke-width="0.9" stroke-linecap="round"/>
</svg>
