<svg width="40" height="40" viewBox="0 0 40 40" fill="none" xmlns="http://www.w3.org/2000/svg">
<rect x="0.5" y="0.5" width="39" height="39" rx="7.5" fill="#111315"/>
<path fill-rule="evenodd" clip-rule="evenodd" d="M10 13C10 11.3431 11.3431 10 13 10H15C15.5523 10 16 10.4477 16 11C16 11.5523 15.5523 12 15 12H13C12.4477 12 12 12.4477 12 13V15C12 15.5523 11.5523 16 11 16C10.4477 16 10 15.5523 10 15V13Z" fill="#FCFCFC"/>
<path fill-rule="evenodd" clip-rule="evenodd" d="M10 27C10 28.6569 11.3431 30 13 30H15C15.5523 30 16 29.5523 16 29C16 28.4477 15.5523 28 15 28H13C12.4477 28 12 27.5523 12 27V25C12 24.4477 11.5523 24 11 24C10.4477 24 10 24.4477 10 25V27Z" fill="#FCFCFC"/>
<path fill-rule="evenodd" clip-rule="evenodd" d="M30 27C30 28.6569 28.6569 30 27 30H25C24.4477 30 24 29.5523 24 29C24 28.4477 24.4477 28 25 28H27C27.5523 28 28 27.5523 28 27V25C28 24.4477 28.4477 24 29 24C29.5523 24 30 24.4477 30 25V27Z" fill="#FCFCFC"/>
<path fill-rule="evenodd" clip-rule="evenodd" d="M30 13C30 11.3431 28.6569 10 27 10H25C24.4477 10 24 10.4477 24 11C24 11.5523 24.4477 12 25 12H27C27.5523 12 28 12.4477 28 13V15C28 15.5523 28.4477 16 29 16C29.5523 16 30 15.5523 30 15V13Z" fill="#FCFCFC"/>
<rect x="0.5" y="0.5" width="39" height="39" rx="7.5" stroke="#33383F"/>
</svg>
