<svg width="36" height="36" viewBox="0 0 36 36" fill="none" xmlns="http://www.w3.org/2000/svg">
<rect x="0.400391" y="0.400391" width="35.2" height="35.2" rx="8" fill="#1A1D1F"/>
<path d="M9.2002 22.0008V24.4008C9.2002 24.8426 9.55837 25.2008 10.0002 25.2008H21.2002C21.642 25.2008 22.0002 24.8426 22.0002 24.4008V22.0008C22.0002 20.2335 20.5675 18.8008 18.8002 18.8008H12.4002C10.6329 18.8008 9.2002 20.2335 9.2002 22.0008Z" fill="#FCFCFC"/>
<path d="M23.5874 24.6502C23.559 24.9248 23.7532 25.2008 24.0292 25.2008H26.0002C26.442 25.2008 26.8002 24.8426 26.8002 24.4008V22.0008C26.8002 20.2335 25.3675 18.8008 23.6002 18.8008H22.8253C22.6524 18.8008 22.5576 19.0086 22.6604 19.1475C23.251 19.9451 23.6002 20.9322 23.6002 22.0008V24.4008C23.6002 24.485 23.5958 24.5682 23.5874 24.6502Z" fill="#FCFCFC"/>
<path d="M18.8004 14.0008C18.8004 15.7681 17.3677 17.2008 15.6004 17.2008C13.8331 17.2008 12.4004 15.7681 12.4004 14.0008C12.4004 12.2335 13.8331 10.8008 15.6004 10.8008C17.3677 10.8008 18.8004 12.2335 18.8004 14.0008Z" fill="#FCFCFC"/>
<path d="M19.8807 17.1588C19.6081 17.1144 19.5152 16.7922 19.6625 16.5586C20.1297 15.8181 20.4001 14.941 20.4001 14.0008C20.4001 13.0605 20.1297 12.1834 19.6625 11.443C19.5152 11.2094 19.6081 10.8872 19.8807 10.8427C20.0498 10.8151 20.2232 10.8008 20.4001 10.8008C22.1674 10.8008 23.6001 12.2335 23.6001 14.0008C23.6001 15.7681 22.1674 17.2008 20.4001 17.2008C20.2232 17.2008 20.0498 17.1864 19.8807 17.1588Z" fill="#FCFCFC"/>
</svg>
