<svg width="40" height="40" viewBox="0 0 40 40" fill="none" xmlns="http://www.w3.org/2000/svg">
<rect width="40" height="40" rx="8" fill="#111315"/>
<path fill-rule="evenodd" clip-rule="evenodd" d="M25 23.4286V24C25 25.6569 23.6569 27 22 27H13C11.3431 27 10 25.6569 10 24V16C10 14.3431 11.3431 13 13 13H22C23.6569 13 25 14.3431 25 16V16.5714L26.8375 15.2589C28.1613 14.3134 30 15.2596 30 16.8864V23.1136C30 24.7404 28.1613 25.6866 26.8375 24.7411L25 23.4286ZM13 15H22C22.5523 15 23 15.4477 23 16V24C23 24.5523 22.5523 25 22 25H13C12.4477 25 12 24.5523 12 24V16C12 15.4477 12.4477 15 13 15ZM25 20.9708L28 23.1136V16.8864L25 19.0292V20.9708Z" fill="#FCFCFC"/>
</svg>
