<svg width="40" height="40" viewBox="0 0 40 40" fill="none" xmlns="http://www.w3.org/2000/svg">
<rect width="40" height="40" rx="8" fill="#111315"/>
<path fill-rule="evenodd" clip-rule="evenodd" d="M21 19V13C21 12.4477 20.5523 12 20 12C19.4477 12 19 12.4477 19 13V19C19 19.5523 19.4477 20 20 20C20.5523 20 21 19.5523 21 19ZM20 10C18.3431 10 17 11.3431 17 13V19C17 20.6569 18.3431 22 20 22C21.6569 22 23 20.6569 23 19V13C23 11.3431 21.6569 10 20 10Z" fill="#FCFCFC"/>
<path d="M15 19C15 18.4477 14.5523 18 14 18C13.4477 18 13 18.4477 13 19C13 22.5265 15.6077 25.4439 19 25.9291V28H17C16.4477 28 16 28.4477 16 29C16 29.5523 16.4477 30 17 30H23C23.5523 30 24 29.5523 24 29C24 28.4477 23.5523 28 23 28H21V25.9291C24.3923 25.4439 27 22.5265 27 19C27 18.4477 26.5523 18 26 18C25.4477 18 25 18.4477 25 19C25 21.7614 22.7614 24 20 24C17.2386 24 15 21.7614 15 19Z" fill="#FCFCFC"/>
</svg>
