<svg width="20" height="20" viewBox="0 0 20 20" fill="none" xmlns="http://www.w3.org/2000/svg">
<path fill-rule="evenodd" clip-rule="evenodd" d="M6.87172 3.23815L6.50033 4.16663H4.16699C2.78628 4.16663 1.66699 5.28591 1.66699 6.66663V15.8333C1.66699 17.214 2.78628 18.3333 4.16699 18.3333H15.8337C17.2144 18.3333 18.3337 17.214 18.3337 15.8333V6.66663C18.3337 5.28591 17.2144 4.16663 15.8337 4.16663H13.5003L13.1289 3.23815C12.7493 2.289 11.83 1.66663 10.8077 1.66663H9.19291C8.17065 1.66663 7.25137 2.289 6.87172 3.23815ZM10.8077 3.33329H9.19291C8.85215 3.33329 8.54573 3.54075 8.41918 3.85713L8.29538 4.16663H11.7053L11.5815 3.85713C11.4549 3.54075 11.1485 3.33329 10.8077 3.33329ZM15.8337 5.83329C16.2939 5.83329 16.667 6.20639 16.667 6.66663V9.16663C16.667 9.62686 16.2939 9.99996 15.8337 9.99996H12.2774C11.9892 9.50179 11.4506 9.16663 10.8337 9.16663H9.16699C8.55009 9.16663 8.01147 9.50179 7.7233 9.99996H4.16699C3.70675 9.99996 3.33366 9.62686 3.33366 9.16663V6.66663C3.33366 6.20639 3.70675 5.83329 4.16699 5.83329H15.8337ZM7.7233 11.6666H4.16699C3.8748 11.6666 3.59431 11.6165 3.33366 11.5244V15.8333C3.33366 16.2935 3.70675 16.6666 4.16699 16.6666H15.8337C16.2939 16.6666 16.667 16.2935 16.667 15.8333V11.5244C16.4063 11.6165 16.1259 11.6666 15.8337 11.6666H12.2774C11.9892 12.1648 11.4506 12.5 10.8337 12.5H9.16699C8.55009 12.5 8.01147 12.1648 7.7233 11.6666Z" fill="#6F767E"/>
</svg>
