<svg width="16" height="16" viewBox="0 0 16 16" fill="none" xmlns="http://www.w3.org/2000/svg">
<path fill-rule="evenodd" clip-rule="evenodd" d="M2 4C2 2.89543 2.89543 2 4 2H12C13.1046 2 14 2.89543 14 4V5.33333C14 6.4379 13.1046 7.33333 12 7.33333H4C2.89543 7.33333 2 6.4379 2 5.33333V4ZM3.66667 4.66667C3.66667 4.29848 3.96514 4 4.33333 4H9C9.36819 4 9.66667 4.29848 9.66667 4.66667C9.66667 5.03486 9.36819 5.33333 9 5.33333H4.33333C3.96514 5.33333 3.66667 5.03486 3.66667 4.66667ZM11.6667 5.33333C12.0349 5.33333 12.3333 5.03486 12.3333 4.66667C12.3333 4.29848 12.0349 4 11.6667 4C11.2985 4 11 4.29848 11 4.66667C11 5.03486 11.2985 5.33333 11.6667 5.33333Z" fill="white"/>
<path fill-rule="evenodd" clip-rule="evenodd" d="M2 10.666C2 9.56145 2.89543 8.66602 4 8.66602H12C13.1046 8.66602 14 9.56145 14 10.666V11.9993C14 13.1039 13.1046 13.9993 12 13.9993H4C2.89543 13.9993 2 13.1039 2 11.9993V10.666ZM3.66667 11.3327C3.66667 10.9645 3.96514 10.666 4.33333 10.666H9C9.36819 10.666 9.66667 10.9645 9.66667 11.3327C9.66667 11.7009 9.36819 11.9993 9 11.9993H4.33333C3.96514 11.9993 3.66667 11.7009 3.66667 11.3327ZM11.6667 11.9993C12.0349 11.9993 12.3333 11.7009 12.3333 11.3327C12.3333 10.9645 12.0349 10.666 11.6667 10.666C11.2985 10.666 11 10.9645 11 11.3327C11 11.7009 11.2985 11.9993 11.6667 11.9993Z" fill="white"/>
</svg>
