<svg width="17" height="18" viewBox="0 0 17 18" fill="none" xmlns="http://www.w3.org/2000/svg">
<path fill-rule="evenodd" clip-rule="evenodd" d="M12.375 4.1875H4.125C3.7453 4.1875 3.4375 4.4953 3.4375 4.875V13.125C3.4375 13.5047 3.7453 13.8125 4.125 13.8125H12.375C12.7547 13.8125 13.0625 13.5047 13.0625 13.125V4.875C13.0625 4.4953 12.7547 4.1875 12.375 4.1875ZM4.125 2.8125C2.98591 2.8125 2.0625 3.73591 2.0625 4.875V13.125C2.0625 14.2641 2.98591 15.1875 4.125 15.1875H12.375C13.5141 15.1875 14.4375 14.2641 14.4375 13.125V4.875C14.4375 3.73591 13.5141 2.8125 12.375 2.8125H4.125Z" fill="#EFEFEF"/>
<path fill-rule="evenodd" clip-rule="evenodd" d="M11.4861 6.45136C11.7546 6.71985 11.7546 7.15515 11.4861 7.42364L7.84727 11.0625C7.3103 11.5995 6.4397 11.5995 5.90273 11.0625L4.67011 9.82989C4.40163 9.5614 4.40163 9.1261 4.67011 8.85761C4.9386 8.58913 5.3739 8.58913 5.64239 8.85761L6.875 10.0902L10.5139 6.45136C10.7823 6.18288 11.2177 6.18288 11.4861 6.45136Z" fill="#EFEFEF"/>
</svg>
