<svg width="17" height="18" viewBox="0 0 17 18" fill="none" xmlns="http://www.w3.org/2000/svg">
<path fill-rule="evenodd" clip-rule="evenodd" d="M8.25 2.125C4.45304 2.125 1.375 5.20304 1.375 9C1.375 12.797 4.45304 15.875 8.25 15.875C12.047 15.875 15.125 12.797 15.125 9C15.125 5.20304 12.047 2.125 8.25 2.125ZM2.92327 7.625C2.81016 8.06448 2.75 8.52521 2.75 9C2.75 9.47479 2.81016 9.93552 2.92327 10.375H4.87735C4.83469 9.92955 4.8125 9.46948 4.8125 9C4.8125 8.53052 4.83469 8.07045 4.87735 7.625H2.92327ZM3.4858 6.25H5.08281C5.22854 5.54634 5.42961 4.90265 5.67721 4.34556C5.71864 4.25234 5.76169 4.16084 5.80636 4.07131C4.83513 4.55377 4.02675 5.31486 3.4858 6.25ZM6.25931 7.625C6.2126 8.06333 6.1875 8.5237 6.1875 9C6.1875 9.4763 6.2126 9.93667 6.25931 10.375H10.2407C10.2874 9.93667 10.3125 9.4763 10.3125 9C10.3125 8.5237 10.2874 8.06333 10.2407 7.625H6.25931ZM10.0089 6.25H6.49113C6.61053 5.74651 6.76073 5.29318 6.9337 4.904C7.15919 4.39665 7.40988 4.02864 7.65353 3.79677C7.89363 3.56827 8.094 3.5 8.25 3.5C8.406 3.5 8.60637 3.56827 8.84647 3.79677C9.09012 4.02864 9.34081 4.39665 9.5663 4.904C9.73927 5.29318 9.88947 5.74651 10.0089 6.25ZM11.6227 7.625C11.6653 8.07045 11.6875 8.53052 11.6875 9C11.6875 9.46948 11.6653 9.92955 11.6227 10.375H13.5767C13.6898 9.93552 13.75 9.47479 13.75 9C13.75 8.52521 13.6898 8.06448 13.5767 7.625H11.6227ZM13.0142 6.25H11.4172C11.2715 5.54634 11.0704 4.90265 10.8228 4.34556C10.7814 4.25234 10.7383 4.16084 10.6936 4.07131C11.6649 4.55377 12.4732 5.31486 13.0142 6.25ZM5.80636 13.9287C4.83513 13.4462 4.02675 12.6851 3.4858 11.75H5.08281C5.22854 12.4537 5.42961 13.0973 5.67721 13.6544C5.71864 13.7477 5.76169 13.8392 5.80636 13.9287ZM6.9337 13.096C6.76073 12.7068 6.61053 12.2535 6.49113 11.75H10.0089C9.88947 12.2535 9.73927 12.7068 9.5663 13.096C9.34081 13.6034 9.09012 13.9714 8.84647 14.2032C8.60637 14.4317 8.406 14.5 8.25 14.5C8.094 14.5 7.89363 14.4317 7.65353 14.2032C7.40988 13.9714 7.15919 13.6034 6.9337 13.096ZM10.8228 13.6544C11.0704 13.0973 11.2715 12.4537 11.4172 11.75H13.0142C12.4732 12.6851 11.6649 13.4462 10.6936 13.9287C10.7383 13.8392 10.7814 13.7477 10.8228 13.6544Z" fill="#EFEFEF"/>
</svg>
