<svg width="17" height="18" viewBox="0 0 17 18" fill="none" xmlns="http://www.w3.org/2000/svg">
<path fill-rule="evenodd" clip-rule="evenodd" d="M14.4375 13.8125C14.4375 14.9516 13.5141 15.875 12.375 15.875H4.125C2.98591 15.875 2.0625 14.9516 2.0625 13.8125V4.1875C2.0625 3.04841 2.98591 2.125 4.125 2.125H11L11.0074 2.13236C11.4906 2.1733 11.9461 2.38357 12.2916 2.72909L13.8334 4.27091C14.1789 4.61643 14.3892 5.07193 14.4301 5.55514L14.4375 5.5625V13.8125ZM12.375 14.5H4.125C3.7453 14.5 3.4375 14.1922 3.4375 13.8125V4.1875C3.4375 3.8078 3.7453 3.5 4.125 3.5H10.3125V4.875C10.3125 5.63439 10.9281 6.25 11.6875 6.25H13.0625V13.8125C13.0625 14.1922 12.7547 14.5 12.375 14.5Z" fill="#EFEFEF"/>
<path d="M6.18825 7.59952C5.98297 7.41766 5.68057 7.435 5.49381 7.65155C5.30206 7.87386 5.30206 8.2264 5.49381 8.44871L7.61787 10.9114C7.96409 11.3129 8.53591 11.3129 8.88213 10.9114L11.0062 8.44871C11.1979 8.22639 11.1979 7.87386 11.0062 7.65155C10.8194 7.435 10.517 7.41766 10.3117 7.59952L8.25 7.59952L6.18825 7.59952Z" fill="#EFEFEF" stroke="#EFEFEF" stroke-width="0.3" stroke-linecap="round" stroke-linejoin="round"/>
</svg>
