<svg width="16" height="16" viewBox="0 0 16 16" fill="none" xmlns="http://www.w3.org/2000/svg">
<path fill-rule="evenodd" clip-rule="evenodd" d="M2 4.66667C2 4.29848 2.29848 4 2.66667 4L13.3333 4C13.7015 4 14 4.29848 14 4.66667C14 5.03486 13.7015 5.33333 13.3333 5.33333L2.66667 5.33333C2.29848 5.33333 2 5.03486 2 4.66667Z" fill="#6F767E"/>
<path fill-rule="evenodd" clip-rule="evenodd" d="M2 11.3327C2 10.9645 2.29848 10.666 2.66667 10.666L13.3333 10.666C13.7015 10.666 14 10.9645 14 11.3327C14 11.7009 13.7015 11.9993 13.3333 11.9993L2.66667 11.9993C2.29848 11.9993 2 11.7009 2 11.3327Z" fill="#6F767E"/>
<path fill-rule="evenodd" clip-rule="evenodd" d="M6.66667 13.334C7.77124 13.334 8.66667 12.4386 8.66667 11.334C8.66667 10.2294 7.77124 9.33398 6.66667 9.33398C5.5621 9.33398 4.66667 10.2294 4.66667 11.334C4.66667 12.4386 5.5621 13.334 6.66667 13.334Z" fill="#6F767E"/>
<path fill-rule="evenodd" clip-rule="evenodd" d="M9.33333 6.66602C10.4379 6.66602 11.3333 5.77059 11.3333 4.66602C11.3333 3.56145 10.4379 2.66602 9.33333 2.66602C8.22876 2.66602 7.33333 3.56145 7.33333 4.66602C7.33333 5.77059 8.22876 6.66602 9.33333 6.66602Z" fill="#6F767E"/>
</svg>
