<svg width="17" height="18" viewBox="0 0 17 18" fill="none" xmlns="http://www.w3.org/2000/svg">
<path d="M6.42874 12.9044H6.81788C7.03581 12.9044 7.19146 12.8577 7.28486 12.7643C7.37825 12.6709 7.42495 12.5256 7.42495 12.3284V5.54173H6.21082C5.99289 5.54173 5.83724 5.58843 5.74384 5.68182C5.65045 5.76484 5.60375 5.91012 5.60375 6.11767V6.6936H4.12499V4.1875H12.7796V6.6936H11.3008V6.11767C11.3008 5.91012 11.2541 5.76484 11.1608 5.68182C11.0674 5.58843 10.9117 5.54173 10.6938 5.54173H9.47964V12.3284C9.47964 12.5256 9.52634 12.6709 9.61974 12.7643C9.72351 12.8577 9.88436 12.9044 10.1023 12.9044H10.4914V14.2586H6.42874V12.9044Z" fill="#EFEFEF"/>
</svg>
