<svg width="17" height="18" viewBox="0 0 17 18" fill="none" xmlns="http://www.w3.org/2000/svg">
<path fill-rule="evenodd" clip-rule="evenodd" d="M8.77076 4.09967L4.64576 5.13092C4.3397 5.20743 4.125 5.48242 4.125 5.79789V14.5H9.625V7.62504V6.25004V4.76664C9.625 4.31937 9.20467 3.99119 8.77076 4.09967ZM11 7.62504V14.5H12.375V8.31254C12.375 7.93284 12.0672 7.62504 11.6875 7.62504H11ZM13.75 15.875H14.4375C14.8172 15.875 15.125 15.5672 15.125 15.1875C15.125 14.8078 14.8172 14.5 14.4375 14.5H13.75V8.31254C13.75 7.17345 12.8266 6.25004 11.6875 6.25004H11V4.76664C11 3.42484 9.73901 2.44029 8.43727 2.76572L4.31227 3.79697C3.39411 4.02651 2.75 4.85148 2.75 5.79789V14.5H2.0625C1.6828 14.5 1.375 14.8078 1.375 15.1875C1.375 15.5672 1.6828 15.875 2.0625 15.875H2.75H4.125H9.625H11H12.375H13.75Z" fill="#EFEFEF"/>
<path fill-rule="evenodd" clip-rule="evenodd" d="M5.5 12.4375C5.5 12.0578 5.8078 11.75 6.1875 11.75H7.5625C7.9422 11.75 8.25 12.0578 8.25 12.4375C8.25 12.8172 7.9422 13.125 7.5625 13.125H6.1875C5.8078 13.125 5.5 12.8172 5.5 12.4375Z" fill="#EFEFEF"/>
<path fill-rule="evenodd" clip-rule="evenodd" d="M5.5 9.6875C5.5 9.3078 5.8078 9 6.1875 9H7.5625C7.9422 9 8.25 9.3078 8.25 9.6875C8.25 10.0672 7.9422 10.375 7.5625 10.375H6.1875C5.8078 10.375 5.5 10.0672 5.5 9.6875Z" fill="#EFEFEF"/>
<path fill-rule="evenodd" clip-rule="evenodd" d="M5.5 6.9375C5.5 6.5578 5.8078 6.25 6.1875 6.25H7.5625C7.9422 6.25 8.25 6.5578 8.25 6.9375C8.25 7.3172 7.9422 7.625 7.5625 7.625H6.1875C5.8078 7.625 5.5 7.3172 5.5 6.9375Z" fill="#EFEFEF"/>
</svg>
