<svg width="17" height="18" viewBox="0 0 17 18" fill="none" xmlns="http://www.w3.org/2000/svg">
<path fill-rule="evenodd" clip-rule="evenodd" d="M6.1875 2.125C3.90933 2.125 2.0625 3.97183 2.0625 6.25C2.0625 8.52817 3.90933 10.375 6.1875 10.375H7.5625V15.1875C7.5625 15.5672 7.8703 15.875 8.25 15.875C8.6297 15.875 8.9375 15.5672 8.9375 15.1875V3.5H11V15.1875C11 15.5672 11.3078 15.875 11.6875 15.875C12.0672 15.875 12.375 15.5672 12.375 15.1875V3.5H13.0625C13.4422 3.5 13.75 3.1922 13.75 2.8125C13.75 2.4328 13.4422 2.125 13.0625 2.125H6.1875ZM6.1875 3.5H7.5625V9H6.1875C4.66872 9 3.4375 7.76878 3.4375 6.25C3.4375 4.73122 4.66872 3.5 6.1875 3.5Z" fill="#EFEFEF"/>
</svg>
