<svg width="17" height="18" viewBox="0 0 17 18" fill="none" xmlns="http://www.w3.org/2000/svg">
<path fill-rule="evenodd" clip-rule="evenodd" d="M11.4895 10.2413C12.0591 9.53079 12.3989 8.63141 12.3989 7.64891C12.3989 5.35753 10.5414 3.5 8.24999 3.5C5.95861 3.5 4.10107 5.35753 4.10107 7.64891C4.10107 8.63132 4.44081 9.53062 5.01031 10.2411L5.01441 10.2462C5.13498 10.3965 5.24661 10.5546 5.36259 10.7084C5.56402 10.9754 5.84806 11.3505 6.17808 11.7818C6.79308 12.5855 7.56132 13.5764 8.25048 14.427C8.94179 13.5745 9.71179 12.5822 10.328 11.7774C10.6586 11.3456 10.9431 10.9702 11.1448 10.7029C11.2602 10.55 11.3697 10.3908 11.4895 10.2413ZM12.5643 11.103C12.5643 11.103 12.5632 11.1045 12.5623 11.1056C12.5271 11.1527 12.2038 11.5847 11.7354 12.1999C11.0404 13.1126 10.0259 14.4286 9.15851 15.4895C8.68403 16.0699 7.81612 16.0696 7.34192 15.4891C5.85943 13.674 3.9421 11.1069 3.9421 11.1069L3.93763 11.1014C3.17953 10.1557 2.72607 8.95525 2.72607 7.64891C2.72607 4.59814 5.19921 2.125 8.24999 2.125C11.3008 2.125 13.7739 4.59814 13.7739 7.64891C13.7739 8.46171 13.5984 9.2335 13.2831 9.92845C13.0924 10.3489 12.8506 10.7411 12.5655 11.0974L12.5635 11.0999L12.5623 11.1014H12.5655L12.5643 11.103Z" fill="#EFEFEF"/>
<path fill-rule="evenodd" clip-rule="evenodd" d="M8.25 8.3125C8.6297 8.3125 8.9375 8.0047 8.9375 7.625C8.9375 7.2453 8.6297 6.9375 8.25 6.9375C7.8703 6.9375 7.5625 7.2453 7.5625 7.625C7.5625 8.0047 7.8703 8.3125 8.25 8.3125ZM10.3125 7.625C10.3125 8.76409 9.38909 9.6875 8.25 9.6875C7.11091 9.6875 6.1875 8.76409 6.1875 7.625C6.1875 6.48591 7.11091 5.5625 8.25 5.5625C9.38909 5.5625 10.3125 6.48591 10.3125 7.625Z" fill="#EFEFEF"/>
</svg>
