<svg width="25" height="24" viewBox="0 0 25 24" fill="none" xmlns="http://www.w3.org/2000/svg">
<path fill-rule="evenodd" clip-rule="evenodd" d="M6.77239 4.43089C5.43689 4.76477 4.5 5.96472 4.5 7.34132V19.999H3.5C2.94772 19.999 2.5 20.4467 2.5 20.999C2.5 21.5513 2.94772 21.999 3.5 21.999H21.5C22.0523 21.999 22.5 21.5513 22.5 20.999C22.5 20.4467 22.0523 19.999 21.5 19.999H20.5V10.999C20.5 9.34217 19.1569 7.99902 17.5 7.99902H16.5V5.84132C16.5 3.88961 14.6658 2.45753 12.7724 2.93089L6.77239 4.43089ZM18.5 10.999V19.999H16.5V9.99902H17.5C18.0523 9.99902 18.5 10.4467 18.5 10.999ZM9.5 15.999C8.94772 15.999 8.5 16.4467 8.5 16.999C8.5 17.5513 8.94772 17.999 9.5 17.999H11.5C12.0523 17.999 12.5 17.5513 12.5 16.999C12.5 16.4467 12.0523 15.999 11.5 15.999H9.5ZM8.5 12.999C8.5 12.4467 8.94772 11.999 9.5 11.999H11.5C12.0523 11.999 12.5 12.4467 12.5 12.999C12.5 13.5513 12.0523 13.999 11.5 13.999H9.5C8.94772 13.999 8.5 13.5513 8.5 12.999ZM9.5 7.99902C8.94772 7.99902 8.5 8.44674 8.5 8.99902C8.5 9.55131 8.94772 9.99902 9.5 9.99902H11.5C12.0523 9.99902 12.5 9.55131 12.5 8.99902C12.5 8.44674 12.0523 7.99902 11.5 7.99902H9.5Z" fill="#BBB2E9"/>
</svg>
