<svg width="25" height="24" viewBox="0 0 25 24" fill="none" xmlns="http://www.w3.org/2000/svg">
<path fill-rule="evenodd" clip-rule="evenodd" d="M19.5 5H5.5C4.94772 5 4.5 5.44772 4.5 6V15C4.5 15.5523 4.94772 16 5.5 16H19.5C20.0523 16 20.5 15.5523 20.5 15V6C20.5 5.44771 20.0523 5 19.5 5ZM5.5 3C3.84315 3 2.5 4.34315 2.5 6V15C2.5 16.6569 3.84315 18 5.5 18H19.5C21.1569 18 22.5 16.6569 22.5 15V6C22.5 4.34315 21.1569 3 19.5 3H5.5Z" fill="#6F767E"/>
<path fill-rule="evenodd" clip-rule="evenodd" d="M7.5 20C7.5 19.4477 7.94772 19 8.5 19H16.5C17.0523 19 17.5 19.4477 17.5 20C17.5 20.5523 17.0523 21 16.5 21H8.5C7.94772 21 7.5 20.5523 7.5 20Z" fill="#6F767E"/>
</svg>
