<svg width="25" height="24" viewBox="0 0 25 24" fill="none" xmlns="http://www.w3.org/2000/svg">
<g clip-path="url(#clip0_14322_6696)">
<path fill-rule="evenodd" clip-rule="evenodd" d="M21.3335 14C21.3335 13.4477 21.7812 13 22.3335 13H23.3335C23.8858 13 24.3335 13.4477 24.3335 14C24.3335 14.5523 23.8858 15 23.3335 15H22.3335C21.7812 15 21.3335 14.5523 21.3335 14Z" fill="#BBB2E9"/>
<path fill-rule="evenodd" clip-rule="evenodd" d="M0.333496 14C0.333496 13.4477 0.781211 13 1.3335 13H2.3335C2.88578 13 3.3335 13.4477 3.3335 14C3.3335 14.5523 2.88578 15 2.3335 15H1.3335C0.781211 15 0.333496 14.5523 0.333496 14Z" fill="#BBB2E9"/>
<path fill-rule="evenodd" clip-rule="evenodd" d="M21.3335 10C21.3335 9.44772 21.7812 9 22.3335 9H23.3335C23.8858 9 24.3335 9.44772 24.3335 10C24.3335 10.5523 23.8858 11 23.3335 11H22.3335C21.7812 11 21.3335 10.5523 21.3335 10Z" fill="#BBB2E9"/>
<path fill-rule="evenodd" clip-rule="evenodd" d="M0.333496 10C0.333496 9.44772 0.781211 9 1.3335 9H2.3335C2.88578 9 3.3335 9.44772 3.3335 10C3.3335 10.5523 2.88578 11 2.3335 11H1.3335C0.781211 11 0.333496 10.5523 0.333496 10Z" fill="#BBB2E9"/>
<path fill-rule="evenodd" clip-rule="evenodd" d="M14.3335 0C14.8858 0 15.3335 0.447715 15.3335 1V2C15.3335 2.55228 14.8858 3 14.3335 3C13.7812 3 13.3335 2.55228 13.3335 2V1C13.3335 0.447715 13.7812 0 14.3335 0Z" fill="#BBB2E9"/>
<path fill-rule="evenodd" clip-rule="evenodd" d="M14.3335 21C14.8858 21 15.3335 21.4477 15.3335 22V23C15.3335 23.5523 14.8858 24 14.3335 24C13.7812 24 13.3335 23.5523 13.3335 23V22C13.3335 21.4477 13.7812 21 14.3335 21Z" fill="#BBB2E9"/>
<path fill-rule="evenodd" clip-rule="evenodd" d="M10.3335 0C10.8858 0 11.3335 0.447715 11.3335 1V2C11.3335 2.55228 10.8858 3 10.3335 3C9.78121 3 9.3335 2.55228 9.3335 2V1C9.3335 0.447715 9.78121 0 10.3335 0Z" fill="#BBB2E9"/>
<path fill-rule="evenodd" clip-rule="evenodd" d="M10.3335 21C10.8858 21 11.3335 21.4477 11.3335 22V23C11.3335 23.5523 10.8858 24 10.3335 24C9.78121 24 9.3335 23.5523 9.3335 23V22C9.3335 21.4477 9.78121 21 10.3335 21Z" fill="#BBB2E9"/>
<circle cx="12.3335" cy="12" r="6.9" fill="#BBB2E9" stroke="#BBB2E9" stroke-width="2.2"/>
</g>
<defs>
<clipPath id="clip0_14322_6696">
<rect width="24" height="24" fill="white" transform="translate(0.333496)"/>
</clipPath>
</defs>
</svg>
