<svg width="25" height="24" viewBox="0 0 25 24" fill="none" xmlns="http://www.w3.org/2000/svg">
<g clip-path="url(#clip0_14322_17482)">
<path fill-rule="evenodd" clip-rule="evenodd" d="M21.833 14C21.833 13.4477 22.2807 13 22.833 13H23.833C24.3853 13 24.833 13.4477 24.833 14C24.833 14.5523 24.3853 15 23.833 15H22.833C22.2807 15 21.833 14.5523 21.833 14Z" fill="#6F767E"/>
<path fill-rule="evenodd" clip-rule="evenodd" d="M0.833008 14C0.833008 13.4477 1.28072 13 1.83301 13H2.83301C3.38529 13 3.83301 13.4477 3.83301 14C3.83301 14.5523 3.38529 15 2.83301 15H1.83301C1.28072 15 0.833008 14.5523 0.833008 14Z" fill="#6F767E"/>
<path fill-rule="evenodd" clip-rule="evenodd" d="M21.833 10C21.833 9.44772 22.2807 9 22.833 9H23.833C24.3853 9 24.833 9.44772 24.833 10C24.833 10.5523 24.3853 11 23.833 11H22.833C22.2807 11 21.833 10.5523 21.833 10Z" fill="#6F767E"/>
<path fill-rule="evenodd" clip-rule="evenodd" d="M0.833008 10C0.833008 9.44772 1.28072 9 1.83301 9H2.83301C3.38529 9 3.83301 9.44772 3.83301 10C3.83301 10.5523 3.38529 11 2.83301 11H1.83301C1.28072 11 0.833008 10.5523 0.833008 10Z" fill="#6F767E"/>
<path fill-rule="evenodd" clip-rule="evenodd" d="M14.833 0C15.3853 0 15.833 0.447715 15.833 1V2C15.833 2.55228 15.3853 3 14.833 3C14.2807 3 13.833 2.55228 13.833 2V1C13.833 0.447715 14.2807 0 14.833 0Z" fill="#6F767E"/>
<path fill-rule="evenodd" clip-rule="evenodd" d="M14.833 21C15.3853 21 15.833 21.4477 15.833 22V23C15.833 23.5523 15.3853 24 14.833 24C14.2807 24 13.833 23.5523 13.833 23V22C13.833 21.4477 14.2807 21 14.833 21Z" fill="#6F767E"/>
<path fill-rule="evenodd" clip-rule="evenodd" d="M10.833 0C11.3853 0 11.833 0.447715 11.833 1V2C11.833 2.55228 11.3853 3 10.833 3C10.2807 3 9.83301 2.55228 9.83301 2V1C9.83301 0.447715 10.2807 0 10.833 0Z" fill="#6F767E"/>
<path fill-rule="evenodd" clip-rule="evenodd" d="M10.833 21C11.3853 21 11.833 21.4477 11.833 22V23C11.833 23.5523 11.3853 24 10.833 24C10.2807 24 9.83301 23.5523 9.83301 23V22C9.83301 21.4477 10.2807 21 10.833 21Z" fill="#6F767E"/>
<circle cx="12.833" cy="12" r="6.9" stroke="#6F767E" stroke-width="2.2"/>
</g>
<defs>
<clipPath id="clip0_14322_17482">
<rect width="24" height="24" fill="white" transform="translate(0.833008)"/>
</clipPath>
</defs>
</svg>
